<?xml version="1.0" encoding="utf-8"?>
<!-- Generator: Adobe Illustrator 22.1.0, SVG Export Plug-In . SVG Version: 6.00 Build 0)  -->
<svg version="1.1" id="Layer_1" xmlns="http://www.w3.org/2000/svg" xmlns:xlink="http://www.w3.org/1999/xlink" x="0px" y="0px"
	 viewBox="0 0 730 400" style="enable-background:new 0 0 730 400;" xml:space="preserve">
<style type="text/css">
	.st0{clip-path:url(#SVGID_2_);fill:#1B432D;}
	.st1{clip-path:url(#SVGID_2_);fill:#691B33;}
	.st2{clip-path:url(#SVGID_2_);fill:#EA5B5D;}
	.st3{clip-path:url(#SVGID_2_);fill:#5B5BA5;}
	.st4{clip-path:url(#SVGID_2_);fill:#FBDE1D;}
	.st5{clip-path:url(#SVGID_2_);fill:#1D1D1B;}
	.st6{opacity:0.45;clip-path:url(#SVGID_2_);fill:#EA5B5D;}
	.st7{clip-path:url(#SVGID_2_);}
	.st8{fill:#EA5B5D;}
	.st9{opacity:0.45;fill:#EA5B5D;}
	.st10{clip-path:url(#SVGID_2_);fill:#F8B133;}
	.st11{opacity:0.45;clip-path:url(#SVGID_2_);fill:#F8B133;}
	.st12{clip-path:url(#SVGID_2_);fill:none;stroke:#EA5B5D;stroke-width:0.7339;stroke-miterlimit:10;}
	.st13{clip-path:url(#SVGID_2_);fill:#F4AFAA;}
	.st14{clip-path:url(#SVGID_2_);fill:none;stroke:#1D1D1B;stroke-width:0.9954;stroke-miterlimit:10;}
	.st15{clip-path:url(#SVGID_2_);fill:#48B276;}
	.st16{clip-path:url(#SVGID_2_);fill:none;stroke:#1D1D1B;stroke-width:1.1137;stroke-miterlimit:10;}
	.st17{fill:#1D1D1B;}
</style>
<g>
	<defs>
		<rect id="SVGID_1_" x="-0.1" y="0.5" width="730.1" height="400"/>
	</defs>
	<clipPath id="SVGID_2_">
		<use xlink:href="#SVGID_1_"  style="overflow:visible;"/>
	</clipPath>
	<rect x="-47.6" y="-77.1" class="st0" width="799" height="588.9"/>
	<polygon class="st1" points="-51.2,56.8 187.4,251.3 270.1,231.6 387.3,294.4 747.8,493.2 -36.2,493.2 	"/>
	<polygon class="st2" points="518.2,-91.7 640.7,98.1 805.7,-35.5 723,-101 	"/>
	<polygon class="st2" points="428.6,138.8 480.5,-81 269.8,-107.3 279.9,-2.3 	"/>
	<polygon class="st2" points="737.6,7.8 569.6,-143.1 445.5,29.2 542.5,70.6 	"/>
	<polygon class="st2" points="97.1,-26.6 -91.9,97 42.6,261.2 107.6,178.2 	"/>
	<path class="st3" d="M154.1-71.2H-44V193l47-46.9l184.4,105.2L339,112.7l75-70.1l71.8,34.4l47-36c88.9-11.1,215,8.3,215,8.3V-71.2
		H154.1z"/>
	<path class="st3" d="M-36.2,354.5c0,0,65.2-54.5,124.2-54.5s101.4,33.3,135.5,33.3s102.4-10,175.4,63s161.1,44.8,178.1,96.9
		c-61.3,0-613.3,0-613.3,0V354.5z"/>
	<polygon class="st4" points="187.8,-38.4 53.5,95.9 137.4,179.9 376.7,180 381.4,155 	"/>
	<path class="st2" d="M495.4,449c0,0-58.7-88-92.4-100.3s-76.1-33.4-91.5-72.6c-12.2-31.2-91.9-29.2-124-24.9
		c23-21,128.8-59.4,174.2-19.9c30.6,26.6,148.9-8.1,190.1,33.1s196,64.1,196,64.1v164.7H577.1L495.4,449z"/>
	<polyline class="st5" points="414.1,42.6 447.5,58.7 444.7,70.6 406.7,49.5 414.1,42.6 	"/>
	<polygon class="st5" points="-26,116.9 3,146.1 -6,155 	"/>
	<polygon class="st5" points="535.1,39.3 511.3,57.5 518.2,60.3 550.5,39.3 	"/>
	<polygon class="st5" points="609.1,49.2 626.7,43.5 612.6,54.6 	"/>
	<polygon class="st2" points="382.5,422.6 393.6,439.4 371,445.4 377.2,430.6 	"/>
	<polygon class="st2" points="360.9,414.3 382.5,422.6 377.2,430.6 355.1,424.4 	"/>
	<polygon class="st2" points="377.2,430.6 371,445.4 348.3,429.9 355.1,424.4 	"/>
	<polygon class="st2" points="360.9,414.3 350.4,421.9 348.3,429.9 355.1,424.4 	"/>
	<polygon class="st6" points="382.5,422.6 393.6,439.4 371,445.4 377.2,430.6 	"/>
	<polygon class="st6" points="377.2,430.6 371,445.4 348.3,429.9 355.1,424.4 	"/>
	<polygon class="st6" points="360.9,414.3 350.4,421.9 348.3,429.9 355.1,424.4 	"/>
	<polygon class="st6" points="377.2,430.6 371,445.4 348.3,429.9 355.1,424.4 	"/>
	<polygon class="st6" points="360.9,414.3 350.4,421.9 348.3,429.9 355.1,424.4 	"/>
	<polygon class="st2" points="185.8,260.9 172.2,298.4 192.7,318.8 209.6,294.7 	"/>
	<polygon class="st2" points="209.6,294.7 192.7,318.8 206.7,398.5 223.3,381.9 	"/>
	<polygon class="st6" points="209.6,294.7 192.7,318.8 206.7,398.5 223.3,381.9 	"/>
	<polygon class="st2" points="172.2,298.4 192.7,318.8 206.7,398.5 175.9,379.5 	"/>
	<polygon class="st2" points="283.3,459 261,470 260.4,440.8 273.4,434.1 	"/>
	<polygon class="st2" points="258.2,409.8 230.2,418.5 260.4,440.8 273.4,434.1 	"/>
	<polygon class="st2" points="261,470 231,444.9 230.2,418.5 260.4,440.8 	"/>
	<polygon class="st6" points="283.3,459 261,470 260.4,440.8 273.4,434.1 	"/>
	<polygon class="st6" points="261,470 231,444.9 230.2,418.5 260.4,440.8 	"/>
	<g class="st7">
		<polygon class="st8" points="78.2,306.5 70.1,322.2 47.3,312.6 56.5,288.4 		"/>
		<polygon class="st8" points="89.7,295.1 89.7,312.6 78.2,306.5 56.5,288.4 		"/>
		<polygon class="st8" points="89.7,331.3 89.7,312.6 78.2,306.5 70.1,322.2 79.9,342.2 		"/>
		<polygon class="st8" points="47.3,312.6 70.1,322.2 79.9,342.2 64.5,342.2 		"/>
		<polygon class="st9" points="78.2,306.5 70.1,322.2 47.3,312.6 56.5,288.4 		"/>
		<polygon class="st9" points="89.7,331.3 89.7,312.6 78.2,306.5 70.1,322.2 79.9,342.2 		"/>
		<polygon class="st9" points="47.3,312.6 70.1,322.2 79.9,342.2 64.5,342.2 		"/>
		<polygon class="st9" points="78.2,306.5 70.1,322.2 47.3,312.6 56.5,288.4 		"/>
		<polygon class="st9" points="47.3,312.6 70.1,322.2 79.9,342.2 64.5,342.2 		"/>
	</g>
	<polygon class="st2" points="307.1,305.6 318.1,343.5 303.1,353.7 290.3,341 	"/>
	<polygon class="st2" points="318.1,377.9 297.9,392.7 303.1,353.7 318.1,343.5 	"/>
	<polygon class="st2" points="290.3,341 282,368.4 297.9,392.7 303.1,353.7 	"/>
	<polygon class="st6" points="318.1,377.9 297.9,392.7 303.1,353.7 318.1,343.5 	"/>
	<polygon class="st6" points="290.3,341 282,368.4 297.9,392.7 303.1,353.7 	"/>
	<polygon class="st6" points="290.3,341 282,368.4 297.9,392.7 303.1,353.7 	"/>
	<polygon class="st2" points="66.1,421.9 85.6,421.9 93.1,414.5 79.3,403.7 68.3,411.3 	"/>
	<polygon class="st2" points="66.1,441.5 66.1,421.9 85.6,421.9 101.1,437.4 	"/>
	<polygon class="st2" points="113.4,427.7 93.1,414.5 85.6,421.9 101.1,437.4 	"/>
	<polygon class="st6" points="66.1,441.5 66.1,421.9 85.6,421.9 101.1,437.4 	"/>
	<polygon class="st6" points="66.1,441.5 66.1,421.9 85.6,421.9 101.1,437.4 	"/>
	<polygon class="st6" points="113.4,427.7 93.1,414.5 85.6,421.9 101.1,437.4 	"/>
	<polygon class="st10" points="197.6,117.4 193.4,140.2 176.4,113.4 182.4,94.6 	"/>
	<polygon class="st10" points="197.6,74.6 182.4,94.6 197.6,117.4 203.8,85.8 	"/>
	<polygon class="st10" points="243.8,67.2 232.2,37.2 243.8,23.6 246.9,37.2 	"/>
	<polygon class="st5" points="414.1,42.6 445.7,11 422.5,46.7 	"/>
	<polygon class="st5" points="532.8,41.1 586.5,-0.1 550.5,39.3 	"/>
	<polygon class="st10" points="232.2,6 232.2,37.2 243.8,23.6 244,17.8 	"/>
	<polygon class="st11" points="232.2,6 232.2,37.2 243.8,23.6 244,17.8 	"/>
	<polygon class="st2" points="246.9,-94.4 232.2,-94.4 232.2,6 244,17.8 	"/>
	<polygon class="st4" points="246.9,-94.4 244,17.8 248,21.8 256.7,-98.1 	"/>
	<polygon class="st2" points="246.9,-94.4 244,17.8 248,21.8 256.7,-98.1 	"/>
	<polygon class="st6" points="246.9,-94.4 232.2,-94.4 232.2,6 244,17.8 	"/>
	<polygon class="st6" points="246.9,-94.4 232.2,-94.4 232.2,6 244,17.8 	"/>
	<polygon class="st6" points="246.9,-94.4 244,17.8 248,21.8 256.7,-98.1 	"/>
	<polygon class="st10" points="243.8,23.6 246.9,37.2 248,21.8 244,17.8 	"/>
	<path class="st12" d="M208.8-17.3"/>
	<polygon class="st10" points="176.4,-27 176.4,113.4 182.4,94.6 185.8,-36.3 	"/>
	<polygon class="st11" points="197.6,117.4 193.4,140.2 176.4,113.4 182.4,94.6 	"/>
	<polygon class="st11" points="176.4,-27 176.4,113.4 182.4,94.6 185.8,-36.3 	"/>
	<polygon class="st11" points="197.6,117.4 193.4,140.2 176.4,113.4 182.4,94.6 	"/>
	<polygon class="st11" points="176.4,-27 176.4,113.4 182.4,94.6 185.8,-36.3 	"/>
	<polygon class="st10" points="187.8,-38.4 185.8,-36.3 182.4,94.6 197.6,74.6 197.6,-28.5 	"/>
	<polygon class="st11" points="187.8,-38.4 185.8,-36.3 182.4,94.6 197.6,74.6 197.6,-28.5 	"/>
	<polygon class="st2" points="203.8,-22.3 203.8,-86 197.6,-82.8 197.6,-28.5 	"/>
	<polygon class="st10" points="197.6,-28.5 197.6,74.6 203.8,85.8 203.8,-22.3 	"/>
	<polygon class="st10" points="133.7,49.5 143.8,62.7 149.3,53.5 140.7,37.2 	"/>
	<polygon class="st10" points="140.5,8.9 133.7,15.8 133.7,49.5 140.7,37.2 	"/>
	<polygon class="st11" points="140.5,8.9 133.7,15.8 133.7,49.5 140.7,37.2 	"/>
	<polygon class="st2" points="139.2,-139.5 133.7,-139.5 133.7,15.8 140.5,8.9 	"/>
	<polygon class="st10" points="140.5,8.9 140.7,37.2 149.3,53.5 149.3,0.1 	"/>
	<polygon class="st2" points="149.3,0.1 149.3,-139.5 139.2,-139.5 140.5,8.9 	"/>
	<polygon class="st6" points="139.2,-139.5 133.7,-139.5 133.7,15.8 140.5,8.9 	"/>
	<polygon class="st6" points="139.2,-139.5 133.7,-139.5 133.7,15.8 140.5,8.9 	"/>
	<polygon class="st6" points="149.3,0.1 149.3,-139.5 139.2,-139.5 140.5,8.9 	"/>
	<polygon class="st6" points="172.2,298.4 192.7,318.8 206.7,398.5 175.9,379.5 	"/>
	<polygon class="st6" points="172.2,298.4 192.7,318.8 206.7,398.5 175.9,379.5 	"/>
	<polygon class="st2" points="282.8,-13.7 280.2,-29.6 282.8,-45.8 288.7,-29.8 	"/>
	<polygon class="st2" points="116.9,-7 111,-38.3 116.9,-58.8 120.4,-32.9 	"/>
	<polygon class="st5" points="-6,155 87.3,204.1 93.6,197.8 3,146.1 	"/>
	<polygon class="st1" points="514.9,154.6 467.2,166.9 445.3,207.5 420.1,182.4 406.1,196.4 446.2,236.5 470.5,207.5 468.4,253.6 
		520,253.6 520,208.4 538.8,208.4 	"/>
	<polygon class="st3" points="468.4,253.6 451.9,303.8 478.3,368.4 500.1,368.4 479.2,306.9 498,279.6 520,365.6 538.8,365.6 
		520,253.6 	"/>
	<polygon class="st5" points="495.4,368.4 502.7,387.5 457.2,387.5 481.7,375.5 481.7,368.4 	"/>
	<polygon class="st5" points="523.8,365.6 527.7,377.9 548.1,377.9 545.4,371.8 538.8,369.9 535.9,365.6 	"/>
	<polygon class="st5" points="470.5,207.5 477.1,198.4 470,217.2 	"/>
	<polygon class="st5" points="520,208.4 520,198.4 524.4,208.4 	"/>
	<polygon class="st5" points="498,279.6 507.2,264.5 499.4,285.3 	"/>
	<polygon class="st3" points="391.6,165.3 381.4,155 376.7,180 390,174.1 427.5,181.1 429.1,172.3 	"/>
	<path class="st13" d="M409.6,193l-5.9-7.4c0,0-5.9-9.6-4.5-18.8c1.4-9.2,19.7-9.1,18.4,3.4c-0.9,7.9,0,12.6,0,12.6l1,1.3L409.6,193
		z"/>
	<polygon class="st13" points="481.8,166.9 482.8,155.9 472.9,152.3 477.8,113.3 511.3,132.7 503,161.3 	"/>
	<circle class="st13" cx="475" cy="135.5" r="4.5"/>
	<path class="st5" d="M492.7,135.5c0,0,7-4.1,9.5,0.7c2.6,4.9-7.2,7.9-7.2,7.9s4.3,12.7-0.7,26.1c-5.5,14.8,2.6,24.1,2.6,24.1h36.7
		c0,0-9.9-12.3-5.2-21.7c5.2-10.4,1.5-21.4-3.7-26.6c-8-8-9.2-11.1-9.2-11.1l-29.8-20.2C485.8,114.8,492.7,130.1,492.7,135.5z"/>
	<path class="st1" d="M507,102.1c-11.5-6.7-26.3-2.7-33,8.8l41.8,24.1C522.5,123.5,518.6,108.7,507,102.1z"/>
	<circle class="st4" cx="472.8" cy="105" r="4.4"/>
	<line class="st14" x1="464.2" y1="105.3" x2="515.9" y2="135"/>
	<circle class="st5" cx="482.6" cy="126.6" r="1.6"/>
	<path class="st13" d="M516.6,266.2l-8.8,24.7c-1.6,4.4-0.2,9.4,3.5,12.3l2.4,1.9c4.2,3.3,10.3,3,14.1-0.8l0,0
		c0.2-0.2,0.5-0.5,0.7-0.7c3.8-4.3,4.8-10.5,2.8-15.9l-2.5-6.9l5.3-14.5H516.6z"/>
	<path class="st5" d="M589.4,417l1.6,4.9c1.3,4.1-1.7,8.3-6,8.3h-14.2c-3.2,0-6.1-1.8-7.5-4.6l-11.4-22.1c0,0-6.2-10.8,2.2-10.8
		c13.8,0,13.1,7.9,13.1,7.9L589.4,417z"/>
	<path class="st5" d="M625.4,453.8v7.4c0,4.6-3.7,8.2-8.2,8.2h-12c-3.7,0-7-2-8.7-5.3l-9.9-19.3c0,0-6-10.7,4.7-10.7
		c8.9,0,14.2,0,14.2,0L625.4,453.8z"/>
	<path class="st1" d="M614.1,79.9c-12.9-7.5-29.4-3-36.9,9.9l46.8,27C631.5,103.9,627.1,87.4,614.1,79.9z"/>
	<circle class="st4" cx="575.8" cy="83.2" r="4.9"/>
	<polygon class="st15" points="637.4,147.2 551.6,168.8 509.9,270.6 539,270.6 565,207.7 556.5,279.3 630.6,279.3 	"/>
	<polyline class="st1" points="556.5,279.3 536.1,340.4 568.9,417 595.9,417 572,344.3 594,322.2 599.6,453.8 630.6,453.8 
		630.6,279.3 	"/>
	<circle class="st5" cx="522.9" cy="291.3" r="5.9"/>
	<polygon class="st5" points="622.9,140.7 624,116.8 605.2,105.8 605.2,136.3 	"/>
	<path class="st13" d="M587.5,161.5l35.4-8.7v-12.1l-17.7-4.4v-5.8c0,0,10.4-3.6,10.4-8.7c0-7.2-10.4-2.9-10.4-2.9v-13.1l-22.5-12.7
		l-2.4,18.9c0,0-10.1-3.7-11.1,2.4c-1.3,7.8,9.1,6.4,9.1,6.4l-2.3,25l13.6-3.2L587.5,161.5z"/>
	<circle class="st5" cx="592.3" cy="110.6" r="1.6"/>
	<line class="st16" x1="566.2" y1="83.6" x2="624" y2="116.8"/>
	<line class="st16" x1="580.7" y1="131.5" x2="592.3" y2="127.3"/>
	<polygon class="st5" points="594,322.2 608.8,307.4 594.4,330.2 	"/>
	<polygon class="st5" points="565,207.7 575.4,186.4 563.8,218.1 	"/>
	<path class="st15" d="M637.4,147.2l25.9,74.1c0.9,2.8-1.2,5.7-4.2,5.7H624L637.4,147.2z"/>
	<polygon class="st5" points="633.1,227 634.6,197.7 637.4,227 	"/>
	<g class="st7">
		<polygon class="st17" points="732.9,131.1 649.2,150.8 603.9,389.3 642.4,389.3 680.7,241.8 672.8,387.4 676.1,490.2 786.1,490.2 
			786.1,109.9 		"/>
		<path class="st17" d="M610.8,389.3l-4,18.9c0,0-2.9,21.7,15.4,21.7c12.4,0,16.4-11.3,17.7-18.6c0.6-3.3,0.4-6.6-0.4-9.9l-3-12.1
			H610.8z"/>
	</g>
</g>
</svg>
