<?xml version="1.0" encoding="utf-8"?>
<!-- Generator: Adobe Illustrator 22.1.0, SVG Export Plug-In . SVG Version: 6.00 Build 0)  -->
<svg version="1.1" id="Layer_1" xmlns="http://www.w3.org/2000/svg" xmlns:xlink="http://www.w3.org/1999/xlink" x="0px" y="0px"
	 viewBox="0 0 1000 500" style="enable-background:new 0 0 1000 500;" xml:space="preserve">
<style type="text/css">
	.st0{clip-path:url(#SVGID_2_);fill:#1B432D;}
	.st1{clip-path:url(#SVGID_2_);fill:#691B33;}
	.st2{clip-path:url(#SVGID_2_);fill:#EA5B5D;}
	.st3{clip-path:url(#SVGID_2_);fill:#5B5BA5;}
	.st4{clip-path:url(#SVGID_2_);fill:#FBDE1D;}
	.st5{clip-path:url(#SVGID_2_);fill:#1D1D1B;}
	.st6{opacity:0.45;clip-path:url(#SVGID_2_);fill:#EA5B5D;}
	.st7{clip-path:url(#SVGID_2_);}
	.st8{fill:#EA5B5D;}
	.st9{opacity:0.45;fill:#EA5B5D;}
	.st10{clip-path:url(#SVGID_2_);fill:#F8B133;}
	.st11{opacity:0.45;clip-path:url(#SVGID_2_);fill:#F8B133;}
	.st12{clip-path:url(#SVGID_2_);fill:none;stroke:#EA5B5D;stroke-width:0.9526;stroke-miterlimit:10;}
	.st13{clip-path:url(#SVGID_2_);fill:#F4AFAA;}
	.st14{clip-path:url(#SVGID_2_);fill:none;stroke:#1D1D1B;stroke-width:1.292;stroke-miterlimit:10;}
	.st15{clip-path:url(#SVGID_2_);fill:#48B276;}
	.st16{clip-path:url(#SVGID_2_);fill:none;stroke:#1D1D1B;stroke-width:1.4456;stroke-miterlimit:10;}
	.st17{fill:#1D1D1B;}
</style>
<g>
	<defs>
		<rect id="SVGID_1_" x="-8.5" y="-8.5" width="1017" height="517"/>
	</defs>
	<clipPath id="SVGID_2_">
		<use xlink:href="#SVGID_1_"  style="overflow:visible;"/>
	</clipPath>
	<rect x="-35.2" y="-121.5" class="st0" width="1037" height="764.4"/>
	<polygon class="st1" points="-39.9,52.3 269.8,304.7 377.2,279.1 529.2,360.8 997.1,618.8 -20.4,618.8 	"/>
	<polygon class="st2" points="699.2,-140.4 858.1,105.9 1072.3,-67.5 965,-152.5 	"/>
	<polygon class="st2" points="582.9,158.8 650.2,-126.5 376.8,-160.7 389.9,-24.4 	"/>
	<polygon class="st2" points="983.9,-11.3 765.8,-207.1 604.8,16.5 730.7,70.3 	"/>
	<polygon class="st2" points="152.6,-55.9 -92.8,104.4 81.9,317.6 166.2,209.8 	"/>
	<path class="st3" d="M226.6-113.9H-30.6V229l61-60.9l239.4,136.5l196.8-179.8L564,33.9l93.1,44.7l61-46.7
		c115.4-14.4,279,10.8,279,10.8v-156.6H226.6z"/>
	<path class="st3" d="M-20.4,438.8c0,0,84.7-70.7,161.2-70.7s131.6,43.2,175.9,43.2s132.9-13,227.7,81.8s209.1,58.1,231.2,125.8
		c-79.6,0-796,0-796,0V438.8z"/>
	<polygon class="st4" points="270.3,-71.2 96,103.1 204.9,212 515.5,212.3 521.6,179.8 	"/>
	<path class="st2" d="M669.5,561.4c0,0-76.2-114.2-120-130.2c-43.7-16-98.8-43.3-118.7-94.2c-15.9-40.5-119.3-37.9-161-32.3
		c29.9-27.3,167.2-77.1,226.2-25.8c39.7,34.6,193.3-10.5,246.7,43s254.4,83.2,254.4,83.2v213.7H775.6L669.5,561.4z"/>
	<polyline class="st5" points="564,33.9 607.4,54.8 603.7,70.3 554.4,42.9 564,33.9 	"/>
	<polygon class="st5" points="-7.2,130.3 30.4,168.2 18.8,179.8 	"/>
	<polygon class="st5" points="721.1,29.6 690.2,53.3 699.2,56.8 741.1,29.6 	"/>
	<polygon class="st5" points="817.2,42.4 840,35.1 821.7,49.5 	"/>
	<polygon class="st2" points="523.1,527.1 537.4,548.9 508.1,556.7 516.1,537.4 	"/>
	<polygon class="st2" points="495,516.3 523.1,527.1 516.1,537.4 487.5,529.4 	"/>
	<polygon class="st2" points="516.1,537.4 508.1,556.7 478.6,536.6 487.5,529.4 	"/>
	<polygon class="st2" points="495,516.3 481.3,526.1 478.6,536.6 487.5,529.4 	"/>
	<polygon class="st6" points="523.1,527.1 537.4,548.9 508.1,556.7 516.1,537.4 	"/>
	<polygon class="st6" points="516.1,537.4 508.1,556.7 478.6,536.6 487.5,529.4 	"/>
	<polygon class="st6" points="495,516.3 481.3,526.1 478.6,536.6 487.5,529.4 	"/>
	<polygon class="st6" points="516.1,537.4 508.1,556.7 478.6,536.6 487.5,529.4 	"/>
	<polygon class="st6" points="495,516.3 481.3,526.1 478.6,536.6 487.5,529.4 	"/>
	<polygon class="st2" points="267.7,317.2 250.1,365.8 276.6,392.3 298.6,361 	"/>
	<polygon class="st2" points="298.6,361 276.6,392.3 294.8,495.9 316.3,474.3 	"/>
	<polygon class="st6" points="298.6,361 276.6,392.3 294.8,495.9 316.3,474.3 	"/>
	<polygon class="st2" points="250.1,365.8 276.6,392.3 294.8,495.9 254.9,471.1 	"/>
	<polygon class="st2" points="394.3,574.4 365.3,588.6 364.5,550.7 381.4,542 	"/>
	<polygon class="st2" points="361.6,510.4 325.3,521.7 364.5,550.7 381.4,542 	"/>
	<polygon class="st2" points="365.3,588.6 326.4,556 325.3,521.7 364.5,550.7 	"/>
	<polygon class="st6" points="394.3,574.4 365.3,588.6 364.5,550.7 381.4,542 	"/>
	<polygon class="st6" points="365.3,588.6 326.4,556 325.3,521.7 364.5,550.7 	"/>
	<g class="st7">
		<polygon class="st8" points="128,376.4 117.5,396.8 88,384.4 99.9,353 		"/>
		<polygon class="st8" points="143,361.6 143,384.4 128,376.4 99.9,353 		"/>
		<polygon class="st8" points="143,408.6 143,384.4 128,376.4 117.5,396.8 130.2,422.8 		"/>
		<polygon class="st8" points="88,384.4 117.5,396.8 130.2,422.8 110.3,422.8 		"/>
		<polygon class="st9" points="128,376.4 117.5,396.8 88,384.4 99.9,353 		"/>
		<polygon class="st9" points="143,408.6 143,384.4 128,376.4 117.5,396.8 130.2,422.8 		"/>
		<polygon class="st9" points="88,384.4 117.5,396.8 130.2,422.8 110.3,422.8 		"/>
		<polygon class="st9" points="128,376.4 117.5,396.8 88,384.4 99.9,353 		"/>
		<polygon class="st9" points="88,384.4 117.5,396.8 130.2,422.8 110.3,422.8 		"/>
	</g>
	<polygon class="st2" points="425.2,375.3 439.4,424.5 419.9,437.7 403.3,421.1 	"/>
	<polygon class="st2" points="439.4,469.1 413.2,488.3 419.9,437.7 439.4,424.5 	"/>
	<polygon class="st2" points="403.3,421.1 392.6,456.7 413.2,488.3 419.9,437.7 	"/>
	<polygon class="st6" points="439.4,469.1 413.2,488.3 419.9,437.7 439.4,424.5 	"/>
	<polygon class="st6" points="403.3,421.1 392.6,456.7 413.2,488.3 419.9,437.7 	"/>
	<polygon class="st6" points="403.3,421.1 392.6,456.7 413.2,488.3 419.9,437.7 	"/>
	<polygon class="st2" points="112.3,526.2 137.7,526.2 147.4,516.6 129.4,502.6 115.3,512.5 	"/>
	<polygon class="st2" points="112.3,551.6 112.3,526.2 137.7,526.2 157.8,546.3 	"/>
	<polygon class="st2" points="173.7,533.7 147.4,516.6 137.7,526.2 157.8,546.3 	"/>
	<polygon class="st6" points="112.3,551.6 112.3,526.2 137.7,526.2 157.8,546.3 	"/>
	<polygon class="st6" points="112.3,551.6 112.3,526.2 137.7,526.2 157.8,546.3 	"/>
	<polygon class="st6" points="173.7,533.7 147.4,516.6 137.7,526.2 157.8,546.3 	"/>
	<polygon class="st10" points="283.1,131 277.6,160.6 255.5,125.7 263.3,101.3 	"/>
	<polygon class="st10" points="283.1,75.4 263.3,101.3 283.1,131 291.1,90 	"/>
	<polygon class="st10" points="343,65.8 327.9,26.9 343,9.2 347,26.9 	"/>
	<polygon class="st5" points="564,33.9 605.1,-7.2 574.9,39.2 	"/>
	<polygon class="st5" points="718.1,31.9 787.9,-21.5 741.1,29.6 	"/>
	<polygon class="st10" points="327.9,-13.7 327.9,26.9 343,9.2 343.2,1.6 	"/>
	<polygon class="st11" points="327.9,-13.7 327.9,26.9 343,9.2 343.2,1.6 	"/>
	<polygon class="st2" points="347,-144 327.9,-144 327.9,-13.7 343.2,1.6 	"/>
	<polygon class="st4" points="347,-144 343.2,1.6 348.5,6.9 359.8,-148.7 	"/>
	<polygon class="st2" points="347,-144 343.2,1.6 348.5,6.9 359.8,-148.7 	"/>
	<polygon class="st6" points="347,-144 327.9,-144 327.9,-13.7 343.2,1.6 	"/>
	<polygon class="st6" points="347,-144 327.9,-144 327.9,-13.7 343.2,1.6 	"/>
	<polygon class="st6" points="347,-144 343.2,1.6 348.5,6.9 359.8,-148.7 	"/>
	<polygon class="st10" points="343,9.2 347,26.9 348.5,6.9 343.2,1.6 	"/>
	<path class="st12" d="M297.6-43.9"/>
	<polygon class="st10" points="255.5,-56.5 255.5,125.7 263.3,101.3 267.7,-68.6 	"/>
	<polygon class="st11" points="283.1,131 277.6,160.6 255.5,125.7 263.3,101.3 	"/>
	<polygon class="st11" points="255.5,-56.5 255.5,125.7 263.3,101.3 267.7,-68.6 	"/>
	<polygon class="st11" points="283.1,131 277.6,160.6 255.5,125.7 263.3,101.3 	"/>
	<polygon class="st11" points="255.5,-56.5 255.5,125.7 263.3,101.3 267.7,-68.6 	"/>
	<polygon class="st10" points="270.3,-71.2 267.7,-68.6 263.3,101.3 283.1,75.4 283.1,-58.4 	"/>
	<polygon class="st11" points="270.3,-71.2 267.7,-68.6 263.3,101.3 283.1,75.4 283.1,-58.4 	"/>
	<polygon class="st2" points="291.1,-50.4 291.1,-133.1 283.1,-128.9 283.1,-58.4 	"/>
	<polygon class="st10" points="283.1,-58.4 283.1,75.4 291.1,90 291.1,-50.4 	"/>
	<polygon class="st10" points="200,42.9 213.2,60 220.4,48.1 209.2,26.9 	"/>
	<polygon class="st10" points="208.9,-9.8 200,-1 200,42.9 209.2,26.9 	"/>
	<polygon class="st11" points="208.9,-9.8 200,-1 200,42.9 209.2,26.9 	"/>
	<polygon class="st2" points="207.2,-202.4 200,-202.4 200,-1 208.9,-9.8 	"/>
	<polygon class="st10" points="208.9,-9.8 209.2,26.9 220.4,48.1 220.4,-21.3 	"/>
	<polygon class="st2" points="220.4,-21.3 220.4,-202.4 207.2,-202.4 208.9,-9.8 	"/>
	<polygon class="st6" points="207.2,-202.4 200,-202.4 200,-1 208.9,-9.8 	"/>
	<polygon class="st6" points="207.2,-202.4 200,-202.4 200,-1 208.9,-9.8 	"/>
	<polygon class="st6" points="220.4,-21.3 220.4,-202.4 207.2,-202.4 208.9,-9.8 	"/>
	<polygon class="st6" points="250.1,365.8 276.6,392.3 294.8,495.9 254.9,471.1 	"/>
	<polygon class="st6" points="250.1,365.8 276.6,392.3 294.8,495.9 254.9,471.1 	"/>
	<polygon class="st2" points="393.6,-39.2 390.2,-59.8 393.6,-80.9 401.3,-60.1 	"/>
	<polygon class="st2" points="178.3,-30.5 170.6,-71.1 178.3,-97.7 182.8,-64.1 	"/>
	<polygon class="st5" points="18.8,179.8 139.9,243.5 148.1,235.3 30.4,168.2 	"/>
	<polygon class="st1" points="694.8,179.2 632.9,195.3 604.5,247.9 571.9,215.3 553.6,233.6 605.7,285.6 637.2,247.9 634.5,307.7 
		701.5,307.7 701.5,249.1 725.9,249.1 	"/>
	<polygon class="st3" points="634.5,307.7 613.1,373 647.4,456.7 675.7,456.7 648.6,376.9 672.9,341.4 701.5,453.1 725.9,453.1 
		701.5,307.7 	"/>
	<polygon class="st5" points="669.5,456.7 679,481.5 620,481.5 651.7,466 651.7,456.7 	"/>
	<polygon class="st5" points="706.4,453.1 711.5,469.1 737.9,469.1 734.5,461.1 725.9,458.7 722.2,453.1 	"/>
	<polygon class="st5" points="637.2,247.9 645.8,236.1 636.6,260.5 	"/>
	<polygon class="st5" points="701.5,249.1 701.5,236.1 707.2,249.1 	"/>
	<polygon class="st5" points="672.9,341.4 684.9,321.9 674.8,348.9 	"/>
	<polygon class="st3" points="534.9,193.2 521.6,179.8 515.5,212.3 532.8,204.5 581.4,213.6 583.5,202.3 	"/>
	<path class="st13" d="M558.1,229l-7.7-9.6c0,0-7.6-12.5-5.8-24.4c1.8-11.9,25.6-11.8,23.8,4.4c-1.1,10.3,0,16.4,0,16.4l1.3,1.6
		L558.1,229z"/>
	<polygon class="st13" points="651.9,195.3 653.1,180.9 640.4,176.3 646.8,125.7 690.2,150.8 679.5,187.9 	"/>
	<circle class="st13" cx="643.1" cy="154.5" r="5.9"/>
	<path class="st5" d="M666.1,154.5c0,0,9.1-5.3,12.4,0.9c3.4,6.4-9.4,10.2-9.4,10.2s5.6,16.5-0.8,33.9c-7.1,19.1,3.4,31.3,3.4,31.3
		h47.7c0,0-12.8-16-6.8-28.1c6.8-13.6,2-27.7-4.8-34.5c-10.3-10.3-11.9-14.3-11.9-14.3l-38.7-26.2
		C657.1,127.6,666.1,147.4,666.1,154.5z"/>
	<path class="st1" d="M684.7,111c-15-8.7-34.1-3.5-42.8,11.5l54.3,31.3C704.8,138.9,699.6,119.7,684.7,111z"/>
	<circle class="st4" cx="640.2" cy="114.8" r="5.7"/>
	<line class="st14" x1="629" y1="115.3" x2="696.1" y2="153.8"/>
	<circle class="st5" cx="653" cy="142.9" r="2"/>
	<path class="st13" d="M697.1,324.1l-11.4,32c-2.1,5.8-0.2,12.2,4.6,16l3.1,2.4c5.5,4.3,13.3,3.9,18.3-1h0c0.3-0.3,0.6-0.6,0.9-0.9
		c5-5.6,6.2-13.6,3.7-20.7l-3.3-9l6.9-18.8H697.1z"/>
	<path class="st5" d="M791.6,519.8l2.1,6.3c1.7,5.3-2.2,10.7-7.8,10.7h-18.4c-4.1,0-7.9-2.3-9.8-6l-14.9-28.7c0,0-8.1-14,2.8-14
		c17.9,0,17,10.3,17,10.3L791.6,519.8z"/>
	<path class="st5" d="M838.3,567.6v9.6c0,5.9-4.8,10.7-10.7,10.7h-15.5c-4.7,0-9.1-2.7-11.3-6.9l-12.8-25c0,0-7.8-13.8,6.1-13.8
		c11.6,0,18.5,0,18.5,0L838.3,567.6z"/>
	<path class="st1" d="M823.7,82.3c-16.8-9.7-38.2-3.9-47.9,12.8l60.7,35.1C846.2,113.4,840.4,92,823.7,82.3z"/>
	<circle class="st4" cx="773.9" cy="86.6" r="6.4"/>
	<polygon class="st15" points="853.9,169.6 742.5,197.7 688.4,329.8 726.2,329.8 759.9,248.1 748.8,341.1 845.1,341.1 	"/>
	<polyline class="st1" points="748.8,341.1 722.4,420.4 765,519.8 800,519.8 768.9,425.4 797.6,396.8 804.8,567.6 845.1,567.6 
		845.1,341.1 	"/>
	<circle class="st5" cx="705.3" cy="356.7" r="7.6"/>
	<polygon class="st5" points="835,161.2 836.5,130.2 812,115.9 812,155.5 	"/>
	<path class="st13" d="M789.1,188.3l45.9-11.3v-15.7l-23-5.7V148c0,0,13.5-4.7,13.5-11.3c0-9.4-13.5-3.8-13.5-3.8v-17l-29.3-16.5
		l-3.1,24.5c0,0-13.1-4.8-14.5,3.1c-1.7,10.1,11.8,8.3,11.8,8.3l-3,32.4l17.6-4.1L789.1,188.3z"/>
	<circle class="st5" cx="795.3" cy="122.1" r="2.1"/>
	<line class="st16" x1="761.4" y1="87" x2="836.5" y2="130.2"/>
	<line class="st16" x1="780.2" y1="149.2" x2="795.3" y2="143.8"/>
	<polygon class="st5" points="797.6,396.8 816.8,377.6 798,407.2 	"/>
	<polygon class="st5" points="759.9,248.1 773.3,220.5 758.3,261.6 	"/>
	<path class="st15" d="M853.9,169.6l33.6,96.2c1.1,3.6-1.6,7.4-5.4,7.4h-45.5L853.9,169.6z"/>
	<polygon class="st5" points="848.3,273.2 850.2,235.2 853.9,273.2 	"/>
	<g class="st7">
		<polygon class="st17" points="977.9,148.8 869.2,174.3 810.3,483.8 860.3,483.8 910.1,292.5 899.8,481.4 904.1,614.8 
			1046.8,614.8 1046.8,121.3 		"/>
		<path class="st17" d="M819.3,483.9l-5.2,24.5c0,0-3.7,28.2,20,28.2c16.1,0,21.3-14.7,22.9-24.1c0.7-4.2,0.6-8.6-0.5-12.8
			l-3.9-15.7H819.3z"/>
	</g>
</g>
</svg>
