<?xml version="1.0" encoding="utf-8"?>
<!-- Generator: Adobe Illustrator 22.1.0, SVG Export Plug-In . SVG Version: 6.00 Build 0)  -->
<svg version="1.1" id="Layer_1" xmlns="http://www.w3.org/2000/svg" xmlns:xlink="http://www.w3.org/1999/xlink" x="0px" y="0px"
	 viewBox="0 0 211.9 332.1" style="enable-background:new 0 0 211.9 332.1;" xml:space="preserve">
<style type="text/css">
	.st0{fill:#6CC191;}
	.st1{clip-path:url(#SVGID_2_);fill:#368559;}
	.st2{clip-path:url(#SVGID_2_);fill:#1B432D;}
	.st3{clip-path:url(#SVGID_2_);fill:#FBDE1D;}
	.st4{clip-path:url(#SVGID_2_);}
	.st5{fill:#FBDE1D;}
	.st6{fill:#F8B133;}
	.st7{opacity:0.45;fill:#F8B133;}
	.st8{fill:none;stroke:#1D1D1B;stroke-width:0.9063;stroke-linecap:round;stroke-linejoin:round;stroke-miterlimit:10;}
	.st9{fill:#48B276;}
	.st10{fill:#F4AFAA;}
	.st11{fill:#EA5B5D;}
	.st12{fill:#5B5BA5;}
	.st13{fill:#1D1D1B;}
	.st14{fill:#691B33;}
	.st15{fill:none;stroke:#1D1D1B;stroke-width:0.9063;stroke-linecap:round;stroke-miterlimit:10;}
	.st16{fill:none;stroke:#FFFFFF;stroke-width:1.3595;stroke-linecap:round;stroke-miterlimit:10;}
</style>
<path class="st0" d="M166.9,125.5c0,4.6,8.3,15.5,19.2,9.2s17.4,0.7,20.8-11.8c3.2-12-8.7-7.5-7.9-15c0.9-7.4-6.3-20.5-15.4-13.9
	c-6.4,4.6-16.1-1.7-13.9,8.1s-7.7,4-9.6,8.9C158.1,116.3,166.9,120.9,166.9,125.5z"/>
<g>
	<defs>
		<polygon id="SVGID_1_" points="77.4,6.9 0,84.3 0,332.1 201.2,130.8 		"/>
	</defs>
	<clipPath id="SVGID_2_">
		<use xlink:href="#SVGID_1_"  style="overflow:visible;"/>
	</clipPath>
	<rect x="4.3" y="-28.1" class="st1" width="167" height="106.2"/>
	<rect x="-41.8" y="74.1" class="st2" width="249.2" height="268.6"/>
	<path class="st1" d="M96.5,93.2c-14.5,2.1-32-12.7-58.4-4.7s-29.7,86.3,0.1,116S70.6,246,70.6,246H-60.8V45.3c0,0,3.6-19,26.7-19
		s17.7,16.3,32.6,16.3s15-12.7,33.5-12.7s27.4,26.3,70.1,26.3s30.5-16.3,54.3-16.3s14.4,19.4,39.1,19.4s40.9-13.4,46.1,9.1
		c4.3,18.6-15.1,20.2-27.8,20.2s-20.4,11.2-32.6,11.2s-25.8-21.6-45.8-21.6S106.8,91.6,96.5,93.2z"/>
	<polygon class="st3" points="150.8,137.9 147.8,137.1 142.3,141 144.9,144.2 149,143.5 	"/>
	<polygon class="st3" points="21.1,140 22,144.5 22,146.9 30.6,142.6 26.5,140 	"/>
	<polygon class="st3" points="156.9,116.1 154.1,118.9 146.6,115.4 148.6,110.7 155.4,109.5 	"/>
	<g class="st4">
		<polygon class="st5" points="26.7,255.8 25.4,245.8 35.2,240.7 40.9,243 		"/>
		<polygon class="st6" points="29.9,261.4 26.7,255.8 22.1,257 		"/>
		<polygon class="st5" points="40.9,243 40.9,251.6 29.9,261.4 26.7,255.8 		"/>
		<polygon class="st7" points="40.9,243 40.9,251.6 29.9,261.4 26.7,255.8 		"/>
		<polygon class="st6" points="25.4,245.8 22.1,257 26.7,255.8 		"/>
	</g>
	<g class="st4">
		<g>
			<polygon class="st5" points="63.9,223.1 74.4,236.9 57,242.2 44.5,232.7 			"/>
			<polygon class="st5" points="78.9,248.5 74.4,236.9 57,242.2 50.3,255.1 			"/>
			<polygon class="st7" points="78.9,248.5 74.4,236.9 57,242.2 50.3,255.1 			"/>
			<polygon class="st6" points="44.5,232.7 57,242.2 50.3,255.1 39,242.2 			"/>
		</g>
		<polyline class="st8" points="44.5,232.7 57,242.2 74.4,236.9 		"/>
		<line class="st8" x1="57" y1="242.2" x2="50.3" y2="255.1"/>
	</g>
</g>
<path class="st9" d="M43.2,50.3c-4.6,1.8-12.5-10-19-6.8s1.1,14.7-4.1,16.3c-5.2,1.6-16.2,2.9-19.2,14.5s14.7,16.7,17.4,22
	s-0.1,16.3,3.6,17.7c10.8,4.1,16.6-21.4,26.6-21.4s37.7,5.3,40.4-5.8C91.7,75.7,81,61.4,71,55.1s-8.4-21.5-15.2-21.5
	S49.5,47.8,43.2,50.3z"/>
<g>
	<path class="st10" d="M59,151.5l-5.1,8.8v10.5l-5,7.1c0,0-3.8-14.9-3.4-19.9c0.3-3.8,4.9-14.5,4.9-14.5L59,151.5z"/>
	<polygon class="st11" points="99.1,121.5 63.1,121.5 47.9,141.3 59,151.5 62.1,148.4 64.1,159.9 61.4,165.4 61.1,177.9 99.3,178.8 
		98.2,165.4 94.9,158.7 100.2,144.8 104.1,148.8 113.2,136.8 	"/>
	<path class="st12" d="M98.2,165.4c0,0,9.5,10.1,7.9,20.7c-1.7,10.6-12.7,20.7-25.8,20.7s-31.4-11.5-32.3-23s13.4-18.4,13.4-18.4
		s7.2,6.2,18.9,6.2C93.4,171.6,98.2,165.4,98.2,165.4z"/>
	<path class="st10" d="M104.1,148.8c0,0,8,6.6,12.4,6.6c4.4,0,12.4-48.2,13.9-49.7c0.6-0.6,5.8-11,8.2-15.7c0.6-1.2-0.2-2.5-1.4-2.7
		l0,0c-1-0.1-1.7,0.7-2.1,1.4c-0.7,1.4-3.1,6-4.4,8c-0.4,0.7-1,1.1-1.8,1.3v0c-1.4,0.4-2.9-0.2-3.6-1.5c-0.3-0.6-0.7-1.3-1-2
		c-0.4-0.9-1.6-1.3-2.5-0.7l0,0c-0.7,0.4-1,1.2-0.8,2l2.4,8.2l-10.3,32.9L104.1,148.8z"/>
	<polygon class="st13" points="68.5,197.1 78.1,197.7 78.1,217.9 66.1,217.4 	"/>
	<polygon class="st13" points="92.7,197.1 83.1,197.7 83.1,217.9 95.1,217.4 	"/>
	<path class="st14" d="M92.4,93.3c0,0,4-2.4,3.2-6.3c-0.8-4-7.2-10.8-17.1-2.9c-7.6,6-17.2,0.3-20.5,11.3
		c-2.8,9.3,7.5,12.7,5.8,20.8s-10.6,9.9-9.9,20.6c5.6,0,21,0,27.4,0c3.8-6.6-0.8-12-1.3-15.2C79.5,118.2,92.4,93.3,92.4,93.3z"/>
	<path class="st10" d="M92.4,93.3l4.2,7.4l-3.1,3.1l1,6.4l-6.7,4.9l0.7,6.5c0,0-6.5,0.1-8.4,0.1c-1.8-5.7-1.4-11.9-1.4-11.9
		s-4.5-0.4-4.1-4.6c0.3-2.5,3.5-2.1,3.5-2.1s-0.4-7.2,2.1-9.1C84.5,90.6,87,97.6,92.4,93.3z"/>
	<circle class="st13" cx="88" cy="98.7" r="1.2"/>
	<line class="st15" x1="88" y1="106.9" x2="92.9" y2="107.9"/>
	<g>
		<polygon class="st5" points="132.5,79.2 134.3,88.9 128,95.1 121.6,90.4 117.3,86.1 119.2,76.8 127.1,72 		"/>
		<polyline class="st8" points="128,95.1 125.8,83.5 132.5,79.2 		"/>
		<line class="st8" x1="119.2" y1="76.8" x2="125.8" y2="83.5"/>
		<polyline class="st8" points="127.1,72 122.5,80.2 121.6,90.4 		"/>
	</g>
	<line class="st16" x1="113.2" y1="71.1" x2="105.6" y2="64.6"/>
	<line class="st16" x1="127.1" y1="66.2" x2="127.5" y2="56.8"/>
	<line class="st16" x1="137.5" y1="76.8" x2="145.3" y2="72.4"/>
</g>
</svg>
