<?xml version="1.0" encoding="utf-8"?>
<!-- Generator: Adobe Illustrator 22.1.0, SVG Export Plug-In . SVG Version: 6.00 Build 0)  -->
<svg version="1.1" id="Layer_1" xmlns="http://www.w3.org/2000/svg" xmlns:xlink="http://www.w3.org/1999/xlink" x="0px" y="0px"
	 viewBox="0 0 300 254.9" style="enable-background:new 0 0 300 254.9;" xml:space="preserve">
<style type="text/css">
	.st0{clip-path:url(#SVGID_2_);}
	.st1{fill:#691B33;}
	.st2{fill:#FBDE1D;}
	.st3{fill:#1D1D1B;}
	.st4{fill:none;stroke:#1D1D1B;stroke-width:2.5487;stroke-linecap:round;stroke-linejoin:round;stroke-miterlimit:10;}
	.st5{clip-path:url(#SVGID_2_);fill:#6CC191;}
	.st6{clip-path:url(#SVGID_4_);fill:#368559;}
	.st7{clip-path:url(#SVGID_4_);fill:#1B432D;}
	.st8{clip-path:url(#SVGID_4_);fill:#FBDE1D;}
	.st9{clip-path:url(#SVGID_4_);}
	.st10{fill:#F8B133;}
	.st11{opacity:0.45;fill:#F8B133;}
	.st12{fill:none;stroke:#1D1D1B;stroke-width:2.0789;stroke-linecap:round;stroke-linejoin:round;stroke-miterlimit:10;}
	.st13{clip-path:url(#SVGID_2_);fill:#691B33;}
	
		.st14{clip-path:url(#SVGID_2_);fill:none;stroke:#1D1D1B;stroke-width:2.2953;stroke-linecap:round;stroke-linejoin:round;stroke-miterlimit:10;}
	.st15{clip-path:url(#SVGID_2_);fill:#48B276;}
	.st16{fill:#F4AFAA;}
	.st17{fill:#EA5B5D;}
	.st18{fill:#5B5BA5;}
	.st19{fill:none;stroke:#1D1D1B;stroke-width:2.0789;stroke-linecap:round;stroke-miterlimit:10;}
	.st20{fill:none;stroke:#FFFFFF;stroke-width:3.1184;stroke-linecap:round;stroke-miterlimit:10;}
	.st21{fill:none;stroke:#1D1D1B;stroke-width:1.0395;stroke-linejoin:round;stroke-miterlimit:10;}
</style>
<g>
	<defs>
		<rect id="SVGID_1_" width="300" height="254.9"/>
	</defs>
	<clipPath id="SVGID_2_">
		<use xlink:href="#SVGID_1_"  style="overflow:visible;"/>
	</clipPath>
	<g class="st0">
		<polygon class="st1" points="368.9,-108.8 357,-96.9 305.7,-153.5 312.3,-160.1 		"/>
		<circle class="st2" cx="308.8" cy="-156.9" r="4.6"/>
	</g>
	<g class="st0">
		<path class="st1" d="M440.5-39.5c-1.7-1.7-1.8-4.5-0.1-6.3l0,0l-34.9,31.6h0.1V6.3l41.3-45.6l-0.1-0.1
			C445-37.7,442.2-37.7,440.5-39.5z"/>
		<path class="st2" d="M447-46c-1.8-1.8-4.7-1.8-6.5,0c-0.1,0.1-0.1,0.1-0.1,0.2l6.5,6.5c0.1,0,0.1-0.1,0.2-0.1
			C448.7-41.3,448.7-44.2,447-46z"/>
		<path class="st2" d="M440.5-39.5c1.7,1.7,4.5,1.8,6.3,0.1l-6.5-6.5C438.7-44,438.7-41.2,440.5-39.5z"/>
		<polygon class="st3" points="405.4,-14.2 401.5,-10.7 401.5,10.8 405.6,6.3 405.6,-14.2 		"/>
	</g>
	<g class="st0">
		<rect x="351.2" y="-271.2" class="st1" width="50.3" height="421"/>
		<line class="st4" x1="367.4" y1="150.1" x2="367.4" y2="-103.8"/>
		<line class="st4" x1="383.7" y1="-40.2" x2="383.7" y2="-294"/>
	</g>
	<path class="st5" d="M324.2,162.6c0,10.6,19.1,35.6,44.1,21.1s40,1.5,47.6-27.1c7.4-27.6-20.1-17.3-18-34.3
		c2-17-14.4-46.9-35.2-31.9c-14.6,10.5-37-3.9-32,18.6c5,22.6-17.6,9.1-22.1,20.4C303.9,141.6,324.2,152,324.2,162.6z"/>
	<g class="st0">
		<defs>
			<polygon id="SVGID_3_" points="118.9,-109.4 -58.7,68.2 -58.7,636.4 402.9,174.7 			"/>
		</defs>
		<clipPath id="SVGID_4_">
			<use xlink:href="#SVGID_3_"  style="overflow:visible;"/>
		</clipPath>
		<rect x="-48.7" y="-189.8" class="st6" width="383" height="243.6"/>
		<rect x="-154.6" y="44.6" class="st7" width="571.5" height="616.2"/>
		<path class="st6" d="M162.6,88.5c-33.2,4.9-73.5-29.1-133.9-10.7s-68.1,197.8,0.2,266.1s74.5,95.3,74.5,95.3h-301.4V-21.4
			c0,0,8.3-43.7,61.3-43.7s40.5,37.4,74.8,37.4S-27.6-56.7,15-56.7S77.8,3.6,175.8,3.6s69.9-37.4,124.5-37.4s33.1,44.6,89.6,44.6
			S483.8-20,495.7,31.5c9.9,42.7-34.7,46.2-63.9,46.2c-29.1,0-46.8,25.7-74.8,25.7s-59.2-49.6-105-49.6S186.3,85,162.6,88.5z"/>
		<polygon class="st8" points="287.3,191 280.4,189.3 267.7,198.3 273.7,205.4 283,203.9 		"/>
		<polygon class="st8" points="-10.2,195.9 -8.1,206.2 -8.1,211.7 11.5,201.8 2.1,195.9 		"/>
		<polygon class="st8" points="301.2,141.1 294.8,147.5 277.5,139.5 282.2,128.6 297.8,126 		"/>
		<g class="st9">
			<polygon class="st2" points="2.6,461.4 -0.5,438.5 22.1,426.8 35.1,432 			"/>
			<polygon class="st10" points="9.9,474.4 2.6,461.4 -8,464.2 			"/>
			<polygon class="st2" points="35.1,432 35.1,451.8 9.9,474.4 2.6,461.4 			"/>
			<polygon class="st11" points="35.1,432 35.1,451.8 9.9,474.4 2.6,461.4 			"/>
			<polygon class="st10" points="-0.5,438.5 -8,464.2 2.6,461.4 			"/>
		</g>
		<g class="st9">
			<g>
				<polygon class="st2" points="87.8,386.6 111.9,418.2 72,430.3 43.3,408.4 				"/>
				<polygon class="st2" points="122.3,444.8 111.9,418.2 72,430.3 56.6,459.8 				"/>
				<polygon class="st11" points="122.3,444.8 111.9,418.2 72,430.3 56.6,459.8 				"/>
				<polygon class="st10" points="43.3,408.4 72,430.3 56.6,459.8 30.9,430.3 				"/>
			</g>
			<polyline class="st12" points="43.3,408.4 72,430.3 111.9,418.2 			"/>
			<line class="st12" x1="72" y1="430.3" x2="56.6" y2="459.8"/>
		</g>
	</g>
	<g class="st0">
		<polygon class="st1" points="43.1,-133 31.2,-121.1 -20.1,-177.7 -13.6,-184.2 		"/>
		<circle class="st2" cx="-17" cy="-181.1" r="4.6"/>
	</g>
	<rect x="10.7" y="-411.7" class="st13" width="50.3" height="459.1"/>
	<line class="st14" x1="44.4" y1="54.3" x2="44.4" y2="-151.6"/>
	<line class="st14" x1="22.9" y1="-121.7" x2="22.9" y2="-327.5"/>
	<path class="st15" d="M40.3-9.9C29.7-5.7,11.8-32.8-3.3-25.5s2.6,33.8-9.4,37.4s-37.1,6.8-44,33.3s33.6,38.4,39.8,50.4
		s-0.3,37.4,8.3,40.6c24.8,9.4,38-49.1,61.1-49.1s86.5,12.2,92.8-13.3S127.1,15.6,104.3,1S85.1-48.3,69.4-48.3S54.9-15.6,40.3-9.9z"
		/>
	<g class="st0">
		<path class="st16" d="M76.6,222.2l-11.8,20.1v24.1l-11.5,16.4c0,0-8.8-34.1-7.9-45.7c0.7-8.7,11.2-33.3,11.2-33.3L76.6,222.2z"/>
		<polygon class="st17" points="168.7,153.5 86.1,153.5 51.2,198.9 76.6,222.2 83.7,215.1 88.4,241.6 82.1,254.1 81.4,282.8 
			169.1,284.9 166.7,254.1 159,238.8 171.2,206.9 180.2,215.9 201,188.5 		"/>
		<path class="st18" d="M166.7,254.1c0,0,21.8,23.2,18,47.5c-3.8,24.3-29.1,47.5-59.2,47.5s-72.1-26.3-74.1-52.7
			c-2.1-26.3,30.8-42.3,30.8-42.3s16.5,14.2,43.3,14.2C155.6,268.3,166.7,254.1,166.7,254.1z"/>
		<path class="st16" d="M180.2,215.9c0,0,18.4,15.2,28.4,15.2c10,0,28.4-110.5,31.9-114c1.4-1.4,13.3-25.1,18.8-36.1
			c1.3-2.7-0.4-5.8-3.3-6.2l0,0c-2.2-0.3-3.9,1.5-4.8,3.3c-1.6,3.2-7.1,13.7-10,18.3c-0.9,1.5-2.4,2.6-4.1,3.1h0
			c-3.2,0.9-6.6-0.5-8.2-3.4c-0.8-1.4-1.6-3.1-2.3-4.6c-1-2.2-3.7-3-5.7-1.7l0,0c-1.5,0.9-2.2,2.8-1.7,4.5l5.4,18.7L201,188.5
			L180.2,215.9z"/>
		<polygon class="st3" points="98.4,326.8 120.4,328.2 120.4,374.5 92.9,373.4 		"/>
		<polygon class="st3" points="154,326.8 132,328.2 132,374.5 159.5,373.4 		"/>
		<path class="st1" d="M153.2,88.7c0,0,9.1-5.5,7.3-14.6s-16.4-24.9-39.3-6.8c-17.4,13.8-39.5,0.8-47,26
			c-6.4,21.4,17.2,29.1,13.3,47.8s-24.4,22.6-22.6,47.3c12.7,0,48.1,0,62.9,0c8.8-15.2-1.9-27.5-3-34.9
			C123.7,145.8,153.2,88.7,153.2,88.7z"/>
		<path class="st16" d="M153.2,88.7l9.6,16.9l-7.1,7.1l2.3,14.7l-15.5,11.2l1.6,14.8c0,0-15,0.1-19.3,0.1
			c-4.2-13.1-3.3-27.3-3.3-27.3s-10.3-0.9-9.3-10.7c0.6-5.7,8.1-4.8,8.1-4.8s-0.9-16.6,4.8-20.8C135.2,82.6,140.9,98.7,153.2,88.7z"
			/>
		<circle class="st3" cx="143.1" cy="101.2" r="2.7"/>
		<line class="st19" x1="143.1" y1="120" x2="154.5" y2="122.3"/>
		<g>
			<polygon class="st2" points="245.2,56.4 249.4,78.8 234.9,92.8 220.3,82.1 210.4,72.2 214.8,50.9 232.8,39.8 			"/>
			<polyline class="st12" points="234.9,92.8 229.9,66.3 245.2,56.4 			"/>
			<line class="st12" x1="214.8" y1="50.9" x2="229.9" y2="66.3"/>
			<polyline class="st12" points="232.8,39.8 222.3,58.6 220.3,82.1 			"/>
		</g>
		<line class="st20" x1="201" y1="37.8" x2="183.5" y2="22.9"/>
		<line class="st20" x1="232.8" y1="26.6" x2="233.8" y2="5.1"/>
		<line class="st20" x1="256.6" y1="50.9" x2="274.6" y2="40.8"/>
	</g>
	<g class="st0">
		<line class="st21" x1="248.5" y1="-57.9" x2="258.8" y2="-66.9"/>
		<line class="st21" x1="249.2" y1="-55.9" x2="262.2" y2="-63.5"/>
		<path class="st1" d="M251-54.5c0,0,2.6-15.4-7.1-22.4c-5.6-4-13.6-0.9-14.6,5.9C228-62.1,237.4-48.3,251-54.5z"/>
		<path class="st1" d="M241-41.9c0,0-18.6-14.8-34.8-6.2s-25.2,30.7-25.2,30.7S167.9-60.8,200.6-69C234.8-77.5,241-41.9,241-41.9z"
			/>
		<path class="st1" d="M141.6-118.5c0,0-25.3,33.4-7.5,56.5s31.3-1.4,45.2,16.6c6.7-13.9,3.5-34.4-19-36.5
			C137.8-84.2,141.6-118.5,141.6-118.5z"/>
		<circle class="st3" cx="244.5" cy="-66.8" r="2.5"/>
		<line class="st21" x1="243.8" y1="-57.1" x2="233.1" y2="-47.7"/>
		<line class="st21" x1="245.5" y1="-55.1" x2="239" y2="-43.7"/>
		<path class="st1" d="M232.4-88.2c0,0,11.2,19.9-0.3,19.8S232.4-88.2,232.4-88.2z"/>
	</g>
</g>
</svg>
