<?xml version="1.0" encoding="utf-8"?>
<!-- Generator: Adobe Illustrator 22.1.0, SVG Export Plug-In . SVG Version: 6.00 Build 0)  -->
<svg version="1.1" id="Layer_1" xmlns="http://www.w3.org/2000/svg" xmlns:xlink="http://www.w3.org/1999/xlink" x="0px" y="0px"
	 viewBox="0 0 600 450" style="enable-background:new 0 0 600 450;" xml:space="preserve">
<style type="text/css">
	.st0{fill:#EA5B5D;}
	.st1{fill:#1D1D1B;}
	.st2{fill:#5B5BA5;}
	.st3{fill:#FFFFFF;}
	.st4{fill:#EF7F6A;}
	.st5{fill:#575756;}
</style>
<rect class="st0" width="300" height="225"/>
<g>
	<polygon class="st1" points="114.6,134.4 114.6,77.5 160.1,122.9 114.6,77.5 	"/>
	<polygon class="st1" points="163.9,122.9 114.7,73.7 114.7,73.7 	"/>
	<polygon class="st1" points="112,77.5 112,77.5 111.9,133.9 111.9,133.9 	"/>
	<path class="st1" d="M112,77.5l-42.2,42.1L112,77.5z"/>
	<path class="st1" d="M112,73.7l-47.6,47.5L112,73.7z"/>
	<polygon class="st1" points="112,77.5 111.9,133.9 112.9,133.7 112.9,133.7 113.6,133.5 114.2,134 114.6,134.4 114.6,77.5 
		113.3,76.1 112,77.5 	"/>
	<polygon class="st1" points="113.3,72.3 114.7,73.7 114.7,73.7 113.3,72.3 112,73.7 112,73.7 	"/>
	<polygon class="st1" points="45.9,152 45.9,152 112.8,136.5 	"/>
	<polygon class="st1" points="38.5,150.9 38.5,150.9 111.9,133.9 111.9,133.9 	"/>
	<polygon class="st1" points="111.9,133.9 111.9,133.9 111.9,133.9 	"/>
	<polygon class="st1" points="45.9,152 45.9,152 34.3,154.7 131,154.7 128.3,152 	"/>
	<polygon class="st1" points="111.9,133.9 111.9,133.9 112.9,133.7 112.9,133.7 	"/>
	<polygon class="st1" points="114.6,77.5 160.1,122.9 131.6,151.4 132.5,152.4 132.5,152.4 133.5,153.3 163.9,122.9 114.7,73.7 	"/>
	<polygon class="st1" points="112.9,133.7 114.2,134 113.6,133.5 	"/>
	<polygon class="st1" points="114.6,77.5 114.7,73.7 113.3,72.3 112,73.7 112,77.5 113.3,76.1 	"/>
	<polygon class="st1" points="132.5,152.4 131.6,154.7 132.1,154.7 133.5,153.3 	"/>
	<path class="st1" d="M114.6,134.4l17,17L114.6,134.4z"/>
	<path class="st1" d="M114.6,134.4L114.6,134.4L114.6,134.4z"/>
	<polygon class="st1" points="111.9,133.9 111.9,135 111.9,135.5 	"/>
	<polygon class="st1" points="131.6,151.4 114.6,134.4 132.5,152.4 132.5,152.4 	"/>
	<polygon class="st1" points="111.9,135.5 128.3,152 131,154.7 131,154.7 	"/>
	<polygon class="st1" points="111.9,135.5 111.9,135 111.9,133.9 38.5,150.9 38.5,150.9 69.8,119.6 112,77.5 112,73.7 64.4,121.2 
		30.9,154.7 34.2,154.7 34.3,154.7 45.9,152 112.8,136.5 128.3,152 	"/>
	<polygon class="st1" points="114.6,134.4 114.2,134 112.9,133.7 111.9,133.9 111.9,135.5 131,154.7 131.6,154.7 132.5,152.4 	"/>
	<g>
		<g>
			<path class="st1" d="M176.6,74.5V96h-2.5l-12.9-16.1V96h-3.1V74.5h2.5l12.9,16.1V74.5H176.6z"/>
			<path class="st1" d="M194.9,81.2c1.2,1.1,1.8,2.8,1.8,5V96h-2.8v-2.2c-0.5,0.8-1.2,1.3-2.1,1.7c-0.9,0.4-2,0.6-3.2,0.6
				c-1.8,0-3.3-0.4-4.4-1.3c-1.1-0.9-1.6-2-1.6-3.5c0-1.4,0.5-2.6,1.6-3.5c1-0.9,2.7-1.3,5-1.3h4.7V86c0-1.3-0.4-2.2-1.1-2.9
				c-0.7-0.7-1.8-1-3.3-1c-1,0-1.9,0.2-2.8,0.5c-0.9,0.3-1.7,0.7-2.3,1.3l-1.2-2.2c0.8-0.7,1.8-1.2,3-1.6s2.4-0.5,3.7-0.5
				C192,79.5,193.7,80.1,194.9,81.2z M192,93.1c0.8-0.5,1.4-1.2,1.8-2.1v-2.3h-4.6c-2.5,0-3.8,0.8-3.8,2.5c0,0.8,0.3,1.5,1,1.9
				c0.6,0.5,1.5,0.7,2.6,0.7C190.2,93.9,191.2,93.6,192,93.1z"/>
			<path class="st1" d="M218.6,79.7V96h-2.8v-2.5c-0.6,0.8-1.4,1.5-2.4,2s-2,0.7-3.2,0.7c-2.2,0-3.9-0.6-5.1-1.8
				c-1.3-1.2-1.9-3-1.9-5.3v-9.4h3v9c0,1.6,0.4,2.8,1.1,3.6c0.8,0.8,1.8,1.2,3.3,1.2c1.6,0,2.8-0.5,3.7-1.4s1.4-2.3,1.4-4v-8.4
				L218.6,79.7L218.6,79.7z"/>
			<path class="st1" d="M224.4,86.3h16.1v2.6h-16.1V86.3z"/>
		</g>
		<g>
			<path class="st1" d="M201,123.8c-0.4,0.4-1,0.7-1.6,0.8c-0.6,0.2-1.3,0.3-2,0.3c-1.6,0-2.9-0.4-3.8-1.3c-0.9-0.9-1.4-2.1-1.4-3.8
				v-8.9h-2.8v-2.4h2.8v-3.6h3v3.6h4.7v2.4h-4.7v8.8c0,0.9,0.2,1.6,0.7,2c0.4,0.5,1.1,0.7,1.9,0.7c0.9,0,1.7-0.3,2.3-0.8L201,123.8z
				"/>
			<path class="st1" d="M205.8,108.4h3v16.3h-3V108.4z M209.3,103.4l-2.1,2.1l-2.1-2.1l2.1-2.1L209.3,103.4z"/>
			<path class="st1" d="M215.6,101.9h3v22.8h-3V101.9z"/>
			<path class="st1" d="M240.5,108.4v16.3h-2.8v-2.5c-0.6,0.8-1.4,1.5-2.4,2s-2,0.7-3.2,0.7c-2.2,0-3.9-0.6-5.1-1.8
				c-1.3-1.2-1.9-3-1.9-5.3v-9.4h3v9c0,1.6,0.4,2.8,1.1,3.6c0.8,0.8,1.8,1.2,3.3,1.2c1.6,0,2.8-0.5,3.7-1.4s1.4-2.3,1.4-4v-8.4
				L240.5,108.4L240.5,108.4z"/>
			<path class="st1" d="M248.2,124.4c-1.2-0.4-2.2-0.8-2.9-1.4l1.2-2.3c0.7,0.5,1.6,0.9,2.6,1.2c1,0.3,2.1,0.5,3.1,0.5
				c2.6,0,3.9-0.7,3.9-2.2c0-0.5-0.2-0.9-0.5-1.2c-0.3-0.3-0.8-0.5-1.3-0.6s-1.3-0.3-2.2-0.4c-1.3-0.2-2.4-0.4-3.2-0.7
				c-0.8-0.3-1.5-0.7-2.1-1.4c-0.6-0.6-0.9-1.5-0.9-2.7c0-1.5,0.6-2.7,1.8-3.6s2.9-1.3,5-1.3c1.1,0,2.2,0.1,3.3,0.4
				c1.1,0.3,2,0.6,2.7,1.1l-1.3,2.3c-1.3-0.9-2.9-1.3-4.7-1.3c-1.3,0-2.2,0.2-2.9,0.6s-1,1-1,1.6c0,0.5,0.2,1,0.6,1.3
				c0.4,0.3,0.8,0.5,1.4,0.7c0.5,0.1,1.3,0.3,2.3,0.5c1.3,0.2,2.4,0.5,3.2,0.7c0.8,0.3,1.5,0.7,2.1,1.3c0.6,0.6,0.9,1.5,0.9,2.6
				c0,1.5-0.6,2.7-1.9,3.5c-1.3,0.9-3,1.3-5.2,1.3C250.7,124.9,249.4,124.7,248.2,124.4z"/>
		</g>
		<g>
			<path class="st1" d="M185.4,142.6h3v8.4c-1.1,0.9-2.3,1.6-3.7,2c-1.4,0.5-2.9,0.7-4.4,0.7c-2.2,0-4.1-0.5-5.9-1.4
				c-1.7-1-3.1-2.3-4.1-3.9c-1-1.7-1.5-3.6-1.5-5.6c0-2.1,0.5-4,1.5-5.7s2.4-3,4.1-3.9c1.8-0.9,3.7-1.4,5.9-1.4
				c1.7,0,3.3,0.3,4.7,0.8c1.4,0.6,2.6,1.4,3.6,2.5l-1.9,1.9c-1.7-1.7-3.8-2.5-6.2-2.5c-1.6,0-3.1,0.4-4.4,1.1
				c-1.3,0.7-2.3,1.7-3.1,3c-0.7,1.3-1.1,2.7-1.1,4.3s0.4,3,1.1,4.2c0.7,1.3,1.8,2.3,3.1,3s2.8,1.1,4.4,1.1c1.9,0,3.6-0.5,5-1.4
				v-7.2H185.4z"/>
			<path class="st1" d="M209.7,146.3h-13.2c0.2,1.4,0.8,2.6,1.9,3.5c1.1,0.9,2.4,1.3,4,1.3c1.9,0,3.5-0.7,4.7-2l1.6,1.9
				c-0.7,0.9-1.7,1.5-2.8,2s-2.3,0.7-3.7,0.7c-1.7,0-3.2-0.4-4.6-1.1c-1.3-0.7-2.4-1.7-3.1-3c-0.7-1.3-1.1-2.7-1.1-4.3
				s0.4-3,1.1-4.3c0.7-1.3,1.7-2.3,2.9-3s2.6-1.1,4.2-1.1c1.6,0,2.9,0.4,4.2,1.1c1.2,0.7,2.2,1.7,2.9,3s1,2.7,1,4.4
				C209.8,145.6,209.7,145.9,209.7,146.3z M198.1,140.8c-1,0.9-1.5,2-1.7,3.4h10.5c-0.2-1.4-0.7-2.5-1.7-3.4s-2.1-1.3-3.6-1.3
				S199.1,139.9,198.1,140.8z"/>
			<path class="st1" d="M228.7,138.8c1.2,1.2,1.8,3,1.8,5.3v9.4h-3v-9c0-1.6-0.4-2.8-1.1-3.6c-0.8-0.8-1.8-1.2-3.3-1.2
				c-1.6,0-2.9,0.5-3.8,1.4s-1.4,2.3-1.4,4v8.4h-3v-16.3h2.8v2.5c0.6-0.8,1.4-1.5,2.4-1.9c1-0.5,2.2-0.7,3.5-0.7
				C225.8,137,227.5,137.6,228.7,138.8z"/>
			<path class="st1" d="M246.3,152.5c-0.4,0.4-1,0.7-1.6,0.8c-0.6,0.2-1.3,0.3-2,0.3c-1.6,0-2.9-0.4-3.8-1.3
				c-0.9-0.9-1.4-2.1-1.4-3.8v-8.9h-2.8v-2.4h2.8v-3.6h3v3.6h4.7v2.4h-4.7v8.8c0,0.9,0.2,1.6,0.7,2c0.4,0.5,1.1,0.7,1.9,0.7
				c0.9,0,1.7-0.3,2.3-0.8L246.3,152.5z"/>
		</g>
	</g>
</g>
<rect y="225" class="st2" width="300" height="225"/>
<g>
	<polygon class="st3" points="114.6,359.4 114.6,302.5 160.1,347.9 114.6,302.5 	"/>
	<polygon class="st3" points="163.9,347.9 114.7,298.7 114.7,298.7 	"/>
	<polygon class="st3" points="112,302.5 112,302.5 111.9,358.9 111.9,358.9 	"/>
	<path class="st3" d="M112,302.5l-42.2,42.1L112,302.5z"/>
	<path class="st3" d="M112,298.7l-47.6,47.5L112,298.7z"/>
	<polygon class="st3" points="112,302.5 111.9,358.9 112.9,358.7 112.9,358.7 113.6,358.5 114.2,359 114.6,359.4 114.6,302.5 
		113.3,301.1 112,302.5 	"/>
	<polygon class="st3" points="113.3,297.3 114.7,298.7 114.7,298.7 113.3,297.3 112,298.7 112,298.7 	"/>
	<polygon class="st3" points="45.9,377 45.9,377 112.8,361.5 	"/>
	<polygon class="st3" points="38.5,375.9 38.5,375.9 111.9,358.9 111.9,358.9 	"/>
	<polygon class="st3" points="111.9,358.9 111.9,358.9 111.9,358.9 	"/>
	<polygon class="st3" points="45.9,377 45.9,377 34.3,379.7 131,379.7 128.3,377 	"/>
	<polygon class="st3" points="111.9,358.9 111.9,358.9 112.9,358.7 112.9,358.7 	"/>
	<polygon class="st3" points="114.6,302.5 160.1,347.9 131.6,376.4 132.5,377.4 132.5,377.4 133.5,378.3 163.9,347.9 114.7,298.7 	
		"/>
	<polygon class="st3" points="112.9,358.7 114.2,359 113.6,358.5 	"/>
	<polygon class="st3" points="114.6,302.5 114.7,298.7 113.3,297.3 112,298.7 112,302.5 113.3,301.1 	"/>
	<polygon class="st3" points="132.5,377.4 131.6,379.7 132.1,379.7 133.5,378.3 	"/>
	<path class="st3" d="M114.6,359.4l17,17L114.6,359.4z"/>
	<path class="st3" d="M114.6,359.4L114.6,359.4L114.6,359.4z"/>
	<polygon class="st3" points="111.9,358.9 111.9,360 111.9,360.5 	"/>
	<polygon class="st3" points="131.6,376.4 114.6,359.4 132.5,377.4 132.5,377.4 	"/>
	<polygon class="st3" points="111.9,360.5 128.3,377 131,379.7 131,379.7 	"/>
	<polygon class="st3" points="111.9,360.5 111.9,360 111.9,358.9 38.5,375.9 38.5,375.9 69.8,344.6 112,302.5 112,298.7 64.4,346.2 
		30.9,379.7 34.2,379.7 34.3,379.7 45.9,377 112.8,361.5 128.3,377 	"/>
	<polygon class="st3" points="114.6,359.4 114.2,359 112.9,358.7 111.9,358.9 111.9,360.5 131,379.7 131.6,379.7 132.5,377.4 	"/>
	<g>
		<g>
			<path class="st3" d="M176.6,299.5V321h-2.5l-12.9-16.1V321h-3.1v-21.5h2.5l12.9,16.1v-16.1H176.6z"/>
			<path class="st3" d="M194.9,306.2c1.2,1.1,1.8,2.8,1.8,5v9.8h-2.8v-2.2c-0.5,0.8-1.2,1.3-2.1,1.7c-0.9,0.4-2,0.6-3.2,0.6
				c-1.8,0-3.3-0.4-4.4-1.3c-1.1-0.9-1.6-2-1.6-3.5c0-1.4,0.5-2.6,1.6-3.5c1-0.9,2.7-1.3,5-1.3h4.7V311c0-1.3-0.4-2.2-1.1-2.9
				c-0.7-0.7-1.8-1-3.3-1c-1,0-1.9,0.2-2.8,0.5c-0.9,0.3-1.7,0.7-2.3,1.3l-1.2-2.2c0.8-0.7,1.8-1.2,3-1.6s2.4-0.5,3.7-0.5
				C192,304.5,193.7,305.1,194.9,306.2z M192,318.1c0.8-0.5,1.4-1.2,1.8-2.1v-2.3h-4.6c-2.5,0-3.8,0.8-3.8,2.5c0,0.8,0.3,1.5,1,1.9
				c0.6,0.5,1.5,0.7,2.6,0.7C190.2,318.9,191.2,318.6,192,318.1z"/>
			<path class="st3" d="M218.6,304.7V321h-2.8v-2.5c-0.6,0.8-1.4,1.5-2.4,2s-2,0.7-3.2,0.7c-2.2,0-3.9-0.6-5.1-1.8
				c-1.3-1.2-1.9-3-1.9-5.3v-9.4h3v9c0,1.6,0.4,2.8,1.1,3.6c0.8,0.8,1.8,1.2,3.3,1.2c1.6,0,2.8-0.5,3.7-1.4s1.4-2.3,1.4-4v-8.4
				L218.6,304.7L218.6,304.7z"/>
			<path class="st3" d="M224.4,311.3h16.1v2.6h-16.1V311.3z"/>
		</g>
		<g>
			<path class="st3" d="M201,348.8c-0.4,0.4-1,0.7-1.6,0.8c-0.6,0.2-1.3,0.3-2,0.3c-1.6,0-2.9-0.4-3.8-1.3c-0.9-0.9-1.4-2.1-1.4-3.8
				v-8.9h-2.8v-2.4h2.8v-3.6h3v3.6h4.7v2.4h-4.7v8.8c0,0.9,0.2,1.6,0.7,2c0.4,0.5,1.1,0.7,1.9,0.7c0.9,0,1.7-0.3,2.3-0.8L201,348.8z
				"/>
			<path class="st3" d="M205.8,333.4h3v16.3h-3V333.4z M209.3,328.4l-2.1,2.1l-2.1-2.1l2.1-2.1L209.3,328.4z"/>
			<path class="st3" d="M215.6,326.9h3v22.8h-3V326.9z"/>
			<path class="st3" d="M240.5,333.4v16.3h-2.8v-2.5c-0.6,0.8-1.4,1.5-2.4,2s-2,0.7-3.2,0.7c-2.2,0-3.9-0.6-5.1-1.8
				c-1.3-1.2-1.9-3-1.9-5.3v-9.4h3v9c0,1.6,0.4,2.8,1.1,3.6c0.8,0.8,1.8,1.2,3.3,1.2c1.6,0,2.8-0.5,3.7-1.4s1.4-2.3,1.4-4v-8.4
				L240.5,333.4L240.5,333.4z"/>
			<path class="st3" d="M248.2,349.4c-1.2-0.4-2.2-0.8-2.9-1.4l1.2-2.3c0.7,0.5,1.6,0.9,2.6,1.2c1,0.3,2.1,0.5,3.1,0.5
				c2.6,0,3.9-0.7,3.9-2.2c0-0.5-0.2-0.9-0.5-1.2c-0.3-0.3-0.8-0.5-1.3-0.6s-1.3-0.3-2.2-0.4c-1.3-0.2-2.4-0.4-3.2-0.7
				c-0.8-0.3-1.5-0.7-2.1-1.4c-0.6-0.6-0.9-1.5-0.9-2.7c0-1.5,0.6-2.7,1.8-3.6s2.9-1.3,5-1.3c1.1,0,2.2,0.1,3.3,0.4
				c1.1,0.3,2,0.6,2.7,1.1l-1.3,2.3c-1.3-0.9-2.9-1.3-4.7-1.3c-1.3,0-2.2,0.2-2.9,0.6s-1,1-1,1.6c0,0.5,0.2,1,0.6,1.3
				c0.4,0.3,0.8,0.5,1.4,0.7c0.5,0.1,1.3,0.3,2.3,0.5c1.3,0.2,2.4,0.5,3.2,0.7c0.8,0.3,1.5,0.7,2.1,1.3c0.6,0.6,0.9,1.5,0.9,2.6
				c0,1.5-0.6,2.7-1.9,3.5c-1.3,0.9-3,1.3-5.2,1.3C250.7,349.9,249.4,349.7,248.2,349.4z"/>
		</g>
		<g>
			<path class="st3" d="M185.4,367.6h3v8.4c-1.1,0.9-2.3,1.6-3.7,2c-1.4,0.5-2.9,0.7-4.4,0.7c-2.2,0-4.1-0.5-5.9-1.4
				c-1.7-1-3.1-2.3-4.1-3.9c-1-1.7-1.5-3.6-1.5-5.6c0-2.1,0.5-4,1.5-5.7s2.4-3,4.1-3.9c1.8-0.9,3.7-1.4,5.9-1.4
				c1.7,0,3.3,0.3,4.7,0.8c1.4,0.6,2.6,1.4,3.6,2.5l-1.9,1.9c-1.7-1.7-3.8-2.5-6.2-2.5c-1.6,0-3.1,0.4-4.4,1.1
				c-1.3,0.7-2.3,1.7-3.1,3c-0.7,1.3-1.1,2.7-1.1,4.3c0,1.6,0.4,3,1.1,4.2c0.7,1.3,1.8,2.3,3.1,3s2.8,1.1,4.4,1.1
				c1.9,0,3.6-0.5,5-1.4v-7.2H185.4z"/>
			<path class="st3" d="M209.7,371.3h-13.2c0.2,1.4,0.8,2.6,1.9,3.5c1.1,0.9,2.4,1.3,4,1.3c1.9,0,3.5-0.7,4.7-2l1.6,1.9
				c-0.7,0.9-1.7,1.5-2.8,2s-2.3,0.7-3.7,0.7c-1.7,0-3.2-0.4-4.6-1.1c-1.3-0.7-2.4-1.7-3.1-3c-0.7-1.3-1.1-2.7-1.1-4.3
				c0-1.6,0.4-3,1.1-4.3c0.7-1.3,1.7-2.3,2.9-3s2.6-1.1,4.2-1.1c1.6,0,2.9,0.4,4.2,1.1c1.2,0.7,2.2,1.7,2.9,3s1,2.7,1,4.4
				C209.8,370.6,209.7,370.9,209.7,371.3z M198.1,365.8c-1,0.9-1.5,2-1.7,3.4h10.5c-0.2-1.4-0.7-2.5-1.7-3.4s-2.1-1.3-3.6-1.3
				S199.1,364.9,198.1,365.8z"/>
			<path class="st3" d="M228.7,363.8c1.2,1.2,1.8,3,1.8,5.3v9.4h-3v-9c0-1.6-0.4-2.8-1.1-3.6c-0.8-0.8-1.8-1.2-3.3-1.2
				c-1.6,0-2.9,0.5-3.8,1.4c-0.9,0.9-1.4,2.3-1.4,4v8.4h-3v-16.3h2.8v2.5c0.6-0.8,1.4-1.5,2.4-1.9c1-0.5,2.2-0.7,3.5-0.7
				C225.8,362,227.5,362.6,228.7,363.8z"/>
			<path class="st3" d="M246.3,377.5c-0.4,0.4-1,0.7-1.6,0.8c-0.6,0.2-1.3,0.3-2,0.3c-1.6,0-2.9-0.4-3.8-1.3
				c-0.9-0.9-1.4-2.1-1.4-3.8v-8.9h-2.8v-2.4h2.8v-3.6h3v3.6h4.7v2.4h-4.7v8.8c0,0.9,0.2,1.6,0.7,2c0.4,0.5,1.1,0.7,1.9,0.7
				c0.9,0,1.7-0.3,2.3-0.8L246.3,377.5z"/>
		</g>
	</g>
</g>
<rect x="300" y="225" class="st3" width="300" height="225"/>
<g>
	<polygon class="st3" points="414.6,359.4 414.6,302.5 460.1,347.9 414.6,302.5 	"/>
	<polygon class="st3" points="463.9,347.9 414.7,298.7 414.7,298.7 	"/>
	<polygon class="st3" points="412,302.5 412,302.5 411.9,358.9 411.9,358.9 	"/>
	<path class="st3" d="M412,302.5l-42.2,42.1L412,302.5z"/>
	<path class="st3" d="M412,298.7l-47.6,47.5L412,298.7z"/>
	<polygon class="st4" points="412,302.5 411.9,358.9 412.9,358.7 412.9,358.7 413.6,358.5 414.2,359 414.6,359.4 414.6,302.5 
		413.3,301.1 412,302.5 	"/>
	<polygon class="st3" points="413.3,297.3 414.7,298.7 414.7,298.7 413.3,297.3 412,298.7 412,298.7 	"/>
	<polygon class="st3" points="345.9,377 345.9,377 412.8,361.5 	"/>
	<polygon class="st3" points="338.5,375.9 338.5,375.9 411.9,358.9 411.9,358.9 	"/>
	<polygon class="st3" points="411.9,358.9 411.9,358.9 411.9,358.9 	"/>
	<polygon class="st4" points="345.9,377 345.9,377 334.3,379.7 431,379.7 428.3,377 	"/>
	<polygon class="st3" points="411.9,358.9 411.9,358.9 412.9,358.7 412.9,358.7 	"/>
	<path class="st3" d="M414.6,359.4l17,17L414.6,359.4z"/>
	<path class="st3" d="M414.6,359.4L414.6,359.4L414.6,359.4z"/>
	<polygon class="st3" points="411.9,358.9 411.9,360 411.9,360.5 	"/>
	<polygon class="st3" points="431.6,376.4 414.6,359.4 432.5,377.4 432.5,377.4 	"/>
	<polygon class="st3" points="411.9,360.5 428.3,377 431,379.7 431,379.7 	"/>
	<polygon class="st0" points="414.7,298.7 413.3,297.3 412,298.7 364.4,346.2 330.9,379.7 334.2,379.7 334.3,379.7 345.9,377 
		412.8,361.5 428.3,377 411.9,360.5 411.9,360 411.9,358.9 338.5,375.9 338.5,375.9 369.8,344.6 412,302.5 413.3,301.1 414.6,302.5 
		460.1,347.9 431.6,376.4 432.5,377.4 432.5,377.4 414.6,359.4 414.6,359.4 414.2,359 413.6,358.5 412.9,358.7 411.9,358.9 
		411.9,360.5 431,379.7 431.6,379.7 432.1,379.7 433.5,378.3 463.9,347.9 	"/>
	<g>
		<g>
			<path class="st1" d="M476.6,299.5V321h-2.5l-12.9-16.1V321h-3.1v-21.5h2.5l12.9,16.1v-16.1H476.6z"/>
			<path class="st1" d="M494.9,306.2c1.2,1.1,1.8,2.8,1.8,5v9.8h-2.8v-2.2c-0.5,0.8-1.2,1.3-2.1,1.7c-0.9,0.4-2,0.6-3.2,0.6
				c-1.8,0-3.3-0.4-4.4-1.3s-1.6-2-1.6-3.5c0-1.4,0.5-2.6,1.6-3.5c1-0.9,2.7-1.3,5-1.3h4.7V311c0-1.3-0.4-2.2-1.1-2.9
				c-0.7-0.7-1.8-1-3.3-1c-1,0-1.9,0.2-2.8,0.5s-1.7,0.7-2.3,1.3l-1.2-2.2c0.8-0.7,1.8-1.2,3-1.6s2.4-0.5,3.7-0.5
				C492,304.5,493.7,305.1,494.9,306.2z M492,318.1c0.8-0.5,1.4-1.2,1.8-2.1v-2.3h-4.6c-2.5,0-3.8,0.8-3.8,2.5c0,0.8,0.3,1.5,1,1.9
				c0.6,0.5,1.5,0.7,2.6,0.7C490.2,318.9,491.2,318.6,492,318.1z"/>
			<path class="st1" d="M518.6,304.7V321h-2.8v-2.5c-0.6,0.8-1.4,1.5-2.4,2s-2,0.7-3.2,0.7c-2.2,0-3.9-0.6-5.1-1.8
				c-1.3-1.2-1.9-3-1.9-5.3v-9.4h3v9c0,1.6,0.4,2.8,1.1,3.6c0.8,0.8,1.8,1.2,3.3,1.2c1.6,0,2.8-0.5,3.7-1.4c0.9-0.9,1.4-2.3,1.4-4
				v-8.4L518.6,304.7L518.6,304.7z"/>
			<path class="st1" d="M524.4,311.3h16.1v2.6h-16.1V311.3z"/>
		</g>
		<g>
			<path class="st1" d="M501,348.8c-0.4,0.4-1,0.7-1.6,0.8c-0.6,0.2-1.3,0.3-2,0.3c-1.6,0-2.9-0.4-3.8-1.3s-1.4-2.1-1.4-3.8v-8.9
				h-2.8v-2.4h2.8v-3.6h3v3.6h4.7v2.4h-4.7v8.8c0,0.9,0.2,1.6,0.7,2c0.4,0.5,1.1,0.7,1.9,0.7c0.9,0,1.7-0.3,2.3-0.8L501,348.8z"/>
			<path class="st1" d="M505.8,333.4h3v16.3h-3V333.4z M509.3,328.4l-2.1,2.1l-2.1-2.1l2.1-2.1L509.3,328.4z"/>
			<path class="st1" d="M515.6,326.9h3v22.8h-3V326.9z"/>
			<path class="st1" d="M540.5,333.4v16.3h-2.8v-2.5c-0.6,0.8-1.4,1.5-2.4,2s-2,0.7-3.2,0.7c-2.2,0-3.9-0.6-5.1-1.8
				c-1.3-1.2-1.9-3-1.9-5.3v-9.4h3v9c0,1.6,0.4,2.8,1.1,3.6c0.8,0.8,1.8,1.2,3.3,1.2c1.6,0,2.8-0.5,3.7-1.4s1.4-2.3,1.4-4v-8.4
				L540.5,333.4L540.5,333.4z"/>
			<path class="st1" d="M548.2,349.4c-1.2-0.4-2.2-0.8-2.9-1.4l1.2-2.3c0.7,0.5,1.6,0.9,2.6,1.2c1,0.3,2.1,0.5,3.1,0.5
				c2.6,0,3.9-0.7,3.9-2.2c0-0.5-0.2-0.9-0.5-1.2c-0.3-0.3-0.8-0.5-1.3-0.6s-1.3-0.3-2.2-0.4c-1.3-0.2-2.4-0.4-3.2-0.7
				c-0.8-0.3-1.5-0.7-2.1-1.4c-0.6-0.6-0.9-1.5-0.9-2.7c0-1.5,0.6-2.7,1.8-3.6s2.9-1.3,5-1.3c1.1,0,2.2,0.1,3.3,0.4s2,0.6,2.7,1.1
				l-1.3,2.3c-1.3-0.9-2.9-1.3-4.7-1.3c-1.3,0-2.2,0.2-2.9,0.6s-1,1-1,1.6c0,0.5,0.2,1,0.6,1.3c0.4,0.3,0.8,0.5,1.4,0.7
				c0.5,0.1,1.3,0.3,2.3,0.5c1.3,0.2,2.4,0.5,3.2,0.7c0.8,0.3,1.5,0.7,2.1,1.3c0.6,0.6,0.9,1.5,0.9,2.6c0,1.5-0.6,2.7-1.9,3.5
				c-1.3,0.9-3,1.3-5.2,1.3C550.7,349.9,549.4,349.7,548.2,349.4z"/>
		</g>
		<g>
			<path class="st5" d="M485.4,367.6h3v8.4c-1.1,0.9-2.3,1.6-3.7,2c-1.4,0.5-2.9,0.7-4.4,0.7c-2.2,0-4.1-0.5-5.9-1.4
				c-1.7-1-3.1-2.3-4.1-3.9c-1-1.7-1.5-3.6-1.5-5.6c0-2.1,0.5-4,1.5-5.7s2.4-3,4.1-3.9c1.8-0.9,3.7-1.4,5.9-1.4
				c1.7,0,3.3,0.3,4.7,0.8c1.4,0.6,2.6,1.4,3.6,2.5l-1.9,1.9c-1.7-1.7-3.8-2.5-6.2-2.5c-1.6,0-3.1,0.4-4.4,1.1s-2.3,1.7-3.1,3
				c-0.7,1.3-1.1,2.7-1.1,4.3c0,1.6,0.4,3,1.1,4.2c0.7,1.3,1.8,2.3,3.1,3c1.3,0.7,2.8,1.1,4.4,1.1c1.9,0,3.6-0.5,5-1.4v-7.2H485.4z"
				/>
			<path class="st5" d="M509.7,371.3h-13.2c0.2,1.4,0.8,2.6,1.9,3.5s2.4,1.3,4,1.3c1.9,0,3.5-0.7,4.7-2l1.6,1.9
				c-0.7,0.9-1.7,1.5-2.8,2c-1.1,0.5-2.3,0.7-3.7,0.7c-1.7,0-3.2-0.4-4.6-1.1c-1.3-0.7-2.4-1.7-3.1-3s-1.1-2.7-1.1-4.3
				c0-1.6,0.4-3,1.1-4.3s1.7-2.3,2.9-3c1.2-0.7,2.6-1.1,4.2-1.1s2.9,0.4,4.2,1.1c1.2,0.7,2.2,1.7,2.9,3c0.7,1.3,1,2.7,1,4.4
				C509.8,370.6,509.7,370.9,509.7,371.3z M498.1,365.8c-1,0.9-1.5,2-1.7,3.4h10.5c-0.2-1.4-0.7-2.5-1.7-3.4s-2.1-1.3-3.6-1.3
				C500.3,364.5,499.1,364.9,498.1,365.8z"/>
			<path class="st5" d="M528.7,363.8c1.2,1.2,1.8,3,1.8,5.3v9.4h-3v-9c0-1.6-0.4-2.8-1.1-3.6c-0.8-0.8-1.8-1.2-3.3-1.2
				c-1.6,0-2.9,0.5-3.8,1.4c-0.9,0.9-1.4,2.3-1.4,4v8.4h-3v-16.3h2.8v2.5c0.6-0.8,1.4-1.5,2.4-1.9c1-0.5,2.2-0.7,3.5-0.7
				C525.8,362,527.5,362.6,528.7,363.8z"/>
			<path class="st5" d="M546.3,377.5c-0.4,0.4-1,0.7-1.6,0.8c-0.6,0.2-1.3,0.3-2,0.3c-1.6,0-2.9-0.4-3.8-1.3
				c-0.9-0.9-1.4-2.1-1.4-3.8v-8.9h-2.8v-2.4h2.8v-3.6h3v3.6h4.7v2.4h-4.7v8.8c0,0.9,0.2,1.6,0.7,2c0.4,0.5,1.1,0.7,1.9,0.7
				c0.9,0,1.7-0.3,2.3-0.8L546.3,377.5z"/>
		</g>
	</g>
</g>
<rect x="300" class="st1" width="300" height="225"/>
<g>
	<polygon class="st3" points="414.6,134.4 414.6,77.5 460.1,122.9 414.6,77.5 	"/>
	<polygon class="st3" points="463.9,122.9 414.7,73.7 414.7,73.7 	"/>
	<polygon class="st3" points="412,77.5 412,77.5 411.9,133.9 411.9,133.9 	"/>
	<path class="st3" d="M412,77.5l-42.2,42.1L412,77.5z"/>
	<path class="st3" d="M412,73.7l-47.6,47.5L412,73.7z"/>
	<polygon class="st3" points="412,77.5 411.9,133.9 412.9,133.7 412.9,133.7 413.6,133.5 414.2,134 414.6,134.4 414.6,77.5 
		413.3,76.1 412,77.5 	"/>
	<polygon class="st3" points="413.3,72.3 414.7,73.7 414.7,73.7 413.3,72.3 412,73.7 412,73.7 	"/>
	<polygon class="st3" points="345.9,152 345.9,152 412.8,136.5 	"/>
	<polygon class="st3" points="338.5,150.9 338.5,150.9 411.9,133.9 411.9,133.9 	"/>
	<polygon class="st3" points="411.9,133.9 411.9,133.9 411.9,133.9 	"/>
	<polygon class="st3" points="345.9,152 345.9,152 334.3,154.7 431,154.7 428.3,152 	"/>
	<polygon class="st3" points="411.9,133.9 411.9,133.9 412.9,133.7 412.9,133.7 	"/>
	<polygon class="st3" points="414.6,77.5 460.1,122.9 431.6,151.4 432.5,152.4 432.5,152.4 433.5,153.3 463.9,122.9 414.7,73.7 	"/>
	<polygon class="st3" points="412.9,133.7 414.2,134 413.6,133.5 	"/>
	<polygon class="st3" points="414.6,77.5 414.7,73.7 413.3,72.3 412,73.7 412,77.5 413.3,76.1 	"/>
	<polygon class="st3" points="432.5,152.4 431.6,154.7 432.1,154.7 433.5,153.3 	"/>
	<path class="st3" d="M414.6,134.4l17,17L414.6,134.4z"/>
	<path class="st3" d="M414.6,134.4L414.6,134.4L414.6,134.4z"/>
	<polygon class="st3" points="411.9,133.9 411.9,135 411.9,135.5 	"/>
	<polygon class="st3" points="431.6,151.4 414.6,134.4 432.5,152.4 432.5,152.4 	"/>
	<polygon class="st3" points="411.9,135.5 428.3,152 431,154.7 431,154.7 	"/>
	<polygon class="st3" points="411.9,135.5 411.9,135 411.9,133.9 338.5,150.9 338.5,150.9 369.8,119.6 412,77.5 412,73.7 
		364.4,121.2 330.9,154.7 334.2,154.7 334.3,154.7 345.9,152 412.8,136.5 428.3,152 	"/>
	<polygon class="st3" points="414.6,134.4 414.2,134 412.9,133.7 411.9,133.9 411.9,135.5 431,154.7 431.6,154.7 432.5,152.4 	"/>
	<g>
		<g>
			<path class="st3" d="M476.6,74.5V96h-2.5l-12.9-16.1V96h-3.1V74.5h2.5l12.9,16.1V74.5H476.6z"/>
			<path class="st3" d="M494.9,81.2c1.2,1.1,1.8,2.8,1.8,5V96h-2.8v-2.2c-0.5,0.8-1.2,1.3-2.1,1.7c-0.9,0.4-2,0.6-3.2,0.6
				c-1.8,0-3.3-0.4-4.4-1.3s-1.6-2-1.6-3.5c0-1.4,0.5-2.6,1.6-3.5c1-0.9,2.7-1.3,5-1.3h4.7V86c0-1.3-0.4-2.2-1.1-2.9
				c-0.7-0.7-1.8-1-3.3-1c-1,0-1.9,0.2-2.8,0.5s-1.7,0.7-2.3,1.3l-1.2-2.2c0.8-0.7,1.8-1.2,3-1.6s2.4-0.5,3.7-0.5
				C492,79.5,493.7,80.1,494.9,81.2z M492,93.1c0.8-0.5,1.4-1.2,1.8-2.1v-2.3h-4.6c-2.5,0-3.8,0.8-3.8,2.5c0,0.8,0.3,1.5,1,1.9
				c0.6,0.5,1.5,0.7,2.6,0.7C490.2,93.9,491.2,93.6,492,93.1z"/>
			<path class="st3" d="M518.6,79.7V96h-2.8v-2.5c-0.6,0.8-1.4,1.5-2.4,2s-2,0.7-3.2,0.7c-2.2,0-3.9-0.6-5.1-1.8
				c-1.3-1.2-1.9-3-1.9-5.3v-9.4h3v9c0,1.6,0.4,2.8,1.1,3.6c0.8,0.8,1.8,1.2,3.3,1.2c1.6,0,2.8-0.5,3.7-1.4c0.9-0.9,1.4-2.3,1.4-4
				v-8.4L518.6,79.7L518.6,79.7z"/>
			<path class="st3" d="M524.4,86.3h16.1v2.6h-16.1V86.3z"/>
		</g>
		<g>
			<path class="st3" d="M501,123.8c-0.4,0.4-1,0.7-1.6,0.8c-0.6,0.2-1.3,0.3-2,0.3c-1.6,0-2.9-0.4-3.8-1.3s-1.4-2.1-1.4-3.8v-8.9
				h-2.8v-2.4h2.8v-3.6h3v3.6h4.7v2.4h-4.7v8.8c0,0.9,0.2,1.6,0.7,2c0.4,0.5,1.1,0.7,1.9,0.7c0.9,0,1.7-0.3,2.3-0.8L501,123.8z"/>
			<path class="st3" d="M505.8,108.4h3v16.3h-3V108.4z M509.3,103.4l-2.1,2.1l-2.1-2.1l2.1-2.1L509.3,103.4z"/>
			<path class="st3" d="M515.6,101.9h3v22.8h-3V101.9z"/>
			<path class="st3" d="M540.5,108.4v16.3h-2.8v-2.5c-0.6,0.8-1.4,1.5-2.4,2s-2,0.7-3.2,0.7c-2.2,0-3.9-0.6-5.1-1.8
				c-1.3-1.2-1.9-3-1.9-5.3v-9.4h3v9c0,1.6,0.4,2.8,1.1,3.6c0.8,0.8,1.8,1.2,3.3,1.2c1.6,0,2.8-0.5,3.7-1.4s1.4-2.3,1.4-4v-8.4
				L540.5,108.4L540.5,108.4z"/>
			<path class="st3" d="M548.2,124.4c-1.2-0.4-2.2-0.8-2.9-1.4l1.2-2.3c0.7,0.5,1.6,0.9,2.6,1.2c1,0.3,2.1,0.5,3.1,0.5
				c2.6,0,3.9-0.7,3.9-2.2c0-0.5-0.2-0.9-0.5-1.2c-0.3-0.3-0.8-0.5-1.3-0.6s-1.3-0.3-2.2-0.4c-1.3-0.2-2.4-0.4-3.2-0.7
				c-0.8-0.3-1.5-0.7-2.1-1.4c-0.6-0.6-0.9-1.5-0.9-2.7c0-1.5,0.6-2.7,1.8-3.6s2.9-1.3,5-1.3c1.1,0,2.2,0.1,3.3,0.4s2,0.6,2.7,1.1
				l-1.3,2.3c-1.3-0.9-2.9-1.3-4.7-1.3c-1.3,0-2.2,0.2-2.9,0.6s-1,1-1,1.6c0,0.5,0.2,1,0.6,1.3c0.4,0.3,0.8,0.5,1.4,0.7
				c0.5,0.1,1.3,0.3,2.3,0.5c1.3,0.2,2.4,0.5,3.2,0.7c0.8,0.3,1.5,0.7,2.1,1.3s0.9,1.5,0.9,2.6c0,1.5-0.6,2.7-1.9,3.5
				c-1.3,0.9-3,1.3-5.2,1.3C550.7,124.9,549.4,124.7,548.2,124.4z"/>
		</g>
		<g>
			<path class="st3" d="M485.4,142.6h3v8.4c-1.1,0.9-2.3,1.6-3.7,2c-1.4,0.5-2.9,0.7-4.4,0.7c-2.2,0-4.1-0.5-5.9-1.4
				c-1.7-1-3.1-2.3-4.1-3.9c-1-1.7-1.5-3.6-1.5-5.6c0-2.1,0.5-4,1.5-5.7s2.4-3,4.1-3.9c1.8-0.9,3.7-1.4,5.9-1.4
				c1.7,0,3.3,0.3,4.7,0.8c1.4,0.6,2.6,1.4,3.6,2.5l-1.9,1.9c-1.7-1.7-3.8-2.5-6.2-2.5c-1.6,0-3.1,0.4-4.4,1.1
				c-1.3,0.7-2.3,1.7-3.1,3c-0.7,1.3-1.1,2.7-1.1,4.3s0.4,3,1.1,4.2c0.7,1.3,1.8,2.3,3.1,3c1.3,0.7,2.8,1.1,4.4,1.1
				c1.9,0,3.6-0.5,5-1.4v-7.2H485.4z"/>
			<path class="st3" d="M509.7,146.3h-13.2c0.2,1.4,0.8,2.6,1.9,3.5s2.4,1.3,4,1.3c1.9,0,3.5-0.7,4.7-2l1.6,1.9
				c-0.7,0.9-1.7,1.5-2.8,2c-1.1,0.5-2.3,0.7-3.7,0.7c-1.7,0-3.2-0.4-4.6-1.1c-1.3-0.7-2.4-1.7-3.1-3s-1.1-2.7-1.1-4.3
				s0.4-3,1.1-4.3s1.7-2.3,2.9-3c1.2-0.7,2.6-1.1,4.2-1.1s2.9,0.4,4.2,1.1c1.2,0.7,2.2,1.7,2.9,3c0.7,1.3,1,2.7,1,4.4
				C509.8,145.6,509.7,145.9,509.7,146.3z M498.1,140.8c-1,0.9-1.5,2-1.7,3.4h10.5c-0.2-1.4-0.7-2.5-1.7-3.4s-2.1-1.3-3.6-1.3
				C500.3,139.5,499.1,139.9,498.1,140.8z"/>
			<path class="st3" d="M528.7,138.8c1.2,1.2,1.8,3,1.8,5.3v9.4h-3v-9c0-1.6-0.4-2.8-1.1-3.6c-0.8-0.8-1.8-1.2-3.3-1.2
				c-1.6,0-2.9,0.5-3.8,1.4c-0.9,0.9-1.4,2.3-1.4,4v8.4h-3v-16.3h2.8v2.5c0.6-0.8,1.4-1.5,2.4-1.9c1-0.5,2.2-0.7,3.5-0.7
				C525.8,137,527.5,137.6,528.7,138.8z"/>
			<path class="st3" d="M546.3,152.5c-0.4,0.4-1,0.7-1.6,0.8c-0.6,0.2-1.3,0.3-2,0.3c-1.6,0-2.9-0.4-3.8-1.3
				c-0.9-0.9-1.4-2.1-1.4-3.8v-8.9h-2.8v-2.4h2.8v-3.6h3v3.6h4.7v2.4h-4.7v8.8c0,0.9,0.2,1.6,0.7,2c0.4,0.5,1.1,0.7,1.9,0.7
				c0.9,0,1.7-0.3,2.3-0.8L546.3,152.5z"/>
		</g>
	</g>
</g>
</svg>
