<?xml version="1.0" encoding="utf-8"?>
<!-- Generator: Adobe Illustrator 22.1.0, SVG Export Plug-In . SVG Version: 6.00 Build 0)  -->
<svg version="1.1" id="Layer_1" xmlns="http://www.w3.org/2000/svg" xmlns:xlink="http://www.w3.org/1999/xlink" x="0px" y="0px"
	 viewBox="0 0 600 450" style="enable-background:new 0 0 600 450;" xml:space="preserve">
<style type="text/css">
	.st0{fill:#EF7F6A;}
	.st1{fill:#EA5B5D;}
	.st2{fill:#1D1D1B;}
	.st3{fill:#575756;}
	.st4{fill:#FFFFFF;}
	.st5{font-family:'Montserrat-Regular';}
	.st6{font-size:10px;}
	.st7{font-family:'Montserrat-Medium';}
	.st8{font-size:11px;}
</style>
<g>
	<polygon class="st0" points="100.1,39.3 100,95.7 101,95.5 101,95.5 101.7,95.3 102.3,95.8 102.7,96.2 102.7,39.3 101.4,37.9 
		100.1,39.3 	"/>
	<polygon class="st0" points="34,113.8 34,113.8 22.4,116.5 119.1,116.5 116.4,113.8 	"/>
	<polygon class="st1" points="102.8,35.5 101.4,34.1 100.1,35.5 52.5,83 19,116.5 22.3,116.5 22.4,116.5 34,113.8 100.9,98.3 
		116.4,113.8 100,97.3 100,96.8 100,95.7 26.6,112.7 26.6,112.7 57.9,81.4 100.1,39.3 101.4,37.9 102.7,39.3 148.2,84.7 
		119.7,113.2 120.6,114.2 120.6,114.2 102.7,96.2 102.7,96.2 102.3,95.8 101.7,95.3 101,95.5 100,95.7 100,97.3 119.1,116.5 
		119.7,116.5 120.2,116.5 121.6,115.1 152,84.7 	"/>
	<g>
		<g>
			<path class="st2" d="M164.7,36.3v21.5h-2.5l-12.9-16.1v16.1h-3.1V36.3h2.5l12.9,16.1V36.3H164.7z"/>
			<path class="st2" d="M183,43c1.2,1.1,1.8,2.8,1.8,5v9.8H182v-2.2c-0.5,0.8-1.2,1.3-2.1,1.7c-0.9,0.4-2,0.6-3.2,0.6
				c-1.8,0-3.3-0.4-4.4-1.3s-1.6-2-1.6-3.5c0-1.4,0.5-2.6,1.6-3.5c1-0.9,2.7-1.3,5-1.3h4.7v-0.5c0-1.3-0.4-2.2-1.1-2.9
				c-0.7-0.7-1.8-1-3.3-1c-1,0-1.9,0.2-2.8,0.5s-1.7,0.7-2.3,1.3l-1.2-2.2c0.8-0.7,1.8-1.2,3-1.6s2.4-0.5,3.7-0.5
				C180.1,41.3,181.8,41.9,183,43z M180.1,54.9c0.8-0.5,1.4-1.2,1.8-2.1v-2.3h-4.6c-2.5,0-3.8,0.8-3.8,2.5c0,0.8,0.3,1.5,1,1.9
				c0.6,0.5,1.5,0.7,2.6,0.7C178.3,55.7,179.3,55.4,180.1,54.9z"/>
			<path class="st2" d="M206.7,41.5v16.3h-2.8v-2.5c-0.6,0.8-1.4,1.5-2.4,2s-2,0.7-3.2,0.7c-2.2,0-3.9-0.6-5.1-1.8
				c-1.3-1.2-1.9-3-1.9-5.3v-9.4h3v9c0,1.6,0.4,2.8,1.1,3.6c0.8,0.8,1.8,1.2,3.3,1.2c1.6,0,2.8-0.5,3.7-1.4c0.9-0.9,1.4-2.3,1.4-4
				v-8.4L206.7,41.5L206.7,41.5z"/>
			<path class="st2" d="M212.5,48.1h16.1v2.6h-16.1V48.1z"/>
		</g>
		<g>
			<path class="st2" d="M189.1,85.6c-0.4,0.4-1,0.7-1.6,0.8c-0.6,0.2-1.3,0.3-2,0.3c-1.6,0-2.9-0.4-3.8-1.3s-1.4-2.1-1.4-3.8v-8.9
				h-2.8v-2.4h2.8v-3.6h3v3.6h4.7v2.4h-4.7v8.8c0,0.9,0.2,1.6,0.7,2c0.4,0.5,1.1,0.7,1.9,0.7c0.9,0,1.7-0.3,2.3-0.8L189.1,85.6z"/>
			<path class="st2" d="M193.9,70.2h3v16.3h-3V70.2z M197.4,65.2l-2.1,2.1l-2.1-2.1l2.1-2.1L197.4,65.2z"/>
			<path class="st2" d="M203.7,63.7h3v22.8h-3V63.7z"/>
			<path class="st2" d="M228.6,70.2v16.3h-2.8V84c-0.6,0.8-1.4,1.5-2.4,2s-2,0.7-3.2,0.7c-2.2,0-3.9-0.6-5.1-1.8
				c-1.3-1.2-1.9-3-1.9-5.3v-9.4h3v9c0,1.6,0.4,2.8,1.1,3.6c0.8,0.8,1.8,1.2,3.3,1.2c1.6,0,2.8-0.5,3.7-1.4s1.4-2.3,1.4-4v-8.4
				L228.6,70.2L228.6,70.2z"/>
			<path class="st2" d="M236.3,86.2c-1.2-0.4-2.2-0.8-2.9-1.4l1.2-2.3c0.7,0.5,1.6,0.9,2.6,1.2c1,0.3,2.1,0.5,3.1,0.5
				c2.6,0,3.9-0.7,3.9-2.2c0-0.5-0.2-0.9-0.5-1.2c-0.3-0.3-0.8-0.5-1.3-0.6s-1.3-0.3-2.2-0.4c-1.3-0.2-2.4-0.4-3.2-0.7
				c-0.8-0.3-1.5-0.7-2.1-1.4c-0.6-0.6-0.9-1.5-0.9-2.7c0-1.5,0.6-2.7,1.8-3.6s2.9-1.3,5-1.3c1.1,0,2.2,0.1,3.3,0.4s2,0.6,2.7,1.1
				l-1.3,2.3c-1.3-0.9-2.9-1.3-4.7-1.3c-1.3,0-2.2,0.2-2.9,0.6s-1,1-1,1.6c0,0.5,0.2,1,0.6,1.3c0.4,0.3,0.8,0.5,1.4,0.7
				c0.5,0.1,1.3,0.3,2.3,0.5c1.3,0.2,2.4,0.5,3.2,0.7c0.8,0.3,1.5,0.7,2.1,1.3c0.6,0.6,0.9,1.5,0.9,2.6c0,1.5-0.6,2.7-1.9,3.5
				c-1.3,0.9-3,1.3-5.2,1.3C238.8,86.7,237.5,86.5,236.3,86.2z"/>
		</g>
		<g>
			<path class="st3" d="M173.5,104.4h3v8.4c-1.1,0.9-2.3,1.6-3.7,2c-1.4,0.5-2.9,0.7-4.4,0.7c-2.2,0-4.1-0.5-5.9-1.4
				c-1.7-1-3.1-2.3-4.1-3.9c-1-1.7-1.5-3.6-1.5-5.6c0-2.1,0.5-4,1.5-5.7s2.4-3,4.1-3.9c1.8-0.9,3.7-1.4,5.9-1.4
				c1.7,0,3.3,0.3,4.7,0.8c1.4,0.6,2.6,1.4,3.6,2.5l-1.9,1.9c-1.7-1.7-3.8-2.5-6.2-2.5c-1.6,0-3.1,0.4-4.4,1.1s-2.3,1.7-3.1,3
				c-0.7,1.3-1.1,2.7-1.1,4.3c0,1.6,0.4,3,1.1,4.2c0.7,1.3,1.8,2.3,3.1,3c1.3,0.7,2.8,1.1,4.4,1.1c1.9,0,3.6-0.5,5-1.4v-7.2H173.5z"
				/>
			<path class="st3" d="M197.8,108.1h-13.2c0.2,1.4,0.8,2.6,1.9,3.5s2.4,1.3,4,1.3c1.9,0,3.5-0.7,4.7-2l1.6,1.9
				c-0.7,0.9-1.7,1.5-2.8,2c-1.1,0.5-2.3,0.7-3.7,0.7c-1.7,0-3.2-0.4-4.6-1.1c-1.3-0.7-2.4-1.7-3.1-3s-1.1-2.7-1.1-4.3
				c0-1.6,0.4-3,1.1-4.3s1.7-2.3,2.9-3c1.2-0.7,2.6-1.1,4.2-1.1s2.9,0.4,4.2,1.1c1.2,0.7,2.2,1.7,2.9,3c0.7,1.3,1,2.7,1,4.4
				C197.9,107.4,197.8,107.7,197.8,108.1z M186.2,102.6c-1,0.9-1.5,2-1.7,3.4H195c-0.2-1.4-0.7-2.5-1.7-3.4s-2.1-1.3-3.6-1.3
				C188.4,101.3,187.2,101.7,186.2,102.6z"/>
			<path class="st3" d="M216.8,100.6c1.2,1.2,1.8,3,1.8,5.3v9.4h-3v-9c0-1.6-0.4-2.8-1.1-3.6c-0.8-0.8-1.8-1.2-3.3-1.2
				c-1.6,0-2.9,0.5-3.8,1.4c-0.9,0.9-1.4,2.3-1.4,4v8.4h-3V99h2.8v2.5c0.6-0.8,1.4-1.5,2.4-1.9c1-0.5,2.2-0.7,3.5-0.7
				C213.9,98.8,215.6,99.4,216.8,100.6z"/>
			<path class="st3" d="M234.4,114.3c-0.4,0.4-1,0.7-1.6,0.8c-0.6,0.2-1.3,0.3-2,0.3c-1.6,0-2.9-0.4-3.8-1.3
				c-0.9-0.9-1.4-2.1-1.4-3.8v-8.9h-2.8V99h2.8v-3.6h3V99h4.7v2.4h-4.7v8.8c0,0.9,0.2,1.6,0.7,2c0.4,0.5,1.1,0.7,1.9,0.7
				c0.9,0,1.7-0.3,2.3-0.8L234.4,114.3z"/>
		</g>
	</g>
</g>
<polygon class="st4" points="458.8,91 458.8,91 458.8,91 "/>
<path class="st4" d="M461.5,91.5L461.5,91.5L461.5,91.5z"/>
<g>
	<path class="st1" d="M369,116.8h0.6h0.5l1.4-1.4L401.9,85l-49.2-49.2l-1.4-1.4l-1.3,1.4l-47.6,47.5l-33.5,33.5h3.3h0.1H369"/>
	<g>
		<text transform="matrix(1 0 0 1 268.7879 148.4841)"><tspan x="0" y="0" class="st3 st5 st6">CMYK</tspan><tspan x="7.7" y="18" class="st3 st5 st6">RGB</tspan><tspan x="8.8" y="36" class="st3 st5 st6">HEX</tspan><tspan x="7.3" y="54" class="st3 st5 st6">PMS</tspan></text>
		<text transform="matrix(1 0 0 1 310.9876 148.4841)"><tspan x="0" y="0" class="st7 st8">0 • 76 • 55 • 0 </tspan><tspan x="0" y="18" class="st7 st8">234 </tspan><tspan x="22.9" y="18" class="st7 st8">• 91 • 93</tspan><tspan x="0" y="36" class="st7 st8">#EA5B5D</tspan><tspan x="0" y="54" class="st7 st8">178 C</tspan></text>
	</g>
</g>
<g>
	<path class="st0" d="M369,319.9h0.6h0.5l1.4-1.4l30.4-30.4l-49.2-49.2l-1.4-1.4l-1.3,1.4l-47.6,47.5l-33.5,33.5h3.3h0.1H369"/>
	<g>
		<text transform="matrix(1 0 0 1 268.7878 351.5673)"><tspan x="0" y="0" class="st3 st5 st6">CMYK</tspan><tspan x="7.7" y="18" class="st3 st5 st6">RGB</tspan><tspan x="8.8" y="36" class="st3 st5 st6">HEX</tspan><tspan x="7.3" y="54" class="st3 st5 st6">PMS</tspan></text>
		<text transform="matrix(1 0 0 1 310.9875 351.5673)"><tspan x="0" y="0" class="st7 st8">0 • 61 • 55 • 0 </tspan><tspan x="0" y="18" class="st7 st8">239 </tspan><tspan x="22.4" y="18" class="st7 st8">• 127 • 106</tspan><tspan x="0" y="36" class="st7 st8">#EF7F6A</tspan><tspan x="0" y="54" class="st7 st8">2345 C</tspan></text>
	</g>
</g>
<g>
	<path class="st2" d="M530.6,116.8h0.6h0.5l1.4-1.4L563.5,85l-49.2-49.2l-1.4-1.4l-1.3,1.4L464,83.3l-33.5,33.5h3.3h0.1H530.6"/>
	<g>
		<text transform="matrix(1 0 0 1 430.3261 148.4843)"><tspan x="0" y="0" class="st3 st5 st6">CMYK</tspan><tspan x="7.7" y="18" class="st3 st5 st6">RGB</tspan><tspan x="8.8" y="36" class="st3 st5 st6">HEX</tspan><tspan x="7.3" y="54" class="st3 st5 st6">PMS</tspan></text>
		<text transform="matrix(1 0 0 1 472.5258 148.4843)"><tspan x="0" y="0" class="st7 st8">0 • 0 • 0 • 100 </tspan><tspan x="0" y="18" class="st7 st8">0 </tspan><tspan x="10.3" y="18" class="st7 st8">• 0 • 0</tspan><tspan x="0" y="36" class="st7 st8">#000000</tspan><tspan x="0" y="54" class="st7 st8">Process Black</tspan></text>
	</g>
</g>
<g>
	<path class="st3" d="M530.6,319.9h0.6h0.5l1.4-1.4l30.4-30.4l-49.2-49.2l-1.4-1.4l-1.3,1.4L464,286.4l-33.5,33.5h3.3h0.1H530.6"/>
	<g>
		<text transform="matrix(1 0 0 1 430.3261 351.5675)"><tspan x="0" y="0" class="st3 st5 st6">CMYK</tspan><tspan x="7.7" y="18" class="st3 st5 st6">RGB</tspan><tspan x="8.8" y="36" class="st3 st5 st6">HEX</tspan><tspan x="7.3" y="54" class="st3 st5 st6">PMS</tspan></text>
		<text transform="matrix(1 0 0 1 472.5258 351.5675)"><tspan x="0" y="0" class="st7 st8">59 • 49 • 49 • 42</tspan><tspan x="0" y="18" class="st7 st8">87 </tspan><tspan x="16.6" y="18" class="st7 st8">• 87 • 86</tspan><tspan x="0" y="36" class="st7 st8">#575756</tspan><tspan x="0" y="54" class="st7 st8">446 C</tspan></text>
	</g>
</g>
<polyline class="st1" points="953.5,175.7 837.4,305.8 809.3,280.7 925.4,150.6 "/>
</svg>
