<?xml version="1.0" encoding="utf-8"?>
<!-- Generator: Adobe Illustrator 22.1.0, SVG Export Plug-In . SVG Version: 6.00 Build 0)  -->
<svg version="1.1" id="Layer_1" xmlns="http://www.w3.org/2000/svg" xmlns:xlink="http://www.w3.org/1999/xlink" x="0px" y="0px"
	 viewBox="0 0 1000 357.3" style="enable-background:new 0 0 1000 357.3;" xml:space="preserve">
<style type="text/css">
	.st0{fill:none;}
	.st1{fill:#EF7F6A;}
	.st2{fill:#EA5B5D;}
	.st3{fill:#E0533F;}
	.st4{fill:#575756;}
</style>
<polygon class="st0" points="69.9,345.6 427.4,345.6 360,278.2 "/>
<polygon class="st0" points="367.7,269.4 441.5,343.2 565.2,219.4 368.1,22.3 "/>
<polygon class="st0" points="356,267.2 356.4,22.4 173.6,205.1 37.5,341.1 "/>
<polygon class="st1" points="367.7,269.4 368.1,22.3 565.2,219.4 368.1,22.3 "/>
<polygon class="st1" points="581.7,219.4 368.1,5.8 368.1,5.8 "/>
<polygon class="st1" points="356.4,22.4 356.4,22.4 356,267.2 356,267.2 "/>
<path class="st1" d="M356.4,22.4L173.6,205.1L356.4,22.4z"/>
<path class="st1" d="M356.4,5.8L150.2,211.9L356.4,5.8z"/>
<polygon class="st1" points="356.4,22.4 356,267.2 360.5,266.1 360.5,266.1 363.7,265.4 366,267.7 367.7,269.4 368.1,22.3 
	362.3,16.5 356.4,22.4 "/>
<polygon class="st1" points="362.3,0 368.1,5.8 368.1,5.8 362.3,0 356.4,5.8 356.4,5.8 "/>
<polygon class="st1" points="69.9,345.6 69.9,345.6 360,278.2 "/>
<polygon class="st1" points="37.5,341.1 37.5,341.1 356,267.2 356,267.2 "/>
<polygon class="st1" points="356,267.2 356,267.2 356,267.2 "/>
<polygon class="st1" points="69.9,345.6 69.9,345.6 19.6,357.3 439,357.3 427.4,345.6 "/>
<polygon class="st1" points="356,267.2 356,267.2 360.5,266.1 360.5,266.1 "/>
<polygon class="st2" points="368.1,22.3 565.2,219.4 441.5,343.2 445.6,347.3 445.6,347.3 449.7,351.4 581.7,219.4 368.1,5.8 "/>
<polygon class="st3" points="360.5,266.1 366,267.7 363.7,265.4 "/>
<polygon class="st2" points="368.1,22.3 368.1,5.8 362.3,0 356.4,5.8 356.4,22.4 362.3,16.5 "/>
<polygon class="st2" points="445.6,347.3 441.5,357.3 443.9,357.3 449.7,351.4 "/>
<path class="st3" d="M367.7,269.4l73.8,73.8L367.7,269.4z"/>
<path class="st3" d="M367.7,269.4L367.7,269.4L367.7,269.4z"/>
<polygon class="st3" points="356,267.2 356,271.8 356,274.2 "/>
<polygon class="st3" points="441.5,343.2 367.7,269.4 445.6,347.3 445.6,347.3 "/>
<polygon class="st3" points="356,274.2 427.4,345.6 439,357.3 439,357.3 "/>
<polygon class="st2" points="356,274.2 356,271.8 356,267.2 37.5,341.1 37.5,341.1 173.6,205.1 356.4,22.4 356.4,5.8 150.2,211.9 
	4.8,357.3 18.9,357.3 19.6,357.3 69.9,345.6 360,278.2 427.4,345.6 "/>
<polygon class="st2" points="367.7,269.4 366,267.7 360.5,266.1 356,267.2 356,274.2 439,357.3 441.5,357.3 445.6,347.3 "/>
<g>
	<g>
		<path d="M636.9,9.3v93.4H626L570,33v69.7h-13.3V9.3h10.9l56,69.7V9.3H636.9z"/>
		<path d="M716.5,38.5c5.2,4.8,7.8,12,7.8,21.5v42.7h-12.1v-9.3c-2.1,3.3-5.2,5.8-9.1,7.5c-4,1.7-8.7,2.6-14.1,2.6
			c-7.9,0-14.3-1.9-19-5.7c-4.8-3.8-7.1-8.9-7.1-15.1s2.3-11.2,6.8-15c4.5-3.8,11.7-5.7,21.6-5.7h20.3v-2.5c0-5.5-1.6-9.7-4.8-12.7
			c-3.2-2.9-7.9-4.4-14.1-4.4c-4.2,0-8.3,0.7-12.3,2.1c-4,1.4-7.4,3.2-10.1,5.5l-5.3-9.6c3.6-2.9,8-5.2,13.1-6.7
			c5.1-1.6,10.5-2.3,16.1-2.3C703.8,31.3,711.3,33.7,716.5,38.5z M703.7,90.3c3.6-2.2,6.1-5.3,7.7-9.3v-9.9h-19.7
			c-10.9,0-16.3,3.6-16.3,10.9c0,3.6,1.4,6.4,4.1,8.4c2.8,2,6.6,3.1,11.5,3.1C696,93.6,700.2,92.5,703.7,90.3z"/>
		<path d="M819.2,31.9v70.7H807V92c-2.6,3.6-6,6.5-10.2,8.5s-8.8,3-13.8,3c-9.4,0-16.9-2.6-22.3-7.8c-5.4-5.2-8.1-12.9-8.1-23V31.9
			h12.8v39.2c0,6.9,1.6,12,4.9,15.5c3.3,3.5,8,5.3,14.1,5.3c6.8,0,12.1-2,16-6.1s5.9-9.9,5.9-17.3V31.9H819.2z"/>
		<path d="M844.2,60.5h70.1v11.1h-70.1V60.5z"/>
	</g>
	<g>
		<path d="M742.8,223.2c-1.9,1.6-4.2,2.8-6.9,3.7c-2.8,0.8-5.6,1.3-8.5,1.3c-7.1,0-12.6-1.9-16.5-5.7s-5.9-9.3-5.9-16.4v-38.8h-12
			v-10.5h12v-15.5h12.8v15.5H738v10.5h-20.3v38.3c0,3.8,1,6.8,2.9,8.8s4.6,3.1,8.2,3.1c3.9,0,7.2-1.1,10-3.3L742.8,223.2z"/>
		<path d="M763.5,156.6h12.8v70.7h-12.8V156.6z M779,134.7l-9.1,9.1l-9.1-9.1l9.1-9.1L779,134.7z"/>
		<path d="M806,128.3h12.8v99H806V128.3z"/>
		<path d="M914.3,156.6v70.7h-12.1v-10.7c-2.6,3.6-6,6.5-10.2,8.5s-8.8,3-13.8,3c-9.4,0-16.9-2.6-22.3-7.8c-5.4-5.2-8.1-12.9-8.1-23
			v-40.7h12.8v39.2c0,6.9,1.6,12,4.9,15.5c3.3,3.5,8,5.3,14.1,5.3c6.8,0,12.1-2,16-6.1s5.9-9.9,5.9-17.3v-36.6H914.3z"/>
		<path d="M947.5,225.8c-5.3-1.6-9.5-3.5-12.5-5.9l5.3-10.1c3.1,2.2,6.9,4,11.3,5.3c4.4,1.3,8.9,2,13.5,2c11.2,0,16.8-3.2,16.8-9.6
			c0-2.1-0.8-3.8-2.3-5.1c-1.5-1.2-3.4-2.2-5.7-2.7c-2.3-0.6-5.5-1.2-9.7-1.9c-5.7-0.9-10.3-1.9-13.9-3.1c-3.6-1.2-6.7-3.1-9.3-5.9
			c-2.6-2.8-3.9-6.6-3.9-11.6c0-6.4,2.7-11.5,8-15.4s12.5-5.8,21.5-5.8c4.7,0,9.4,0.6,14.1,1.7c4.7,1.2,8.6,2.7,11.6,4.7l-5.5,10.1
			c-5.8-3.7-12.6-5.6-20.4-5.6c-5.4,0-9.6,0.9-12.4,2.7c-2.8,1.8-4.3,4.1-4.3,7.1c0,2.3,0.8,4.1,2.4,5.5c1.6,1.3,3.6,2.3,5.9,2.9
			c2.4,0.6,5.7,1.3,9.9,2.1c5.7,1,10.3,2,13.8,3.1s6.5,3,9,5.7s3.7,6.4,3.7,11.2c0,6.4-2.7,11.5-8.2,15.3s-12.9,5.7-22.4,5.7
			C958.4,228.1,952.9,227.4,947.5,225.8z"/>
	</g>
	<g>
		<path class="st4" d="M675.2,304.8H688v36.4c-4.6,3.8-10,6.8-16.1,8.8s-12.5,3.1-19.2,3.1c-9.4,0-17.9-2.1-25.5-6.2
			s-13.5-9.8-17.8-17.1c-4.3-7.3-6.5-15.4-6.5-24.5s2.2-17.3,6.5-24.6c4.3-7.3,10.3-13,17.9-17.1c7.6-4.1,16.2-6.1,25.7-6.1
			c7.5,0,14.3,1.2,20.3,3.7c6.1,2.4,11.3,6,15.5,10.7l-8.3,8.3c-7.5-7.2-16.5-10.8-27.1-10.8c-7.1,0-13.5,1.5-19.1,4.6
			c-5.7,3.1-10.1,7.3-13.3,12.8s-4.8,11.6-4.8,18.5c0,6.8,1.6,12.9,4.8,18.3c3.2,5.5,7.6,9.8,13.3,12.9c5.6,3.1,12,4.7,19,4.7
			c8.4,0,15.7-2,21.9-6L675.2,304.8L675.2,304.8z"/>
		<path class="st4" d="M780.5,320.9h-57.4c0.8,6.2,3.5,11.2,8.2,15s10.5,5.7,17.4,5.7c8.5,0,15.3-2.8,20.4-8.5l7.1,8.3
			c-3.2,3.7-7.2,6.6-11.9,8.5c-4.8,2-10.1,2.9-15.9,2.9c-7.5,0-14.1-1.5-19.9-4.6c-5.8-3.1-10.3-7.4-13.4-12.9
			c-3.2-5.5-4.7-11.7-4.7-18.7c0-6.8,1.5-13,4.6-18.5s7.3-9.8,12.7-12.9s11.5-4.6,18.2-4.6c6.8,0,12.8,1.5,18.1,4.6
			s9.4,7.4,12.4,12.9s4.5,11.8,4.5,18.9C780.8,318,780.7,319.3,780.5,320.9z M730.4,297.1c-4.1,3.7-6.6,8.6-7.3,14.7h45.4
			c-0.7-6-3.1-10.8-7.3-14.6c-4.1-3.8-9.3-5.7-15.4-5.7S734.6,293.3,730.4,297.1z"/>
		<path class="st4" d="M862.9,288.4c5.3,5.2,7.9,12.8,7.9,22.9V352H858v-39.2c0-6.9-1.6-12-4.9-15.5c-3.3-3.5-8-5.2-14.1-5.2
			c-6.9,0-12.4,2-16.4,6.1c-4,4-6,9.9-6,17.4V352h-12.8v-70.7H816V292c2.6-3.6,6.1-6.4,10.5-8.4s9.4-2.9,15-2.9
			C850.5,280.6,857.6,283.2,862.9,288.4z"/>
		<path class="st4" d="M939.6,347.9c-1.9,1.6-4.2,2.8-6.9,3.7c-2.8,0.8-5.6,1.3-8.5,1.3c-7.1,0-12.6-1.9-16.5-5.7
			c-3.9-3.8-5.9-9.3-5.9-16.4V292h-12v-10.5h12V266h12.8v15.5h20.3V292h-20.3v38.3c0,3.8,1,6.8,2.9,8.8s4.6,3.1,8.2,3.1
			c3.9,0,7.2-1.1,10-3.3L939.6,347.9z"/>
	</g>
</g>
</svg>
