<?xml version="1.0" encoding="utf-8"?>
<!-- Generator: Adobe Illustrator 22.1.0, SVG Export Plug-In . SVG Version: 6.00 Build 0)  -->
<svg version="1.1" id="Layer_1" xmlns="http://www.w3.org/2000/svg" xmlns:xlink="http://www.w3.org/1999/xlink" x="0px" y="0px"
	 viewBox="0 0 600 450" style="enable-background:new 0 0 600 450;" xml:space="preserve">
<style type="text/css">
	.st0{fill:#FFFFFF;}
	.st1{fill:#EF7F6A;}
	.st2{fill:#E0533F;}
	.st3{fill:#1D1D1B;}
</style>
<polygon class="st0" points="230.9,272.3 230.9,143.5 334,246.3 230.9,143.5 "/>
<polygon class="st0" points="342.6,246.3 231.1,134.9 231.1,134.9 "/>
<polygon class="st0" points="225,143.5 225,143.5 224.8,271.2 224.8,271.2 "/>
<path class="st0" d="M225,143.5l-95.6,95.4L225,143.5z"/>
<path class="st0" d="M225,134.9L117.2,242.4L225,134.9z"/>
<polygon class="st1" points="225,143.5 224.8,271.2 227.1,270.8 227.1,270.8 228.7,270.3 230,271.4 230.9,272.3 230.9,143.5 
	228,140.3 225,143.5 "/>
<polygon class="st0" points="228,131.7 231.1,134.9 231.1,134.9 228,131.7 225,134.9 225,134.9 "/>
<polygon class="st0" points="75.3,312.2 75.3,312.2 226.8,277.1 "/>
<polygon class="st0" points="58.6,309.7 58.6,309.7 224.8,271.2 224.8,271.2 "/>
<polygon class="st0" points="224.8,271.2 224.8,271.2 224.8,271.2 "/>
<polygon class="st1" points="75.3,312.2 75.3,312.2 49.1,318.3 268.1,318.3 261.9,312.2 "/>
<polygon class="st0" points="224.8,271.2 224.8,271.2 227.1,270.8 227.1,270.8 "/>
<path class="st0" d="M230.9,272.3l38.5,38.5L230.9,272.3z"/>
<path class="st0" d="M230.9,272.3L230.9,272.3L230.9,272.3z"/>
<polygon class="st0" points="224.8,271.2 224.8,273.7 224.8,274.8 "/>
<polygon class="st0" points="269.4,310.8 230.9,272.3 271.5,313.1 271.5,313.1 "/>
<polygon class="st0" points="224.8,274.8 261.9,312.2 268.1,318.3 268.1,318.3 "/>
<polygon class="st2" points="231.1,134.9 228,131.7 225,134.9 117.2,242.4 41.4,318.3 48.8,318.3 49.1,318.3 75.3,312.2 
	226.8,277.1 261.9,312.2 224.8,274.8 224.8,273.7 224.8,271.2 58.6,309.7 58.6,309.7 129.5,238.8 225,143.5 228,140.3 230.9,143.5 
	334,246.3 269.4,310.8 271.5,313.1 271.5,313.1 230.9,272.3 230.9,272.3 230,271.4 228.7,270.3 227.1,270.8 224.8,271.2 
	224.8,274.8 268.1,318.3 269.4,318.3 270.6,318.3 273.7,315.1 342.6,246.3 "/>
<g>
	<g>
		<path class="st3" d="M371.3,136.7v48.7h-5.7l-29.2-36.5v36.5h-7v-48.7h5.7l29.2,36.5v-36.5H371.3z"/>
		<path class="st3" d="M412.8,151.8c2.7,2.5,4.1,6.3,4.1,11.3v22.2h-6.3v-5c-1.1,1.8-2.7,2.9-4.8,3.9c-2,0.9-4.5,1.4-7.2,1.4
			c-4.1,0-7.5-0.9-10-2.9c-2.5-2-3.6-4.5-3.6-7.9c0-3.2,1.1-5.9,3.6-7.9c2.3-2,6.1-2.9,11.3-2.9h10.6v-1.1c0-2.9-0.9-5-2.5-6.6
			c-1.6-1.6-4.1-2.3-7.5-2.3c-2.3,0-4.3,0.5-6.3,1.1c-2,0.7-3.9,1.6-5.2,2.9l-2.7-5c1.8-1.6,4.1-2.7,6.8-3.6s5.4-1.1,8.4-1.1
			C406.2,148,410.1,149.4,412.8,151.8z M406.2,178.8c1.8-1.1,3.2-2.7,4.1-4.8v-5.2h-10.4c-5.7,0-8.6,1.8-8.6,5.7
			c0,1.8,0.7,3.4,2.3,4.3c1.4,1.1,3.4,1.6,5.9,1.6C402.1,180.6,404.4,179.9,406.2,178.8z"/>
		<path class="st3" d="M466.5,148.4v36.9h-6.3v-5.7c-1.4,1.8-3.2,3.4-5.4,4.5c-2.3,1.1-4.5,1.6-7.2,1.6c-5,0-8.8-1.4-11.6-4.1
			c-2.9-2.7-4.3-6.8-4.3-12v-21.3h6.8v20.4c0,3.6,0.9,6.3,2.5,8.2c1.8,1.8,4.1,2.7,7.5,2.7c3.6,0,6.3-1.1,8.4-3.2
			c2-2,3.2-5.2,3.2-9.1v-19L466.5,148.4L466.5,148.4z"/>
		<path class="st3" d="M479.6,163.4h36.5v5.9h-36.5V163.4z"/>
	</g>
	<g>
		<path class="st3" d="M426.6,248.3c-0.9,0.9-2.3,1.6-3.6,1.8c-1.4,0.5-2.9,0.7-4.5,0.7c-3.6,0-6.6-0.9-8.6-2.9
			c-2-2-3.2-4.8-3.2-8.6v-20.2h-6.3v-5.4h6.3v-8.2h6.8v8.2h10.6v5.4h-10.6V239c0,2,0.5,3.6,1.6,4.5c0.9,1.1,2.5,1.6,4.3,1.6
			c2,0,3.9-0.7,5.2-1.8L426.6,248.3z"/>
		<path class="st3" d="M437.5,213.4h6.8v36.9h-6.8V213.4z M445.4,202.1l-4.8,4.8l-4.8-4.8l4.8-4.8L445.4,202.1z"/>
		<path class="st3" d="M459.7,198.7h6.8v51.6h-6.8V198.7z"/>
		<path class="st3" d="M516.1,213.4v36.9h-6.3v-5.7c-1.4,1.8-3.2,3.4-5.4,4.5c-2.3,1.1-4.5,1.6-7.2,1.6c-5,0-8.8-1.4-11.6-4.1
			c-2.9-2.7-4.3-6.8-4.3-12v-21.3h6.8v20.4c0,3.6,0.9,6.3,2.5,8.2c1.8,1.8,4.1,2.7,7.5,2.7c3.6,0,6.3-1.1,8.4-3.2
			c2-2,3.2-5.2,3.2-9.1v-19L516.1,213.4L516.1,213.4z"/>
		<path class="st3" d="M533.5,249.7c-2.7-0.9-5-1.8-6.6-3.2l2.7-5.2c1.6,1.1,3.6,2,5.9,2.7c2.3,0.7,4.8,1.1,7,1.1
			c5.9,0,8.8-1.6,8.8-5c0-1.1-0.5-2-1.1-2.7c-0.7-0.7-1.8-1.1-2.9-1.4s-2.9-0.7-5-0.9c-2.9-0.5-5.4-0.9-7.2-1.6
			c-1.8-0.7-3.4-1.6-4.8-3.2c-1.4-1.4-2-3.4-2-6.1c0-3.4,1.4-6.1,4.1-8.2c2.7-2,6.6-2.9,11.3-2.9c2.5,0,5,0.2,7.5,0.9
			c2.5,0.7,4.5,1.4,6.1,2.5l-2.9,5.2c-2.9-2-6.6-2.9-10.6-2.9c-2.9,0-5,0.5-6.6,1.4c-1.6,0.9-2.3,2.3-2.3,3.6c0,1.1,0.5,2.3,1.4,2.9
			c0.9,0.7,1.8,1.1,3.2,1.6c1.1,0.2,2.9,0.7,5.2,1.1c2.9,0.5,5.4,1.1,7.2,1.6c1.8,0.7,3.4,1.6,4.8,2.9c1.4,1.4,2,3.4,2,5.9
			c0,3.4-1.4,6.1-4.3,7.9c-2.9,2-6.8,2.9-11.8,2.9C539.2,250.8,536.2,250.4,533.5,249.7z"/>
	</g>
	<g>
		<path class="st3" d="M391.3,290.9h6.8v19c-2.5,2-5.2,3.6-8.4,4.5c-3.2,1.1-6.6,1.6-10,1.6c-5,0-9.3-1.1-13.4-3.2
			c-3.9-2.3-7-5.2-9.3-8.8c-2.3-3.9-3.4-8.2-3.4-12.7c0-4.8,1.1-9.1,3.4-12.9c2.3-3.9,5.4-6.8,9.3-8.8c4.1-2,8.4-3.2,13.4-3.2
			c3.9,0,7.5,0.7,10.6,1.8c3.2,1.4,5.9,3.2,8.2,5.7l-4.3,4.3c-3.9-3.9-8.6-5.7-14-5.7c-3.6,0-7,0.9-10,2.5c-2.9,1.6-5.2,3.9-7,6.8
			c-1.6,2.9-2.5,6.1-2.5,9.7c0,3.6,0.9,6.8,2.5,9.5c1.6,2.9,4.1,5.2,7,6.8c2.9,1.6,6.3,2.5,10,2.5c4.3,0,8.2-1.1,11.3-3.2v-16.3
			H391.3z"/>
		<path class="st3" d="M446.3,299.3h-29.9c0.5,3.2,1.8,5.9,4.3,7.9c2.5,2,5.4,2.9,9.1,2.9c4.3,0,7.9-1.6,10.6-4.5l3.6,4.3
			c-1.6,2-3.9,3.4-6.3,4.5c-2.5,1.1-5.2,1.6-8.4,1.6c-3.9,0-7.2-0.9-10.4-2.5c-2.9-1.6-5.4-3.9-7-6.8c-1.6-2.9-2.5-6.1-2.5-9.7
			c0-3.6,0.9-6.8,2.5-9.7c1.6-2.9,3.9-5.2,6.6-6.8c2.7-1.6,5.9-2.5,9.5-2.5s6.6,0.9,9.5,2.5c2.7,1.6,5,3.9,6.6,6.8
			c1.6,2.9,2.3,6.1,2.3,10C446.5,297.7,446.3,298.4,446.3,299.3z M420,286.8c-2.3,2-3.4,4.5-3.9,7.7H440c-0.5-3.2-1.6-5.7-3.9-7.7
			c-2.3-2-4.8-2.9-8.2-2.9C425,283.9,422.3,284.8,420,286.8z"/>
		<path class="st3" d="M489.3,282.3c2.7,2.7,4.1,6.8,4.1,12v21.3h-6.8v-20.4c0-3.6-0.9-6.3-2.5-8.2c-1.8-1.8-4.1-2.7-7.5-2.7
			c-3.6,0-6.6,1.1-8.6,3.2c-2,2-3.2,5.2-3.2,9.1v19h-6.8v-36.9h6.3v5.7c1.4-1.8,3.2-3.4,5.4-4.3c2.3-1.1,5-1.6,7.9-1.6
			C482.8,278.2,486.6,279.6,489.3,282.3z"/>
		<path class="st3" d="M529.2,313.3c-0.9,0.9-2.3,1.6-3.6,1.8c-1.4,0.5-2.9,0.7-4.5,0.7c-3.6,0-6.6-0.9-8.6-2.9
			c-2-2-3.2-4.8-3.2-8.6v-20.2h-6.3v-5.4h6.3v-8.2h6.8v8.2h10.6v5.4h-10.6V304c0,2,0.5,3.6,1.6,4.5c0.9,1.1,2.5,1.6,4.3,1.6
			c2,0,3.9-0.7,5.2-1.8L529.2,313.3z"/>
	</g>
</g>
</svg>
