<?xml version="1.0" encoding="utf-8"?>
<!-- Generator: Adobe Illustrator 22.1.0, SVG Export Plug-In . SVG Version: 6.00 Build 0)  -->
<svg version="1.1" id="Layer_1" xmlns="http://www.w3.org/2000/svg" xmlns:xlink="http://www.w3.org/1999/xlink" x="0px" y="0px"
	 viewBox="0 0 300 254.9" style="enable-background:new 0 0 300 254.9;" xml:space="preserve">
<style type="text/css">
	.st0{clip-path:url(#SVGID_2_);fill:none;}
	.st1{clip-path:url(#SVGID_4_);fill:none;}
	.st2{clip-path:url(#SVGID_6_);fill:none;}
	.st3{clip-path:url(#SVGID_8_);fill:#EF7F6A;}
	.st4{clip-path:url(#SVGID_10_);fill:#EF7F6A;}
	.st5{clip-path:url(#SVGID_12_);fill:#EF7F6A;}
	.st6{clip-path:url(#SVGID_14_);fill:#EF7F6A;}
	.st7{clip-path:url(#SVGID_16_);fill:#EF7F6A;}
	.st8{clip-path:url(#SVGID_18_);fill:#EF7F6A;}
	.st9{clip-path:url(#SVGID_20_);fill:#EF7F6A;}
	.st10{clip-path:url(#SVGID_22_);fill:#EF7F6A;}
	.st11{clip-path:url(#SVGID_24_);fill:#EF7F6A;}
	.st12{clip-path:url(#SVGID_26_);fill:#EF7F6A;}
	.st13{clip-path:url(#SVGID_28_);fill:#EF7F6A;}
	.st14{clip-path:url(#SVGID_30_);fill:#EF7F6A;}
	.st15{clip-path:url(#SVGID_32_);fill:#EA5B5D;}
	.st16{clip-path:url(#SVGID_34_);fill:#E0533F;}
	.st17{clip-path:url(#SVGID_36_);fill:#EA5B5D;}
	.st18{clip-path:url(#SVGID_38_);fill:#EA5B5D;}
	.st19{clip-path:url(#SVGID_40_);fill:#E0533F;}
	.st20{clip-path:url(#SVGID_42_);fill:#E0533F;}
	.st21{clip-path:url(#SVGID_44_);fill:#E0533F;}
	.st22{clip-path:url(#SVGID_46_);fill:#E0533F;}
	.st23{clip-path:url(#SVGID_48_);fill:#E0533F;}
	.st24{clip-path:url(#SVGID_50_);fill:#EA5B5D;}
	.st25{clip-path:url(#SVGID_52_);fill:#EA5B5D;}
	.st26{clip-path:url(#SVGID_54_);}
	.st27{fill:#575756;}
</style>
<g>
	<g>
		<defs>
			<rect id="SVGID_1_" width="300" height="254.9"/>
		</defs>
		<clipPath id="SVGID_2_">
			<use xlink:href="#SVGID_1_"  style="overflow:visible;"/>
		</clipPath>
		<polygon class="st0" points="15.4,240.8 260.1,240.8 214,194.6 		"/>
	</g>
	<g>
		<defs>
			<rect id="SVGID_3_" width="300" height="254.9"/>
		</defs>
		<clipPath id="SVGID_4_">
			<use xlink:href="#SVGID_3_"  style="overflow:visible;"/>
		</clipPath>
		<polygon class="st1" points="219.2,188.6 269.8,239.1 354.5,154.4 219.5,19.4 		"/>
	</g>
	<g>
		<defs>
			<rect id="SVGID_5_" width="300" height="254.9"/>
		</defs>
		<clipPath id="SVGID_6_">
			<use xlink:href="#SVGID_5_"  style="overflow:visible;"/>
		</clipPath>
		<polygon class="st2" points="211.3,187.1 211.5,19.4 86.4,144.5 -6.8,237.7 		"/>
	</g>
	<g>
		<defs>
			<rect id="SVGID_7_" width="300" height="254.9"/>
		</defs>
		<clipPath id="SVGID_8_">
			<use xlink:href="#SVGID_7_"  style="overflow:visible;"/>
		</clipPath>
		<polygon class="st3" points="219.2,188.6 219.5,19.4 354.5,154.4 219.5,19.4 		"/>
	</g>
	<g>
		<defs>
			<rect id="SVGID_9_" width="300" height="254.9"/>
		</defs>
		<clipPath id="SVGID_10_">
			<use xlink:href="#SVGID_9_"  style="overflow:visible;"/>
		</clipPath>
		<polygon class="st4" points="365.8,154.4 219.5,8.1 219.5,8.1 		"/>
	</g>
	<g>
		<defs>
			<rect id="SVGID_11_" width="300" height="254.9"/>
		</defs>
		<clipPath id="SVGID_12_">
			<use xlink:href="#SVGID_11_"  style="overflow:visible;"/>
		</clipPath>
		<polygon class="st5" points="211.5,19.4 211.5,19.4 211.3,187.1 211.3,187.1 		"/>
	</g>
	<g>
		<defs>
			<rect id="SVGID_13_" width="300" height="254.9"/>
		</defs>
		<clipPath id="SVGID_14_">
			<use xlink:href="#SVGID_13_"  style="overflow:visible;"/>
		</clipPath>
		<path class="st6" d="M211.5,19.4L86.4,144.5L211.5,19.4z"/>
	</g>
	<g>
		<defs>
			<rect id="SVGID_15_" width="300" height="254.9"/>
		</defs>
		<clipPath id="SVGID_16_">
			<use xlink:href="#SVGID_15_"  style="overflow:visible;"/>
		</clipPath>
		<path class="st7" d="M211.5,8.1L70.4,149.2L211.5,8.1z"/>
	</g>
	<g>
		<defs>
			<rect id="SVGID_17_" width="300" height="254.9"/>
		</defs>
		<clipPath id="SVGID_18_">
			<use xlink:href="#SVGID_17_"  style="overflow:visible;"/>
		</clipPath>
		<polygon class="st8" points="211.5,19.4 211.3,187.1 214.3,186.3 214.3,186.3 216.5,185.8 218.1,187.4 219.2,188.6 219.5,19.4 
			215.5,15.4 211.5,19.4 		"/>
	</g>
	<g>
		<defs>
			<rect id="SVGID_19_" width="300" height="254.9"/>
		</defs>
		<clipPath id="SVGID_20_">
			<use xlink:href="#SVGID_19_"  style="overflow:visible;"/>
		</clipPath>
		<polygon class="st9" points="215.5,4.1 219.5,8.1 219.5,8.1 215.5,4.1 211.5,8.1 211.5,8.1 		"/>
	</g>
	<g>
		<defs>
			<rect id="SVGID_21_" width="300" height="254.9"/>
		</defs>
		<clipPath id="SVGID_22_">
			<use xlink:href="#SVGID_21_"  style="overflow:visible;"/>
		</clipPath>
		<polygon class="st10" points="15.3,240.8 15.4,240.8 214,194.6 		"/>
	</g>
	<g>
		<defs>
			<rect id="SVGID_23_" width="300" height="254.9"/>
		</defs>
		<clipPath id="SVGID_24_">
			<use xlink:href="#SVGID_23_"  style="overflow:visible;"/>
		</clipPath>
		<polygon class="st11" points="-6.8,237.7 -6.8,237.7 211.3,187.1 211.3,187.1 		"/>
	</g>
	<g>
		<defs>
			<rect id="SVGID_25_" width="300" height="254.9"/>
		</defs>
		<clipPath id="SVGID_26_">
			<use xlink:href="#SVGID_25_"  style="overflow:visible;"/>
		</clipPath>
		<polygon class="st12" points="211.3,187.1 211.3,187.1 211.3,187.1 		"/>
	</g>
	<g>
		<defs>
			<rect id="SVGID_27_" width="300" height="254.9"/>
		</defs>
		<clipPath id="SVGID_28_">
			<use xlink:href="#SVGID_27_"  style="overflow:visible;"/>
		</clipPath>
		<polygon class="st13" points="15.4,240.8 15.3,240.8 -19.1,248.7 268.1,248.7 260.1,240.8 		"/>
	</g>
	<g>
		<defs>
			<rect id="SVGID_29_" width="300" height="254.9"/>
		</defs>
		<clipPath id="SVGID_30_">
			<use xlink:href="#SVGID_29_"  style="overflow:visible;"/>
		</clipPath>
		<polygon class="st14" points="211.3,187.1 211.3,187.1 214.3,186.3 214.3,186.3 		"/>
	</g>
	<g>
		<defs>
			<rect id="SVGID_31_" width="300" height="254.9"/>
		</defs>
		<clipPath id="SVGID_32_">
			<use xlink:href="#SVGID_31_"  style="overflow:visible;"/>
		</clipPath>
		<polygon class="st15" points="219.5,19.4 354.5,154.4 269.8,239.1 272.6,241.9 272.6,241.9 275.4,244.7 365.8,154.4 219.5,8.1 		
			"/>
	</g>
	<g>
		<defs>
			<rect id="SVGID_33_" width="300" height="254.9"/>
		</defs>
		<clipPath id="SVGID_34_">
			<use xlink:href="#SVGID_33_"  style="overflow:visible;"/>
		</clipPath>
		<polygon class="st16" points="214.3,186.3 218.1,187.4 216.5,185.8 		"/>
	</g>
	<g>
		<defs>
			<rect id="SVGID_35_" width="300" height="254.9"/>
		</defs>
		<clipPath id="SVGID_36_">
			<use xlink:href="#SVGID_35_"  style="overflow:visible;"/>
		</clipPath>
		<polygon class="st17" points="219.5,19.4 219.5,8.1 215.5,4.1 211.5,8.1 211.5,19.4 215.5,15.4 		"/>
	</g>
	<g>
		<defs>
			<rect id="SVGID_37_" width="300" height="254.9"/>
		</defs>
		<clipPath id="SVGID_38_">
			<use xlink:href="#SVGID_37_"  style="overflow:visible;"/>
		</clipPath>
		<polygon class="st18" points="272.6,241.9 269.8,248.7 271.4,248.7 275.4,244.7 		"/>
	</g>
	<g>
		<defs>
			<rect id="SVGID_39_" width="300" height="254.9"/>
		</defs>
		<clipPath id="SVGID_40_">
			<use xlink:href="#SVGID_39_"  style="overflow:visible;"/>
		</clipPath>
		<path class="st19" d="M219.2,188.6l50.6,50.5L219.2,188.6z"/>
	</g>
	<g>
		<defs>
			<rect id="SVGID_41_" width="300" height="254.9"/>
		</defs>
		<clipPath id="SVGID_42_">
			<use xlink:href="#SVGID_41_"  style="overflow:visible;"/>
		</clipPath>
		<path class="st20" d="M219.2,188.6L219.2,188.6L219.2,188.6z"/>
	</g>
	<g>
		<defs>
			<rect id="SVGID_43_" width="300" height="254.9"/>
		</defs>
		<clipPath id="SVGID_44_">
			<use xlink:href="#SVGID_43_"  style="overflow:visible;"/>
		</clipPath>
		<polygon class="st21" points="211.3,187.1 211.2,190.2 211.2,191.9 		"/>
	</g>
	<g>
		<defs>
			<rect id="SVGID_45_" width="300" height="254.9"/>
		</defs>
		<clipPath id="SVGID_46_">
			<use xlink:href="#SVGID_45_"  style="overflow:visible;"/>
		</clipPath>
		<polygon class="st22" points="269.8,239.1 219.2,188.6 272.6,241.9 272.6,241.9 		"/>
	</g>
	<g>
		<defs>
			<rect id="SVGID_47_" width="300" height="254.9"/>
		</defs>
		<clipPath id="SVGID_48_">
			<use xlink:href="#SVGID_47_"  style="overflow:visible;"/>
		</clipPath>
		<polygon class="st23" points="211.2,191.9 260.1,240.8 268.1,248.7 268.1,248.7 		"/>
	</g>
	<g>
		<defs>
			<rect id="SVGID_49_" width="300" height="254.9"/>
		</defs>
		<clipPath id="SVGID_50_">
			<use xlink:href="#SVGID_49_"  style="overflow:visible;"/>
		</clipPath>
		<polygon class="st24" points="211.2,191.9 211.2,190.2 211.3,187.1 -6.8,237.7 -6.8,237.7 86.4,144.5 211.5,19.4 211.5,8.1 
			70.4,149.2 -29.2,248.7 -19.5,248.7 -19.1,248.7 15.3,240.8 214,194.6 260.1,240.8 		"/>
	</g>
	<g>
		<defs>
			<rect id="SVGID_51_" width="300" height="254.9"/>
		</defs>
		<clipPath id="SVGID_52_">
			<use xlink:href="#SVGID_51_"  style="overflow:visible;"/>
		</clipPath>
		<polygon class="st25" points="219.2,188.6 218.1,187.4 214.3,186.3 211.3,187.1 211.2,191.9 268.1,248.7 269.8,248.7 272.6,241.9 
					"/>
	</g>
	<g>
		<defs>
			<rect id="SVGID_53_" width="300" height="254.9"/>
		</defs>
		<clipPath id="SVGID_54_">
			<use xlink:href="#SVGID_53_"  style="overflow:visible;"/>
		</clipPath>
		<g class="st26">
			<g>
				<path d="M403.6,10.4v64h-7.5l-38.4-47.7v47.7h-9.1v-64h7.5l38.4,47.7V10.4H403.6z"/>
				<path d="M458.1,30.5c3.6,3.3,5.3,8.2,5.3,14.7v29.2h-8.3V68c-1.5,2.3-3.5,4-6.3,5.2c-2.7,1.2-5.9,1.8-9.6,1.8
					c-5.4,0-9.8-1.3-13-3.9c-3.3-2.6-4.9-6.1-4.9-10.3c0-4.3,1.6-7.7,4.7-10.3s8-3.9,14.8-3.9h13.9v-1.7c0-3.8-1.1-6.7-3.3-8.7
					c-2.2-2-5.4-3-9.7-3c-2.9,0-5.7,0.5-8.4,1.4c-2.7,0.9-5.1,2.2-6.9,3.8l-3.7-6.6c2.5-2,5.5-3.5,9-4.6s7.2-1.6,11.1-1.6
					C449.4,25.5,454.5,27.2,458.1,30.5z M449.3,66c2.4-1.5,4.2-3.6,5.3-6.3v-6.8h-13.5c-7.4,0-11.1,2.5-11.1,7.5
					c0,2.4,0.9,4.4,2.8,5.8s4.5,2.1,7.9,2.1C444,68.2,446.9,67.4,449.3,66z"/>
				<path d="M528.4,26v48.4h-8.3v-7.3c-1.8,2.5-4.1,4.4-7,5.8c-2.9,1.4-6,2.1-9.5,2.1c-6.5,0-11.5-1.8-15.3-5.3
					c-3.7-3.6-5.6-8.8-5.6-15.8V26h8.8v26.9c0,4.7,1.1,8.2,3.4,10.6c2.3,2.4,5.5,3.6,9.7,3.6c4.6,0,8.3-1.4,11-4.2s4-6.8,4-11.9V26
					H528.4z"/>
				<path d="M545.6,45.5h48v7.6h-48V45.5z"/>
			</g>
			<g>
				<path d="M476.1,156.9c-1.3,1.1-2.9,1.9-4.8,2.5s-3.8,0.9-5.8,0.9c-4.9,0-8.6-1.3-11.3-3.9c-2.7-2.6-4-6.4-4-11.2v-26.6H442v-7.2
					h8.2v-10.6h8.8v10.6h13.9v7.2H459v26.2c0,2.6,0.7,4.6,2,6s3.2,2.1,5.6,2.1c2.7,0,5-0.8,6.9-2.3L476.1,156.9z"/>
				<path d="M490.3,111.4h8.8v48.4h-8.8V111.4z M500.9,96.3l-6.2,6.2l-6.2-6.2l6.2-6.2L500.9,96.3z"/>
				<path d="M519.3,92h8.8v67.8h-8.8V92z"/>
				<path d="M593.5,111.4v48.4h-8.3v-7.3c-1.8,2.5-4.1,4.4-7,5.8c-2.9,1.4-6,2.1-9.5,2.1c-6.5,0-11.5-1.8-15.3-5.3
					c-3.7-3.6-5.6-8.8-5.6-15.8v-27.9h8.8v26.9c0,4.7,1.1,8.2,3.4,10.6c2.3,2.4,5.5,3.6,9.7,3.6c4.6,0,8.3-1.4,11-4.2s4-6.8,4-11.9
					v-25L593.5,111.4L593.5,111.4z"/>
				<path d="M616.3,158.7c-3.7-1.1-6.5-2.4-8.6-4.1l3.7-6.9c2.1,1.5,4.7,2.7,7.8,3.7c3,0.9,6.1,1.4,9.2,1.4c7.7,0,11.5-2.2,11.5-6.6
					c0-1.5-0.5-2.6-1.6-3.5c-1-0.9-2.3-1.5-3.9-1.9c-1.6-0.4-3.8-0.8-6.6-1.3c-3.9-0.6-7.1-1.3-9.5-2.1c-2.5-0.8-4.6-2.1-6.3-4
					c-1.8-1.9-2.7-4.5-2.7-7.9c0-4.4,1.8-7.9,5.5-10.6s8.6-4,14.7-4c3.2,0,6.5,0.4,9.7,1.2c3.2,0.8,5.9,1.9,7.9,3.2l-3.7,6.9
					c-4-2.6-8.6-3.8-14-3.8c-3.7,0-6.5,0.6-8.5,1.8c-1.9,1.2-2.9,2.8-2.9,4.8c0,1.6,0.5,2.8,1.6,3.7c1.1,0.9,2.5,1.6,4.1,2
					s3.9,0.9,6.8,1.5c3.9,0.7,7,1.4,9.5,2.1c2.4,0.8,4.5,2.1,6.2,3.9s2.6,4.4,2.6,7.7c0,4.4-1.9,7.9-5.6,10.5
					c-3.7,2.6-8.8,3.9-15.3,3.9C623.7,160.3,619.9,159.8,616.3,158.7z"/>
			</g>
			<g>
				<path class="st27" d="M429.8,212.8h8.8v24.9c-3.2,2.6-6.9,4.6-11.1,6s-8.6,2.1-13.2,2.1c-6.5,0-12.3-1.4-17.5-4.2
					s-9.2-6.7-12.2-11.7s-4.4-10.6-4.4-16.8s1.5-11.8,4.4-16.8c3-5,7-8.9,12.2-11.7s11.1-4.2,17.6-4.2c5.1,0,9.8,0.8,13.9,2.5
					c4.2,1.7,7.7,4.1,10.6,7.4l-5.7,5.7c-5.1-4.9-11.3-7.4-18.5-7.4c-4.9,0-9.2,1.1-13.1,3.2c-3.9,2.1-6.9,5-9.1,8.8
					c-2.2,3.7-3.3,8-3.3,12.7c0,4.6,1.1,8.8,3.3,12.6c2.2,3.7,5.2,6.7,9.1,8.8s8.2,3.2,13,3.2c5.7,0,10.7-1.4,15-4.1v-21H429.8z"/>
				<path class="st27" d="M501.9,223.9h-39.3c0.5,4.3,2.4,7.7,5.6,10.3s7.2,3.9,11.9,3.9c5.8,0,10.4-1.9,14-5.8l4.8,5.7
					c-2.2,2.6-4.9,4.5-8.2,5.8c-3.3,1.3-6.9,2-10.9,2c-5.1,0-9.7-1.1-13.6-3.2c-4-2.1-7-5-9.2-8.8s-3.2-8-3.2-12.8
					c0-4.7,1.1-8.9,3.2-12.7s5-6.7,8.7-8.8s7.8-3.2,12.5-3.2c4.6,0,8.8,1.1,12.4,3.2c3.6,2.1,6.5,5,8.5,8.8s3.1,8.1,3.1,13
					C502.1,221.9,502,222.8,501.9,223.9z M467.6,207.5c-2.8,2.6-4.5,5.9-5,10.1h31.1c-0.5-4.1-2.1-7.4-5-10
					c-2.8-2.6-6.3-3.9-10.6-3.9C474,203.7,470.4,205,467.6,207.5z"/>
				<path class="st27" d="M558.3,201.6c3.6,3.6,5.4,8.8,5.4,15.7v27.9H555v-26.9c0-4.7-1.1-8.2-3.4-10.6c-2.3-2.4-5.5-3.6-9.7-3.6
					c-4.8,0-8.5,1.4-11.2,4.2s-4.1,6.7-4.1,11.9v24.9h-8.8v-48.4h8.4v7.3c1.8-2.5,4.2-4.4,7.2-5.8c3-1.3,6.4-2,10.3-2
					C549.8,196.3,554.7,198.1,558.3,201.6z"/>
				<path class="st27" d="M610.8,242.3c-1.3,1.1-2.9,1.9-4.8,2.5c-1.9,0.6-3.8,0.9-5.8,0.9c-4.9,0-8.6-1.3-11.3-3.9
					c-2.7-2.6-4-6.4-4-11.2V204h-8.2v-7.2h8.2v-10.6h8.8v10.6h13.9v7.2h-13.9v26.2c0,2.6,0.7,4.6,2,6s3.2,2.1,5.6,2.1
					c2.7,0,5-0.8,6.9-2.3L610.8,242.3z"/>
			</g>
		</g>
	</g>
</g>
</svg>
