<?xml version="1.0" encoding="utf-8"?>
<!-- Generator: Adobe Illustrator 22.1.0, SVG Export Plug-In . SVG Version: 6.00 Build 0)  -->
<svg version="1.1" id="Layer_1" xmlns="http://www.w3.org/2000/svg" xmlns:xlink="http://www.w3.org/1999/xlink" x="0px" y="0px"
	 viewBox="0 0 600 450" style="enable-background:new 0 0 600 450;" xml:space="preserve">
<style type="text/css">
	.st0{fill:#FFFFFF;}
	.st1{fill:#EF7F6A;}
	.st2{fill:#EA5B5D;}
	.st3{fill:#1D1D1B;}
	.st4{fill:#575756;}
	.st5{fill:none;stroke:#EA5B5D;stroke-width:0.5888;stroke-miterlimit:10;}
	.st6{font-family:'Montserrat-Thin';}
	.st7{font-size:23.5503px;}
</style>
<g>
	<g>
		<polygon class="st0" points="239,266.9 239.2,152.8 330.2,243.9 239.1,152.8 		"/>
		<polygon class="st0" points="337.8,243.9 239.2,145.2 239.2,145.2 		"/>
		<polygon class="st0" points="233.8,152.8 233.8,152.8 233.6,265.9 233.6,265.9 		"/>
		<path class="st0" d="M233.8,152.8l-84.5,84.4L233.8,152.8z"/>
		<path class="st0" d="M233.8,145.2l-95.3,95.2L233.8,145.2z"/>
		<polygon class="st1" points="233.8,152.8 233.6,265.9 235.7,265.4 235.7,265.4 237.1,265.1 238.2,266.1 239,266.9 239.1,152.8 
			236.5,150.1 233.8,152.8 		"/>
		<polygon class="st0" points="236.5,142.5 239.2,145.2 239.2,145.2 236.5,142.5 233.8,145.2 233.8,145.2 		"/>
		<polygon class="st0" points="101.4,302.1 101.4,302.1 235.4,271 		"/>
		<polygon class="st0" points="86.4,300.1 86.4,300.1 233.6,265.9 233.6,265.9 		"/>
		<polygon class="st0" points="233.6,265.9 233.6,265.9 233.6,265.9 		"/>
		<polygon class="st1" points="101.4,302.1 101.4,302.1 78.2,307.5 271.9,307.5 266.5,302.1 		"/>
		<polygon class="st0" points="233.6,265.9 233.6,265.9 235.7,265.4 235.7,265.4 		"/>
		<path class="st0" d="M239,266.9l34,34.1L239,266.9z"/>
		<path class="st0" d="M239,266.9L239,266.9L239,266.9z"/>
		<polygon class="st0" points="233.6,265.9 233.6,268 233.6,269.2 		"/>
		<polygon class="st0" points="273,301 239,266.9 275,302.9 275,302.9 		"/>
		<polygon class="st0" points="233.6,269.2 266.5,302.1 271.9,307.5 271.9,307.5 		"/>
		<polygon class="st2" points="239.2,145.2 236.5,142.5 233.8,145.2 138.5,240.4 71.3,307.5 77.8,307.5 78.2,307.5 101.4,302.1 
			235.4,271 266.5,302.1 233.6,269.2 233.6,268 233.6,265.9 86.4,300.1 86.4,300.1 149.3,237.2 233.8,152.8 236.5,150.1 
			239.1,152.8 330.2,243.9 273,301 275,302.9 275,302.9 239,266.9 239,266.9 238.2,266.1 237.1,265.1 235.7,265.4 233.6,265.9 
			233.6,269.2 271.9,307.5 273,307.5 274.2,307.5 276.9,304.8 337.8,243.9 		"/>
		<g>
			<g>
				<path class="st3" d="M363.3,146.7v43.2h-5.1l-25.9-32.2v32.2h-6.2v-43.2h5.1l25.9,32.2v-32.2H363.3z"/>
				<path class="st3" d="M400.1,160.2c2.4,2.2,3.6,5.5,3.6,9.9v19.7h-5.6v-4.3c-1,1.5-2.4,2.7-4.2,3.5c-1.8,0.8-4,1.2-6.5,1.2
					c-3.7,0-6.6-0.9-8.8-2.7c-2.2-1.8-3.3-4.1-3.3-7s1-5.2,3.1-6.9s5.4-2.6,10-2.6h9.4v-1.2c0-2.5-0.7-4.5-2.2-5.9s-3.7-2-6.5-2
					c-1.9,0-3.8,0.3-5.7,1c-1.8,0.6-3.4,1.5-4.7,2.6l-2.5-4.4c1.7-1.4,3.7-2.4,6-3.1c2.3-0.7,4.8-1.1,7.5-1.1
					C394.2,156.9,397.7,158,400.1,160.2z M394.2,184.2c1.6-1,2.8-2.4,3.6-4.3v-4.6h-9.1c-5,0-7.5,1.7-7.5,5.1c0,1.6,0.6,2.9,1.9,3.9
					c1.3,0.9,3,1.4,5.3,1.4C390.6,185.7,392.6,185.2,394.2,184.2z"/>
				<path class="st3" d="M447.5,157.2v32.7h-5.6V185c-1.2,1.7-2.8,3-4.7,3.9c-2,0.9-4.1,1.4-6.4,1.4c-4.4,0-7.8-1.2-10.3-3.6
					c-2.5-2.4-3.8-5.9-3.8-10.6v-18.8h5.9v18.1c0,3.2,0.8,5.6,2.3,7.2c1.5,1.6,3.7,2.4,6.5,2.4c3.1,0,5.6-0.9,7.4-2.8
					c1.8-1.9,2.7-4.6,2.7-8v-16.9L447.5,157.2L447.5,157.2z"/>
				<path class="st3" d="M459.1,170.4h32.4v5.1h-32.4V170.4z"/>
			</g>
			<g>
				<path class="st3" d="M412.3,245.6c-0.9,0.7-1.9,1.3-3.2,1.7c-1.3,0.4-2.6,0.6-3.9,0.6c-3.3,0-5.8-0.9-7.6-2.7
					c-1.8-1.8-2.7-4.3-2.7-7.6v-17.9h-5.5v-4.9h5.5v-7.2h5.9v7.2h9.4v4.9h-9.4v17.7c0,1.8,0.4,3.1,1.3,4.1c0.9,0.9,2.1,1.4,3.8,1.4
					c1.8,0,3.3-0.5,4.6-1.5L412.3,245.6z"/>
				<path class="st3" d="M421.8,214.8h5.9v32.7h-5.9V214.8z M429,204.7l-4.2,4.2l-4.2-4.2l4.2-4.2L429,204.7z"/>
				<path class="st3" d="M441.4,201.8h5.9v45.7h-5.9V201.8z"/>
				<path class="st3" d="M491.5,214.8v32.7h-5.6v-4.9c-1.2,1.7-2.8,3-4.7,3.9c-2,0.9-4.1,1.4-6.4,1.4c-4.4,0-7.8-1.2-10.3-3.6
					c-2.5-2.4-3.8-5.9-3.8-10.6v-18.8h5.9V233c0,3.2,0.8,5.6,2.3,7.2c1.5,1.6,3.7,2.4,6.5,2.4c3.1,0,5.6-0.9,7.4-2.8
					c1.8-1.9,2.7-4.6,2.7-8v-16.9L491.5,214.8L491.5,214.8z"/>
				<path class="st3" d="M506.8,246.8c-2.5-0.7-4.4-1.6-5.8-2.7l2.5-4.7c1.4,1,3.2,1.8,5.2,2.5c2.1,0.6,4.1,0.9,6.2,0.9
					c5.2,0,7.8-1.5,7.8-4.4c0-1-0.4-1.8-1-2.3c-0.7-0.6-1.6-1-2.6-1.3s-2.5-0.6-4.5-0.9c-2.6-0.4-4.8-0.9-6.4-1.4
					c-1.7-0.5-3.1-1.4-4.3-2.7c-1.2-1.3-1.8-3.1-1.8-5.4c0-3,1.2-5.3,3.7-7.1s5.8-2.7,9.9-2.7c2.2,0,4.4,0.3,6.5,0.8
					c2.2,0.5,4,1.3,5.4,2.2l-2.5,4.7c-2.7-1.7-5.8-2.6-9.4-2.6c-2.5,0-4.4,0.4-5.7,1.2c-1.3,0.8-2,1.9-2,3.3c0,1.1,0.4,1.9,1.1,2.5
					s1.7,1.1,2.7,1.4c1.1,0.3,2.6,0.6,4.6,1c2.6,0.5,4.8,0.9,6.4,1.4c1.6,0.5,3,1.4,4.2,2.6c1.2,1.2,1.7,3,1.7,5.2
					c0,3-1.3,5.3-3.8,7.1c-2.5,1.7-6,2.6-10.3,2.6C511.9,247.9,509.3,247.5,506.8,246.8z"/>
			</g>
			<g>
				<path class="st4" d="M381.1,283.3h5.9v16.8c-2.1,1.8-4.6,3.1-7.5,4.1c-2.8,0.9-5.8,1.4-8.9,1.4c-4.4,0-8.3-1-11.8-2.9
					s-6.2-4.5-8.2-7.9c-2-3.3-3-7.1-3-11.3c0-4.2,1-8,3-11.3c2-3.4,4.7-6,8.3-7.9c3.5-1.9,7.5-2.8,11.9-2.8c3.5,0,6.6,0.6,9.4,1.7
					s5.2,2.8,7.2,5l-3.8,3.8c-3.5-3.3-7.6-5-12.5-5c-3.3,0-6.2,0.7-8.8,2.1c-2.6,1.4-4.7,3.4-6.1,5.9c-1.5,2.5-2.2,5.4-2.2,8.5
					s0.7,5.9,2.2,8.5c1.5,2.5,3.5,4.5,6.1,5.9s5.5,2.2,8.8,2.2c3.9,0,7.2-0.9,10.1-2.8v-14H381.1z"/>
				<path class="st4" d="M429.7,290.7h-26.5c0.4,2.9,1.6,5.2,3.8,6.9c2.2,1.7,4.8,2.6,8,2.6c3.9,0,7-1.3,9.4-3.9l3.3,3.8
					c-1.5,1.7-3.3,3-5.5,3.9s-4.7,1.4-7.4,1.4c-3.5,0-6.5-0.7-9.2-2.1s-4.7-3.4-6.2-5.9s-2.2-5.4-2.2-8.6s0.7-6,2.1-8.6
					c1.4-2.5,3.4-4.5,5.9-5.9s5.3-2.1,8.4-2.1s5.9,0.7,8.4,2.1c2.4,1.4,4.4,3.4,5.7,5.9c1.4,2.5,2.1,5.5,2.1,8.8
					C429.8,289.4,429.8,290,429.7,290.7z M406.5,279.7c-1.9,1.7-3,4-3.4,6.8h21c-0.3-2.8-1.4-5-3.4-6.8c-1.9-1.7-4.3-2.6-7.1-2.6
					S408.5,278,406.5,279.7z"/>
				<path class="st4" d="M467.8,275.7c2.4,2.4,3.7,5.9,3.7,10.6v18.8h-5.9V287c0-3.2-0.8-5.5-2.3-7.2c-1.5-1.6-3.7-2.4-6.5-2.4
					c-3.2,0-5.7,0.9-7.6,2.8c-1.8,1.9-2.8,4.6-2.8,8V305h-5.9v-32.7h5.7v4.9c1.2-1.7,2.8-3,4.8-3.9s4.3-1.4,6.9-1.4
					C462,272.1,465.3,273.3,467.8,275.7z"/>
				<path class="st4" d="M503.2,303.2c-0.9,0.7-1.9,1.3-3.2,1.7c-1.3,0.4-2.6,0.6-3.9,0.6c-3.3,0-5.8-0.9-7.6-2.7
					c-1.8-1.8-2.7-4.3-2.7-7.6v-17.9h-5.5v-4.9h5.5v-7.2h5.9v7.2h9.4v4.9h-9.4V295c0,1.8,0.4,3.1,1.3,4.1c0.9,0.9,2.1,1.4,3.8,1.4
					c1.8,0,3.3-0.5,4.6-1.5L503.2,303.2z"/>
			</g>
		</g>
	</g>
	<line class="st5" x1="71.3" y1="331.8" x2="71.3" y2="105.4"/>
	<line class="st5" x1="528.7" y1="344.6" x2="528.7" y2="105.4"/>
	<line class="st5" x1="34.3" y1="142.5" x2="565.7" y2="142.5"/>
	<line class="st5" x1="491.6" y1="105.4" x2="491.6" y2="344.6"/>
	<line class="st5" x1="565.7" y1="344.6" x2="565.7" y2="105.4"/>
	<line class="st5" x1="71.3" y1="344.6" x2="71.3" y2="105.4"/>
	<line class="st5" x1="34.3" y1="105.4" x2="34.3" y2="344.6"/>
	<line class="st5" x1="565.7" y1="105.4" x2="34.3" y2="105.4"/>
	<line class="st5" x1="34.3" y1="344.6" x2="565.7" y2="344.6"/>
	<line class="st5" x1="565.7" y1="307.5" x2="34.3" y2="307.5"/>
	<text transform="matrix(1 0 0 1 503.9552 175.35)" class="st2 st6 st7">x</text>
	<text transform="matrix(1 0 0 1 47.0792 130.7943)" class="st2 st6 st7">x</text>
	<text transform="matrix(1 0 0 1 542.2247 130.7943)" class="st2 st6 st7">x</text>
	<text transform="matrix(1 0 0 1 47.0792 331.8129)" class="st2 st6 st7">x</text>
	<text transform="matrix(1 0 0 1 542.2247 331.8129)" class="st2 st6 st7">x</text>
	<g>
		<g>
			<line class="st5" x1="493.2" y1="154.1" x2="527" y2="154.1"/>
			<g>
				<polygon class="st2" points="496.6,156 496.8,155.5 493.2,154.1 496.8,152.8 496.6,152.3 491.5,154.1 				"/>
			</g>
			<g>
				<polygon class="st2" points="523.5,156 523.3,155.5 526.9,154.1 523.3,152.8 523.5,152.3 528.7,154.1 				"/>
			</g>
		</g>
	</g>
</g>
</svg>
