<?xml version="1.0" encoding="utf-8"?>
<!-- Generator: Adobe Illustrator 22.1.0, SVG Export Plug-In . SVG Version: 6.00 Build 0)  -->
<svg version="1.1" id="Layer_1" xmlns="http://www.w3.org/2000/svg" xmlns:xlink="http://www.w3.org/1999/xlink" x="0px" y="0px"
	 viewBox="0 0 600 450" style="enable-background:new 0 0 600 450;" xml:space="preserve">
<style type="text/css">
	.st0{fill:none;stroke:#000000;stroke-width:0.75;stroke-miterlimit:10;}
	.st1{font-family:'Montserrat-Medium';}
	.st2{font-size:10px;}
	.st3{fill:#C3A4AD;}
	.st4{fill:#A57685;}
	.st5{fill:#87495C;}
	.st6{fill:#691B33;}
	.st7{fill:#4F1526;}
	.st8{fill:#350E1A;}
	.st9{fill:#F7BDBE;}
	.st10{fill:#F29C9E;}
	.st11{fill:#EE7C7E;}
	.st12{fill:#EA5B5D;}
	.st13{fill:#B04446;}
	.st14{fill:#752E2F;}
	.st15{fill:#BDBDDB;}
	.st16{fill:#9C9CC9;}
	.st17{fill:#7C7CB7;}
	.st18{fill:#5B5BA5;}
	.st19{fill:#44447C;}
	.st20{fill:#2E2E53;}
	.st21{fill:#FDF2A5;}
	.st22{fill:#FDEB77;}
	.st23{fill:#FCE54A;}
	.st24{fill:#FBDE1D;}
	.st25{fill:#BCA716;}
	.st26{fill:#7E6F0F;}
	.st27{fill:#B6E0C8;}
	.st28{fill:#91D1AD;}
	.st29{fill:#6DC191;}
	.st30{fill:#48B276;}
	.st31{fill:#368659;}
	.st32{fill:#24593B;}
</style>
<line class="st0" x1="501.5" y1="258.5" x2="553.6" y2="258.5"/>
<text transform="matrix(1 0 0 1 559.3124 259.5)" class="st1 st2">100%</text>
<line class="st0" x1="525.1" y1="306.9" x2="553.6" y2="306.9"/>
<text transform="matrix(1 0 0 1 559.3124 307.9)" class="st1 st2">125%</text>
<line class="st0" x1="513.7" y1="384.9" x2="553.6" y2="384.9"/>
<text transform="matrix(1 0 0 1 559.3124 385.9)" class="st1 st2">150%</text>
<line class="st0" x1="525.1" y1="205.8" x2="553.6" y2="205.8"/>
<text transform="matrix(1 0 0 1 559.3124 206.8333)" class="st1 st2">75%</text>
<line class="st0" x1="501.5" y1="119.8" x2="553.6" y2="119.8"/>
<text transform="matrix(1 0 0 1 559.3124 120.8333)" class="st1 st2">50%</text>
<line class="st0" x1="525.1" y1="74.5" x2="553.6" y2="74.5"/>
<text transform="matrix(1 0 0 1 559.3124 75.5)" class="st1 st2">25%</text>
<path class="st3" d="M111.6,92h0.6h0.5l1.4-1.4l30.4-30.4L95.3,11l-1.4-1.4L92.6,11L45,58.5L11.5,92h3.3h0.1H111.6"/>
<path class="st4" d="M44.4,92h-0.6h-0.5l-1.4,1.4l-30.4,30.4L60.7,173l1.4,1.4l1.3-1.4l47.6-47.5L144.5,92h-3.3h-0.1H44.4"/>
<path class="st5" d="M111.6,225h0.6h0.5l1.4-1.4l30.4-30.4L95.3,144l-1.4-1.4l-1.3,1.4L45,191.5L11.5,225h3.3h0.1H111.6"/>
<path class="st6" d="M44.4,225h-0.6h-0.5l-1.4,1.4l-30.4,30.4L60.7,306l1.4,1.4l1.3-1.4l47.6-47.5l33.5-33.5h-3.3h-0.1H44.4"/>
<path class="st7" d="M111.6,358h0.6h0.5l1.4-1.4l30.4-30.4L95.3,277l-1.4-1.4l-1.3,1.4L45,324.5L11.5,358h3.3h0.1H111.6"/>
<path class="st8" d="M44.4,358h-0.6h-0.5l-1.4,1.4l-30.4,30.4L60.7,439l1.4,1.4l1.3-1.4l47.6-47.5l33.5-33.5h-3.3h-0.1H44.4"/>
<path class="st9" d="M212.7,92h0.6h0.5l1.4-1.4l30.4-30.4L196.4,11L195,9.6l-1.3,1.4l-47.6,47.5L112.6,92h3.3h0.1H212.7"/>
<path class="st10" d="M145.5,92h-0.6h-0.5l-1.4,1.4l-30.4,30.4l49.2,49.2l1.4,1.4l1.3-1.4l47.6-47.5L245.6,92h-3.3h-0.1H145.5"/>
<path class="st11" d="M212.7,225h0.6h0.5l1.4-1.4l30.4-30.4L196.4,144l-1.4-1.4l-1.3,1.4l-47.6,47.5L112.6,225h3.3h0.1H212.7"/>
<path class="st12" d="M145.5,225h-0.6h-0.5l-1.4,1.4l-30.4,30.4l49.2,49.2l1.4,1.4l1.3-1.4l47.6-47.5l33.5-33.5h-3.3h-0.1H145.5"/>
<path class="st13" d="M212.7,358h0.6h0.5l1.4-1.4l30.4-30.4L196.4,277l-1.4-1.4l-1.3,1.4l-47.6,47.5L112.6,358h3.3h0.1H212.7"/>
<path class="st14" d="M145.5,358h-0.6h-0.5l-1.4,1.4l-30.4,30.4l49.2,49.2l1.4,1.4l1.3-1.4l47.6-47.5l33.5-33.5h-3.3h-0.1H145.5"/>
<path class="st15" d="M314.1,92h0.6h0.5l1.4-1.4L347,60.2L297.8,11l-1.4-1.4l-1.3,1.4l-47.6,47.5L214,92h3.3h0.1H314.1"/>
<path class="st16" d="M246.9,92h-0.6h-0.5l-1.4,1.4L214,123.8l49.2,49.2l1.4,1.4l1.3-1.4l47.6-47.5L347,92h-3.3h-0.1H246.9"/>
<path class="st17" d="M314.1,225h0.6h0.5l1.4-1.4l30.4-30.4L297.8,144l-1.4-1.4l-1.3,1.4l-47.6,47.5L214,225h3.3h0.1H314.1"/>
<path class="st18" d="M246.9,225h-0.6h-0.5l-1.4,1.4L214,256.8l49.2,49.2l1.4,1.4l1.3-1.4l47.6-47.5L347,225h-3.3h-0.1H246.9"/>
<path class="st19" d="M314.1,358h0.6h0.5l1.4-1.4l30.4-30.4L297.8,277l-1.4-1.4l-1.3,1.4l-47.6,47.5L214,358h3.3h0.1H314.1"/>
<path class="st20" d="M246.9,358h-0.6h-0.5l-1.4,1.4L214,389.8l49.2,49.2l1.4,1.4l1.3-1.4l47.6-47.5L347,358h-3.3h-0.1H246.9"/>
<path class="st21" d="M415.1,92h0.6h0.5l1.4-1.4L448,60.2L398.8,11l-1.4-1.4l-1.3,1.4l-47.6,47.5L315,92h3.3h0.1H415.1"/>
<path class="st22" d="M347.9,92h-0.6h-0.5l-1.4,1.4L315,123.8l49.2,49.2l1.4,1.4l1.3-1.4l47.6-47.5L448,92h-3.3h-0.1H347.9"/>
<path class="st23" d="M415.1,225h0.6h0.5l1.4-1.4l30.4-30.4L398.8,144l-1.4-1.4l-1.3,1.4l-47.6,47.5L315,225h3.3h0.1H415.1"/>
<path class="st24" d="M347.9,225h-0.6h-0.5l-1.4,1.4L315,256.8l49.2,49.2l1.4,1.4l1.3-1.4l47.6-47.5L448,225h-3.3h-0.1H347.9"/>
<path class="st25" d="M415.1,358h0.6h0.5l1.4-1.4l30.4-30.4L398.8,277l-1.4-1.4l-1.3,1.4l-47.6,47.5L315,358h3.3h0.1H415.1"/>
<path class="st26" d="M347.9,358h-0.6h-0.5l-1.4,1.4L315,389.8l49.2,49.2l1.4,1.4l1.3-1.4l47.6-47.5L448,358h-3.3h-0.1H347.9"/>
<path class="st27" d="M516.5,92h0.6h0.5l1.4-1.4l30.4-30.4L500.2,11l-1.4-1.4l-1.3,1.4l-47.6,47.5L416.4,92h3.3h0.1H516.5"/>
<path class="st28" d="M449.3,92h-0.6h-0.5l-1.4,1.4l-30.4,30.4l49.2,49.2l1.4,1.4l1.3-1.4l47.6-47.5L549.4,92h-3.3H546H449.3"/>
<path class="st29" d="M516.5,225h0.6h0.5l1.4-1.4l30.4-30.4L500.2,144l-1.4-1.4l-1.3,1.4l-47.6,47.5L416.4,225h3.3h0.1H516.5"/>
<path class="st30" d="M449.3,225h-0.6h-0.5l-1.4,1.4l-30.4,30.4l49.2,49.2l1.4,1.4l1.3-1.4l47.6-47.5l33.5-33.5h-3.3H546H449.3"/>
<path class="st31" d="M516.5,358h0.6h0.5l1.4-1.4l30.4-30.4L500.2,277l-1.4-1.4l-1.3,1.4l-47.6,47.5L416.4,358h3.3h0.1H516.5"/>
<path class="st32" d="M449.3,358h-0.6h-0.5l-1.4,1.4l-30.4,30.4l49.2,49.2l1.4,1.4l1.3-1.4l47.6-47.5l33.5-33.5h-3.3H546H449.3"/>
</svg>
