<?xml version="1.0" encoding="utf-8"?>
<!-- Generator: Adobe Illustrator 22.1.0, SVG Export Plug-In . SVG Version: 6.00 Build 0)  -->
<svg version="1.1" id="Layer_1" xmlns="http://www.w3.org/2000/svg" xmlns:xlink="http://www.w3.org/1999/xlink" x="0px" y="0px"
	 viewBox="0 0 600 450" style="enable-background:new 0 0 600 450;" xml:space="preserve">
<style type="text/css">
	.st0{fill:#FBDE1D;}
	.st1{fill:#5B5BA5;}
	.st2{fill:#691B33;}
	.st3{fill:#EA5B5D;}
	.st4{fill:#EF7F6A;}
	.st5{fill:#E0533F;}
	.st6{fill:#EA5B5D;stroke:#FFFFFF;stroke-width:3;stroke-miterlimit:10;}
	.st7{font-family:'Montserrat-Bold';}
	.st8{font-size:25px;}
	.st9{fill:none;}
	.st10{fill:#575756;}
</style>
<g>
	<g>
		<polygon class="st0" points="487,49.9 561.1,87.9 537.4,134.2 437.6,166.5 432.2,156.7 		"/>
		<polygon class="st1" points="429.3,162.4 432.2,156.7 437.6,166.5 431.2,165.8 416.5,173.8 414.7,170.4 		"/>
	</g>
	<g>
		<g>
			<polygon class="st2" points="104.5,98.4 99.1,111.9 107.6,145.9 129.9,113 			"/>
			<path class="st2" d="M107.6,147.2c-0.1,0-0.2,0-0.2,0c-0.5-0.1-0.9-0.5-1-1l-8.4-34c-0.1-0.3,0-0.5,0.1-0.8l5.3-13.4
				c0.1-0.4,0.4-0.6,0.8-0.8c0.4-0.1,0.8-0.1,1.1,0.1l25.4,14.6c0.3,0.2,0.5,0.5,0.6,0.8c0.1,0.4,0,0.7-0.2,1l-22.3,32.9
				C108.4,147,108,147.2,107.6,147.2z M100.5,112l7.6,30.8l19.9-29.3l-22.9-13.1L100.5,112z"/>
		</g>
		<g>
			<polygon class="st2" points="83.8,115.9 69.3,150.7 107.6,145.9 99.1,111.9 			"/>
			<path class="st2" d="M69.3,152c-0.4,0-0.8-0.2-1-0.5c-0.3-0.4-0.3-0.9-0.2-1.3l14.5-34.8c0.2-0.4,0.5-0.7,0.9-0.8l15.4-4
				c0.3-0.1,0.7,0,1,0.1c0.3,0.2,0.5,0.5,0.6,0.8l8.4,34c0.1,0.4,0,0.7-0.2,1.1c-0.2,0.3-0.5,0.5-0.9,0.6L69.3,152L69.3,152z
				 M84.7,117l-13.4,32.1l34.6-4.3l-7.8-31.3L84.7,117z"/>
		</g>
		<g>
			<polygon class="st2" points="72,98.2 83.8,115.9 99.1,111.9 91.2,107.9 			"/>
			<path class="st2" d="M83.8,117.2c-0.4,0-0.8-0.2-1.1-0.6L70.9,99c-0.3-0.5-0.3-1.1,0.1-1.6c0.4-0.4,1-0.6,1.6-0.3l27.2,13.6
				c0.5,0.2,0.8,0.8,0.7,1.3c-0.1,0.5-0.4,1-1,1.1l-15.4,4C84,117.2,83.9,117.2,83.8,117.2z M75.8,101.6l8.5,12.8l11.1-2.9
				L75.8,101.6z"/>
		</g>
		<g>
			<polygon class="st2" points="72,98.2 91.2,107.9 99.1,111.9 104.5,98.4 94.9,98.4 			"/>
			<path class="st2" d="M99.1,113.2c-0.2,0-0.4,0-0.6-0.1L71.4,99.4c-0.5-0.3-0.8-0.9-0.7-1.5c0.1-0.6,0.7-1,1.3-1l0,0l32.5,0.2
				c0.4,0,0.8,0.2,1.1,0.6c0.2,0.4,0.3,0.8,0.1,1.2l-5.3,13.4c-0.1,0.3-0.4,0.6-0.7,0.7C99.5,113.1,99.3,113.2,99.1,113.2z
				 M77.6,99.6l20.9,10.5l4.1-10.3L77.6,99.6z"/>
		</g>
		<g>
			<polygon class="st2" points="72,98.2 94.9,98.4 104.5,98.4 99.3,84.9 91.3,88.8 			"/>
			<path class="st2" d="M104.5,99.7L104.5,99.7L72,99.5c-0.6,0-1.1-0.4-1.3-1c-0.1-0.6,0.2-1.2,0.7-1.5l27.3-13.3
				c0.3-0.2,0.7-0.2,1.1,0c0.3,0.1,0.6,0.4,0.7,0.7l5.2,13.5c0.2,0.4,0.1,0.9-0.1,1.2C105.3,99.5,104.9,99.7,104.5,99.7z M77.6,97
				l25,0.1l-4-10.4L77.6,97z"/>
		</g>
		<g>
			<polygon class="st2" points="72,98.2 91.3,88.8 99.3,84.9 84.2,81.2 			"/>
			<path class="st2" d="M72,99.5c-0.4,0-0.7-0.2-1-0.5c-0.4-0.5-0.4-1.1-0.1-1.6l12.3-17c0.3-0.4,0.9-0.6,1.4-0.5l15,3.7
				c0.5,0.1,0.9,0.6,1,1.1s-0.2,1.1-0.7,1.3L72.6,99.4C72.4,99.5,72.2,99.5,72,99.5z M84.8,82.7l-8.7,12.1l19.4-9.5L84.8,82.7z"/>
		</g>
		<g>
			<polygon class="st0" points="129.9,113 125,83.3 99.3,84.9 104.5,98.4 			"/>
			<path class="st0" d="M129.9,114.3c-0.2,0-0.4-0.1-0.7-0.2l-25.4-14.6c-0.3-0.1-0.5-0.4-0.6-0.7L98,85.3c-0.1-0.4-0.1-0.8,0.1-1.2
				c0.2-0.4,0.6-0.6,1-0.6l25.7-1.6c0.7,0,1.3,0.4,1.4,1.1l4.9,29.7c0.1,0.5-0.1,1-0.5,1.3C130.4,114.2,130.2,114.3,129.9,114.3z
				 M105.5,97.5l22.6,13l-4.3-25.8l-22.7,1.4L105.5,97.5z"/>
		</g>
		<g>
			<polygon class="st2" points="65.4,57.1 52,94.3 67.4,77.1 99.3,84.9 			"/>
			<path class="st2" d="M52,95.7c-0.2,0-0.5-0.1-0.7-0.2c-0.5-0.3-0.8-1-0.6-1.6l13.4-37.2c0.1-0.4,0.5-0.7,0.9-0.8s0.8,0,1.2,0.2
				l33.9,27.8c0.5,0.4,0.6,1,0.3,1.6c-0.3,0.5-0.9,0.8-1.5,0.7l-31.1-7.6L53,95.2C52.7,95.5,52.4,95.7,52,95.7z M66,59.3L55.5,88.4
				l10.9-12.2c0.3-0.4,0.8-0.5,1.3-0.4L94,82.3L66,59.3z"/>
		</g>
		<g>
			<path class="st2" d="M99.3,86.2c-0.1,0-0.2,0-0.3,0l-31.9-7.8c-0.6-0.2-1.1-0.8-1-1.4c0.1-0.7,0.6-1.1,1.3-1.1l0,0L88.8,76
				c0.3,0,0.5,0.1,0.8,0.3l10.5,7.7c0.5,0.4,0.7,1,0.4,1.6C100.3,85.9,99.8,86.2,99.3,86.2z M78.5,78.5l14.7,3.6l-4.8-3.6H78.5z"/>
		</g>
		<g>
			<polygon class="st0" points="96.1,57.5 65.4,57.1 99.3,84.9 125,83.3 			"/>
			<path class="st0" d="M99.3,86.2c-0.3,0-0.6-0.1-0.8-0.3L64.6,58.2c-0.4-0.4-0.6-0.9-0.4-1.5c0.2-0.5,0.7-0.9,1.2-0.9L96,56.2
				c0.3,0,0.6,0.1,0.9,0.3l28.9,25.8c0.4,0.4,0.5,0.9,0.4,1.4c-0.2,0.5-0.6,0.8-1.2,0.9L99.3,86.2L99.3,86.2z M69.1,58.5l30.6,25.1
				l22-1.4L95.6,58.8L69.1,58.5z"/>
		</g>
		<g>
			<polygon class="st3" points="72,98.2 40.2,107.6 69.3,150.7 83.8,115.9 			"/>
			<path class="st3" d="M69.3,152c-0.4,0-0.8-0.2-1.1-0.6l-29.1-43.1c-0.2-0.3-0.3-0.8-0.1-1.2c0.1-0.4,0.5-0.7,0.9-0.8L71.6,97
				c0.5-0.2,1.1,0.1,1.5,0.5l11.8,17.7c0.2,0.4,0.3,0.8,0.1,1.2l-14.5,34.8C70.3,151.6,69.9,151.9,69.3,152
				C69.3,152,69.3,152,69.3,152z M42.2,108.4L69,148l13.3-32L71.4,99.8L42.2,108.4z"/>
		</g>
		<g>
			<polygon class="st0" points="84.2,81.2 99.3,84.9 67.4,77.1 40.2,107.6 72,98.2 			"/>
			<path class="st0" d="M40.2,108.9c-0.4,0-0.9-0.2-1.1-0.6c-0.3-0.5-0.3-1.1,0.1-1.6l27.2-30.5c0.3-0.4,0.8-0.5,1.3-0.4L84.5,80
				l0,0l15,3.7c0.7,0.2,1.1,0.9,1,1.6c-0.2,0.7-0.9,1.1-1.6,1l-14.2-3.5L73.1,99c-0.2,0.2-0.4,0.4-0.7,0.5l-31.8,9.4
				C40.4,108.9,40.3,108.9,40.2,108.9z M67.9,78.6l-23.7,26.5l27-7.9L82.1,82L67.9,78.6z"/>
		</g>
	</g>
	<g>
		<polygon class="st4" points="301.3,131.9 301.3,131.9 301.3,131.9 		"/>
		<polygon class="st5" points="302.4,131.7 303.8,132.1 303.2,131.5 		"/>
		<path class="st5" d="M304.2,132.5L304.2,132.5L304.2,132.5z"/>
		<rect x="214.5" y="65.9" class="st6" width="88.3" height="88.3"/>
		<rect x="302.8" y="65.9" class="st6" width="55.7" height="54.2"/>
		<rect x="322.4" y="120.1" class="st6" width="36" height="34.1"/>
		<rect x="302.9" y="131.8" class="st6" width="19.5" height="22.4"/>
		<rect x="302.8" y="120.1" class="st6" width="19.6" height="11.6"/>
	</g>
	<text transform="matrix(1 0 0 1 167.2627 117.2103)" class="st7 st8">+</text>
	<text transform="matrix(1 0 0 1 390.6936 117.2104)" class="st7 st8">+</text>
	<text transform="matrix(1 0 0 1 278.9781 213.261)" class="st7 st8">=</text>
</g>
<g>
	<polygon class="st9" points="125.6,392.1 252,392.1 228.2,368.3 	"/>
	<polygon class="st9" points="230.9,365.2 256.9,391.2 300.7,347.5 231,277.9 	"/>
	<polygon class="st9" points="226.7,364.4 226.9,277.9 162.3,342.5 114.2,390.5 	"/>
	<polygon class="st4" points="230.9,365.2 231,277.9 300.7,347.5 231,277.9 	"/>
	<polygon class="st4" points="306.5,347.5 231,272 231,272 	"/>
	<polygon class="st4" points="226.9,277.9 226.9,277.9 226.7,364.4 226.7,364.4 	"/>
	<path class="st4" d="M226.9,277.9l-64.6,64.6L226.9,277.9z"/>
	<path class="st4" d="M226.9,272L154,344.9L226.9,272z"/>
	<polygon class="st4" points="226.9,277.9 226.7,364.4 228.3,364 228.3,364 229.4,363.8 230.3,364.6 230.9,365.2 231,277.9 
		228.9,275.8 226.9,277.9 	"/>
	<polygon class="st4" points="228.9,270 231,272 231,272 228.9,270 226.9,272 226.9,272 	"/>
	<polygon class="st4" points="125.6,392.1 125.6,392.1 228.2,368.3 	"/>
	<polygon class="st4" points="114.2,390.5 114.2,390.5 226.7,364.4 226.7,364.4 	"/>
	<polygon class="st4" points="226.7,364.4 226.7,364.4 226.7,364.4 	"/>
	<polygon class="st4" points="125.6,392.1 125.6,392.1 107.9,396.2 256.1,396.2 252,392.1 	"/>
	<polygon class="st4" points="226.7,364.4 226.7,364.4 228.3,364 228.3,364 	"/>
	<polygon class="st5" points="228.3,364 230.3,364.6 229.4,363.8 	"/>
	<polygon class="st3" points="231,277.9 231,272 228.9,270 226.9,272 226.9,277.9 228.9,275.8 	"/>
	<path class="st5" d="M230.9,365.2l26,26L230.9,365.2z"/>
	<path class="st5" d="M230.9,365.2L230.9,365.2L230.9,365.2z"/>
	<polygon class="st5" points="226.7,364.4 226.7,366 226.7,366.9 	"/>
	<polygon class="st5" points="256.9,391.2 230.9,365.2 258.4,392.7 258.4,392.7 	"/>
	<polygon class="st5" points="226.7,366.9 252,392.1 256.1,396.2 256.1,396.2 	"/>
	<polygon class="st3" points="226.7,366.9 226.7,366 226.7,364.4 114.2,390.5 114.2,390.5 162.3,342.5 226.9,277.9 226.9,272 
		154,344.9 102.6,396.2 107.6,396.2 107.9,396.2 125.6,392.1 228.2,368.3 252,392.1 	"/>
	<polygon class="st3" points="231,272 231,277.9 300.7,347.5 256.9,391.2 230.9,365.2 230.3,364.6 228.3,364 226.7,364.4 
		226.7,366.9 256.1,396.2 256.9,396.2 257.8,396.2 259.9,394.2 306.5,347.5 	"/>
	<g>
		<g>
			<path d="M326,273.2v33h-3.9l-19.8-24.6v24.6h-4.7v-33h3.9l19.8,24.6v-24.6H326z"/>
			<path d="M354.1,283.6c1.8,1.7,2.8,4.2,2.8,7.6v15.1h-4.3V303c-0.8,1.2-1.8,2.1-3.2,2.7c-1.4,0.6-3.1,0.9-5,0.9
				c-2.8,0-5-0.7-6.7-2c-1.7-1.4-2.5-3.1-2.5-5.3c0-2.2,0.8-4,2.4-5.3s4.1-2,7.6-2h7.2v-1c0-1.9-0.6-3.4-1.7-4.5
				c-1.1-1-2.8-1.6-5-1.6c-1.5,0-2.9,0.2-4.3,0.7s-2.6,1.1-3.6,2l-1.9-3.4c1.3-1,2.8-1.8,4.6-2.4c1.8-0.5,3.7-0.8,5.7-0.8
				C349.6,281,352.3,281.9,354.1,283.6z M349.6,301.9c1.3-0.8,2.2-1.9,2.7-3.3v-3.5h-7c-3.8,0-5.8,1.3-5.8,3.9c0,1.3,0.5,2.2,1.5,3
				c1,0.7,2.3,1.1,4.1,1.1C346.9,303,348.4,302.7,349.6,301.9z"/>
			<path d="M390.4,281.3v25h-4.3v-3.8c-0.9,1.3-2.1,2.3-3.6,3s-3.1,1.1-4.9,1.1c-3.3,0-6-0.9-7.9-2.8c-1.9-1.8-2.9-4.6-2.9-8.1
				v-14.4h4.5v13.9c0,2.4,0.6,4.3,1.7,5.5c1.2,1.2,2.8,1.9,5,1.9c2.4,0,4.3-0.7,5.7-2.2c1.4-1.4,2.1-3.5,2.1-6.1v-12.9h4.6V281.3z"
				/>
			<path d="M399.3,291.3H424v3.9h-24.8L399.3,291.3L399.3,291.3z"/>
		</g>
		<g>
			<path d="M363.4,348.9c-0.7,0.6-1.5,1-2.5,1.3s-2,0.4-3,0.4c-2.5,0-4.5-0.7-5.8-2c-1.4-1.4-2.1-3.3-2.1-5.8V329h-4.2v-3.7h4.2
				v-5.5h4.5v5.5h7.2v3.7h-7.2v13.5c0,1.4,0.3,2.4,1,3.1s1.6,1.1,2.9,1.1c1.4,0,2.6-0.4,3.5-1.2L363.4,348.9z"/>
			<path d="M370.8,325.3h4.5v25h-4.5V325.3z M376.2,317.6l-3.2,3.2l-3.2-3.2l3.2-3.2L376.2,317.6z"/>
			<path d="M385.7,315.3h4.5v35h-4.5V315.3z"/>
			<path d="M424,325.3v25h-4.3v-3.8c-0.9,1.3-2.1,2.3-3.6,3s-3.1,1.1-4.9,1.1c-3.3,0-6-0.9-7.9-2.8c-1.9-1.8-2.9-4.6-2.9-8.1v-14.4
				h4.5v13.9c0,2.4,0.6,4.3,1.7,5.5c1.2,1.2,2.8,1.9,5,1.9c2.4,0,4.3-0.7,5.7-2.2c1.4-1.4,2.1-3.5,2.1-6.1v-12.9h4.6V325.3z"/>
			<path d="M435.8,349.8c-1.9-0.5-3.4-1.3-4.4-2.1l1.9-3.6c1.1,0.8,2.4,1.4,4,1.9s3.2,0.7,4.8,0.7c4,0,5.9-1.1,5.9-3.4
				c0-0.8-0.3-1.4-0.8-1.8s-1.2-0.8-2-1s-1.9-0.4-3.4-0.7c-2-0.3-3.7-0.7-4.9-1.1c-1.3-0.4-2.4-1.1-3.3-2.1s-1.4-2.3-1.4-4.1
				c0-2.3,0.9-4.1,2.8-5.4c1.9-1.4,4.4-2.1,7.6-2.1c1.7,0,3.3,0.2,5,0.6s3,1,4.1,1.7l-1.9,3.6c-2-1.3-4.4-2-7.2-2
				c-1.9,0-3.4,0.3-4.4,0.9s-1.5,1.5-1.5,2.5c0,0.8,0.3,1.5,0.8,1.9c0.6,0.5,1.3,0.8,2.1,1c0.8,0.2,2,0.5,3.5,0.8
				c2,0.3,3.6,0.7,4.9,1.1c1.2,0.4,2.3,1.1,3.2,2c0.9,0.9,1.3,2.3,1.3,4c0,2.3-1,4.1-2.9,5.4s-4.6,2-7.9,2
				C439.6,350.6,437.7,350.3,435.8,349.8z"/>
		</g>
		<g>
			<path class="st10" d="M339.6,377.7h4.5v12.9c-1.6,1.4-3.5,2.4-5.7,3.1s-4.4,1.1-6.8,1.1c-3.3,0-6.3-0.7-9-2.2s-4.8-3.5-6.3-6
				c-1.5-2.6-2.3-5.4-2.3-8.7c0-3.2,0.8-6.1,2.3-8.7s3.6-4.6,6.3-6c2.7-1.4,5.7-2.2,9.1-2.2c2.6,0,5,0.4,7.2,1.3s4,2.1,5.5,3.8
				l-2.9,2.9c-2.6-2.5-5.8-3.8-9.6-3.8c-2.5,0-4.8,0.5-6.8,1.6s-3.6,2.6-4.7,4.5s-1.7,4.1-1.7,6.5s0.6,4.6,1.7,6.5s2.7,3.5,4.7,4.6
				s4.2,1.7,6.7,1.7c3,0,5.5-0.7,7.7-2.1L339.6,377.7L339.6,377.7z"/>
			<path class="st10" d="M376.8,383.4h-20.3c0.3,2.2,1.2,4,2.9,5.3c1.7,1.3,3.7,2,6.2,2c3,0,5.4-1,7.2-3l2.5,2.9
				c-1.1,1.3-2.5,2.3-4.2,3s-3.6,1-5.6,1c-2.6,0-5-0.5-7-1.6s-3.6-2.6-4.7-4.6c-1.1-1.9-1.7-4.1-1.7-6.6c0-2.4,0.5-4.6,1.6-6.6
				c1.1-1.9,2.6-3.5,4.5-4.6s4-1.6,6.4-1.6s4.5,0.5,6.4,1.6s3.3,2.6,4.4,4.6c1.1,1.9,1.6,4.2,1.6,6.7
				C376.9,382.4,376.8,382.8,376.8,383.4z M359.1,374.9c-1.5,1.3-2.3,3-2.6,5.2h16c-0.3-2.1-1.1-3.8-2.6-5.2c-1.5-1.3-3.3-2-5.4-2
				C362.3,373,360.5,373.6,359.1,374.9z"/>
			<path class="st10" d="M405.9,371.9c1.9,1.8,2.8,4.5,2.8,8.1v14.4h-4.5v-13.9c0-2.4-0.6-4.2-1.7-5.5c-1.2-1.2-2.8-1.8-5-1.8
				c-2.5,0-4.4,0.7-5.8,2.1s-2.1,3.5-2.1,6.2v12.9H385v-25h4.3v3.8c0.9-1.3,2.1-2.3,3.7-3s3.3-1,5.3-1
				C401.5,369.1,404,370.1,405.9,371.9z"/>
			<path class="st10" d="M433,392.9c-0.7,0.6-1.5,1-2.5,1.3s-2,0.4-3,0.4c-2.5,0-4.5-0.7-5.8-2c-1.4-1.4-2.1-3.3-2.1-5.8v-13.7h-4.2
				v-3.7h4.2v-5.5h4.5v5.5h7.2v3.7h-7.2v13.5c0,1.4,0.3,2.4,1,3.1s1.6,1.1,2.9,1.1c1.4,0,2.6-0.4,3.5-1.2L433,392.9z"/>
		</g>
	</g>
</g>
</svg>
