<?xml version="1.0" encoding="utf-8"?>
<!-- Generator: Adobe Illustrator 22.1.0, SVG Export Plug-In . SVG Version: 6.00 Build 0)  -->
<svg version="1.1" id="Layer_1" xmlns="http://www.w3.org/2000/svg" xmlns:xlink="http://www.w3.org/1999/xlink" x="0px" y="0px"
	 viewBox="0 0 240 115.5" style="enable-background:new 0 0 240 115.5;" xml:space="preserve">
<style type="text/css">
	.st0{enable-background:new    ;}
	.st1{fill:#0F0F0E;}
	.st2{fill:#1B1B19;}
	.st3{fill:#802F24;}
	.st4{fill:#702A20;}
	.st5{fill:#808080;}
	.st6{fill:#F0F0F0;}
	.st7{fill:#784035;}
	.st8{fill:#7F2F24;}
	.st9{fill:#87483C;}
	.st10{fill:#7D4237;}
	.st11{fill:#E17764;}
	.st12{fill:#919191;}
	.st13{fill:#88483C;}
	.st14{fill:#D34E3B;}
	.st15{clip-path:url(#SVGID_2_);enable-background:new    ;}
	.st16{clip-path:url(#SVGID_4_);enable-background:new    ;}
	.st17{fill:#10100F;}
	.st18{clip-path:url(#SVGID_6_);enable-background:new    ;}
	.st19{clip-path:url(#SVGID_8_);enable-background:new    ;}
	.st20{clip-path:url(#SVGID_10_);enable-background:new    ;}
	.st21{clip-path:url(#SVGID_12_);enable-background:new    ;}
	.st22{clip-path:url(#SVGID_14_);enable-background:new    ;}
	.st23{clip-path:url(#SVGID_16_);enable-background:new    ;}
	.st24{clip-path:url(#SVGID_18_);enable-background:new    ;}
	.st25{clip-path:url(#SVGID_20_);enable-background:new    ;}
	.st26{clip-path:url(#SVGID_22_);enable-background:new    ;}
	.st27{clip-path:url(#SVGID_24_);enable-background:new    ;}
	.st28{clip-path:url(#SVGID_26_);enable-background:new    ;}
	.st29{clip-path:url(#SVGID_28_);enable-background:new    ;}
	.st30{clip-path:url(#SVGID_30_);enable-background:new    ;}
	.st31{fill:#11110F;}
	.st32{clip-path:url(#SVGID_32_);enable-background:new    ;}
	.st33{clip-path:url(#SVGID_34_);enable-background:new    ;}
	.st34{clip-path:url(#SVGID_36_);enable-background:new    ;}
	.st35{clip-path:url(#SVGID_38_);enable-background:new    ;}
	.st36{clip-path:url(#SVGID_40_);enable-background:new    ;}
	.st37{clip-path:url(#SVGID_42_);enable-background:new    ;}
	.st38{clip-path:url(#SVGID_44_);enable-background:new    ;}
	.st39{clip-path:url(#SVGID_46_);enable-background:new    ;}
	.st40{clip-path:url(#SVGID_48_);enable-background:new    ;}
	.st41{clip-path:url(#SVGID_50_);enable-background:new    ;}
	.st42{clip-path:url(#SVGID_52_);enable-background:new    ;}
	.st43{clip-path:url(#SVGID_54_);enable-background:new    ;}
	.st44{clip-path:url(#SVGID_56_);enable-background:new    ;}
	.st45{clip-path:url(#SVGID_58_);enable-background:new    ;}
	.st46{clip-path:url(#SVGID_60_);enable-background:new    ;}
	.st47{clip-path:url(#SVGID_62_);enable-background:new    ;}
	.st48{clip-path:url(#SVGID_64_);enable-background:new    ;}
	.st49{clip-path:url(#SVGID_66_);enable-background:new    ;}
	.st50{clip-path:url(#SVGID_68_);enable-background:new    ;}
	.st51{clip-path:url(#SVGID_70_);enable-background:new    ;}
	.st52{clip-path:url(#SVGID_72_);enable-background:new    ;}
	.st53{clip-path:url(#SVGID_74_);enable-background:new    ;}
	.st54{clip-path:url(#SVGID_76_);enable-background:new    ;}
	.st55{clip-path:url(#SVGID_78_);enable-background:new    ;}
	.st56{clip-path:url(#SVGID_80_);enable-background:new    ;}
	.st57{clip-path:url(#SVGID_82_);enable-background:new    ;}
	.st58{clip-path:url(#SVGID_84_);enable-background:new    ;}
	.st59{clip-path:url(#SVGID_86_);enable-background:new    ;}
	.st60{clip-path:url(#SVGID_88_);enable-background:new    ;}
</style>
<g>
	<g>
		<g class="st0">
			<g>
				<polygon class="st1" points="143.5,38.8 142.1,38.8 140.4,38.7 141.7,38.7 				"/>
			</g>
			<g>
				<polygon class="st1" points="141.4,34.5 140,34.5 140.4,21.6 141.7,21.6 				"/>
			</g>
			<g>
				<polygon class="st1" points="141.7,38.7 140.4,38.7 131.5,25.5 132.9,25.5 				"/>
			</g>
			<g>
				<polygon class="st1" points="132.5,38.4 131.2,38.4 129,38.3 130.3,38.3 				"/>
			</g>
			<g>
				<polygon class="st1" points="130.3,38.3 129,38.3 129.4,21.2 130.8,21.2 				"/>
			</g>
			<g>
				<polygon class="st2" points="144,21.7 143.5,38.8 141.7,38.7 132.9,25.5 132.5,38.4 130.3,38.3 130.8,21.2 132.6,21.3 
					141.4,34.5 141.7,21.6 				"/>
			</g>
			<g>
				<polygon class="st3" points="110.2,81.9 108.9,81.9 129.8,59.9 131.2,59.9 				"/>
			</g>
			<g>
				<polygon class="st4" points="110.8,82.8 109.5,82.8 108.9,81.9 110.2,81.9 				"/>
			</g>
			<g>
				<polygon class="st4" points="110.5,84.6 109.2,84.6 108.8,84.5 110.2,84.5 				"/>
			</g>
			<g>
				<polygon class="st4" points="110.2,84.5 108.8,84.5 108.4,84.5 109.7,84.5 				"/>
			</g>
			<g>
				<polygon class="st5" points="109.7,84.5 108.4,84.5 106.5,82.3 107.9,82.3 				"/>
			</g>
			<g>
				<polygon class="st5" points="107.9,82.3 106.5,82.3 101.8,76.6 103.1,76.6 				"/>
			</g>
			<g>
				<polygon class="st5" points="103.1,76.6 109.7,84.5 107.9,82.3 				"/>
			</g>
			<g>
				<polygon class="st4" points="109.7,84.5 108.4,84.5 101.8,76.6 103.1,76.6 				"/>
			</g>
			<g>
				<polygon class="st5" points="131.2,59.9 129.8,59.9 98.4,22.6 99.7,22.6 				"/>
			</g>
			<g>
				<polygon class="st4" points="131.2,59.9 129.8,59.9 98.4,22.6 99.7,22.6 				"/>
			</g>
			<g>
				<polygon class="st4" points="99.7,22.6 98.4,22.6 97.5,21.3 98.9,21.3 				"/>
			</g>
			<g>
				<polygon class="st6" points="98.5,67.9 110.2,81.9 110.8,82.8 				"/>
			</g>
			<g>
				<polygon class="st5" points="110.8,82.8 109.5,82.8 97.1,67.9 98.5,67.9 				"/>
			</g>
			<g>
				<polygon class="st7" points="98.5,67.9 97.1,67.9 96.9,67.6 98.2,67.6 				"/>
			</g>
			<g>
				<polygon class="st8" points="98,19.4 96.7,19.4 97.6,18.3 99,18.3 				"/>
			</g>
			<g>
				<polygon class="st9" points="97.9,22.5 96.6,22.5 97.5,21.3 98.9,21.3 				"/>
			</g>
			<g>
				<polygon class="st7" points="98.2,67.6 96.9,67.6 96.4,67.2 97.8,67.2 				"/>
			</g>
			<g>
				<polygon class="st8" points="97.4,67.3 96,67.3 96.4,67.2 97.8,67.2 				"/>
			</g>
			<g>
				<polygon class="st4" points="103.1,76.6 101.8,76.6 95.9,69.6 97.2,69.6 				"/>
			</g>
			<g>
				<polygon class="st8" points="96.6,67.5 95.3,67.5 96,67.3 97.4,67.3 				"/>
			</g>
			<g>
				<polygon class="st10" points="96.6,67.5 95.3,67.5 96.6,22.5 97.9,22.5 				"/>
			</g>
			<g>
				<polygon class="st11" points="98.9,21.3 99.7,22.6 98.5,67.9 98.2,67.6 97.8,67.2 97.4,67.3 96.6,67.5 97.9,22.5 				"/>
			</g>
			<g>
				<polygon class="st12" points="67,55 65.7,55 96.6,22.5 97.9,22.5 				"/>
			</g>
			<g>
				<polygon class="st3" points="63.2,56.1 61.8,56.1 96.7,19.4 98,19.4 				"/>
			</g>
			<g>
				<polygon class="st12" points="49.3,80.2 48,80.2 95.9,69.6 97.2,69.6 				"/>
			</g>
			<g>
				<polygon class="st8" points="44.1,79.2 42.7,79.2 95.3,67.5 96.6,67.5 				"/>
			</g>
			<g>
				<polygon class="st7" points="109.7,84.5 108.4,84.5 39.6,82.1 41,82.1 				"/>
			</g>
			<g>
				<polygon class="st13" points="41,82.1 39.6,82.1 48,80.2 49.3,80.2 				"/>
			</g>
			<g>
				<polygon class="st11" points="107.9,82.3 109.7,84.5 41,82.1 49.3,80.2 				"/>
			</g>
			<g>
				<path class="st14" d="M99.9,19.5L133.8,60l-22.3,23.5l-1,1.1l-0.4,0l-0.4,0l-6.6-7.9l-5.9-7L49.3,80.2L41,82.1L38.6,82l24.6-26
					L98,19.4l0.9-1.1L99.9,19.5z M110.8,82.8l-0.6-0.8l20.9-22.1L99.7,22.6l-0.9-1.2l-0.9,1.2L67,55L44.1,79.2l52.5-11.8l0.7-0.2
					l0.4-0.1l0.4,0.4l0.3,0.3L110.8,82.8"/>
			</g>
			<g>
				<polygon class="st3" points="38.6,82 37.2,82 61.8,56.1 63.2,56.1 				"/>
			</g>
			<g>
				<polygon class="st4" points="41,82.1 39.6,82.1 37.2,82 38.6,82 				"/>
			</g>
		</g>
		<g class="st0">
			<g>
				<polygon class="st1" points="156,31.7 154.6,31.7 154.6,31.2 156,31.2 				"/>
			</g>
			<g>
				<polygon class="st1" points="155.8,35.2 154.4,35.2 154.5,33.4 155.9,33.4 				"/>
			</g>
			<g>
				<polygon class="st1" points="157.7,39.3 156.4,39.3 154.4,39.2 155.8,39.2 				"/>
			</g>
			<g>
				<polygon class="st1" points="155.8,39.2 154.4,39.2 154.5,37.4 155.8,37.4 				"/>
			</g>
			<g class="st0">
				<defs>
					<path id="SVGID_1_" class="st0" d="M156,31.2l-1.4,0c0-1-0.2-1.8-0.7-2.3l1.4,0C155.8,29.4,156,30.2,156,31.2z"/>
				</defs>
				<clipPath id="SVGID_2_">
					<use xlink:href="#SVGID_1_"  style="overflow:visible;"/>
				</clipPath>
				<g class="st15">
					<path class="st1" d="M156,31.2l-1.4,0c0-1-0.2-1.8-0.7-2.3l1.4,0C155.8,29.4,156,30.2,156,31.2"/>
				</g>
			</g>
			<g class="st0">
				<defs>
					<path id="SVGID_3_" class="st0" d="M154.5,36.9l-1.4,0c0.5-0.4,1-1,1.3-1.7l1.4,0C155.5,35.9,155.1,36.5,154.5,36.9z"/>
				</defs>
				<clipPath id="SVGID_4_">
					<use xlink:href="#SVGID_3_"  style="overflow:visible;"/>
				</clipPath>
				<g class="st16">
					<path class="st17" d="M154.5,36.9l-1.4,0c0.1-0.1,0.2-0.2,0.3-0.2l1.4,0C154.7,36.7,154.6,36.8,154.5,36.9"/>
					<path class="st17" d="M154.8,36.6l-1.4,0c0.3-0.3,0.6-0.7,0.9-1.1l1.4,0C155.4,35.9,155.2,36.3,154.8,36.6"/>
					<path class="st1" d="M155.7,35.5l-1.4,0c0-0.1,0.1-0.2,0.1-0.3l1.4,0C155.8,35.3,155.7,35.4,155.7,35.5"/>
				</g>
			</g>
			<g class="st0">
				<defs>
					<path id="SVGID_5_" class="st0" d="M151.5,28l1.4,0c0,0,0.1,0,0.1,0c1.1,0,1.8,0.3,2.3,0.9l-1.4,0c-0.5-0.6-1.2-0.8-2.3-0.9
						C151.6,28,151.5,28,151.5,28z"/>
				</defs>
				<clipPath id="SVGID_6_">
					<use xlink:href="#SVGID_5_"  style="overflow:visible;"/>
				</clipPath>
				<g class="st18">
					<path class="st1" d="M155.3,28.9l-1.4,0c-0.5-0.6-1.2-0.8-2.3-0.9c-0.1,0-0.1,0-0.1,0l1.4,0c0,0,0.1,0,0.1,0
						C154,28.1,154.7,28.3,155.3,28.9"/>
				</g>
			</g>
			<g>
				<polygon class="st1" points="155.9,33.4 154.5,33.4 151.2,33.3 152.6,33.3 				"/>
			</g>
			<g class="st0">
				<defs>
					<path id="SVGID_7_" class="st0" d="M152.5,37.4l-1.4,0c0.7,0,1.4-0.2,2-0.5l1.4,0C153.9,37.2,153.3,37.4,152.5,37.4z"/>
				</defs>
				<clipPath id="SVGID_8_">
					<use xlink:href="#SVGID_7_"  style="overflow:visible;"/>
				</clipPath>
				<g class="st19">
					<path class="st17" d="M152.5,37.4l-1.4,0c0.7,0,1.4-0.2,2-0.5l1.4,0C153.9,37.2,153.3,37.4,152.5,37.4"/>
				</g>
			</g>
			<g class="st0">
				<defs>
					<path id="SVGID_9_" class="st0" d="M150.9,33.3l1.4,0c0.1,0,0.2,0,0.3,0l-1.4,0C151.1,33.3,151,33.3,150.9,33.3z"/>
				</defs>
				<clipPath id="SVGID_10_">
					<use xlink:href="#SVGID_9_"  style="overflow:visible;"/>
				</clipPath>
				<g class="st20">
					<path class="st1" d="M152.6,33.3l-1.4,0c-0.1,0-0.2,0-0.3,0l1.4,0C152.4,33.3,152.5,33.3,152.6,33.3"/>
				</g>
			</g>
			<g class="st0">
				<defs>
					<path id="SVGID_11_" class="st0" d="M150.8,31.6l1.4,0c-1.4,0-2.5,0.3-3.1,0.9l-1.4,0C148.3,31.9,149.4,31.6,150.8,31.6z"/>
				</defs>
				<clipPath id="SVGID_12_">
					<use xlink:href="#SVGID_11_"  style="overflow:visible;"/>
				</clipPath>
				<g class="st21">
					<path class="st17" d="M149,32.5l-1.4,0c0,0,0,0,0,0L149,32.5C149,32.5,149,32.5,149,32.5"/>
					<path class="st17" d="M149,32.5l-1.4,0c0.7-0.6,1.7-0.9,3.1-0.9l1.4,0C150.8,31.6,149.7,31.9,149,32.5"/>
				</g>
			</g>
			<g>
				<polygon class="st1" points="149.4,29.3 148,29.3 147.2,27.5 148.5,27.5 				"/>
			</g>
			<g class="st0">
				<defs>
					<path id="SVGID_13_" class="st0" d="M151.6,25.9l1.4,0c-0.8,0-1.5,0.1-2.2,0.3c-0.9,0.3-1.6,0.6-2.2,1.2l-1.4,0
						c0.6-0.6,1.3-1,2.2-1.2C150.1,26,150.8,25.9,151.6,25.9z"/>
				</defs>
				<clipPath id="SVGID_14_">
					<use xlink:href="#SVGID_13_"  style="overflow:visible;"/>
				</clipPath>
				<g class="st22">
					<path class="st17" d="M148.5,27.5l-1.4,0c0.1-0.1,0.1-0.1,0.2-0.2l1.4,0C148.7,27.3,148.6,27.4,148.5,27.5"/>
					<path class="st17" d="M148.7,27.3l-1.4,0c0.5-0.5,1.2-0.8,2-1c0.8-0.2,1.4-0.3,2.2-0.3l1.4,0c-0.8,0-1.5,0.1-2.2,0.3
						C149.9,26.5,149.2,26.8,148.7,27.3"/>
				</g>
			</g>
			<g class="st0">
				<defs>
					<path id="SVGID_15_" class="st0" d="M152.2,39.2l-1.4,0c-0.1,0-0.2,0-0.2,0c-1.3,0-2.3-0.4-3.1-1.1c-0.8-0.7-1.1-1.6-1.1-2.8
						c0-1.1,0.4-2.1,1.2-2.8l1.4,0c-0.8,0.7-1.2,1.7-1.2,2.8c0,1.2,0.3,2.1,1.1,2.8c0.8,0.7,1.8,1.1,3.1,1.1
						C152,39.2,152.1,39.2,152.2,39.2z"/>
				</defs>
				<clipPath id="SVGID_16_">
					<use xlink:href="#SVGID_15_"  style="overflow:visible;"/>
				</clipPath>
				<g class="st23">
					<path class="st1" d="M152.2,39.2l-1.4,0c-0.1,0-0.2,0-0.2,0c-1.3,0-2.3-0.4-3.1-1.1c-0.8-0.7-1.1-1.6-1.1-2.8
						c0-0.6,0.2-1.2,0.4-1.8l1.4,0c-0.3,0.5-0.4,1.1-0.4,1.8c0,1.2,0.3,2.1,1.1,2.8c0.8,0.7,1.8,1.1,3.1,1.1
						C152,39.2,152.1,39.2,152.2,39.2"/>
					<path class="st17" d="M148.2,33.5l-1.4,0c0.2-0.3,0.4-0.6,0.7-0.9l1.4,0C148.6,32.8,148.4,33.1,148.2,33.5"/>
					<path class="st17" d="M148.9,32.6l-1.4,0c0,0,0.1-0.1,0.1-0.1l1.4,0C149,32.5,148.9,32.5,148.9,32.6"/>
				</g>
			</g>
			<g>
				<path class="st2" d="M156.8,27.4c0.9,0.9,1.2,2.2,1.1,4l-0.2,7.8l-2-0.1l0-1.8c-0.4,0.6-0.9,1-1.6,1.4c-0.6,0.3-1.4,0.4-2.3,0.4
					c-1.3,0-2.3-0.4-3.1-1.1c-0.8-0.7-1.1-1.6-1.1-2.8c0-1.1,0.4-2.1,1.2-2.8c0.7-0.7,2-0.9,3.6-0.9l3.4,0.1l0-0.5
					c0-1-0.2-1.8-0.7-2.3c-0.5-0.6-1.2-0.8-2.3-0.9c-0.7,0-1.3,0.2-2,0.3c-0.6,0.2-1.3,0.6-1.6,0.9l-0.8-1.8c0.6-0.6,1.3-1,2.2-1.2
					c0.9-0.3,1.7-0.3,2.7-0.3C154.8,26,155.9,26.5,156.8,27.4z M155.8,35.2l0-1.8l-3.3-0.1c-1.8-0.1-2.7,0.5-2.7,1.9
					c0,0.6,0.1,1.2,0.7,1.5c0.4,0.4,1,0.6,1.9,0.7c0.8,0,1.5-0.1,2.2-0.5C155.1,36.5,155.5,35.9,155.8,35.2"/>
			</g>
		</g>
		<g class="st0">
			<g>
				<polygon class="st1" points="171.4,33.6 170.1,33.6 170.3,26.8 171.6,26.8 				"/>
			</g>
			<g>
				<polygon class="st1" points="171.4,39.8 170,39.8 170.1,37.8 171.4,37.8 				"/>
			</g>
			<g>
				<polygon class="st1" points="173.3,39.8 172,39.8 170,39.8 171.4,39.8 				"/>
			</g>
			<g class="st0">
				<defs>
					<path id="SVGID_17_" class="st0" d="M170.4,36.7l-1.4,0c0.6-0.7,1-1.8,1.1-3.2l1.4,0C171.4,35,171,36,170.4,36.7z"/>
				</defs>
				<clipPath id="SVGID_18_">
					<use xlink:href="#SVGID_17_"  style="overflow:visible;"/>
				</clipPath>
				<g class="st24">
					<path class="st17" d="M170.4,36.7l-1.4,0c0.2-0.2,0.4-0.5,0.5-0.7l1.4,0C170.8,36.3,170.6,36.5,170.4,36.7"/>
					<path class="st1" d="M170.9,36l-1.4,0c0.3-0.6,0.5-1.5,0.5-2.4l1.4,0C171.4,34.5,171.2,35.4,170.9,36"/>
				</g>
			</g>
			<g class="st0">
				<defs>
					<path id="SVGID_19_" class="st0" d="M167.9,37.7l-1.4,0c1.1,0,1.8-0.4,2.5-1l1.4,0C169.7,37.4,168.9,37.7,167.9,37.7z"/>
				</defs>
				<clipPath id="SVGID_20_">
					<use xlink:href="#SVGID_19_"  style="overflow:visible;"/>
				</clipPath>
				<g class="st25">
					<path class="st17" d="M167.9,37.7l-1.4,0c1,0,1.8-0.4,2.5-1l1.4,0C169.7,37.4,168.9,37.7,167.9,37.7"/>
					<path class="st17" d="M170.3,36.8l-1.4,0c0,0,0,0,0,0L170.3,36.8C170.4,36.7,170.4,36.8,170.3,36.8"/>
				</g>
			</g>
			<g class="st0">
				<defs>
					<path id="SVGID_21_" class="st0" d="M167.6,39.8l-1.4,0c-0.1,0-0.1,0-0.2,0c-1.6-0.1-2.7-0.6-3.6-1.5l1.4,0
						c0.9,0.9,2,1.5,3.6,1.5C167.4,39.8,167.5,39.8,167.6,39.8z"/>
				</defs>
				<clipPath id="SVGID_22_">
					<use xlink:href="#SVGID_21_"  style="overflow:visible;"/>
				</clipPath>
				<g class="st26">
					<path class="st1" d="M167.6,39.8l-1.4,0c-0.1,0-0.1,0-0.2,0c-1.6-0.1-2.7-0.6-3.6-1.5l1.4,0c0.9,0.9,2,1.5,3.6,1.5
						C167.4,39.8,167.5,39.8,167.6,39.8"/>
				</g>
			</g>
			<g>
				<polygon class="st1" points="162.5,34 161.2,34.1 161.4,26.5 162.7,26.5 				"/>
			</g>
			<g class="st0">
				<defs>
					<path id="SVGID_23_" class="st0" d="M163.7,38.3l-1.4,0c-0.9-1-1.3-2.4-1.2-4.2l1.4,0C162.5,35.8,162.9,37.3,163.7,38.3z"/>
				</defs>
				<clipPath id="SVGID_24_">
					<use xlink:href="#SVGID_23_"  style="overflow:visible;"/>
				</clipPath>
				<g class="st27">
					<path class="st1" d="M163.7,38.3l-1.4,0c-0.9-1-1.3-2.4-1.2-4.2l1.4,0C162.5,35.8,162.9,37.3,163.7,38.3"/>
				</g>
			</g>
			<g>
				<path class="st2" d="M173.7,26.8l-0.4,13l-2-0.1l0.1-2c-0.5,0.6-1,1.2-1.7,1.5c-0.7,0.4-1.4,0.5-2.3,0.5
					c-1.6-0.1-2.7-0.6-3.6-1.5c-0.9-1-1.3-2.4-1.2-4.2l0.2-7.6l2.1,0.1l-0.2,7.2c0,1.3,0.2,2.2,0.7,2.9c0.5,0.6,1.2,1,2.3,1.1
					c1.2,0,2-0.3,2.7-1c0.6-0.7,1-1.8,1.1-3.2l0.2-6.8L173.7,26.8z"/>
			</g>
		</g>
		<g class="st0">
			<g>
				<polygon class="st2" points="189.1,32.7 189.1,34.8 177.6,34.4 177.6,32.3 				"/>
			</g>
			<g>
				<polygon class="st1" points="189.1,34.8 187.7,34.8 176.2,34.4 177.6,34.4 				"/>
			</g>
			<g>
				<polygon class="st1" points="177.6,34.4 176.2,34.4 176.3,32.3 177.6,32.3 				"/>
			</g>
		</g>
		<g class="st0">
			<g class="st0">
				<defs>
					<path id="SVGID_25_" class="st0" d="M159,62.1l-1.4,0c0,0,0,0,0,0L159,62.1C159,62.1,159,62.1,159,62.1z"/>
				</defs>
				<clipPath id="SVGID_26_">
					<use xlink:href="#SVGID_25_"  style="overflow:visible;"/>
				</clipPath>
				<g class="st28">
					<path class="st1" d="M159,62.1l-1.4,0c0,0,0,0,0,0L159,62.1C159,62.1,159,62.1,159,62.1"/>
				</g>
			</g>
			<g class="st0">
				<defs>
					<path id="SVGID_27_" class="st0" d="M158.1,60.4l-1.4,0c0.6,0,1.2-0.2,1.5-0.5l1.4,0C159.3,60.2,158.7,60.4,158.1,60.4z"/>
				</defs>
				<clipPath id="SVGID_28_">
					<use xlink:href="#SVGID_27_"  style="overflow:visible;"/>
				</clipPath>
				<g class="st29">
					<path class="st17" d="M158.1,60.4l-1.4,0c0.5,0,1.1-0.2,1.4-0.5l1.4,0C159.2,60.2,158.6,60.4,158.1,60.4"/>
					<path class="st17" d="M159.5,59.9l-1.4,0c0,0,0.1,0,0.1-0.1L159.5,59.9C159.6,59.9,159.5,59.9,159.5,59.9"/>
				</g>
			</g>
			<g>
				<polygon class="st1" points="159.7,51.3 158.4,51.3 155,51.1 156.4,51.1 				"/>
			</g>
			<g>
				<polygon class="st1" points="154.3,49.2 152.9,49.2 153,46.3 154.3,46.3 				"/>
			</g>
			<g>
				<polygon class="st1" points="154,58.2 152.7,58.2 152.9,51.1 154.2,51.1 				"/>
			</g>
			<g class="st0">
				<defs>
					<path id="SVGID_29_" class="st0" d="M158,62.3l-1.4,0c-0.1,0-0.3,0-0.5,0c-1.2,0-2-0.4-2.6-1.1c-0.6-0.7-0.9-1.7-0.9-3l1.4,0
						c0,1.3,0.3,2.3,0.9,3c0.6,0.7,1.5,1.1,2.6,1.1C157.7,62.3,157.9,62.3,158,62.3z"/>
				</defs>
				<clipPath id="SVGID_30_">
					<use xlink:href="#SVGID_29_"  style="overflow:visible;"/>
				</clipPath>
				<g class="st30">
					<path class="st1" d="M158,62.3l-1.4,0c-0.1,0-0.3,0-0.5,0c-1.2,0-2-0.4-2.6-1.1c-0.6-0.7-0.9-1.7-0.9-3l1.4,0
						c0,1.3,0.3,2.3,0.9,3c0.6,0.7,1.5,1.1,2.6,1.1C157.7,62.3,157.9,62.3,158,62.3"/>
				</g>
			</g>
			<g>
				<polygon class="st1" points="154.2,51.1 152.9,51.1 150.9,51 152.3,51 				"/>
			</g>
			<g>
				<polygon class="st1" points="152.3,51 150.9,51 151,49.1 152.3,49.1 				"/>
			</g>
			<g>
				<path class="st2" d="M156.5,46.3l-0.1,2.9l3.4,0.1l-0.1,1.9l-3.4-0.1l-0.2,7c0,0.7,0.1,1.3,0.5,1.6c0.3,0.4,0.8,0.6,1.3,0.6
					c0.6,0,1.3-0.2,1.6-0.5l0.6,1.7c-0.3,0.3-0.7,0.6-1.2,0.6c-0.4,0.2-0.9,0.2-1.4,0.2c-1.2,0-2-0.4-2.6-1.1
					c-0.6-0.7-0.9-1.7-0.9-3l0.2-7.1l-2-0.1l0.1-1.9l2,0.1l0.1-2.9L156.5,46.3z"/>
			</g>
		</g>
		<g class="st0">
			<g>
				<polygon class="st2" points="163.6,62.4 164,49.4 166.1,49.5 165.8,62.5 				"/>
			</g>
			<g>
				<polygon class="st1" points="163.6,62.4 162.3,62.4 162.6,49.4 164,49.4 				"/>
			</g>
			<g>
				<polygon class="st1" points="165.8,62.5 164.4,62.5 162.3,62.4 163.6,62.4 				"/>
			</g>
		</g>
		<g class="st0">
			<g>
				<polygon class="st2" points="166.6,45.5 165,47.1 163.6,45.4 165.1,43.7 				"/>
			</g>
			<g>
				<polygon class="st1" points="165,47.1 163.7,47.2 162.2,45.4 163.6,45.4 				"/>
			</g>
			<g>
				<polygon class="st31" points="163.6,45.4 162.2,45.4 163.7,43.8 165.1,43.7 				"/>
			</g>
		</g>
		<g class="st0">
			<g>
				<polygon class="st2" points="173.2,44.5 172.7,62.7 170.6,62.6 171.1,44.4 				"/>
			</g>
			<g>
				<polygon class="st1" points="172.7,62.7 171.4,62.7 169.2,62.7 170.6,62.6 				"/>
			</g>
			<g>
				<polygon class="st1" points="170.6,62.6 169.2,62.7 169.7,44.5 171.1,44.4 				"/>
			</g>
		</g>
		<g class="st0">
			<g>
				<polygon class="st17" points="186.6,50.4 185.2,50.4 187.3,50.3 188.6,50.3 				"/>
			</g>
			<g>
				<polygon class="st1" points="186.4,57.1 185,57.1 185.2,50.4 186.6,50.4 				"/>
			</g>
			<g>
				<polygon class="st1" points="188.3,63.3 186.9,63.3 185,63.2 186.3,63.2 				"/>
			</g>
			<g>
				<polygon class="st1" points="186.3,63.2 185,63.2 185,61.2 186.4,61.2 				"/>
			</g>
			<g class="st0">
				<defs>
					<path id="SVGID_31_" class="st0" d="M185.3,60.3l-1.4,0c0.6-0.7,1-1.8,1.1-3.2l1.4,0C186.4,58.5,186,59.6,185.3,60.3z"/>
				</defs>
				<clipPath id="SVGID_32_">
					<use xlink:href="#SVGID_31_"  style="overflow:visible;"/>
				</clipPath>
				<g class="st32">
					<path class="st17" d="M185.3,60.3l-1.4,0c0.2-0.2,0.4-0.5,0.5-0.7l1.4,0C185.7,59.8,185.5,60,185.3,60.3"/>
					<path class="st1" d="M185.9,59.5l-1.4,0c0.3-0.6,0.5-1.5,0.5-2.4l1.4,0C186.4,58.1,186.2,58.9,185.9,59.5"/>
				</g>
			</g>
			<g class="st0">
				<defs>
					<path id="SVGID_33_" class="st0" d="M182.8,61.3l-1.4,0c1.1,0,1.8-0.4,2.5-1l1.4,0C184.7,60.9,183.9,61.3,182.8,61.3z"/>
				</defs>
				<clipPath id="SVGID_34_">
					<use xlink:href="#SVGID_33_"  style="overflow:visible;"/>
				</clipPath>
				<g class="st33">
					<path class="st17" d="M182.8,61.3l-1.4,0c1,0,1.8-0.4,2.5-1l1.4,0C184.6,60.9,183.9,61.3,182.8,61.3"/>
					<path class="st17" d="M185.3,60.3l-1.4,0c0,0,0,0,0.1,0L185.3,60.3C185.3,60.3,185.3,60.3,185.3,60.3"/>
				</g>
			</g>
			<g class="st0">
				<defs>
					<path id="SVGID_35_" class="st0" d="M182.5,63.3l-1.4,0c-0.1,0-0.1,0-0.2,0c-1.6-0.1-2.8-0.6-3.6-1.5l1.4,0
						c0.9,0.9,2,1.5,3.6,1.5C182.4,63.3,182.5,63.3,182.5,63.3z"/>
				</defs>
				<clipPath id="SVGID_36_">
					<use xlink:href="#SVGID_35_"  style="overflow:visible;"/>
				</clipPath>
				<g class="st34">
					<path class="st1" d="M182.5,63.3l-1.4,0c-0.1,0-0.1,0-0.2,0c-1.6-0.1-2.8-0.6-3.6-1.5l1.4,0c0.9,0.9,2,1.5,3.6,1.5
						C182.4,63.3,182.5,63.3,182.5,63.3"/>
				</g>
			</g>
			<g>
				<polygon class="st1" points="177.5,57.5 176.1,57.5 176.3,50 177.7,50 				"/>
			</g>
			<g>
				<path class="st2" d="M188.6,50.3l-0.4,13l-2-0.1l0.1-2c-0.5,0.6-1,1.2-1.7,1.5c-0.7,0.4-1.4,0.6-2.3,0.5
					c-1.6-0.1-2.8-0.6-3.6-1.5c-0.9-1-1.3-2.4-1.2-4.2l0.2-7.5l2.1,0.1l-0.2,7.2c0,1.3,0.2,2.2,0.7,2.9c0.5,0.6,1.2,1.1,2.3,1.1
					c1.2,0,2-0.3,2.7-1c0.6-0.7,1-1.8,1.1-3.2l0.2-6.7L188.6,50.3z"/>
			</g>
			<g class="st0">
				<defs>
					<path id="SVGID_37_" class="st0" d="M178.7,61.7l-1.4,0c-0.9-1-1.3-2.4-1.2-4.2l1.4,0C177.4,59.3,177.8,60.7,178.7,61.7z"/>
				</defs>
				<clipPath id="SVGID_38_">
					<use xlink:href="#SVGID_37_"  style="overflow:visible;"/>
				</clipPath>
				<g class="st35">
					<path class="st1" d="M178.7,61.7l-1.4,0c-0.9-1-1.3-2.4-1.2-4.2l1.4,0C177.4,59.3,177.8,60.7,178.7,61.7"/>
				</g>
			</g>
		</g>
		<g class="st0">
			<g class="st0">
				<defs>
					<path id="SVGID_39_" class="st0" d="M195.6,52.5l1.4,0c0.1,0,0.1,0,0.2,0c1.3,0,2.5,0.4,3.4,1.1l-1.4,0c-0.9-0.7-2-1.1-3.4-1.1
						C195.8,52.5,195.7,52.5,195.6,52.5z"/>
				</defs>
				<clipPath id="SVGID_40_">
					<use xlink:href="#SVGID_39_"  style="overflow:visible;"/>
				</clipPath>
				<g class="st36">
					<path class="st1" d="M200.6,53.6l-1.4,0c-0.9-0.7-2-1.1-3.4-1.1c-0.1,0-0.2,0-0.2,0l1.4,0c0.1,0,0.1,0,0.2,0
						C198.6,52.5,199.7,52.9,200.6,53.6"/>
				</g>
			</g>
			<g class="st0">
				<defs>
					<path id="SVGID_41_" class="st0" d="M197,61.9l-1.4,0c1.7,0,2.5-0.6,2.5-1.7c0-0.4-0.2-0.7-0.3-1l1.4,0c0.2,0.3,0.3,0.6,0.3,1
						C199.5,61.3,198.7,61.9,197,61.9z"/>
				</defs>
				<clipPath id="SVGID_42_">
					<use xlink:href="#SVGID_41_"  style="overflow:visible;"/>
				</clipPath>
				<g class="st37">
					<path class="st17" d="M197,61.9l-1.4,0c0.9,0,1.6-0.2,2-0.6l1.4,0C198.6,61.7,198,61.9,197,61.9"/>
					<path class="st17" d="M199,61.3l-1.4,0c0.1-0.1,0.2-0.2,0.3-0.4l1.4,0C199.3,61.1,199.2,61.2,199,61.3"/>
					<path class="st1" d="M199.3,60.9l-1.4,0c0.1-0.2,0.2-0.5,0.2-0.8c0-0.4-0.2-0.7-0.3-1l1.4,0c0.2,0.3,0.3,0.6,0.3,1
						C199.5,60.4,199.5,60.7,199.3,60.9"/>
				</g>
			</g>
			<g class="st0">
				<defs>
					<path id="SVGID_43_" class="st0" d="M199.2,59.1l-1.4,0c-0.2-0.2-0.5-0.4-0.9-0.5c-0.3-0.1-0.9-0.2-1.6-0.4l1.4,0
						c0.7,0.1,1.2,0.2,1.6,0.4C198.7,58.7,199,58.9,199.2,59.1z"/>
				</defs>
				<clipPath id="SVGID_44_">
					<use xlink:href="#SVGID_43_"  style="overflow:visible;"/>
				</clipPath>
				<g class="st38">
					<path class="st1" d="M199.2,59.1l-1.4,0c-0.2-0.2-0.5-0.4-0.9-0.5c-0.3-0.1-0.9-0.2-1.6-0.4l1.4,0c0.7,0.1,1.2,0.2,1.6,0.4
						C198.7,58.7,199,58.9,199.2,59.1"/>
				</g>
			</g>
			<g class="st0">
				<defs>
					<path id="SVGID_45_" class="st0" d="M196.7,58.3l-1.4,0c-0.9-0.2-1.7-0.4-2.3-0.7l1.4,0C195,57.9,195.8,58,196.7,58.3z"/>
				</defs>
				<clipPath id="SVGID_46_">
					<use xlink:href="#SVGID_45_"  style="overflow:visible;"/>
				</clipPath>
				<g class="st39">
					<path class="st1" d="M196.7,58.3l-1.4,0c-0.9-0.2-1.7-0.4-2.3-0.7l1.4,0C195,57.9,195.8,58,196.7,58.3"/>
				</g>
			</g>
			<g class="st0">
				<defs>
					<path id="SVGID_47_" class="st0" d="M195.5,50.5l1.4,0c-1.3,0-2.4,0.3-3.2,0.9l-1.4,0C193.2,50.7,194.2,50.5,195.5,50.5z"/>
				</defs>
				<clipPath id="SVGID_48_">
					<use xlink:href="#SVGID_47_"  style="overflow:visible;"/>
				</clipPath>
				<g class="st40">
					<path class="st17" d="M193.7,51.3l-1.4,0c0.8-0.6,1.9-0.9,3.2-0.9l1.4,0C195.6,50.5,194.5,50.7,193.7,51.3"/>
				</g>
			</g>
			<g class="st0">
				<defs>
					<path id="SVGID_49_" class="st0" d="M197,63.8l-1.4,0c-0.1,0-0.3,0-0.4,0c-1.1,0-2-0.3-2.8-0.5l1.4,0c0.9,0.2,1.8,0.5,2.8,0.5
						C196.7,63.8,196.9,63.8,197,63.8z"/>
				</defs>
				<clipPath id="SVGID_50_">
					<use xlink:href="#SVGID_49_"  style="overflow:visible;"/>
				</clipPath>
				<g class="st41">
					<path class="st1" d="M197,63.8l-1.4,0c-0.1,0-0.3,0-0.4,0c-1.1,0-2-0.3-2.8-0.5l1.4,0c0.9,0.2,1.8,0.5,2.8,0.5
						C196.7,63.8,196.9,63.8,197,63.8"/>
				</g>
			</g>
			<g class="st0">
				<defs>
					<path id="SVGID_51_" class="st0" d="M194.4,57.6l-1.4,0c-0.5-0.2-1-0.6-1.5-1.2c-0.4-0.5-0.6-1.2-0.6-2.2
						c0-1.2,0.5-2.2,1.3-2.9l1.4,0c-0.8,0.7-1.3,1.7-1.3,2.9c0,1,0.1,1.7,0.6,2.2C193.4,56.9,193.9,57.4,194.4,57.6z"/>
				</defs>
				<clipPath id="SVGID_52_">
					<use xlink:href="#SVGID_51_"  style="overflow:visible;"/>
				</clipPath>
				<g class="st42">
					<path class="st1" d="M194.4,57.6l-1.4,0c-0.5-0.2-1-0.6-1.5-1.2c-0.4-0.5-0.6-1.2-0.6-2.2c0-0.7,0.2-1.2,0.4-1.8l1.4,0
						c-0.3,0.5-0.4,1.1-0.4,1.8c0,1,0.1,1.7,0.6,2.2C193.4,56.9,193.9,57.4,194.4,57.6"/>
					<path class="st17" d="M192.8,52.4l-1.4,0c0.2-0.4,0.5-0.7,0.8-1l1.4,0C193.3,51.7,193,52.1,192.8,52.4"/>
					<path class="st17" d="M193.6,51.5l-1.4,0c0,0,0.1-0.1,0.1-0.1l1.4,0C193.7,51.4,193.6,51.4,193.6,51.5"/>
				</g>
			</g>
			<g>
				<polygon class="st17" points="191.7,62.1 190.3,62.1 191.3,60.3 192.6,60.3 				"/>
			</g>
			<g class="st0">
				<defs>
					<path id="SVGID_53_" class="st0" d="M193.7,63.2l-1.4,0c-0.9-0.3-1.6-0.6-2-1.2l1.4,0C192.1,62.6,192.9,62.9,193.7,63.2z"/>
				</defs>
				<clipPath id="SVGID_54_">
					<use xlink:href="#SVGID_53_"  style="overflow:visible;"/>
				</clipPath>
				<g class="st43">
					<path class="st1" d="M193.7,63.2l-1.4,0c-0.9-0.3-1.6-0.6-2-1.2l1.4,0C192.1,62.6,192.9,62.9,193.7,63.2"/>
				</g>
			</g>
			<g>
				<path class="st2" d="M197.3,50.5c0.8,0,1.6,0.2,2.3,0.4c0.8,0.2,1.4,0.6,1.9,1l-0.9,1.8c-0.9-0.7-2-1.1-3.4-1.1
					c-0.9,0-1.6,0.1-2.1,0.4c-0.4,0.3-0.7,0.8-0.7,1.3c0,0.4,0.2,0.8,0.4,1c0.3,0.2,0.5,0.4,1,0.6c0.4,0.1,0.9,0.2,1.6,0.5
					c0.9,0.2,1.7,0.5,2.3,0.7c0.5,0.2,1,0.6,1.5,1.1c0.4,0.5,0.6,1.2,0.6,2.1c0,1.2-0.5,2.2-1.4,2.8c-0.9,0.7-2.2,0.9-3.8,0.9
					c-1.1,0-2-0.3-2.8-0.5c-0.9-0.3-1.6-0.6-2-1.2l0.9-1.8c0.5,0.4,1.1,0.7,1.8,1.1c0.7,0.2,1.5,0.5,2.2,0.5
					c1.9,0.1,2.8-0.5,2.8-1.7c0-0.4-0.2-0.7-0.3-1c-0.2-0.2-0.5-0.4-0.9-0.5c-0.3-0.1-0.9-0.2-1.6-0.4c-0.9-0.2-1.7-0.4-2.3-0.7
					c-0.5-0.2-1-0.6-1.5-1.2c-0.4-0.5-0.6-1.2-0.6-2.2c0-1.2,0.5-2.2,1.3-2.9C194.6,50.7,195.8,50.4,197.3,50.5z"/>
			</g>
		</g>
		<g class="st0">
			<g>
				<polygon class="st1" points="148.7,82 147.3,82 147.4,76.2 148.7,76.2 				"/>
			</g>
			<g class="st0">
				<defs>
					<path id="SVGID_55_" class="st0" d="M145.3,83l-1.4,0c1.2,0,2.4-0.4,3.3-1l1.4,0C147.7,82.6,146.6,83,145.3,83z"/>
				</defs>
				<clipPath id="SVGID_56_">
					<use xlink:href="#SVGID_55_"  style="overflow:visible;"/>
				</clipPath>
				<g class="st44">
					<path class="st17" d="M145.3,83l-1.4,0c1.2,0,2.4-0.4,3.3-1l1.4,0C147.7,82.6,146.6,83,145.3,83"/>
				</g>
			</g>
			<g class="st0">
				<defs>
					<path id="SVGID_57_" class="st0" d="M143.8,69.6l1.4,0c0.1,0,0.2,0,0.3,0c1.8,0.1,3.2,0.7,4.4,2.2l-1.4,0
						c-1.2-1.4-2.6-2.1-4.4-2.2C144,69.6,143.9,69.6,143.8,69.6z"/>
				</defs>
				<clipPath id="SVGID_58_">
					<use xlink:href="#SVGID_57_"  style="overflow:visible;"/>
				</clipPath>
				<g class="st45">
					<path class="st1" d="M149.8,71.7l-1.4,0c-1.2-1.4-2.6-2.1-4.4-2.2c-0.1,0-0.2,0-0.3,0l1.4,0c0.1,0,0.2,0,0.3,0
						C147.2,69.6,148.6,70.3,149.8,71.7"/>
				</g>
			</g>
			<g class="st0">
				<defs>
					<path id="SVGID_59_" class="st0" d="M145.2,85l-1.4,0c-0.1,0-0.2,0-0.3,0c-1.6-0.1-2.9-0.5-4.2-1.2l1.4,0
						c1.2,0.7,2.6,1.2,4.2,1.2C145,85,145.1,85,145.2,85z"/>
				</defs>
				<clipPath id="SVGID_60_">
					<use xlink:href="#SVGID_59_"  style="overflow:visible;"/>
				</clipPath>
				<g class="st46">
					<path class="st1" d="M145.2,85l-1.4,0c-0.1,0-0.2,0-0.3,0c-1.6-0.1-2.9-0.5-4.2-1.2l1.4,0c1.2,0.7,2.6,1.2,4.2,1.2
						C145,85,145.1,85,145.2,85"/>
				</g>
			</g>
			<g class="st0">
				<defs>
					<path id="SVGID_61_" class="st0" d="M140.7,83.7l-1.4,0c-1.2-0.8-2.2-1.9-2.8-3.2l1.4,0C138.5,81.8,139.5,82.9,140.7,83.7z"/>
				</defs>
				<clipPath id="SVGID_62_">
					<use xlink:href="#SVGID_61_"  style="overflow:visible;"/>
				</clipPath>
				<g class="st47">
					<path class="st1" d="M140.7,83.7l-1.4,0c-1.2-0.8-2.2-1.9-2.8-3.2l1.4,0C138.5,81.8,139.5,82.9,140.7,83.7"/>
				</g>
			</g>
			<g>
				<path class="st2" d="M145.3,67.5c1.2,0,2.3,0.3,3.4,0.7c1,0.5,1.8,1.2,2.5,2.1l-1.4,1.4c-1.2-1.4-2.6-2.1-4.4-2.2
					c-1.2,0-2.2,0.2-3.1,0.8c-0.9,0.6-1.6,1.3-2.3,2.3c-0.6,1-0.9,2.2-0.9,3.4c0,1.3,0.2,2.4,0.7,3.4c0.5,1,1.2,1.8,2.2,2.5
					c0.9,0.6,1.9,1,3.1,1c1.3,0,2.6-0.3,3.6-1l0.1-5.8l2.1,0.1l-0.2,6.7c-0.8,0.7-1.6,1.2-2.7,1.5c-1,0.4-2.1,0.5-3.1,0.5
					c-1.6-0.1-2.9-0.5-4.2-1.2c-1.2-0.8-2.2-1.9-2.8-3.2c-0.7-1.4-1-2.9-1-4.5c0-1.7,0.4-3.2,1.2-4.6c0.8-1.4,1.8-2.3,3-3
					C142.4,67.8,143.8,67.4,145.3,67.5z"/>
			</g>
			<g class="st0">
				<defs>
					<path id="SVGID_63_" class="st0" d="M143.6,67.5l1.4,0c-1.4,0-2.7,0.3-3.9,1c-1.3,0.7-2.3,1.6-3,3c-0.8,1.4-1.2,2.9-1.2,4.6
						c0,1.6,0.3,3.1,1,4.5l-1.4,0c-0.7-1.4-1-2.9-1-4.5c0-1.7,0.4-3.2,1.2-4.6c0.8-1.4,1.8-2.3,3-3
						C140.9,67.8,142.2,67.5,143.6,67.5z"/>
				</defs>
				<clipPath id="SVGID_64_">
					<use xlink:href="#SVGID_63_"  style="overflow:visible;"/>
				</clipPath>
				<g class="st48">
					<path class="st1" d="M137.8,80.5l-1.4,0c-0.7-1.4-1-2.9-1-4.5c0-1.6,0.4-3,1.1-4.3l1.4,0c-0.7,1.3-1,2.7-1.1,4.3
						C136.8,77.6,137.2,79.1,137.8,80.5"/>
					<path class="st17" d="M138,71.6l-1.4,0c0-0.1,0.1-0.1,0.1-0.2c0.4-0.8,0.9-1.4,1.5-2l1.4,0c-0.6,0.5-1.1,1.2-1.5,2
						C138,71.5,138,71.6,138,71.6"/>
					<path class="st17" d="M139.6,69.4l-1.4,0c0.4-0.4,0.9-0.7,1.5-1c1.2-0.6,2.5-1,3.9-1l1.4,0c-1.4,0-2.7,0.3-3.9,1
						C140.6,68.7,140.1,69,139.6,69.4"/>
				</g>
			</g>
		</g>
		<g class="st0">
			<g class="st0">
				<defs>
					<path id="SVGID_65_" class="st0" d="M160.7,83.4l-1.4,0c1.3,0,2.4-0.6,3.3-1.5l1.4,0C163.1,82.8,162,83.4,160.7,83.4z"/>
				</defs>
				<clipPath id="SVGID_66_">
					<use xlink:href="#SVGID_65_"  style="overflow:visible;"/>
				</clipPath>
				<g class="st49">
					<path class="st17" d="M160.7,83.4l-1.4,0c1.1,0,2.1-0.4,2.9-1.2l1.4,0C162.9,83,161.9,83.4,160.7,83.4"/>
					<path class="st17" d="M163.7,82.2l-1.4,0c0.1-0.1,0.2-0.2,0.3-0.3l1.4,0C163.9,82,163.8,82.1,163.7,82.2"/>
				</g>
			</g>
			<g class="st0">
				<defs>
					<path id="SVGID_67_" class="st0" d="M158.7,74.2l1.4,0c0,0,0.1,0,0.1,0c1.1,0,1.9,0.4,2.6,1.1c0.7,0.7,1,1.6,1.2,2.7l-1.4,0
						c-0.1-1.1-0.5-2-1.2-2.7c-0.7-0.7-1.5-1.1-2.6-1.1C158.8,74.2,158.7,74.2,158.7,74.2z"/>
				</defs>
				<clipPath id="SVGID_68_">
					<use xlink:href="#SVGID_67_"  style="overflow:visible;"/>
				</clipPath>
				<g class="st50">
					<path class="st1" d="M163.9,78l-1.4,0c-0.1-1.1-0.5-2-1.2-2.7c-0.7-0.7-1.5-1.1-2.6-1.1c0,0-0.1,0-0.1,0l1.4,0c0,0,0.1,0,0.1,0
						c1.1,0,1.9,0.4,2.6,1.1C163.4,76,163.8,76.9,163.9,78"/>
				</g>
			</g>
			<g class="st0">
				<defs>
					<path id="SVGID_69_" class="st0" d="M158.7,72.1l1.4,0c-1.1,0-2,0.3-2.8,0.8l-1.4,0C156.8,72.4,157.7,72.1,158.7,72.1z"/>
				</defs>
				<clipPath id="SVGID_70_">
					<use xlink:href="#SVGID_69_"  style="overflow:visible;"/>
				</clipPath>
				<g class="st51">
					<path class="st17" d="M157.3,72.9l-1.4,0c0.8-0.5,1.8-0.8,2.8-0.8l1.4,0C159,72.1,158.1,72.4,157.3,72.9"/>
				</g>
			</g>
			<g class="st0">
				<defs>
					<path id="SVGID_71_" class="st0" d="M160.7,85.5l-1.4,0c-0.1,0-0.2,0-0.3,0c-1.3,0-2.3-0.4-3.3-1l1.4,0c1,0.6,2,1,3.3,1
						C160.5,85.5,160.6,85.5,160.7,85.5z"/>
				</defs>
				<clipPath id="SVGID_72_">
					<use xlink:href="#SVGID_71_"  style="overflow:visible;"/>
				</clipPath>
				<g class="st52">
					<path class="st1" d="M160.7,85.5l-1.4,0c-0.1,0-0.2,0-0.3,0c-1.3,0-2.3-0.4-3.3-1l1.4,0c1,0.6,2,1,3.3,1
						C160.5,85.5,160.6,85.5,160.7,85.5"/>
				</g>
			</g>
			<g>
				<polygon class="st1" points="165.9,79.8 164.6,79.8 155.1,79.5 156.5,79.5 				"/>
			</g>
			<g class="st0">
				<defs>
					<path id="SVGID_73_" class="st0" d="M157.2,84.5l-1.4,0c-0.9-0.6-1.7-1.5-2.2-2.5c-0.5-1-0.7-2.2-0.7-3.4
						c0-1.3,0.3-2.4,0.9-3.4c0.6-1,1.3-1.8,2.1-2.3l1.4,0c-0.8,0.6-1.6,1.4-2.1,2.3c-0.6,1-0.9,2.1-0.9,3.4c0,1.2,0.2,2.4,0.7,3.4
						C155.5,83,156.3,83.9,157.2,84.5z"/>
				</defs>
				<clipPath id="SVGID_74_">
					<use xlink:href="#SVGID_73_"  style="overflow:visible;"/>
				</clipPath>
				<g class="st53">
					<path class="st1" d="M157.2,84.5l-1.4,0c-0.9-0.6-1.7-1.5-2.2-2.5c-0.5-1-0.7-2.2-0.7-3.4c0-1.2,0.3-2.2,0.7-3.1l1.4,0
						c-0.5,0.9-0.7,1.9-0.7,3.1c0,1.2,0.2,2.4,0.7,3.4C155.5,83,156.3,83.9,157.2,84.5"/>
					<path class="st17" d="M155,75.5l-1.4,0c0-0.1,0.1-0.2,0.1-0.3c0.4-0.7,0.9-1.3,1.4-1.8l1.4,0c-0.5,0.5-1,1.1-1.4,1.8
						C155.1,75.3,155.1,75.4,155,75.5"/>
					<path class="st17" d="M156.6,73.4l-1.4,0c0.2-0.2,0.4-0.4,0.7-0.5l1.4,0C157.1,73,156.8,73.2,156.6,73.4"/>
				</g>
			</g>
			<g>
				<path class="st2" d="M165.9,79.1c0.1,0.1,0,0.4,0,0.7l-9.4-0.3c0.1,1.1,0.5,2.1,1.3,2.8c0.8,0.7,1.7,1.1,2.8,1.1
					c1.3,0,2.5-0.5,3.4-1.5l1.1,1.5c-0.6,0.7-1.3,1.2-2,1.5c-0.8,0.4-1.6,0.5-2.7,0.5c-1.3,0-2.3-0.4-3.3-1
					c-0.9-0.6-1.7-1.5-2.2-2.5c-0.5-1-0.7-2.2-0.7-3.4c0-1.3,0.3-2.4,0.9-3.4c0.6-1,1.3-1.8,2.1-2.3c0.9-0.6,1.9-0.8,3-0.8
					c1.2,0,2,0.4,3,1c0.9,0.6,1.6,1.5,2,2.5C165.8,76.6,166,77.8,165.9,79.1z M156.4,77.8l7.5,0.3c-0.1-1.1-0.5-2-1.2-2.7
					c-0.7-0.7-1.5-1.1-2.6-1.1c-0.8,0-1.7,0.2-2.4,0.9C157,75.8,156.6,76.7,156.4,77.8"/>
			</g>
		</g>
		<g class="st0">
			<g>
				<polygon class="st1" points="180.5,86 179.2,86 177,85.9 178.4,85.9 				"/>
			</g>
			<g>
				<polygon class="st1" points="178.4,85.9 177,85.9 177.2,78.7 178.6,78.7 				"/>
			</g>
			<g class="st0">
				<defs>
					<path id="SVGID_75_" class="st0" d="M178.6,78.7l-1.4,0c0-1.3-0.2-2.2-0.7-2.9l1.4,0C178.4,76.5,178.6,77.4,178.6,78.7z"/>
				</defs>
				<clipPath id="SVGID_76_">
					<use xlink:href="#SVGID_75_"  style="overflow:visible;"/>
				</clipPath>
				<g class="st54">
					<path class="st1" d="M178.6,78.7l-1.4,0c0-1.3-0.2-2.2-0.7-2.9l1.4,0C178.4,76.5,178.6,77.4,178.6,78.7"/>
				</g>
			</g>
			<g class="st0">
				<defs>
					<path id="SVGID_77_" class="st0" d="M174,74.7l1.4,0c0.1,0,0.1,0,0.2,0c1.1,0,1.8,0.5,2.3,1.1l-1.4,0c-0.5-0.6-1.2-1-2.3-1.1
						C174.2,74.7,174.1,74.7,174,74.7z"/>
				</defs>
				<clipPath id="SVGID_78_">
					<use xlink:href="#SVGID_77_"  style="overflow:visible;"/>
				</clipPath>
				<g class="st55">
					<path class="st1" d="M177.9,75.8l-1.4,0c-0.5-0.6-1.2-1-2.3-1.1c-0.1,0-0.1,0-0.2,0l1.4,0c0.1,0,0.1,0,0.2,0
						C176.7,74.8,177.4,75.2,177.9,75.8"/>
				</g>
			</g>
			<g class="st0">
				<defs>
					<path id="SVGID_79_" class="st0" d="M174.4,72.6l1.4,0c-0.8,0-1.6,0.2-2.3,0.5l-1.4,0C172.8,72.8,173.6,72.6,174.4,72.6z"/>
				</defs>
				<clipPath id="SVGID_80_">
					<use xlink:href="#SVGID_79_"  style="overflow:visible;"/>
				</clipPath>
				<g class="st56">
					<path class="st17" d="M173.5,73.1l-1.4,0c0.7-0.3,1.5-0.5,2.3-0.5l1.4,0C175,72.6,174.2,72.8,173.5,73.1"/>
				</g>
			</g>
			<g class="st0">
				<defs>
					<path id="SVGID_81_" class="st0" d="M171.8,74.6l-1.4,0c0.5-0.6,1-1.2,1.7-1.4l1.4,0C172.8,73.4,172.2,74,171.8,74.6z"/>
				</defs>
				<clipPath id="SVGID_82_">
					<use xlink:href="#SVGID_81_"  style="overflow:visible;"/>
				</clipPath>
				<g class="st57">
					<path class="st17" d="M171.8,74.6l-1.4,0c0.2-0.3,0.5-0.6,0.7-0.8l1.4,0C172.2,74,172,74.3,171.8,74.6"/>
					<path class="st17" d="M172.5,73.8l-1.4,0c0.3-0.3,0.6-0.5,1-0.6l1.4,0C173.1,73.3,172.8,73.5,172.5,73.8"/>
				</g>
			</g>
			<g>
				<polygon class="st1" points="171.6,85.6 170.3,85.6 168.1,85.5 169.5,85.5 				"/>
			</g>
			<g>
				<polygon class="st1" points="169.5,85.5 168.1,85.5 168.5,72.5 169.9,72.5 				"/>
			</g>
			<g>
				<path class="st2" d="M176,72.6c1.5,0.2,2.7,0.6,3.6,1.6c0.9,1,1.2,2.4,1.1,4.2l-0.2,7.5l-2.1-0.1l0.2-7.2c0-1.3-0.2-2.2-0.7-2.9
					c-0.5-0.6-1.2-1-2.3-1.1c-1.2,0-2.1,0.3-2.7,1s-1,1.8-1.1,3.2l-0.2,6.7l-2.1-0.1l0.4-13l2,0.1l-0.1,2c0.5-0.6,1-1.2,1.7-1.4
					C174.2,72.8,175.1,72.6,176,72.6z"/>
			</g>
		</g>
		<g class="st0">
			<g class="st0">
				<defs>
					<path id="SVGID_83_" class="st0" d="M190.7,86.2l-1.4,0c0,0,0,0,0,0L190.7,86.2C190.6,86.2,190.6,86.2,190.7,86.2z"/>
				</defs>
				<clipPath id="SVGID_84_">
					<use xlink:href="#SVGID_83_"  style="overflow:visible;"/>
				</clipPath>
				<g class="st58">
					<path class="st1" d="M190.7,86.2l-1.4,0c0,0,0,0,0,0L190.7,86.2C190.6,86.2,190.6,86.2,190.7,86.2"/>
				</g>
			</g>
			<g class="st0">
				<defs>
					<path id="SVGID_85_" class="st0" d="M189.7,84.4l-1.4,0c0.6,0,1.2-0.2,1.5-0.5l1.4,0C190.9,84.2,190.3,84.4,189.7,84.4z"/>
				</defs>
				<clipPath id="SVGID_86_">
					<use xlink:href="#SVGID_85_"  style="overflow:visible;"/>
				</clipPath>
				<g class="st59">
					<path class="st17" d="M189.7,84.4l-1.4,0c0.5,0,1.1-0.2,1.4-0.5l1.4,0C190.8,84.3,190.2,84.4,189.7,84.4"/>
					<path class="st17" d="M191.1,84l-1.4,0c0,0,0.1-0.1,0.1-0.1L191.1,84C191.2,83.9,191.2,83.9,191.1,84"/>
				</g>
			</g>
			<g>
				<polygon class="st1" points="191.4,75.3 190,75.3 186.6,75.2 188,75.2 				"/>
			</g>
			<g>
				<polygon class="st1" points="185.9,73.2 184.5,73.2 184.6,70.3 186,70.3 				"/>
			</g>
			<g>
				<polygon class="st1" points="185.6,82.2 184.3,82.2 184.5,75.1 185.8,75.1 				"/>
			</g>
			<g class="st0">
				<defs>
					<path id="SVGID_87_" class="st0" d="M189.7,86.3l-1.4,0c-0.2,0-0.3,0-0.5,0c-1.2,0-2-0.4-2.6-1.1c-0.6-0.7-0.9-1.7-0.9-3l1.4,0
						c0,1.3,0.3,2.3,0.9,3c0.6,0.7,1.5,1.1,2.6,1.1C189.4,86.3,189.5,86.3,189.7,86.3z"/>
				</defs>
				<clipPath id="SVGID_88_">
					<use xlink:href="#SVGID_87_"  style="overflow:visible;"/>
				</clipPath>
				<g class="st60">
					<path class="st1" d="M189.7,86.3l-1.4,0c-0.2,0-0.3,0-0.5,0c-1.2,0-2-0.4-2.6-1.1c-0.6-0.7-0.9-1.7-0.9-3l1.4,0
						c0,1.3,0.3,2.3,0.9,3c0.6,0.7,1.5,1.1,2.6,1.1C189.4,86.3,189.5,86.3,189.7,86.3"/>
				</g>
			</g>
			<g>
				<polygon class="st1" points="185.8,75.1 184.5,75.1 182.5,75 183.9,75 				"/>
			</g>
			<g>
				<polygon class="st1" points="183.9,75 182.5,75 182.6,73.1 183.9,73.1 				"/>
			</g>
			<g>
				<path class="st2" d="M188.1,70.4l-0.1,2.9l3.4,0.1l-0.1,1.9l-3.4-0.1l-0.2,7c0,0.7,0.1,1.3,0.5,1.6c0.3,0.4,0.8,0.6,1.3,0.6
					c0.6,0,1.3-0.2,1.6-0.5l0.6,1.7c-0.3,0.3-0.7,0.6-1.2,0.6c-0.5,0.2-0.9,0.2-1.4,0.1c-1.2,0-2-0.4-2.6-1.1
					c-0.6-0.7-0.9-1.7-0.9-3l0.2-7.1l-2-0.1l0.1-1.9l2,0.1l0.1-2.9L188.1,70.4z"/>
			</g>
		</g>
	</g>
</g>
</svg>
