<?xml version="1.0" encoding="utf-8"?>
<!-- Generator: Adobe Illustrator 22.1.0, SVG Export Plug-In . SVG Version: 6.00 Build 0)  -->
<svg version="1.1" id="Layer_1" xmlns="http://www.w3.org/2000/svg" xmlns:xlink="http://www.w3.org/1999/xlink" x="0px" y="0px"
	 viewBox="0 0 336 450" style="enable-background:new 0 0 336 450;" xml:space="preserve">
<style type="text/css">
	.st0{fill:#6DC191;}
	.st1{clip-path:url(#SVGID_2_);fill:#368559;}
	.st2{clip-path:url(#SVGID_4_);fill:#1B432D;}
	.st3{clip-path:url(#SVGID_6_);fill:#368559;}
	.st4{clip-path:url(#SVGID_8_);fill:#FBDE1D;}
	.st5{clip-path:url(#SVGID_10_);fill:#FBDE1D;}
	.st6{clip-path:url(#SVGID_12_);fill:#FBDE1D;}
	.st7{clip-path:url(#SVGID_14_);}
	.st8{fill:#FBDE1D;}
	.st9{fill:#F8B133;}
	.st10{opacity:0.45;fill:#F8B133;enable-background:new    ;}
	.st11{clip-path:url(#SVGID_16_);}
	.st12{fill:none;stroke:#1D1D1B;stroke-width:1.2545;stroke-linecap:round;stroke-linejoin:round;stroke-miterlimit:10;}
	.st13{fill:#48B276;}
	.st14{fill:#F4AFAA;}
	.st15{fill:#EA5B5D;}
	.st16{fill:#5B5BA5;}
	.st17{fill:#1D1D1B;}
	.st18{fill:#691B33;}
	.st19{fill:none;stroke:#1D1D1B;stroke-width:1.2545;stroke-linecap:round;stroke-miterlimit:10;}
	.st20{fill:none;stroke:#FFFFFF;stroke-width:1.8817;stroke-linecap:round;stroke-miterlimit:10;}
</style>
<g>
	<path class="st0" d="M255.4,164.1c0,6.4,11.5,21.5,26.7,12.7c15.1-8.8,24.1,0.9,28.8-16.3c4.4-16.7-12.1-10.4-10.9-20.7
		c1.2-10.2-8.7-28.3-21.2-19.2c-8.8,6.3-22.3-2.4-19.2,11.3c3,13.7-10.7,5.5-13.3,12.3C243.2,151.4,255.4,157.8,255.4,164.1z"/>
	<g>
		<g>
			<defs>
				<polygon id="SVGID_1_" points="131.5,0 24.4,107.1 24.4,450 302.9,171.4 				"/>
			</defs>
			<clipPath id="SVGID_2_">
				<use xlink:href="#SVGID_1_"  style="overflow:visible;"/>
			</clipPath>
			<rect x="30.4" y="-48.5" class="st1" width="231.1" height="147"/>
		</g>
		<g>
			<defs>
				<polygon id="SVGID_3_" points="131.5,0 24.4,107.1 24.4,450 302.9,171.4 				"/>
			</defs>
			<clipPath id="SVGID_4_">
				<use xlink:href="#SVGID_3_"  style="overflow:visible;"/>
			</clipPath>
			<rect x="-33.5" y="92.9" class="st2" width="344.9" height="371.8"/>
		</g>
		<g>
			<defs>
				<polygon id="SVGID_5_" points="131.5,0 24.4,107.1 24.4,450 302.9,171.4 				"/>
			</defs>
			<clipPath id="SVGID_6_">
				<use xlink:href="#SVGID_5_"  style="overflow:visible;"/>
			</clipPath>
			<path class="st3" d="M157.8,119.4c-20.1,3-44.4-17.6-80.8-6.5S36,232.2,77.2,273.4s45,57.5,45,57.5h-182V53.1
				c0,0,5.1-26.4,37-26.4S1.6,49.2,22.4,49.2s20.7-17.6,46.4-17.6s37.9,36.4,97,36.4s42.2-22.6,75.1-22.6s20,26.9,54.1,26.9
				s56.7-18.5,63.8,12.5c6,25.8-21,27.9-38.6,27.9s-28.2,15.5-45.2,15.5s-35.8-29.9-63.3-29.9S172.2,117.2,157.8,119.4z"/>
		</g>
		<g>
			<defs>
				<polygon id="SVGID_7_" points="131.5,0 24.4,107.1 24.4,450 302.9,171.4 				"/>
			</defs>
			<clipPath id="SVGID_8_">
				<use xlink:href="#SVGID_7_"  style="overflow:visible;"/>
			</clipPath>
			<polygon class="st4" points="233.2,181.2 229,180.2 221.4,185.6 224.9,189.9 230.6,189 			"/>
		</g>
		<g>
			<defs>
				<polygon id="SVGID_9_" points="131.5,0 24.4,107.1 24.4,450 302.9,171.4 				"/>
			</defs>
			<clipPath id="SVGID_10_">
				<use xlink:href="#SVGID_9_"  style="overflow:visible;"/>
			</clipPath>
			<polygon class="st5" points="53.7,184.2 54.9,190.4 54.9,193.8 66.7,187.8 61,184.2 			"/>
		</g>
		<g>
			<defs>
				<polygon id="SVGID_11_" points="131.5,0 24.4,107.1 24.4,450 302.9,171.4 				"/>
			</defs>
			<clipPath id="SVGID_12_">
				<use xlink:href="#SVGID_11_"  style="overflow:visible;"/>
			</clipPath>
			<polygon class="st6" points="241.5,151.1 237.7,155 227.3,150.2 230.1,143.6 239.5,142 			"/>
		</g>
		<g>
			<defs>
				<polygon id="SVGID_13_" points="131.5,0 24.4,107.1 24.4,450 302.9,171.4 				"/>
			</defs>
			<clipPath id="SVGID_14_">
				<use xlink:href="#SVGID_13_"  style="overflow:visible;"/>
			</clipPath>
			<g class="st7">
				<polygon class="st8" points="61.3,344.4 59.5,330.6 73.1,323.6 81,326.7 				"/>
				<polygon class="st9" points="65.8,352.2 61.3,344.4 54.9,346.1 				"/>
				<polygon class="st8" points="81,326.7 81,338.6 65.8,352.2 61.3,344.4 				"/>
				<polygon class="st10" points="81,326.7 81,338.6 65.8,352.2 61.3,344.4 				"/>
				<polygon class="st9" points="59.5,330.6 54.9,346.1 61.3,344.4 				"/>
			</g>
		</g>
		<g>
			<defs>
				<polygon id="SVGID_15_" points="131.5,0 24.4,107.1 24.4,450 302.9,171.4 				"/>
			</defs>
			<clipPath id="SVGID_16_">
				<use xlink:href="#SVGID_15_"  style="overflow:visible;"/>
			</clipPath>
			<g class="st11">
				<g>
					<polygon class="st8" points="112.7,299.3 127.3,318.4 103.2,325.7 85.9,312.4 					"/>
					<polygon class="st8" points="133.6,334.4 127.3,318.4 103.2,325.7 93.9,343.4 					"/>
					<polygon class="st10" points="133.6,334.4 127.3,318.4 103.2,325.7 93.9,343.4 					"/>
					<polygon class="st9" points="85.9,312.4 103.2,325.7 93.9,343.4 78.4,325.7 					"/>
				</g>
				<polyline class="st12" points="85.9,312.4 103.2,325.7 127.3,318.4 				"/>
				<line class="st12" x1="103.2" y1="325.7" x2="93.9" y2="343.4"/>
			</g>
		</g>
	</g>
	<path class="st13" d="M84.1,60c-6.4,2.5-17.3-13.8-26.4-9.4S59.3,71,52,73.1c-7.2,2.2-22.3,4-26.6,20.1c-4.1,16,20.3,23.2,24,30.4
		c3.7,7.2-0.2,22.6,5,24.5c15,5.7,23-29.6,36.9-29.6s52.2,7.3,56-8c3.7-15.3-11-35.2-24.8-43.9c-13.8-8.8-11.6-29.8-21-29.8
		C92.3,36.8,92.9,56.6,84.1,60z"/>
	<g>
		<path class="st14" d="M106,200.1l-7.1,12.1v14.6l-6.9,9.9c0,0-5.3-20.6-4.8-27.6c0.4-5.3,6.7-20.1,6.7-20.1L106,200.1z"/>
		<polygon class="st15" points="161.6,158.7 111.7,158.7 90.7,186 106,200.1 110.3,195.7 113.2,211.8 109.3,219.3 108.9,236.6 
			161.8,237.9 160.3,219.3 155.8,210.1 163.1,190.9 168.5,196.2 181,179.7 		"/>
		<path class="st16" d="M160.3,219.3c0,0,13.1,14,10.9,28.7c-2.3,14.7-17.6,28.7-35.8,28.7s-43.4-15.9-44.8-31.8
			c-1.3-15.8,18.6-25.6,18.6-25.6s10,8.6,26.2,8.6C153.7,227.9,160.3,219.3,160.3,219.3z"/>
		<path class="st14" d="M168.5,196.2c0,0,11.1,9.2,17.2,9.2s17.2-66.7,19.2-68.8c0.8-0.8,8.1-15.2,11.4-21.7c0.8-1.7-0.2-3.5-2-3.7
			l0,0c-1.3-0.2-2.4,0.9-2.9,2c-0.9,2-4.2,8.3-6,11.1c-0.6,0.9-1.4,1.6-2.5,1.9l0,0c-2,0.5-3.9-0.3-5-2.1c-0.4-0.8-0.9-1.9-1.4-2.8
			c-0.6-1.3-2.3-1.8-3.4-1l0,0c-0.9,0.6-1.3,1.7-1,2.7l3.3,11.3l-14.2,45.5L168.5,196.2z"/>
		<polygon class="st17" points="119.2,263.2 132.4,264 132.4,291.9 115.8,291.3 		"/>
		<polygon class="st17" points="152.7,263.2 139.4,264 139.4,291.9 156.1,291.3 		"/>
		<path class="st18" d="M152.3,119.5c0,0,5.5-3.3,4.3-8.8c-1.1-5.5-9.9-15-23.7-4c-10.6,8.4-23.8,0.5-28.3,15.7
			c-3.8,12.9,10.3,17.6,8,28.9c-2.4,11.3-14.7,13.7-13.7,28.6c7.7,0,29,0,38,0c5.3-9.1-1.1-16.7-1.8-21.1
			C134.5,153.9,152.3,119.5,152.3,119.5z"/>
		<path class="st14" d="M152.3,119.5l5.8,10.2l-4.3,4.3l1.4,8.9l-9.3,6.7l0.9,8.9c0,0-9.1,0.1-11.7,0.1c-2.6-7.9-2-16.4-2-16.4
			s-6.2-0.5-5.6-6.4c0.3-3.4,4.9-2.9,4.9-2.9s-0.5-10,2.9-12.5C141.4,115.9,144.8,125.6,152.3,119.5z"/>
		<circle class="st17" cx="146.2" cy="127" r="1.7"/>
		<line class="st19" x1="146.2" y1="138.4" x2="153" y2="139.8"/>
		<g>
			<polygon class="st8" points="207.8,100 210.3,113.5 201.5,122 192.7,115.6 186.8,109.6 189.4,96.7 200.3,90 			"/>
			<polyline class="st12" points="201.5,122 198.5,106 207.8,100 			"/>
			<line class="st12" x1="189.4" y1="96.7" x2="198.5" y2="106"/>
			<polyline class="st12" points="200.3,90 193.9,101.4 192.7,115.6 			"/>
		</g>
		<line class="st20" x1="181" y1="88.8" x2="170.6" y2="79.8"/>
		<line class="st20" x1="200.3" y1="82" x2="200.9" y2="69"/>
		<line class="st20" x1="214.6" y1="96.7" x2="225.5" y2="90.6"/>
	</g>
</g>
</svg>
