<?xml version="1.0" encoding="utf-8"?>
<!-- Generator: Adobe Illustrator 22.1.0, SVG Export Plug-In . SVG Version: 6.00 Build 0)  -->
<svg version="1.1" id="Layer_1" xmlns="http://www.w3.org/2000/svg" xmlns:xlink="http://www.w3.org/1999/xlink" x="0px" y="0px"
	 viewBox="0 0 600 450" style="enable-background:new 0 0 600 450;" xml:space="preserve">
<style type="text/css">
	.st0{fill:#24593B;}
	.st1{fill:#EA5B5D;}
	.st2{fill:#2E2E53;}
	.st3{fill:#F29C9E;}
	.st4{fill:#FDF2A5;}
	.st5{fill:#C3A4AD;}
	.st6{fill:#752E2F;}
	.st7{fill:#BDBDDB;}
	.st8{fill:#7E6F0F;}
	.st9{fill:none;stroke:#FFFFFF;stroke-width:1.1419;stroke-miterlimit:10;}
	.st10{fill:#FFFFFF;}
	.st11{fill:#BCA716;}
	.st12{fill:#350E1A;}
	.st13{fill:#F7BDBE;}
	.st14{opacity:0.45;fill:#F7BDBE;enable-background:new    ;}
</style>
<polygon class="st0" points="161.6,38.5 16.3,183.7 195.2,183.7 251,127.9 "/>
<path class="st1" d="M16.3,183.7"/>
<path class="st2" d="M16.3,183.7c0,0,135.3-78.7,218-72.6c16.8,16.8,16.8,16.8,16.8,16.8l-55.9,55.9L16.3,183.7L16.3,183.7z"/>
<circle class="st3" cx="123" cy="17.3" r="13"/>
<rect x="133" y="15.6" class="st3" width="6.3" height="6.3"/>
<polygon class="st4" points="133.8,30.3 133.8,84.5 110.2,84.5 110.2,41.3 87.9,77.7 81.2,71 105.3,27.6 "/>
<polygon class="st4" points="133.8,35.7 159.1,72.6 150.7,78.2 133.8,53.9 "/>
<polygon class="st5" points="110.2,84.5 152.5,150.1 164.4,145.3 133.8,90.5 133.8,84.5 "/>
<polygon class="st5" points="133.8,90.5 101.8,149.2 92.6,140.1 120.1,84.5 "/>
<path class="st3" d="M81.2,81.8L81.2,81.8c-3.1,0-5.6-2.5-5.6-5.6l0,0c0-3.1,2.5-5.6,5.6-5.6l0,0c3.1,0,5.6,2.5,5.6,5.6l0,0
	C86.8,79.3,84.3,81.8,81.2,81.8z"/>
<path class="st3" d="M158.1,83L158.1,83c-3.1,0-5.6-2.5-5.6-5.6l0,0c0-3.1,2.5-5.6,5.6-5.6l0,0c3.1,0,5.6,2.5,5.6,5.6l0,0
	C163.6,80.5,161.1,83,158.1,83z"/>
<polygon class="st3" points="160.3,144.3 163.4,148 176.2,142.7 162.1,155.8 155.9,147 "/>
<polygon class="st3" points="100.2,145.6 97.3,150.7 108.9,163.1 88,152.5 95.3,141.7 "/>
<polygon class="st6" points="441.7,157.2 587,302.4 408.2,302.4 352.3,246.6 "/>
<rect x="428.5" y="189.1" class="st7" width="127.1" height="89.4"/>
<rect x="437.4" y="189.1" class="st8" width="121.8" height="86.8"/>
<line class="st9" x1="498.3" y1="189.1" x2="498.3" y2="275.9"/>
<rect x="451.9" y="200" class="st10" width="35.5" height="5.4"/>
<rect x="451.9" y="217.7" class="st10" width="35.5" height="5.4"/>
<rect x="451.9" y="235.5" class="st10" width="35.5" height="5.4"/>
<rect x="451.9" y="253.3" class="st10" width="35.5" height="5.4"/>
<rect x="512.6" y="200" class="st10" width="35.5" height="5.4"/>
<rect x="512.6" y="217.7" class="st10" width="35.5" height="5.4"/>
<rect x="512.6" y="235.5" class="st10" width="35.5" height="5.4"/>
<rect x="512.6" y="253.3" class="st10" width="35.5" height="5.4"/>
<polygon class="st11" points="158.3,304.7 13,450 191.8,450 247.7,394.1 "/>
<rect x="72.3" y="327.3" class="st7" width="79.4" height="79.4"/>
<rect x="90.7" y="406.6" class="st12" width="79.4" height="18.9"/>
<rect x="72.3" y="406.6" class="st5" width="18.4" height="18.9"/>
<rect x="90.7" y="327.3" class="st2" width="79.4" height="79.4"/>
<g>
	<polygon class="st13" points="139.1,368.2 130.4,385 106.1,374.8 115.9,348.9 	"/>
	<polygon class="st13" points="151.4,356 151.4,374.8 139.1,368.2 115.9,348.9 	"/>
	<polygon class="st13" points="151.4,394.7 151.4,374.8 139.1,368.2 130.4,385 140.9,406.4 	"/>
	<polygon class="st13" points="106.1,374.8 130.4,385 140.9,406.4 124.5,406.4 	"/>
	<polygon class="st14" points="139.1,368.2 130.4,385 106.1,374.8 115.9,348.9 	"/>
	<polygon class="st14" points="151.4,394.7 151.4,374.8 139.1,368.2 130.4,385 140.9,406.4 	"/>
	<polygon class="st14" points="106.1,374.8 130.4,385 140.9,406.4 124.5,406.4 	"/>
	<polygon class="st14" points="139.1,368.2 130.4,385 106.1,374.8 115.9,348.9 	"/>
	<polygon class="st14" points="106.1,374.8 130.4,385 140.9,406.4 124.5,406.4 	"/>
</g>
</svg>
