<?xml version="1.0" encoding="utf-8"?>
<!-- Generator: Adobe Illustrator 22.1.0, SVG Export Plug-In . SVG Version: 6.00 Build 0)  -->
<svg version="1.1" id="Layer_1" xmlns="http://www.w3.org/2000/svg" xmlns:xlink="http://www.w3.org/1999/xlink" x="0px" y="0px"
	 viewBox="0 0 600 450" style="enable-background:new 0 0 600 450;" xml:space="preserve">
<style type="text/css">
	.st0{fill:#F7BDBE;}
	.st1{fill:#5B5BA5;}
	.st2{fill:#691B33;}
	.st3{fill:#4F1526;}
	.st4{fill:#9C9CC9;}
	.st5{fill:#EA5B5D;}
	.st6{opacity:0.45;fill:#EA5B5D;enable-background:new    ;}
	.st7{fill:#FBDE1D;}
	.st8{fill:#F8B133;}
	.st9{opacity:0.45;fill:#F8B133;enable-background:new    ;}
	.st10{fill:#48B276;}
	.st11{opacity:0.45;fill:#48B276;enable-background:new    ;}
	.st12{fill:#350E1A;}
	.st13{fill:#1D1D1B;}
	.st14{fill:#2E2E53;}
	.st15{fill:#B6E0C8;}
	.st16{fill:#7E6F0F;}
	.st17{fill:#FFFFFF;}
	.st18{fill:#EE7C7E;}
	.st19{fill:none;stroke:#1D1D1B;stroke-width:0.8956;stroke-linecap:round;stroke-miterlimit:10;}
</style>
<polygon class="st0" points="451.8,-1 0.1,450.4 555.9,450.4 729.6,276.8 "/>
<g>
	<rect x="216" y="223.4" class="st1" width="31.6" height="31.6"/>
	<rect x="223.4" y="255" class="st2" width="31.6" height="7.5"/>
	<rect x="216" y="255" class="st3" width="7.3" height="7.5"/>
	<rect x="223.4" y="223.4" class="st4" width="31.6" height="31.6"/>
	<g>
		<polygon class="st5" points="242.6,239.7 239.2,246.4 229.5,242.3 233.4,232 		"/>
		<polygon class="st5" points="247.6,234.8 247.6,242.3 242.6,239.7 233.4,232 		"/>
		<polygon class="st5" points="247.6,250.3 247.6,242.3 242.6,239.7 239.2,246.4 243.4,254.9 		"/>
		<polygon class="st5" points="229.5,242.3 239.2,246.4 243.4,254.9 236.8,254.9 		"/>
		<polygon class="st6" points="242.6,239.7 239.2,246.4 229.5,242.3 233.4,232 		"/>
		<polygon class="st6" points="247.6,250.3 247.6,242.3 242.6,239.7 239.2,246.4 243.4,254.9 		"/>
		<polygon class="st6" points="229.5,242.3 239.2,246.4 243.4,254.9 236.8,254.9 		"/>
		<polygon class="st6" points="242.6,239.7 239.2,246.4 229.5,242.3 233.4,232 		"/>
		<polygon class="st6" points="229.5,242.3 239.2,246.4 243.4,254.9 236.8,254.9 		"/>
	</g>
</g>
<g>
	<rect x="177.9" y="223.4" class="st1" width="31.6" height="31.6"/>
	<rect x="185.2" y="255" class="st2" width="31.6" height="7.5"/>
	<rect x="177.9" y="255" class="st3" width="7.3" height="7.5"/>
	<rect x="185.2" y="223.4" class="st4" width="31.6" height="31.6"/>
	<g>
		<polygon class="st7" points="195.9,249.4 194.5,238.6 205.1,233.2 211.2,235.6 		"/>
		<polygon class="st8" points="199.3,255.5 195.9,249.4 190.9,250.7 		"/>
		<polygon class="st7" points="211.2,235.6 211.2,244.9 199.3,255.5 195.9,249.4 		"/>
		<polygon class="st9" points="211.2,235.6 211.2,244.9 199.3,255.5 195.9,249.4 		"/>
		<polygon class="st8" points="194.5,238.6 190.9,250.7 195.9,249.4 		"/>
	</g>
</g>
<g>
	<rect x="196.3" y="184.2" class="st1" width="31.6" height="31.6"/>
	<rect x="203.6" y="215.9" class="st2" width="31.6" height="7.5"/>
	<rect x="196.3" y="215.9" class="st3" width="7.3" height="7.5"/>
	<rect x="203.6" y="184.2" class="st4" width="31.6" height="31.6"/>
	<g>
		<polygon class="st10" points="220.3,214.9 216.6,205.6 211.6,203.5 209.1,212.1 214.9,215.9 		"/>
		<polygon class="st11" points="220.3,214.9 216.6,205.6 211.6,203.5 209.1,212.1 214.9,215.9 		"/>
		<polygon class="st11" points="220.3,214.9 216.6,205.6 211.6,203.5 209.1,212.1 214.9,215.9 		"/>
		<polygon class="st10" points="229.7,211.1 220.3,214.9 216.6,205.6 221,195.3 		"/>
		<polygon class="st11" points="229.7,211.1 220.3,214.9 216.6,205.6 221,195.3 		"/>
		<polygon class="st10" points="214,191.3 211.6,203.5 216.6,205.6 221,195.3 		"/>
	</g>
</g>
<path class="st12" d="M228.9,434.9c-8.5,0-15.3,6.9-15.3,15.3h30.7C244.2,441.8,237.4,434.9,228.9,434.9z"/>
<rect x="217.7" y="426" class="st12" width="22.5" height="18.4"/>
<rect x="217.7" y="426" class="st13" width="22.5" height="8.9"/>
<path class="st12" d="M269.9,434.9c-8.5,0-15.3,6.9-15.3,15.3h30.7C285.2,441.8,278.3,434.9,269.9,434.9z"/>
<rect x="258.6" y="426" class="st12" width="22.5" height="18.4"/>
<rect x="258.6" y="426" class="st13" width="22.5" height="8.9"/>
<rect x="183.1" y="303.7" class="st12" width="139.7" height="12.8"/>
<polygon class="st14" points="200.1,275.3 200.2,290.7 304.2,290.7 304.2,275.3 "/>
<polygon class="st13" points="200.1,275.3 200.2,277.5 304.2,277.5 304.2,275.3 "/>
<polygon class="st15" points="200.1,288.3 200.2,303.7 304.2,303.7 304.2,288.3 "/>
<rect x="107.8" y="262.6" class="st16" width="297.2" height="12.7"/>
<path class="st14" d="M207.2,158.7l-51.4,90.8c-3.3,5.8,0.9,13,7.6,13h49.8h119.6c8.8,0,14.4-9.4,10.2-17.1l-46.7-86.7H207.2z"/>
<path class="st0" d="M295.5,259l9.2-14.6h-16.8c-4,0-7.8,1.6-10.7,4.4L267,259H295.5z"/>
<path class="st15" d="M200.2,303.7c2.5,21.9,15.1,128.4,15.1,128.4l28.3-1.6l3.2-129.4C247.5,270.5,196.9,275.1,200.2,303.7z"/>
<path class="st15" d="M303.9,304.4c-3.4,21.7-19.7,127.7-19.7,127.7l-28.2-2.8l1.5-129.5C258,269.3,308.4,275.9,303.9,304.4z"/>
<polygon class="st13" points="229.4,233.6 234.5,231.6 238.6,259 "/>
<rect x="237.3" y="259" class="st17" width="53.2" height="3.6"/>
<path class="st0" d="M213.2,259l5.4-14.6h10.6c4,0,7.8,1.6,10.7,4.4l10.2,10.2H213.2z"/>
<polygon class="st0" points="247.7,150.2 247.7,160.7 267.8,163.4 263.9,150.2 "/>
<path class="st13" d="M247.7,151.1c3.6,1.7,7.6,2.7,11.8,2.7c1.8,0,3.6-0.2,5.3-0.5l-0.9-3.1h-16.2V151.1z"/>
<circle class="st0" cx="255.7" cy="124.1" r="27.4"/>
<path class="st0" d="M280.9,113.4c0,0,4.4-4.5,8.8,0c4.5,4.5-7,15-7,15L280.9,113.4z"/>
<path class="st0" d="M231.1,113.4c0,0-4.4-4.5-8.8,0c-4.5,4.5,7,15,7,15L231.1,113.4z"/>
<circle class="st13" cx="245.4" cy="132.2" r="2.3"/>
<circle class="st13" cx="266.1" cy="132.2" r="2.3"/>
<ellipse transform="matrix(0.1602 -0.9871 0.9871 0.1602 78.2272 368.5451)" class="st18" cx="255.7" cy="138.3" rx="4.5" ry="4.5"/>
<line class="st19" x1="245.4" y1="143.2" x2="255.7" y2="147.9"/>
<path class="st3" d="M245.4,111.4c0,0,0.3,26.2,37.7,12.7c4.1-24.6-10-44-35.4-27.4c-16.5-6.6-23.1,11.9-14.9,23.2L245.4,111.4z"/>
</svg>
