<?xml version="1.0" encoding="utf-8"?>
<!-- Generator: Adobe Illustrator 22.1.0, SVG Export Plug-In . SVG Version: 6.00 Build 0)  -->
<svg version="1.1" id="Layer_1" xmlns="http://www.w3.org/2000/svg" xmlns:xlink="http://www.w3.org/1999/xlink" x="0px" y="0px"
	 viewBox="0 0 240 240" style="enable-background:new 0 0 240 240;" xml:space="preserve">
<style type="text/css">
	.st0{fill:#FFFFFF;}
	.st1{fill:#EF7F6A;}
	.st2{fill:#E0533F;}
	.st3{fill:#1D1D1B;}
</style>
<g>
	<polygon class="st0" points="93.2,169.8 93.2,39 133.2,143.3 93.2,39 	"/>
	<polygon class="st0" points="136.5,143.3 93.3,30.2 93.3,30.2 	"/>
	<polygon class="st0" points="91,39 91,39 90.9,168.6 90.9,168.6 	"/>
	<path class="st0" d="M91,39l-37,96.8L91,39z"/>
	<path class="st0" d="M91,30.2L49.2,139.4L91,30.2z"/>
	<polygon class="st1" points="91,39 90.9,168.6 91.7,168.2 91.7,168.2 92.4,167.7 92.9,168.9 93.2,169.8 93.2,39 92.1,35.7 91,39 	
		"/>
	<polygon class="st0" points="92.1,27 93.3,30.2 93.3,30.2 92.1,27 91,30.2 91,30.2 	"/>
	<polygon class="st0" points="33,210.2 33,210.2 91.7,174.6 	"/>
	<polygon class="st0" points="26.5,207.7 26.5,207.7 90.9,168.6 90.9,168.6 	"/>
	<polygon class="st0" points="90.9,168.6 90.9,168.6 90.9,168.6 	"/>
	<polygon class="st1" points="33,210.2 33,210.2 22.8,216.4 107.6,216.4 105.3,210.2 	"/>
	<polygon class="st0" points="90.9,168.6 90.9,168.6 91.7,168.2 91.7,168.2 	"/>
	<path class="st0" d="M93.2,169.8l14.9,39.1L93.2,169.8z"/>
	<path class="st0" d="M93.2,169.8L93.2,169.8L93.2,169.8z"/>
	<polygon class="st0" points="90.9,168.6 90.9,171.2 90.9,172.3 	"/>
	<polygon class="st0" points="108.2,208.9 93.2,169.8 108.9,211.2 108.9,211.2 	"/>
	<polygon class="st0" points="90.9,172.3 105.3,210.2 107.6,216.4 107.6,216.4 	"/>
	<polygon class="st2" points="93.3,30.2 92.1,27 91,30.2 49.2,139.4 19.8,216.4 22.7,216.4 22.8,216.4 33,210.2 91.7,174.6 
		105.3,210.2 90.9,172.3 90.9,171.2 90.9,168.6 26.5,207.7 26.5,207.7 53.9,135.7 91,39 92.1,35.7 93.2,39 133.2,143.3 108.2,208.9 
		108.9,211.2 108.9,211.2 93.2,169.8 93.2,169.8 92.9,168.9 92.4,167.7 91.7,168.2 90.9,168.6 90.9,172.3 107.6,216.4 108.2,216.4 
		108.6,216.4 109.8,213.2 136.5,143.3 	"/>
	<g>
		<g>
			<path class="st3" d="M147.6,32.1v49.4h-2.2l-11.3-37v37h-2.7V32.1h2.2l11.3,37v-37H147.6z"/>
			<path class="st3" d="M163.7,47.5c1.1,2.5,1.6,6.4,1.6,11.5v22.5h-2.5v-5.1c-0.4,1.8-1.1,3-1.8,3.9c-0.8,0.9-1.8,1.4-2.8,1.4
				c-1.6,0-2.9-0.9-3.9-3c-1-2.1-1.4-4.6-1.4-8c0-3.2,0.4-6,1.4-8c0.9-2.1,2.4-3,4.4-3h4.1v-1.1c0-3-0.4-5.1-1-6.7
				c-0.6-1.6-1.6-2.3-2.9-2.3c-0.9,0-1.7,0.5-2.5,1.1c-0.8,0.7-1.5,1.6-2,3l-1.1-5.1c0.7-1.6,1.6-2.8,2.6-3.7
				c1.1-0.9,2.1-1.1,3.2-1.1C161.2,43.6,162.6,44.9,163.7,47.5z M161.2,74.8c0.7-1.1,1.2-2.8,1.6-4.8v-5.3h-4
				c-2.2,0-3.3,1.8-3.3,5.7c0,1.8,0.3,3.4,0.9,4.4c0.5,1.1,1.3,1.6,2.3,1.6C159.6,76.7,160.4,76,161.2,74.8z"/>
			<path class="st3" d="M184.5,44v37.5H182v-5.7c-0.5,1.8-1.2,3.4-2.1,4.6c-0.9,1.1-1.8,1.6-2.8,1.6c-1.9,0-3.4-1.4-4.5-4.1
				c-1.1-2.8-1.7-6.9-1.7-12.2V44h2.6v20.7c0,3.7,0.4,6.4,1,8.3c0.7,1.8,1.6,2.8,2.9,2.8c1.4,0,2.5-1.1,3.2-3.2
				c0.8-2.1,1.2-5.3,1.2-9.2V44L184.5,44L184.5,44z"/>
			<path class="st3" d="M189.6,59.2h14.1v6h-14.1V59.2z"/>
		</g>
		<g>
			<path class="st3" d="M169,145.4c-0.4,0.9-0.9,1.6-1.4,1.8c-0.5,0.5-1.1,0.7-1.8,0.7c-1.4,0-2.5-0.9-3.3-3
				c-0.8-2.1-1.2-4.8-1.2-8.7v-20.5h-2.5v-5.5h2.5V102h2.6v8.3h4.1v5.5H164V136c0,2.1,0.2,3.7,0.6,4.6c0.4,1.1,1,1.6,1.7,1.6
				c0.8,0,1.5-0.7,2-1.8L169,145.4z"/>
			<path class="st3" d="M173.3,110h2.6v37.5h-2.6V110z M176.3,98.5l-1.8,4.8l-1.8-4.8l1.8-4.8L176.3,98.5z"/>
			<path class="st3" d="M181.9,95.1h2.6v52.4h-2.6V95.1z"/>
			<path class="st3" d="M203.7,110v37.5h-2.5v-5.7c-0.5,1.8-1.2,3.4-2.1,4.6s-1.8,1.6-2.8,1.6c-1.9,0-3.4-1.4-4.5-4.1
				c-1.1-2.8-1.7-6.9-1.7-12.2V110h2.6v20.7c0,3.7,0.4,6.4,1,8.3c0.7,1.8,1.6,2.8,2.9,2.8c1.4,0,2.5-1.1,3.2-3.2s1.2-5.3,1.2-9.2
				V110L203.7,110L203.7,110z"/>
			<path class="st3" d="M210.5,146.8c-1.1-0.9-1.9-1.8-2.5-3.2l1.1-5.3c0.6,1.1,1.4,2.1,2.3,2.8c0.9,0.7,1.8,1.1,2.7,1.1
				c2.3,0,3.4-1.6,3.4-5.1c0-1.1-0.2-2.1-0.4-2.8c-0.3-0.7-0.7-1.1-1.1-1.4c-0.4-0.2-1.1-0.7-1.9-0.9c-1.1-0.5-2.1-0.9-2.8-1.6
				c-0.7-0.7-1.3-1.6-1.8-3.2c-0.5-1.4-0.8-3.4-0.8-6.2c0-3.4,0.5-6.2,1.6-8.3s2.5-3,4.4-3c1,0,1.9,0.2,2.9,0.9
				c1,0.7,1.8,1.4,2.4,2.5l-1.1,5.3c-1.1-2.1-2.5-3-4.1-3c-1.1,0-1.9,0.5-2.5,1.4c-0.6,0.9-0.9,2.3-0.9,3.7c0,1.1,0.2,2.3,0.5,3
				c0.4,0.7,0.7,1.1,1.2,1.6c0.4,0.2,1.1,0.7,2,1.1c1.1,0.5,2.1,1.1,2.8,1.6c0.7,0.7,1.3,1.6,1.8,3c0.5,1.4,0.8,3.4,0.8,6
				c0,3.4-0.5,6.2-1.7,8c-1.1,2.1-2.6,3-4.6,3C212.7,147.9,211.5,147.5,210.5,146.8z"/>
		</g>
		<g>
			<path class="st3" d="M155.4,188.6h2.6v19.3c-1,2.1-2,3.7-3.2,4.6c-1.2,1.1-2.5,1.6-3.9,1.6c-1.9,0-3.6-1.1-5.2-3.2
				c-1.5-2.3-2.7-5.3-3.6-9c-0.9-3.9-1.3-8.3-1.3-12.9c0-4.8,0.4-9.2,1.3-13.1s2.1-6.9,3.6-9c1.6-2.1,3.2-3.2,5.2-3.2
				c1.5,0,2.9,0.7,4.1,1.8c1.2,1.4,2.3,3.2,3.2,5.7l-1.7,4.4c-1.5-3.9-3.3-5.7-5.4-5.7c-1.4,0-2.7,0.9-3.9,2.5
				c-1.1,1.6-2,3.9-2.7,6.9c-0.6,3-1,6.2-1,9.9c0,3.7,0.4,6.9,1,9.7c0.6,3,1.6,5.3,2.7,6.9c1.1,1.6,2.5,2.5,3.9,2.5
				c1.7,0,3.2-1.1,4.4-3.2L155.4,188.6L155.4,188.6z"/>
			<path class="st3" d="M176.7,197.1h-11.6c0.2,3.2,0.7,6,1.7,8c1,2.1,2.1,3,3.5,3c1.7,0,3.1-1.6,4.1-4.6l1.4,4.4
				c-0.6,2.1-1.5,3.4-2.5,4.6c-1,1.1-2,1.6-3.2,1.6c-1.5,0-2.8-0.9-4-2.5c-1.1-1.6-2.1-3.9-2.7-6.9c-0.6-3-1-6.2-1-9.9
				c0-3.7,0.4-6.9,1-9.9c0.6-3,1.5-5.3,2.5-6.9s2.3-2.5,3.7-2.5s2.5,0.9,3.7,2.5c1.1,1.6,1.9,3.9,2.5,6.9c0.6,3,0.9,6.2,0.9,10.1
				C176.8,195.5,176.7,196.2,176.7,197.1z M166.5,184.5c-0.9,2.1-1.3,4.6-1.5,7.8h9.2c-0.2-3.2-0.6-5.7-1.5-7.8s-1.8-3-3.2-3
				C168.4,181.5,167.4,182.4,166.5,184.5z"/>
			<path class="st3" d="M193.4,179.9c1.1,2.8,1.6,6.9,1.6,12.2v21.6h-2.6V193c0-3.7-0.4-6.4-1-8.3c-0.7-1.8-1.6-2.8-2.9-2.8
				c-1.4,0-2.5,1.1-3.3,3.2c-0.8,2.1-1.2,5.3-1.2,9.2v19.3h-2.6v-37.5h2.5v5.7c0.5-1.8,1.2-3.4,2.1-4.4c0.9-1.1,1.9-1.6,3.1-1.6
				C190.8,175.8,192.3,177.1,193.4,179.9z"/>
			<path class="st3" d="M208.8,211.4c-0.4,0.9-0.9,1.6-1.4,1.8c-0.5,0.5-1.1,0.7-1.8,0.7c-1.4,0-2.5-0.9-3.3-3
				c-0.8-2.1-1.2-4.8-1.2-8.7v-20.5h-2.5v-5.5h2.5v-8.3h2.6v8.3h4.1v5.5h-4.1V202c0,2.1,0.2,3.7,0.6,4.6c0.4,1.1,1,1.6,1.7,1.6
				c0.8,0,1.5-0.7,2-1.8L208.8,211.4z"/>
		</g>
	</g>
</g>
</svg>
