<?xml version="1.0" encoding="utf-8"?>
<!-- Generator: Adobe Illustrator 22.1.0, SVG Export Plug-In . SVG Version: 6.00 Build 0)  -->
<svg version="1.1" id="Layer_1" xmlns="http://www.w3.org/2000/svg" xmlns:xlink="http://www.w3.org/1999/xlink" x="0px" y="0px"
	 viewBox="0 0 240 240" style="enable-background:new 0 0 240 240;" xml:space="preserve">
<style type="text/css">
	.st0{fill:#FFFFFF;}
	.st1{fill:none;stroke:#EF7F6A;stroke-miterlimit:10;}
	.st2{fill:none;stroke:#E0533F;stroke-miterlimit:10;}
	.st3{fill:none;stroke:#1D1D1B;stroke-miterlimit:10;}
</style>
<g>
	<polygon class="st0" points="93.2,138.4 93.2,88.5 133.2,128.4 93.2,88.5 	"/>
	<polygon class="st0" points="136.5,128.4 93.3,85.2 93.3,85.2 	"/>
	<polygon class="st0" points="91,88.5 91,88.5 90.9,138 90.9,138 	"/>
	<path class="st0" d="M91,88.5l-37,36.9L91,88.5z"/>
	<path class="st0" d="M91,85.2l-41.8,41.7L91,85.2z"/>
	<polygon class="st1" points="91,88.5 90.9,138 91.7,137.8 91.7,137.8 92.4,137.7 92.9,138.1 93.2,138.4 93.2,88.5 92.1,87.3 
		91,88.5 	"/>
	<polygon class="st0" points="92.1,84 93.3,85.2 93.3,85.2 92.1,84 91,85.2 91,85.2 	"/>
	<polygon class="st0" points="33,153.9 33,153.9 91.7,140.3 	"/>
	<polygon class="st0" points="26.5,152.9 26.5,152.9 90.9,138 90.9,138 	"/>
	<polygon class="st0" points="90.9,138 90.9,138 90.9,138 	"/>
	<polygon class="st1" points="33,153.9 33,153.9 22.8,156.3 107.6,156.3 105.3,153.9 	"/>
	<polygon class="st0" points="90.9,138 90.9,138 91.7,137.8 91.7,137.8 	"/>
	<path class="st0" d="M93.2,138.4l14.9,14.9L93.2,138.4z"/>
	<path class="st0" d="M93.2,138.4L93.2,138.4L93.2,138.4z"/>
	<polygon class="st0" points="90.9,138 90.9,139 90.9,139.4 	"/>
	<polygon class="st0" points="108.2,153.4 93.2,138.4 108.9,154.2 108.9,154.2 	"/>
	<polygon class="st0" points="91.7,140.3 105.3,153.9 107.6,156.3 107.6,156.3 	"/>
	<path class="st2" d="M93.3,85.2L92.1,84L91,85.2l-41.8,41.7l-29.4,29.4h2.9h0.1l10.2-2.4l58.7-13.6l13.6,13.6l2.4,2.4h0.5h0.4
		l1.2-1.2l26.7-26.7L93.3,85.2z M108.2,153.4l-14.9-14.9l-0.4-0.4l-0.5-0.4l-0.6,0.2l-0.9,0.2l-64.4,14.9l27.5-27.5l37-36.9l1.1-1.2
		l1.1,1.2l39.9,39.8L108.2,153.4z"/>
	<g>
		<g>
			<path class="st3" d="M147.6,85.9v18.9h-2.2l-11.3-14.1v14.1h-2.7V85.9h2.2l11.3,14.1V85.9H147.6z"/>
			<path class="st3" d="M163.7,91.8c1.1,1,1.6,2.5,1.6,4.4v8.6h-2.5v-1.9c-0.4,0.7-1.1,1.1-1.8,1.5c-0.8,0.4-1.8,0.5-2.8,0.5
				c-1.6,0-2.9-0.4-3.9-1.1c-1-0.8-1.4-1.8-1.4-3.1c0-1.2,0.4-2.3,1.4-3.1c0.9-0.8,2.4-1.1,4.4-1.1h4.1V96c0-1.1-0.4-1.9-1-2.5
				c-0.6-0.6-1.6-0.9-2.9-0.9c-0.9,0-1.7,0.2-2.5,0.4s-1.5,0.6-2,1.1l-1.1-1.9c0.7-0.6,1.6-1.1,2.6-1.4s2.1-0.4,3.2-0.4
				C161.2,90.3,162.6,90.8,163.7,91.8z M161.2,102.2c0.7-0.4,1.2-1.1,1.6-1.8v-2h-4c-2.2,0-3.3,0.7-3.3,2.2c0,0.7,0.3,1.3,0.9,1.7
				c0.5,0.4,1.3,0.6,2.3,0.6C159.6,102.9,160.4,102.6,161.2,102.2z"/>
			<path class="st3" d="M184.5,90.5v14.3H182v-2.2c-0.5,0.7-1.2,1.3-2.1,1.8s-1.8,0.6-2.8,0.6c-1.9,0-3.4-0.5-4.5-1.6
				c-1.1-1.1-1.7-2.6-1.7-4.7v-8.2h2.6v7.9c0,1.4,0.4,2.5,1,3.2c0.7,0.7,1.6,1.1,2.9,1.1c1.4,0,2.5-0.4,3.2-1.2
				c0.8-0.8,1.2-2,1.2-3.5v-7.4L184.5,90.5L184.5,90.5z"/>
			<path class="st3" d="M189.6,96.2h14.1v2.3h-14.1V96.2z"/>
		</g>
		<g>
			<path class="st3" d="M169,129.1c-0.4,0.4-0.9,0.6-1.4,0.7c-0.5,0.2-1.1,0.3-1.8,0.3c-1.4,0-2.5-0.4-3.3-1.1
				c-0.8-0.8-1.2-1.8-1.2-3.3v-7.8h-2.5v-2.1h2.5v-3.2h2.6v3.2h4.1v2.1H164v7.7c0,0.8,0.2,1.4,0.6,1.8c0.4,0.4,1,0.6,1.7,0.6
				c0.8,0,1.5-0.3,2-0.7L169,129.1z"/>
			<path class="st3" d="M173.3,115.6h2.6v14.3h-2.6V115.6z M176.3,111.2l-1.8,1.8l-1.8-1.8l1.8-1.8L176.3,111.2z"/>
			<path class="st3" d="M181.9,109.9h2.6v20h-2.6V109.9z"/>
			<path class="st3" d="M203.7,115.6v14.3h-2.5v-2.2c-0.5,0.7-1.2,1.3-2.1,1.8s-1.8,0.6-2.8,0.6c-1.9,0-3.4-0.5-4.5-1.6
				c-1.1-1.1-1.7-2.6-1.7-4.7v-8.2h2.6v7.9c0,1.4,0.4,2.5,1,3.2c0.7,0.7,1.6,1.1,2.9,1.1c1.4,0,2.5-0.4,3.2-1.2s1.2-2,1.2-3.5v-7.4
				L203.7,115.6L203.7,115.6z"/>
			<path class="st3" d="M210.5,129.7c-1.1-0.4-1.9-0.7-2.5-1.2l1.1-2c0.6,0.4,1.4,0.8,2.3,1.1c0.9,0.3,1.8,0.4,2.7,0.4
				c2.3,0,3.4-0.6,3.4-1.9c0-0.4-0.2-0.8-0.4-1.1c-0.3-0.3-0.7-0.4-1.1-0.5s-1.1-0.3-1.9-0.4c-1.1-0.2-2.1-0.4-2.8-0.6
				c-0.7-0.3-1.3-0.6-1.8-1.2c-0.5-0.5-0.8-1.3-0.8-2.4c0-1.3,0.5-2.4,1.6-3.2c1.1-0.8,2.5-1.1,4.4-1.1c1,0,1.9,0.1,2.9,0.4
				c1,0.3,1.8,0.5,2.4,1l-1.1,2c-1.1-0.8-2.5-1.1-4.1-1.1c-1.1,0-1.9,0.2-2.5,0.5s-0.9,0.9-0.9,1.4c0,0.4,0.2,0.9,0.5,1.1
				c0.4,0.3,0.7,0.4,1.2,0.6c0.4,0.1,1.1,0.3,2,0.4c1.1,0.2,2.1,0.4,2.8,0.6c0.7,0.3,1.3,0.6,1.8,1.1c0.5,0.5,0.8,1.3,0.8,2.3
				c0,1.3-0.5,2.4-1.7,3.1c-1.1,0.8-2.6,1.1-4.6,1.1C212.7,130.1,211.5,129.9,210.5,129.7z"/>
		</g>
		<g>
			<path class="st3" d="M155.4,145.6h2.6v7.4c-1,0.8-2,1.4-3.2,1.8c-1.2,0.4-2.5,0.6-3.9,0.6c-1.9,0-3.6-0.4-5.2-1.2
				c-1.5-0.9-2.7-2-3.6-3.4c-0.9-1.5-1.3-3.2-1.3-4.9c0-1.8,0.4-3.5,1.3-5c0.9-1.5,2.1-2.6,3.6-3.4c1.6-0.8,3.2-1.2,5.2-1.2
				c1.5,0,2.9,0.3,4.1,0.7c1.2,0.5,2.3,1.2,3.2,2.2l-1.7,1.7c-1.5-1.5-3.3-2.2-5.4-2.2c-1.4,0-2.7,0.4-3.9,1s-2,1.5-2.7,2.6
				c-0.6,1.1-1,2.4-1,3.8c0,1.4,0.4,2.6,1,3.7c0.6,1.1,1.6,2,2.7,2.6c1.1,0.6,2.5,1,3.9,1c1.7,0,3.2-0.4,4.4-1.2L155.4,145.6
				L155.4,145.6z"/>
			<path class="st3" d="M176.7,148.9h-11.6c0.2,1.2,0.7,2.3,1.7,3.1c1,0.8,2.1,1.1,3.5,1.1c1.7,0,3.1-0.6,4.1-1.8l1.4,1.7
				c-0.6,0.8-1.5,1.3-2.5,1.8c-1,0.4-2,0.6-3.2,0.6c-1.5,0-2.8-0.4-4-1c-1.1-0.6-2.1-1.5-2.7-2.6s-1-2.4-1-3.8c0-1.4,0.4-2.6,1-3.8
				c0.6-1.1,1.5-2,2.5-2.6s2.3-1,3.7-1s2.5,0.4,3.7,1c1.1,0.6,1.9,1.5,2.5,2.6c0.6,1.1,0.9,2.4,0.9,3.9
				C176.8,148.3,176.7,148.5,176.7,148.9z M166.5,144.1c-0.9,0.8-1.3,1.8-1.5,3h9.2c-0.2-1.2-0.6-2.2-1.5-3
				c-0.9-0.8-1.8-1.1-3.2-1.1C168.4,142.9,167.4,143.3,166.5,144.1z"/>
			<path class="st3" d="M193.4,142.3c1.1,1.1,1.6,2.6,1.6,4.7v8.2h-2.6v-7.9c0-1.4-0.4-2.5-1-3.2c-0.7-0.7-1.6-1.1-2.9-1.1
				c-1.4,0-2.5,0.4-3.3,1.2c-0.8,0.8-1.2,2-1.2,3.5v7.4h-2.6v-14.3h2.5v2.2c0.5-0.7,1.2-1.3,2.1-1.7c0.9-0.4,1.9-0.6,3.1-0.6
				C190.8,140.7,192.3,141.3,193.4,142.3z"/>
			<path class="st3" d="M208.8,154.3c-0.4,0.4-0.9,0.6-1.4,0.7c-0.5,0.2-1.1,0.3-1.8,0.3c-1.4,0-2.5-0.4-3.3-1.1
				c-0.8-0.8-1.2-1.8-1.2-3.3V143h-2.5v-2.1h2.5v-3.2h2.6v3.2h4.1v2.1h-4.1v7.7c0,0.8,0.2,1.4,0.6,1.8c0.4,0.4,1,0.6,1.7,0.6
				c0.8,0,1.5-0.3,2-0.7L208.8,154.3z"/>
		</g>
	</g>
</g>
</svg>
