<?xml version="1.0" encoding="utf-8"?>
<!-- Generator: Adobe Illustrator 22.1.0, SVG Export Plug-In . SVG Version: 6.00 Build 0)  -->
<svg version="1.1" id="Layer_1" xmlns="http://www.w3.org/2000/svg" xmlns:xlink="http://www.w3.org/1999/xlink" x="0px" y="0px"
	 viewBox="0 0 240 240" style="enable-background:new 0 0 240 240;" xml:space="preserve">
<style type="text/css">
	.st0{fill:#FBDE1D;}
	.st1{fill:#EA5B5D;}
	.st2{fill:#691B33;}
	.st3{fill:#48B276;}
	.st4{fill:#5B5BA5;}
</style>
<g>
	<g>
		<g>
			<polygon class="st0" points="53.2,42.9 53.2,20.6 71,38.4 53.2,20.6 			"/>
			<polygon class="st0" points="72.5,38.4 53.3,19.1 53.3,19.1 			"/>
			<polygon class="st0" points="52.2,20.6 52.2,20.6 52.2,42.7 52.2,42.7 			"/>
			<path class="st0" d="M52.2,20.6L35.7,37.1L52.2,20.6z"/>
			<path class="st0" d="M52.2,19.1L33.6,37.7L52.2,19.1z"/>
			<polygon class="st0" points="52.2,20.6 52.2,42.7 52.6,42.6 52.6,42.6 52.8,42.6 53.1,42.8 53.2,42.9 53.2,20.6 52.7,20.1 
				52.2,20.6 			"/>
			<polygon class="st0" points="52.7,18.6 53.3,19.1 53.3,19.1 52.7,18.6 52.2,19.1 52.2,19.1 			"/>
			<polygon class="st0" points="26.3,49.8 26.3,49.8 52.5,43.7 			"/>
			<polygon class="st0" points="23.4,49.4 23.4,49.4 52.2,42.7 52.2,42.7 			"/>
			<polygon class="st0" points="52.2,42.7 52.2,42.7 52.2,42.7 			"/>
			<polygon class="st0" points="26.3,49.8 26.3,49.8 21.8,50.9 59.7,50.9 58.6,49.8 			"/>
			<polygon class="st0" points="52.2,42.7 52.2,42.7 52.6,42.6 52.6,42.6 			"/>
			<polygon class="st0" points="53.2,20.6 71,38.4 59.9,49.6 60.2,50 60.2,50 60.6,50.3 72.5,38.4 53.3,19.1 			"/>
			<polygon class="st0" points="52.6,42.6 53.1,42.8 52.8,42.6 			"/>
			<polygon class="st0" points="53.2,20.6 53.3,19.1 52.7,18.6 52.2,19.1 52.2,20.6 52.7,20.1 			"/>
			<polygon class="st0" points="60.2,50 59.9,50.9 60.1,50.9 60.6,50.3 			"/>
			<path class="st0" d="M53.2,42.9l6.7,6.7L53.2,42.9z"/>
			<path class="st0" d="M53.2,42.9L53.2,42.9L53.2,42.9z"/>
			<polygon class="st0" points="52.2,42.7 52.2,43.1 52.2,43.3 			"/>
			<polygon class="st0" points="59.9,49.6 53.2,42.9 60.2,50 60.2,50 			"/>
			<polygon class="st0" points="52.2,43.3 58.6,49.8 59.7,50.9 59.7,50.9 			"/>
			<polygon class="st0" points="52.2,43.3 52.2,43.1 52.2,42.7 23.4,49.4 23.4,49.4 35.7,37.1 52.2,20.6 52.2,19.1 33.6,37.7 
				20.5,50.9 21.7,50.9 21.8,50.9 26.3,49.8 52.5,43.7 58.6,49.8 			"/>
			<polygon class="st0" points="53.2,42.9 53.1,42.8 52.6,42.6 52.2,42.7 52.2,43.3 59.7,50.9 59.9,50.9 60.2,50 			"/>
			<g>
				<g>
					<path class="st0" d="M77.5,19.5v8.4h-1l-5.1-6.3v6.3h-1.2v-8.4h1l5.1,6.3v-6.3H77.5z"/>
					<path class="st0" d="M84.7,22.1c0.5,0.4,0.7,1.1,0.7,2v3.8h-1.1V27c-0.2,0.3-0.5,0.5-0.8,0.7c-0.4,0.2-0.8,0.2-1.3,0.2
						c-0.7,0-1.3-0.2-1.7-0.5c-0.4-0.4-0.6-0.8-0.6-1.4c0-0.5,0.2-1,0.6-1.4c0.4-0.4,1.1-0.5,2-0.5h1.8V24c0-0.5-0.2-0.9-0.4-1.1
						c-0.3-0.3-0.7-0.4-1.3-0.4c-0.4,0-0.7,0.1-1.1,0.2s-0.7,0.3-0.9,0.5l-0.5-0.9c0.3-0.3,0.7-0.5,1.2-0.6c0.5-0.2,0.9-0.2,1.4-0.2
						C83.5,21.4,84.2,21.6,84.7,22.1z M83.5,26.7c0.3-0.2,0.5-0.5,0.7-0.8V25h-1.8c-1,0-1.5,0.3-1.5,1c0,0.3,0.1,0.6,0.4,0.7
						c0.2,0.2,0.6,0.3,1,0.3C82.8,27.1,83.2,26.9,83.5,26.7z"/>
					<path class="st0" d="M94,21.5v6.4h-1.1v-1c-0.2,0.3-0.5,0.6-0.9,0.8c-0.4,0.2-0.8,0.3-1.3,0.3c-0.9,0-1.5-0.2-2-0.7
						c-0.5-0.5-0.7-1.2-0.7-2.1v-3.7h1.2V25c0,0.6,0.2,1.1,0.4,1.4c0.3,0.3,0.7,0.5,1.3,0.5c0.6,0,1.1-0.2,1.4-0.5
						c0.4-0.4,0.5-0.9,0.5-1.6v-3.3L94,21.5L94,21.5z"/>
					<path class="st0" d="M96.2,24.1h6.3v1h-6.3V24.1z"/>
				</g>
				<g>
					<path class="st0" d="M87.1,38.8c-0.2,0.2-0.4,0.3-0.6,0.3c-0.2,0.1-0.5,0.1-0.8,0.1c-0.6,0-1.1-0.2-1.5-0.5
						c-0.4-0.4-0.5-0.8-0.5-1.5v-3.5h-1.1v-0.9h1.1v-1.4h1.2v1.4h1.8v0.9h-1.8v3.4c0,0.4,0.1,0.6,0.3,0.8c0.2,0.2,0.4,0.3,0.7,0.3
						c0.4,0,0.7-0.1,0.9-0.3L87.1,38.8z"/>
					<path class="st0" d="M88.9,32.7h1.2v6.4h-1.2V32.7z M90.3,30.8l-0.8,0.8l-0.8-0.8l0.8-0.8L90.3,30.8z"/>
					<path class="st0" d="M92.8,30.2H94v8.9h-1.2V30.2z"/>
					<path class="st0" d="M102.5,32.7v6.4h-1.1v-1c-0.2,0.3-0.5,0.6-0.9,0.8s-0.8,0.3-1.3,0.3c-0.9,0-1.5-0.2-2-0.7
						c-0.5-0.5-0.7-1.2-0.7-2.1v-3.7h1.2v3.5c0,0.6,0.2,1.1,0.4,1.4c0.3,0.3,0.7,0.5,1.3,0.5c0.6,0,1.1-0.2,1.4-0.5
						c0.4-0.4,0.5-0.9,0.5-1.6v-3.3L102.5,32.7L102.5,32.7z"/>
					<path class="st0" d="M105.5,39c-0.5-0.2-0.9-0.3-1.1-0.5l0.5-0.9c0.3,0.2,0.6,0.4,1,0.5c0.4,0.1,0.8,0.2,1.2,0.2
						c1,0,1.5-0.3,1.5-0.9c0-0.2-0.1-0.4-0.2-0.5c-0.1-0.1-0.3-0.2-0.5-0.2c-0.2,0-0.5-0.1-0.9-0.2c-0.5-0.1-0.9-0.2-1.3-0.3
						c-0.3-0.1-0.6-0.3-0.8-0.5c-0.2-0.2-0.4-0.6-0.4-1.1c0-0.6,0.2-1.1,0.7-1.4c0.5-0.4,1.1-0.5,2-0.5c0.4,0,0.9,0,1.3,0.2
						c0.4,0.1,0.8,0.2,1.1,0.4l-0.5,0.9c-0.5-0.4-1.1-0.5-1.8-0.5c-0.5,0-0.9,0.1-1.1,0.2c-0.3,0.2-0.4,0.4-0.4,0.6
						c0,0.2,0.1,0.4,0.2,0.5c0.2,0.1,0.3,0.2,0.5,0.3c0.2,0,0.5,0.1,0.9,0.2c0.5,0.1,0.9,0.2,1.3,0.3c0.3,0.1,0.6,0.3,0.8,0.5
						c0.2,0.2,0.4,0.6,0.4,1c0,0.6-0.2,1.1-0.7,1.4c-0.5,0.4-1.2,0.5-2,0.5C106.5,39.2,106,39.1,105.5,39z"/>
				</g>
				<g>
					<path class="st0" d="M81,46.1h1.2v3.3c-0.4,0.4-0.9,0.6-1.4,0.8c-0.5,0.2-1.1,0.3-1.7,0.3c-0.9,0-1.6-0.2-2.3-0.5
						C76,49.5,75.4,49,75,48.4c-0.4-0.7-0.6-1.4-0.6-2.2c0-0.8,0.2-1.6,0.6-2.2c0.4-0.7,0.9-1.2,1.6-1.5c0.7-0.4,1.4-0.5,2.3-0.5
						c0.7,0,1.3,0.1,1.8,0.3c0.5,0.2,1,0.5,1.4,1l-0.7,0.7c-0.7-0.7-1.5-1-2.4-1c-0.6,0-1.2,0.2-1.7,0.4c-0.5,0.3-0.9,0.7-1.2,1.2
						c-0.3,0.5-0.4,1.1-0.4,1.7c0,0.6,0.2,1.2,0.4,1.6c0.3,0.5,0.7,0.9,1.2,1.2c0.5,0.3,1.1,0.4,1.7,0.4c0.7,0,1.4-0.2,2-0.5
						L81,46.1L81,46.1z"/>
					<path class="st0" d="M90.5,47.6h-5.2c0.1,0.5,0.3,1,0.7,1.4s0.9,0.5,1.6,0.5c0.7,0,1.4-0.3,1.8-0.8l0.6,0.7
						c-0.3,0.4-0.7,0.6-1.1,0.8c-0.4,0.2-0.9,0.3-1.4,0.3c-0.7,0-1.3-0.2-1.8-0.4c-0.5-0.3-0.9-0.7-1.2-1.2
						c-0.3-0.5-0.4-1.1-0.4-1.7c0-0.6,0.2-1.2,0.4-1.7c0.3-0.5,0.7-0.9,1.1-1.2c0.5-0.3,1-0.4,1.6-0.4c0.6,0,1.1,0.2,1.6,0.4
						c0.5,0.3,0.9,0.7,1.1,1.2c0.3,0.5,0.4,1.1,0.4,1.7C90.5,47.3,90.5,47.4,90.5,47.6z M85.9,45.4c-0.4,0.4-0.6,0.8-0.7,1.3h4.1
						c-0.1-0.5-0.3-1-0.7-1.3s-0.8-0.5-1.4-0.5C86.7,44.9,86.3,45.1,85.9,45.4z"/>
					<path class="st0" d="M97.9,44.6c0.5,0.5,0.7,1.2,0.7,2.1v3.7h-1.2v-3.5c0-0.6-0.2-1.1-0.4-1.4c-0.3-0.3-0.7-0.5-1.3-0.5
						c-0.6,0-1.1,0.2-1.5,0.5c-0.4,0.4-0.5,0.9-0.5,1.6v3.3h-1.2V44h1.1v1c0.2-0.3,0.5-0.6,0.9-0.7c0.4-0.2,0.9-0.3,1.4-0.3
						C96.8,43.9,97.4,44.2,97.9,44.6z"/>
					<path class="st0" d="M104.8,50c-0.2,0.2-0.4,0.3-0.6,0.3c-0.2,0.1-0.5,0.1-0.8,0.1c-0.6,0-1.1-0.2-1.5-0.5
						c-0.4-0.4-0.5-0.8-0.5-1.5v-3.5h-1.1V44h1.1v-1.4h1.2V44h1.8v0.9h-1.8v3.4c0,0.4,0.1,0.6,0.3,0.8c0.2,0.2,0.4,0.3,0.7,0.3
						c0.4,0,0.7-0.1,0.9-0.3L104.8,50z"/>
				</g>
			</g>
		</g>
		<g>
			<polygon class="st1" points="53.2,128.2 53.2,105.9 71,123.7 53.2,105.9 			"/>
			<polygon class="st1" points="72.5,123.7 53.3,104.4 53.3,104.4 			"/>
			<polygon class="st1" points="52.2,105.9 52.2,105.9 52.2,128 52.2,128 			"/>
			<path class="st1" d="M52.2,105.9l-16.5,16.5L52.2,105.9z"/>
			<path class="st1" d="M52.2,104.4L33.6,123L52.2,104.4z"/>
			<polygon class="st1" points="52.2,105.9 52.2,128 52.6,127.9 52.6,127.9 52.8,127.8 53.1,128 53.2,128.2 53.2,105.9 52.7,105.4 
				52.2,105.9 			"/>
			<polygon class="st1" points="52.7,103.9 53.3,104.4 53.3,104.4 52.7,103.9 52.2,104.4 52.2,104.4 			"/>
			<polygon class="st1" points="26.3,135.1 26.3,135.1 52.5,129 			"/>
			<polygon class="st1" points="23.4,134.6 23.4,134.6 52.2,128 52.2,128 			"/>
			<polygon class="st1" points="52.2,128 52.2,128 52.2,128 			"/>
			<polygon class="st1" points="26.3,135.1 26.3,135.1 21.8,136.1 59.7,136.1 58.6,135.1 			"/>
			<polygon class="st1" points="52.2,128 52.2,128 52.6,127.9 52.6,127.9 			"/>
			<polygon class="st1" points="53.2,105.9 71,123.7 59.9,134.8 60.2,135.2 60.2,135.2 60.6,135.6 72.5,123.7 53.3,104.4 			"/>
			<polygon class="st1" points="52.6,127.9 53.1,128 52.8,127.8 			"/>
			<polygon class="st1" points="53.2,105.9 53.3,104.4 52.7,103.9 52.2,104.4 52.2,105.9 52.7,105.4 			"/>
			<polygon class="st1" points="60.2,135.2 59.9,136.1 60.1,136.1 60.6,135.6 			"/>
			<path class="st1" d="M53.2,128.2l6.7,6.7L53.2,128.2z"/>
			<path class="st1" d="M53.2,128.2L53.2,128.2L53.2,128.2z"/>
			<polygon class="st1" points="52.2,128 52.2,128.4 52.2,128.6 			"/>
			<polygon class="st1" points="59.9,134.8 53.2,128.2 60.2,135.2 60.2,135.2 			"/>
			<polygon class="st1" points="52.2,128.6 58.6,135.1 59.7,136.1 59.7,136.1 			"/>
			<polygon class="st1" points="52.2,128.6 52.2,128.4 52.2,128 23.4,134.6 23.4,134.6 35.7,122.4 52.2,105.9 52.2,104.4 33.6,123 
				20.5,136.1 21.7,136.1 21.8,136.1 26.3,135.1 52.5,129 58.6,135.1 			"/>
			<polygon class="st1" points="53.2,128.2 53.1,128 52.6,127.9 52.2,128 52.2,128.6 59.7,136.1 59.9,136.1 60.2,135.2 			"/>
			<g>
				<g>
					<path class="st1" d="M77.5,104.7v8.4h-1l-5.1-6.3v6.3h-1.2v-8.4h1l5.1,6.3v-6.3H77.5z"/>
					<path class="st1" d="M84.7,107.4c0.5,0.4,0.7,1.1,0.7,2v3.8h-1.1v-0.9c-0.2,0.3-0.5,0.5-0.8,0.7c-0.4,0.2-0.8,0.2-1.3,0.2
						c-0.7,0-1.3-0.2-1.7-0.5c-0.4-0.4-0.6-0.8-0.6-1.4c0-0.5,0.2-1,0.6-1.4c0.4-0.4,1.1-0.5,2-0.5h1.8v-0.2c0-0.5-0.2-0.9-0.4-1.1
						c-0.3-0.3-0.7-0.4-1.3-0.4c-0.4,0-0.7,0.1-1.1,0.2c-0.4,0.1-0.7,0.3-0.9,0.5l-0.5-0.9c0.3-0.3,0.7-0.5,1.2-0.6
						c0.5-0.2,0.9-0.2,1.4-0.2C83.5,106.7,84.2,106.9,84.7,107.4z M83.5,112c0.3-0.2,0.5-0.5,0.7-0.8v-0.9h-1.8c-1,0-1.5,0.3-1.5,1
						c0,0.3,0.1,0.6,0.4,0.7c0.2,0.2,0.6,0.3,1,0.3C82.8,112.3,83.2,112.2,83.5,112z"/>
					<path class="st1" d="M94,106.8v6.4h-1.1v-1c-0.2,0.3-0.5,0.6-0.9,0.8c-0.4,0.2-0.8,0.3-1.3,0.3c-0.9,0-1.5-0.2-2-0.7
						c-0.5-0.5-0.7-1.2-0.7-2.1v-3.7h1.2v3.5c0,0.6,0.2,1.1,0.4,1.4c0.3,0.3,0.7,0.5,1.3,0.5c0.6,0,1.1-0.2,1.4-0.5
						c0.4-0.4,0.5-0.9,0.5-1.6v-3.3L94,106.8L94,106.8z"/>
					<path class="st1" d="M96.2,109.3h6.3v1h-6.3V109.3z"/>
				</g>
				<g>
					<path class="st1" d="M87.1,124c-0.2,0.2-0.4,0.3-0.6,0.3c-0.2,0.1-0.5,0.1-0.8,0.1c-0.6,0-1.1-0.2-1.5-0.5
						c-0.4-0.4-0.5-0.8-0.5-1.5V119h-1.1V118h1.1v-1.4h1.2v1.4h1.8v0.9h-1.8v3.4c0,0.4,0.1,0.6,0.3,0.8c0.2,0.2,0.4,0.3,0.7,0.3
						c0.4,0,0.7-0.1,0.9-0.3L87.1,124z"/>
					<path class="st1" d="M88.9,118h1.2v6.4h-1.2V118z M90.3,116l-0.8,0.8l-0.8-0.8l0.8-0.8L90.3,116z"/>
					<path class="st1" d="M92.8,115.5H94v8.9h-1.2V115.5z"/>
					<path class="st1" d="M102.5,118v6.4h-1.1v-1c-0.2,0.3-0.5,0.6-0.9,0.8c-0.4,0.2-0.8,0.3-1.3,0.3c-0.9,0-1.5-0.2-2-0.7
						c-0.5-0.5-0.7-1.2-0.7-2.1V118h1.2v3.5c0,0.6,0.2,1.1,0.4,1.4c0.3,0.3,0.7,0.5,1.3,0.5c0.6,0,1.1-0.2,1.4-0.5
						c0.4-0.4,0.5-0.9,0.5-1.6V118L102.5,118L102.5,118z"/>
					<path class="st1" d="M105.5,124.3c-0.5-0.2-0.9-0.3-1.1-0.5l0.5-0.9c0.3,0.2,0.6,0.4,1,0.5c0.4,0.1,0.8,0.2,1.2,0.2
						c1,0,1.5-0.3,1.5-0.9c0-0.2-0.1-0.4-0.2-0.5c-0.1-0.1-0.3-0.2-0.5-0.2c-0.2,0-0.5-0.1-0.9-0.2c-0.5-0.1-0.9-0.2-1.3-0.3
						c-0.3-0.1-0.6-0.3-0.8-0.5c-0.2-0.2-0.4-0.6-0.4-1.1c0-0.6,0.2-1.1,0.7-1.4c0.5-0.4,1.1-0.5,2-0.5c0.4,0,0.9,0,1.3,0.2
						c0.4,0.1,0.8,0.2,1.1,0.4l-0.5,0.9c-0.5-0.4-1.1-0.5-1.8-0.5c-0.5,0-0.9,0.1-1.1,0.2c-0.3,0.2-0.4,0.4-0.4,0.6
						c0,0.2,0.1,0.4,0.2,0.5c0.2,0.1,0.3,0.2,0.5,0.3c0.2,0,0.5,0.1,0.9,0.2c0.5,0.1,0.9,0.2,1.3,0.3c0.3,0.1,0.6,0.3,0.8,0.5
						c0.2,0.2,0.4,0.6,0.4,1c0,0.6-0.2,1.1-0.7,1.4c-0.5,0.4-1.2,0.5-2,0.5C106.5,124.5,106,124.4,105.5,124.3z"/>
				</g>
				<g>
					<path class="st1" d="M81,131.4h1.2v3.3c-0.4,0.4-0.9,0.6-1.4,0.8c-0.5,0.2-1.1,0.3-1.7,0.3c-0.9,0-1.6-0.2-2.3-0.5
						c-0.7-0.4-1.2-0.9-1.6-1.5c-0.4-0.7-0.6-1.4-0.6-2.2c0-0.8,0.2-1.6,0.6-2.2c0.4-0.7,0.9-1.2,1.6-1.5c0.7-0.4,1.4-0.5,2.3-0.5
						c0.7,0,1.3,0.1,1.8,0.3c0.5,0.2,1,0.5,1.4,1l-0.7,0.7c-0.7-0.7-1.5-1-2.4-1c-0.6,0-1.2,0.2-1.7,0.4c-0.5,0.3-0.9,0.7-1.2,1.2
						c-0.3,0.5-0.4,1.1-0.4,1.7c0,0.6,0.2,1.2,0.4,1.6c0.3,0.5,0.7,0.9,1.2,1.2s1.1,0.4,1.7,0.4c0.7,0,1.4-0.2,2-0.5L81,131.4
						L81,131.4z"/>
					<path class="st1" d="M90.5,132.8h-5.2c0.1,0.5,0.3,1,0.7,1.4s0.9,0.5,1.6,0.5c0.7,0,1.4-0.3,1.8-0.8l0.6,0.7
						c-0.3,0.4-0.7,0.6-1.1,0.8c-0.4,0.2-0.9,0.3-1.4,0.3c-0.7,0-1.3-0.2-1.8-0.4c-0.5-0.3-0.9-0.7-1.2-1.2
						c-0.3-0.5-0.4-1.1-0.4-1.7s0.2-1.2,0.4-1.7c0.3-0.5,0.7-0.9,1.1-1.2s1-0.4,1.6-0.4c0.6,0,1.1,0.2,1.6,0.4
						c0.5,0.3,0.9,0.7,1.1,1.2c0.3,0.5,0.4,1.1,0.4,1.7C90.5,132.6,90.5,132.7,90.5,132.8z M85.9,130.7c-0.4,0.4-0.6,0.8-0.7,1.3
						h4.1c-0.1-0.5-0.3-1-0.7-1.3s-0.8-0.5-1.4-0.5C86.7,130.2,86.3,130.3,85.9,130.7z"/>
					<path class="st1" d="M97.9,129.9c0.5,0.5,0.7,1.2,0.7,2.1v3.7h-1.2v-3.5c0-0.6-0.2-1.1-0.4-1.4c-0.3-0.3-0.7-0.5-1.3-0.5
						c-0.6,0-1.1,0.2-1.5,0.5s-0.5,0.9-0.5,1.6v3.3h-1.2v-6.4h1.1v1c0.2-0.3,0.5-0.6,0.9-0.7c0.4-0.2,0.9-0.3,1.4-0.3
						C96.8,129.2,97.4,129.4,97.9,129.9z"/>
					<path class="st1" d="M104.8,135.3c-0.2,0.2-0.4,0.3-0.6,0.3c-0.2,0.1-0.5,0.1-0.8,0.1c-0.6,0-1.1-0.2-1.5-0.5s-0.5-0.8-0.5-1.5
						v-3.5h-1.1v-0.9h1.1v-1.4h1.2v1.4h1.8v0.9h-1.8v3.4c0,0.4,0.1,0.6,0.3,0.8c0.2,0.2,0.4,0.3,0.7,0.3c0.4,0,0.7-0.1,0.9-0.3
						L104.8,135.3z"/>
				</g>
			</g>
		</g>
		<g>
			<polygon class="st2" points="53.2,213.5 53.2,191.2 71,209 53.2,191.2 			"/>
			<polygon class="st2" points="72.5,209 53.3,189.7 53.3,189.7 			"/>
			<polygon class="st2" points="52.2,191.2 52.2,191.2 52.2,213.3 52.2,213.3 			"/>
			<path class="st2" d="M52.2,191.2l-16.5,16.5L52.2,191.2z"/>
			<path class="st2" d="M52.2,189.7l-18.6,18.6L52.2,189.7z"/>
			<polygon class="st2" points="52.2,191.2 52.2,213.3 52.6,213.2 52.6,213.2 52.8,213.1 53.1,213.3 53.2,213.5 53.2,191.2 
				52.7,190.6 52.2,191.2 			"/>
			<polygon class="st2" points="52.7,189.1 53.3,189.7 53.3,189.7 52.7,189.1 52.2,189.7 52.2,189.7 			"/>
			<polygon class="st2" points="26.3,220.3 26.3,220.3 52.5,214.3 			"/>
			<polygon class="st2" points="23.4,219.9 23.4,219.9 52.2,213.3 52.2,213.3 			"/>
			<polygon class="st2" points="52.2,213.3 52.2,213.3 52.2,213.3 			"/>
			<polygon class="st2" points="26.3,220.3 26.3,220.3 21.8,221.4 59.7,221.4 58.6,220.3 			"/>
			<polygon class="st2" points="52.2,213.3 52.2,213.3 52.6,213.2 52.6,213.2 			"/>
			<polygon class="st2" points="53.2,191.2 71,209 59.9,220.1 60.2,220.5 60.2,220.5 60.6,220.9 72.5,209 53.3,189.7 			"/>
			<polygon class="st2" points="52.6,213.2 53.1,213.3 52.8,213.1 			"/>
			<polygon class="st2" points="53.2,191.2 53.3,189.7 52.7,189.1 52.2,189.7 52.2,191.2 52.7,190.6 			"/>
			<polygon class="st2" points="60.2,220.5 59.9,221.4 60.1,221.4 60.6,220.9 			"/>
			<path class="st2" d="M53.2,213.5l6.7,6.7L53.2,213.5z"/>
			<path class="st2" d="M53.2,213.5L53.2,213.5L53.2,213.5z"/>
			<polygon class="st2" points="52.2,213.3 52.2,213.7 52.2,213.9 			"/>
			<polygon class="st2" points="59.9,220.1 53.2,213.5 60.2,220.5 60.2,220.5 			"/>
			<polygon class="st2" points="52.2,213.9 58.6,220.3 59.7,221.4 59.7,221.4 			"/>
			<polygon class="st2" points="52.2,213.9 52.2,213.7 52.2,213.3 23.4,219.9 23.4,219.9 35.7,207.7 52.2,191.2 52.2,189.7 
				33.6,208.3 20.5,221.4 21.7,221.4 21.8,221.4 26.3,220.3 52.5,214.3 58.6,220.3 			"/>
			<polygon class="st2" points="53.2,213.5 53.1,213.3 52.6,213.2 52.2,213.3 52.2,213.9 59.7,221.4 59.9,221.4 60.2,220.5 			"/>
			<g>
				<g>
					<path class="st2" d="M77.5,190v8.4h-1l-5.1-6.3v6.3h-1.2V190h1l5.1,6.3V190H77.5z"/>
					<path class="st2" d="M84.7,192.6c0.5,0.4,0.7,1.1,0.7,2v3.8h-1.1v-0.9c-0.2,0.3-0.5,0.5-0.8,0.7c-0.4,0.2-0.8,0.2-1.3,0.2
						c-0.7,0-1.3-0.2-1.7-0.5c-0.4-0.4-0.6-0.8-0.6-1.4c0-0.5,0.2-1,0.6-1.4c0.4-0.4,1.1-0.5,2-0.5h1.8v-0.2c0-0.5-0.2-0.9-0.4-1.1
						c-0.3-0.3-0.7-0.4-1.3-0.4c-0.4,0-0.7,0.1-1.1,0.2c-0.4,0.1-0.7,0.3-0.9,0.5l-0.5-0.9c0.3-0.3,0.7-0.5,1.2-0.6
						c0.5-0.2,0.9-0.2,1.4-0.2C83.5,192,84.2,192.2,84.7,192.6z M83.5,197.3c0.3-0.2,0.5-0.5,0.7-0.8v-0.9h-1.8c-1,0-1.5,0.3-1.5,1
						c0,0.3,0.1,0.6,0.4,0.7c0.2,0.2,0.6,0.3,1,0.3C82.8,197.6,83.2,197.5,83.5,197.3z"/>
					<path class="st2" d="M94,192v6.4h-1.1v-1c-0.2,0.3-0.5,0.6-0.9,0.8c-0.4,0.2-0.8,0.3-1.3,0.3c-0.9,0-1.5-0.2-2-0.7
						c-0.5-0.5-0.7-1.2-0.7-2.1V192h1.2v3.5c0,0.6,0.2,1.1,0.4,1.4c0.3,0.3,0.7,0.5,1.3,0.5c0.6,0,1.1-0.2,1.4-0.5
						c0.4-0.4,0.5-0.9,0.5-1.6V192L94,192L94,192z"/>
					<path class="st2" d="M96.2,194.6h6.3v1h-6.3V194.6z"/>
				</g>
				<g>
					<path class="st2" d="M87.1,209.3c-0.2,0.2-0.4,0.3-0.6,0.3c-0.2,0.1-0.5,0.1-0.8,0.1c-0.6,0-1.1-0.2-1.5-0.5
						c-0.4-0.4-0.5-0.8-0.5-1.5v-3.5h-1.1v-0.9h1.1v-1.4h1.2v1.4h1.8v0.9h-1.8v3.4c0,0.4,0.1,0.6,0.3,0.8c0.2,0.2,0.4,0.3,0.7,0.3
						c0.4,0,0.7-0.1,0.9-0.3L87.1,209.3z"/>
					<path class="st2" d="M88.9,203.3h1.2v6.4h-1.2V203.3z M90.3,201.3l-0.8,0.8l-0.8-0.8l0.8-0.8L90.3,201.3z"/>
					<path class="st2" d="M92.8,200.7H94v8.9h-1.2V200.7z"/>
					<path class="st2" d="M102.5,203.3v6.4h-1.1v-1c-0.2,0.3-0.5,0.6-0.9,0.8s-0.8,0.3-1.3,0.3c-0.9,0-1.5-0.2-2-0.7
						c-0.5-0.5-0.7-1.2-0.7-2.1v-3.7h1.2v3.5c0,0.6,0.2,1.1,0.4,1.4c0.3,0.3,0.7,0.5,1.3,0.5c0.6,0,1.1-0.2,1.4-0.5
						c0.4-0.4,0.5-0.9,0.5-1.6v-3.3L102.5,203.3L102.5,203.3z"/>
					<path class="st2" d="M105.5,209.5c-0.5-0.2-0.9-0.3-1.1-0.5l0.5-0.9c0.3,0.2,0.6,0.4,1,0.5c0.4,0.1,0.8,0.2,1.2,0.2
						c1,0,1.5-0.3,1.5-0.9c0-0.2-0.1-0.4-0.2-0.5c-0.1-0.1-0.3-0.2-0.5-0.2c-0.2,0-0.5-0.1-0.9-0.2c-0.5-0.1-0.9-0.2-1.3-0.3
						c-0.3-0.1-0.6-0.3-0.8-0.5c-0.2-0.2-0.4-0.6-0.4-1.1c0-0.6,0.2-1.1,0.7-1.4c0.5-0.4,1.1-0.5,2-0.5c0.4,0,0.9,0,1.3,0.2
						c0.4,0.1,0.8,0.2,1.1,0.4l-0.5,0.9c-0.5-0.4-1.1-0.5-1.8-0.5c-0.5,0-0.9,0.1-1.1,0.2c-0.3,0.2-0.4,0.4-0.4,0.6
						c0,0.2,0.1,0.4,0.2,0.5c0.2,0.1,0.3,0.2,0.5,0.3c0.2,0,0.5,0.1,0.9,0.2c0.5,0.1,0.9,0.2,1.3,0.3c0.3,0.1,0.6,0.3,0.8,0.5
						s0.4,0.6,0.4,1c0,0.6-0.2,1.1-0.7,1.4c-0.5,0.4-1.2,0.5-2,0.5C106.5,209.7,106,209.7,105.5,209.5z"/>
				</g>
				<g>
					<path class="st2" d="M81,216.7h1.2v3.3c-0.4,0.4-0.9,0.6-1.4,0.8c-0.5,0.2-1.1,0.3-1.7,0.3c-0.9,0-1.6-0.2-2.3-0.5
						c-0.7-0.4-1.2-0.9-1.6-1.5c-0.4-0.7-0.6-1.4-0.6-2.2c0-0.8,0.2-1.6,0.6-2.2c0.4-0.7,0.9-1.2,1.6-1.5c0.7-0.4,1.4-0.5,2.3-0.5
						c0.7,0,1.3,0.1,1.8,0.3c0.5,0.2,1,0.5,1.4,1l-0.7,0.7c-0.7-0.7-1.5-1-2.4-1c-0.6,0-1.2,0.2-1.7,0.4c-0.5,0.3-0.9,0.7-1.2,1.2
						c-0.3,0.5-0.4,1.1-0.4,1.7s0.2,1.2,0.4,1.6c0.3,0.5,0.7,0.9,1.2,1.2c0.5,0.3,1.1,0.4,1.7,0.4c0.7,0,1.4-0.2,2-0.5L81,216.7
						L81,216.7z"/>
					<path class="st2" d="M90.5,218.1h-5.2c0.1,0.5,0.3,1,0.7,1.4s0.9,0.5,1.6,0.5c0.7,0,1.4-0.3,1.8-0.8l0.6,0.7
						c-0.3,0.4-0.7,0.6-1.1,0.8c-0.4,0.2-0.9,0.3-1.4,0.3c-0.7,0-1.3-0.2-1.8-0.4c-0.5-0.3-0.9-0.7-1.2-1.2
						c-0.3-0.5-0.4-1.1-0.4-1.7s0.2-1.2,0.4-1.7c0.3-0.5,0.7-0.9,1.1-1.2s1-0.4,1.6-0.4c0.6,0,1.1,0.2,1.6,0.4
						c0.5,0.3,0.9,0.7,1.1,1.2c0.3,0.5,0.4,1.1,0.4,1.7C90.5,217.8,90.5,218,90.5,218.1z M85.9,216c-0.4,0.4-0.6,0.8-0.7,1.3h4.1
						c-0.1-0.5-0.3-1-0.7-1.3c-0.4-0.4-0.8-0.5-1.4-0.5C86.7,215.5,86.3,215.6,85.9,216z"/>
					<path class="st2" d="M97.9,215.2c0.5,0.5,0.7,1.2,0.7,2.1v3.7h-1.2v-3.5c0-0.6-0.2-1.1-0.4-1.4c-0.3-0.3-0.7-0.5-1.3-0.5
						c-0.6,0-1.1,0.2-1.5,0.5s-0.5,0.9-0.5,1.6v3.3h-1.2v-6.4h1.1v1c0.2-0.3,0.5-0.6,0.9-0.7c0.4-0.2,0.9-0.3,1.4-0.3
						C96.8,214.5,97.4,214.7,97.9,215.2z"/>
					<path class="st2" d="M104.8,220.5c-0.2,0.2-0.4,0.3-0.6,0.3c-0.2,0.1-0.5,0.1-0.8,0.1c-0.6,0-1.1-0.2-1.5-0.5
						c-0.4-0.4-0.5-0.8-0.5-1.5v-3.5h-1.1v-0.9h1.1v-1.4h1.2v1.4h1.8v0.9h-1.8v3.4c0,0.4,0.1,0.6,0.3,0.8c0.2,0.2,0.4,0.3,0.7,0.3
						c0.4,0,0.7-0.1,0.9-0.3L104.8,220.5z"/>
				</g>
			</g>
		</g>
	</g>
	<g>
		<g>
			<polygon class="st3" points="157.1,86.1 157.1,63.8 174.9,81.6 157.1,63.8 			"/>
			<polygon class="st3" points="176.4,81.6 157.1,62.3 157.1,62.3 			"/>
			<polygon class="st3" points="156.1,63.8 156.1,63.8 156,85.9 156,85.9 			"/>
			<path class="st3" d="M156.1,63.8l-16.5,16.5L156.1,63.8z"/>
			<path class="st3" d="M156.1,62.3l-18.6,18.6L156.1,62.3z"/>
			<polygon class="st3" points="156.1,63.8 156,85.9 156.4,85.8 156.4,85.8 156.7,85.7 156.9,85.9 157.1,86.1 157.1,63.8 
				156.6,63.2 156.1,63.8 			"/>
			<polygon class="st3" points="156.6,61.7 157.1,62.3 157.1,62.3 156.6,61.7 156.1,62.3 156.1,62.3 			"/>
			<polygon class="st3" points="130.2,93 130.2,93 156.4,86.9 			"/>
			<polygon class="st3" points="127.3,92.5 127.3,92.5 156,85.9 156,85.9 			"/>
			<polygon class="st3" points="156,85.9 156,85.9 156,85.9 			"/>
			<polygon class="st3" points="130.2,93 130.2,93 125.7,94 163.5,94 162.5,93 			"/>
			<polygon class="st3" points="156,85.9 156,85.9 156.4,85.8 156.4,85.8 			"/>
			<polygon class="st3" points="157.1,63.8 174.9,81.6 163.8,92.7 164.1,93.1 164.1,93.1 164.5,93.5 176.4,81.6 157.1,62.3 			"/>
			<polygon class="st3" points="156.4,85.8 156.9,85.9 156.7,85.7 			"/>
			<polygon class="st3" points="157.1,63.8 157.1,62.3 156.6,61.7 156.1,62.3 156.1,63.8 156.6,63.2 			"/>
			<polygon class="st3" points="164.1,93.1 163.8,94 164,94 164.5,93.5 			"/>
			<path class="st3" d="M157.1,86.1l6.7,6.7L157.1,86.1z"/>
			<path class="st3" d="M157.1,86.1L157.1,86.1L157.1,86.1z"/>
			<polygon class="st3" points="156,85.9 156,86.3 156,86.5 			"/>
			<polygon class="st3" points="163.8,92.7 157.1,86.1 164.1,93.1 164.1,93.1 			"/>
			<polygon class="st3" points="156,86.5 162.5,93 163.5,94 163.5,94 			"/>
			<polygon class="st3" points="156,86.5 156,86.3 156,85.9 127.3,92.5 127.3,92.5 139.6,80.3 156.1,63.8 156.1,62.3 137.4,80.9 
				124.3,94 125.6,94 125.7,94 130.2,93 156.4,86.9 162.5,93 			"/>
			<polygon class="st3" points="157.1,86.1 156.9,85.9 156.4,85.8 156,85.9 156,86.5 163.5,94 163.8,94 164.1,93.1 			"/>
			<g>
				<g>
					<path class="st3" d="M181.4,62.6V71h-1l-5.1-6.3V71h-1.2v-8.4h1l5.1,6.3v-6.3H181.4z"/>
					<path class="st3" d="M188.5,65.2c0.5,0.4,0.7,1.1,0.7,2V71h-1.1v-0.9c-0.2,0.3-0.5,0.5-0.8,0.7c-0.4,0.2-0.8,0.2-1.3,0.2
						c-0.7,0-1.3-0.2-1.7-0.5c-0.4-0.4-0.6-0.8-0.6-1.4c0-0.5,0.2-1,0.6-1.4c0.4-0.4,1.1-0.5,2-0.5h1.8v-0.2c0-0.5-0.2-0.9-0.4-1.1
						c-0.3-0.3-0.7-0.4-1.3-0.4c-0.4,0-0.7,0.1-1.1,0.2c-0.4,0.1-0.7,0.3-0.9,0.5l-0.5-0.9c0.3-0.3,0.7-0.5,1.2-0.6
						c0.5-0.2,0.9-0.2,1.4-0.2C187.4,64.6,188.1,64.8,188.5,65.2z M187.4,69.9c0.3-0.2,0.5-0.5,0.7-0.8v-0.9h-1.8
						c-1,0-1.5,0.3-1.5,1c0,0.3,0.1,0.6,0.4,0.7c0.2,0.2,0.6,0.3,1,0.3C186.7,70.2,187.1,70.1,187.4,69.9z"/>
					<path class="st3" d="M197.8,64.6V71h-1.1v-1c-0.2,0.3-0.5,0.6-0.9,0.8c-0.4,0.2-0.8,0.3-1.3,0.3c-0.9,0-1.5-0.2-2-0.7
						c-0.5-0.5-0.7-1.2-0.7-2.1v-3.7h1.2v3.5c0,0.6,0.2,1.1,0.4,1.4c0.3,0.3,0.7,0.5,1.3,0.5c0.6,0,1.1-0.2,1.4-0.5s0.5-0.9,0.5-1.6
						v-3.3L197.8,64.6L197.8,64.6z"/>
					<path class="st3" d="M200.1,67.2h6.3v1h-6.3V67.2z"/>
				</g>
				<g>
					<path class="st3" d="M190.9,81.9c-0.2,0.2-0.4,0.3-0.6,0.3c-0.2,0.1-0.5,0.1-0.8,0.1c-0.6,0-1.1-0.2-1.5-0.5
						c-0.4-0.4-0.5-0.8-0.5-1.5v-3.5h-1.1v-0.9h1.1v-1.4h1.2v1.4h1.8v0.9h-1.8v3.4c0,0.4,0.1,0.6,0.3,0.8c0.2,0.2,0.4,0.3,0.7,0.3
						c0.4,0,0.7-0.1,0.9-0.3L190.9,81.9z"/>
					<path class="st3" d="M192.8,75.9h1.2v6.4h-1.2V75.9z M194.2,73.9l-0.8,0.8l-0.8-0.8l0.8-0.8L194.2,73.9z"/>
					<path class="st3" d="M196.7,73.3h1.2v8.9h-1.2V73.3z"/>
					<path class="st3" d="M206.4,75.9v6.4h-1.1v-1c-0.2,0.3-0.5,0.6-0.9,0.8c-0.4,0.2-0.8,0.3-1.3,0.3c-0.9,0-1.5-0.2-2-0.7
						c-0.5-0.5-0.7-1.2-0.7-2.1v-3.7h1.2v3.5c0,0.6,0.2,1.1,0.4,1.4c0.3,0.3,0.7,0.5,1.3,0.5c0.6,0,1.1-0.2,1.4-0.5
						c0.4-0.4,0.5-0.9,0.5-1.6v-3.3L206.4,75.9L206.4,75.9z"/>
					<path class="st3" d="M209.4,82.1c-0.5-0.2-0.9-0.3-1.1-0.5l0.5-0.9c0.3,0.2,0.6,0.4,1,0.5c0.4,0.1,0.8,0.2,1.2,0.2
						c1,0,1.5-0.3,1.5-0.9c0-0.2-0.1-0.4-0.2-0.5c-0.1-0.1-0.3-0.2-0.5-0.2c-0.2,0-0.5-0.1-0.9-0.2c-0.5-0.1-0.9-0.2-1.3-0.3
						c-0.3-0.1-0.6-0.3-0.8-0.5c-0.2-0.2-0.4-0.6-0.4-1.1c0-0.6,0.2-1.1,0.7-1.4c0.5-0.4,1.1-0.5,2-0.5c0.4,0,0.9,0,1.3,0.2
						c0.4,0.1,0.8,0.2,1.1,0.4l-0.5,0.9c-0.5-0.4-1.1-0.5-1.8-0.5c-0.5,0-0.9,0.1-1.1,0.2s-0.4,0.4-0.4,0.6c0,0.2,0.1,0.4,0.2,0.5
						c0.2,0.1,0.3,0.2,0.5,0.3c0.2,0,0.5,0.1,0.9,0.2c0.5,0.1,0.9,0.2,1.3,0.3c0.3,0.1,0.6,0.3,0.8,0.5c0.2,0.2,0.4,0.6,0.4,1
						c0,0.6-0.2,1.1-0.7,1.4c-0.5,0.4-1.2,0.5-2,0.5C210.4,82.3,209.9,82.3,209.4,82.1z"/>
				</g>
				<g>
					<path class="st3" d="M184.8,89.3h1.2v3.3c-0.4,0.4-0.9,0.6-1.4,0.8c-0.5,0.2-1.1,0.3-1.7,0.3c-0.9,0-1.6-0.2-2.3-0.5
						c-0.7-0.4-1.2-0.9-1.6-1.5c-0.4-0.7-0.6-1.4-0.6-2.2c0-0.8,0.2-1.6,0.6-2.2c0.4-0.7,0.9-1.2,1.6-1.5c0.7-0.4,1.4-0.5,2.3-0.5
						c0.7,0,1.3,0.1,1.8,0.3c0.5,0.2,1,0.5,1.4,1l-0.7,0.7c-0.7-0.7-1.5-1-2.4-1c-0.6,0-1.2,0.2-1.7,0.4c-0.5,0.3-0.9,0.7-1.2,1.2
						c-0.3,0.5-0.4,1.1-0.4,1.7c0,0.6,0.2,1.2,0.4,1.6c0.3,0.5,0.7,0.9,1.2,1.2c0.5,0.3,1.1,0.4,1.7,0.4c0.7,0,1.4-0.2,2-0.5
						L184.8,89.3L184.8,89.3z"/>
					<path class="st3" d="M194.3,90.7h-5.2c0.1,0.5,0.3,1,0.7,1.4c0.4,0.4,0.9,0.5,1.6,0.5c0.7,0,1.4-0.3,1.8-0.8l0.6,0.7
						c-0.3,0.4-0.7,0.6-1.1,0.8s-0.9,0.3-1.4,0.3c-0.7,0-1.3-0.2-1.8-0.4c-0.5-0.3-0.9-0.7-1.2-1.2c-0.3-0.5-0.4-1.1-0.4-1.7
						c0-0.6,0.2-1.2,0.4-1.7c0.3-0.5,0.7-0.9,1.1-1.2c0.5-0.3,1-0.4,1.6-0.4s1.1,0.2,1.6,0.4c0.5,0.3,0.9,0.7,1.1,1.2
						s0.4,1.1,0.4,1.7C194.4,90.4,194.3,90.6,194.3,90.7z M189.8,88.6c-0.4,0.4-0.6,0.8-0.7,1.3h4.1c-0.1-0.5-0.3-1-0.7-1.3
						c-0.4-0.4-0.8-0.5-1.4-0.5S190.2,88.2,189.8,88.6z"/>
					<path class="st3" d="M201.8,87.8c0.5,0.5,0.7,1.2,0.7,2.1v3.7h-1.2V90c0-0.6-0.2-1.1-0.4-1.4c-0.3-0.3-0.7-0.5-1.3-0.5
						c-0.6,0-1.1,0.2-1.5,0.5c-0.4,0.4-0.5,0.9-0.5,1.6v3.3h-1.2v-6.4h1.1v1c0.2-0.3,0.5-0.6,0.9-0.7c0.4-0.2,0.9-0.3,1.4-0.3
						C200.6,87.1,201.3,87.3,201.8,87.8z"/>
					<path class="st3" d="M208.7,93.2c-0.2,0.2-0.4,0.3-0.6,0.3c-0.2,0.1-0.5,0.1-0.8,0.1c-0.6,0-1.1-0.2-1.5-0.5
						c-0.4-0.4-0.5-0.8-0.5-1.5v-3.5h-1.1v-0.9h1.1v-1.4h1.2v1.4h1.8v0.9h-1.8v3.4c0,0.4,0.1,0.6,0.3,0.8c0.2,0.2,0.4,0.3,0.7,0.3
						c0.4,0,0.7-0.1,0.9-0.3L208.7,93.2z"/>
				</g>
			</g>
		</g>
		<g>
			<polygon class="st4" points="157.1,167.5 157.1,145.2 174.9,163 157.1,145.2 			"/>
			<polygon class="st4" points="176.4,163 157.1,143.7 157.1,143.7 			"/>
			<polygon class="st4" points="156.1,145.2 156.1,145.2 156,167.3 156,167.3 			"/>
			<path class="st4" d="M156.1,145.2l-16.5,16.5L156.1,145.2z"/>
			<path class="st4" d="M156.1,143.7l-18.6,18.6L156.1,143.7z"/>
			<polygon class="st4" points="156.1,145.2 156,167.3 156.4,167.2 156.4,167.2 156.7,167.1 156.9,167.3 157.1,167.5 157.1,145.2 
				156.6,144.7 156.1,145.2 			"/>
			<polygon class="st4" points="156.6,143.2 157.1,143.7 157.1,143.7 156.6,143.2 156.1,143.7 156.1,143.7 			"/>
			<polygon class="st4" points="130.2,174.4 130.2,174.4 156.4,168.3 			"/>
			<polygon class="st4" points="127.3,174 127.3,174 156,167.3 156,167.3 			"/>
			<polygon class="st4" points="156,167.3 156,167.3 156,167.3 			"/>
			<polygon class="st4" points="130.2,174.4 130.2,174.4 125.7,175.4 163.5,175.4 162.5,174.4 			"/>
			<polygon class="st4" points="156,167.3 156,167.3 156.4,167.2 156.4,167.2 			"/>
			<polygon class="st4" points="157.1,145.2 174.9,163 163.8,174.2 164.1,174.5 164.1,174.5 164.5,174.9 176.4,163 157.1,143.7 			
				"/>
			<polygon class="st4" points="156.4,167.2 156.9,167.3 156.7,167.1 			"/>
			<polygon class="st4" points="157.1,145.2 157.1,143.7 156.6,143.2 156.1,143.7 156.1,145.2 156.6,144.7 			"/>
			<polygon class="st4" points="164.1,174.5 163.8,175.4 164,175.4 164.5,174.9 			"/>
			<path class="st4" d="M157.1,167.5l6.7,6.7L157.1,167.5z"/>
			<path class="st4" d="M157.1,167.5L157.1,167.5L157.1,167.5z"/>
			<polygon class="st4" points="156,167.3 156,167.7 156,167.9 			"/>
			<polygon class="st4" points="163.8,174.2 157.1,167.5 164.1,174.5 164.1,174.5 			"/>
			<polygon class="st4" points="156,167.9 162.5,174.4 163.5,175.4 163.5,175.4 			"/>
			<polygon class="st4" points="156,167.9 156,167.7 156,167.3 127.3,174 127.3,174 139.6,161.7 156.1,145.2 156.1,143.7 
				137.4,162.3 124.3,175.4 125.6,175.4 125.7,175.4 130.2,174.4 156.4,168.3 162.5,174.4 			"/>
			<polygon class="st4" points="157.1,167.5 156.9,167.3 156.4,167.2 156,167.3 156,167.9 163.5,175.4 163.8,175.4 164.1,174.5 			
				"/>
			<g>
				<g>
					<path class="st4" d="M181.4,144v8.4h-1l-5.1-6.3v6.3h-1.2V144h1l5.1,6.3V144H181.4z"/>
					<path class="st4" d="M188.5,146.7c0.5,0.4,0.7,1.1,0.7,2v3.8h-1.1v-0.9c-0.2,0.3-0.5,0.5-0.8,0.7s-0.8,0.2-1.3,0.2
						c-0.7,0-1.3-0.2-1.7-0.5c-0.4-0.4-0.6-0.8-0.6-1.4c0-0.5,0.2-1,0.6-1.4c0.4-0.4,1.1-0.5,2-0.5h1.8v-0.2c0-0.5-0.2-0.9-0.4-1.1
						c-0.3-0.3-0.7-0.4-1.3-0.4c-0.4,0-0.7,0.1-1.1,0.2c-0.4,0.1-0.7,0.3-0.9,0.5l-0.5-0.9c0.3-0.3,0.7-0.5,1.2-0.6
						c0.5-0.2,0.9-0.2,1.4-0.2C187.4,146,188.1,146.2,188.5,146.7z M187.4,151.3c0.3-0.2,0.5-0.5,0.7-0.8v-0.9h-1.8
						c-1,0-1.5,0.3-1.5,1c0,0.3,0.1,0.6,0.4,0.7c0.2,0.2,0.6,0.3,1,0.3C186.7,151.6,187.1,151.5,187.4,151.3z"/>
					<path class="st4" d="M197.8,146.1v6.4h-1.1v-1c-0.2,0.3-0.5,0.6-0.9,0.8c-0.4,0.2-0.8,0.3-1.3,0.3c-0.9,0-1.5-0.2-2-0.7
						c-0.5-0.5-0.7-1.2-0.7-2.1v-3.7h1.2v3.5c0,0.6,0.2,1.1,0.4,1.4c0.3,0.3,0.7,0.5,1.3,0.5c0.6,0,1.1-0.2,1.4-0.5s0.5-0.9,0.5-1.6
						v-3.3L197.8,146.1L197.8,146.1z"/>
					<path class="st4" d="M200.1,148.7h6.3v1h-6.3V148.7z"/>
				</g>
				<g>
					<path class="st4" d="M190.9,163.3c-0.2,0.2-0.4,0.3-0.6,0.3c-0.2,0.1-0.5,0.1-0.8,0.1c-0.6,0-1.1-0.2-1.5-0.5
						c-0.4-0.4-0.5-0.8-0.5-1.5v-3.5h-1.1v-0.9h1.1v-1.4h1.2v1.4h1.8v0.9h-1.8v3.4c0,0.4,0.1,0.6,0.3,0.8c0.2,0.2,0.4,0.3,0.7,0.3
						c0.4,0,0.7-0.1,0.9-0.3L190.9,163.3z"/>
					<path class="st4" d="M192.8,157.3h1.2v6.4h-1.2V157.3z M194.2,155.4l-0.8,0.8l-0.8-0.8l0.8-0.8L194.2,155.4z"/>
					<path class="st4" d="M196.7,154.8h1.2v8.9h-1.2V154.8z"/>
					<path class="st4" d="M206.4,157.3v6.4h-1.1v-1c-0.2,0.3-0.5,0.6-0.9,0.8c-0.4,0.2-0.8,0.3-1.3,0.3c-0.9,0-1.5-0.2-2-0.7
						c-0.5-0.5-0.7-1.2-0.7-2.1v-3.7h1.2v3.5c0,0.6,0.2,1.1,0.4,1.4c0.3,0.3,0.7,0.5,1.3,0.5c0.6,0,1.1-0.2,1.4-0.5s0.5-0.9,0.5-1.6
						v-3.3L206.4,157.3L206.4,157.3z"/>
					<path class="st4" d="M209.4,163.6c-0.5-0.2-0.9-0.3-1.1-0.5l0.5-0.9c0.3,0.2,0.6,0.4,1,0.5c0.4,0.1,0.8,0.2,1.2,0.2
						c1,0,1.5-0.3,1.5-0.9c0-0.2-0.1-0.4-0.2-0.5c-0.1-0.1-0.3-0.2-0.5-0.2c-0.2,0-0.5-0.1-0.9-0.2c-0.5-0.1-0.9-0.2-1.3-0.3
						c-0.3-0.1-0.6-0.3-0.8-0.5c-0.2-0.2-0.4-0.6-0.4-1.1c0-0.6,0.2-1.1,0.7-1.4c0.5-0.4,1.1-0.5,2-0.5c0.4,0,0.9,0,1.3,0.2
						c0.4,0.1,0.8,0.2,1.1,0.4l-0.5,0.9c-0.5-0.4-1.1-0.5-1.8-0.5c-0.5,0-0.9,0.1-1.1,0.2c-0.3,0.2-0.4,0.4-0.4,0.6
						c0,0.2,0.1,0.4,0.2,0.5c0.2,0.1,0.3,0.2,0.5,0.3c0.2,0,0.5,0.1,0.9,0.2c0.5,0.1,0.9,0.2,1.3,0.3c0.3,0.1,0.6,0.3,0.8,0.5
						c0.2,0.2,0.4,0.6,0.4,1c0,0.6-0.2,1.1-0.7,1.4c-0.5,0.4-1.2,0.5-2,0.5C210.4,163.8,209.9,163.7,209.4,163.6z"/>
				</g>
				<g>
					<path class="st4" d="M184.8,170.7h1.2v3.3c-0.4,0.4-0.9,0.6-1.4,0.8c-0.5,0.2-1.1,0.3-1.7,0.3c-0.9,0-1.6-0.2-2.3-0.5
						c-0.7-0.4-1.2-0.9-1.6-1.5c-0.4-0.7-0.6-1.4-0.6-2.2c0-0.8,0.2-1.6,0.6-2.2c0.4-0.7,0.9-1.2,1.6-1.5c0.7-0.4,1.4-0.5,2.3-0.5
						c0.7,0,1.3,0.1,1.8,0.3c0.5,0.2,1,0.5,1.4,1l-0.7,0.7c-0.7-0.7-1.5-1-2.4-1c-0.6,0-1.2,0.2-1.7,0.4c-0.5,0.3-0.9,0.7-1.2,1.2
						c-0.3,0.5-0.4,1.1-0.4,1.7s0.2,1.2,0.4,1.6c0.3,0.5,0.7,0.9,1.2,1.2c0.5,0.3,1.1,0.4,1.7,0.4c0.7,0,1.4-0.2,2-0.5L184.8,170.7
						L184.8,170.7z"/>
					<path class="st4" d="M194.3,172.2h-5.2c0.1,0.5,0.3,1,0.7,1.4s0.9,0.5,1.6,0.5c0.7,0,1.4-0.3,1.8-0.8l0.6,0.7
						c-0.3,0.4-0.7,0.6-1.1,0.8s-0.9,0.3-1.4,0.3c-0.7,0-1.3-0.2-1.8-0.4c-0.5-0.3-0.9-0.7-1.2-1.2c-0.3-0.5-0.4-1.1-0.4-1.7
						s0.2-1.2,0.4-1.7c0.3-0.5,0.7-0.9,1.1-1.2c0.5-0.3,1-0.4,1.6-0.4s1.1,0.2,1.6,0.4c0.5,0.3,0.9,0.7,1.1,1.2
						c0.3,0.5,0.4,1.1,0.4,1.7C194.4,171.9,194.3,172,194.3,172.2z M189.8,170c-0.4,0.4-0.6,0.8-0.7,1.3h4.1c-0.1-0.5-0.3-1-0.7-1.3
						c-0.4-0.4-0.8-0.5-1.4-0.5S190.2,169.6,189.8,170z"/>
					<path class="st4" d="M201.8,169.2c0.5,0.5,0.7,1.2,0.7,2.1v3.7h-1.2v-3.5c0-0.6-0.2-1.1-0.4-1.4c-0.3-0.3-0.7-0.5-1.3-0.5
						c-0.6,0-1.1,0.2-1.5,0.5c-0.4,0.4-0.5,0.9-0.5,1.6v3.3h-1.2v-6.4h1.1v1c0.2-0.3,0.5-0.6,0.9-0.7c0.4-0.2,0.9-0.3,1.4-0.3
						C200.6,168.5,201.3,168.7,201.8,169.2z"/>
					<path class="st4" d="M208.7,174.6c-0.2,0.2-0.4,0.3-0.6,0.3c-0.2,0.1-0.5,0.1-0.8,0.1c-0.6,0-1.1-0.2-1.5-0.5
						c-0.4-0.4-0.5-0.8-0.5-1.5v-3.5h-1.1v-0.9h1.1v-1.4h1.2v1.4h1.8v0.9h-1.8v3.4c0,0.4,0.1,0.6,0.3,0.8c0.2,0.2,0.4,0.3,0.7,0.3
						c0.4,0,0.7-0.1,0.9-0.3L208.7,174.6z"/>
				</g>
			</g>
		</g>
	</g>
</g>
</svg>
