<?xml version="1.0" encoding="utf-8"?>
<!-- Generator: Adobe Illustrator 22.1.0, SVG Export Plug-In . SVG Version: 6.00 Build 0)  -->
<svg version="1.1" id="Layer_1" xmlns="http://www.w3.org/2000/svg" xmlns:xlink="http://www.w3.org/1999/xlink" x="0px" y="0px"
	 viewBox="0 0 240 240" style="enable-background:new 0 0 240 240;" xml:space="preserve">
<style type="text/css">
	.st0{fill:#FFFFFF;}
	.st1{fill:#EF7F6A;}
	.st2{fill:#E0533F;}
	.st3{fill:#1D1D1B;}
</style>
<g>
	<g>
		<polygon class="st0" points="96.2,149.3 71.4,124.6 120.4,114.9 71.4,124.6 		"/>
		<polygon class="st0" points="122.8,112.5 69.8,122.8 69.8,122.8 		"/>
		<polygon class="st0" points="69.7,126.2 69.7,126.2 94.3,150.8 94.3,150.8 		"/>
		<path class="st0" d="M69.7,126.2L61,171.7L69.7,126.2z"/>
		<path class="st0" d="M68.1,124.6l-9.8,51.3L68.1,124.6z"/>
		<polygon class="st1" points="69.7,126.2 94.3,150.8 94.8,150 94.8,150 95.2,149.5 95.8,149.3 96.2,149.3 71.4,124.6 70,124.8 
			69.7,126.2 		"/>
		<polygon class="st0" points="68.3,123.1 69.8,122.8 69.8,122.8 68.3,123.1 68.1,124.6 68.1,124.6 		"/>
		<polygon class="st0" points="59.8,201.2 59.8,201.2 96,151.3 		"/>
		<polygon class="st0" points="54.6,205.5 54.6,205.5 94.3,150.8 94.3,150.8 		"/>
		<polygon class="st0" points="94.3,150.8 94.3,150.8 94.3,150.8 		"/>
		<polygon class="st1" points="59.8,201.2 59.8,201.2 53.6,209.9 115.6,147.5 112.7,148 		"/>
		<polygon class="st0" points="94.3,150.8 94.3,150.8 94.8,150 94.8,150 		"/>
		<path class="st0" d="M96.2,149.3l18.3-3.6L96.2,149.3z"/>
		<path class="st0" d="M96.2,149.3L96.2,149.3L96.2,149.3z"/>
		<polygon class="st0" points="94.3,150.8 94.8,151.3 95,151.5 		"/>
		<polygon class="st0" points="114.5,145.7 96.2,149.3 115.6,145.5 115.6,145.5 		"/>
		<polygon class="st0" points="95,151.5 112.7,148 115.6,147.5 115.6,147.5 		"/>
		<polygon class="st2" points="69.8,122.8 68.3,123.1 68.1,124.6 58.3,175.9 51.4,212.1 53.5,209.9 53.6,209.9 59.8,201.2 96,151.3 
			112.7,148 95,151.5 94.8,151.3 94.3,150.8 54.6,205.5 54.6,205.5 61,171.7 69.7,126.2 70,124.8 71.4,124.6 120.4,114.9 
			114.5,145.7 115.6,145.5 115.6,145.5 96.2,149.3 96.2,149.3 95.8,149.3 95.2,149.5 94.8,150 94.3,150.8 95,151.5 115.6,147.5 
			116,147.1 116.3,146.8 116.6,145.3 122.8,112.5 		"/>
		<g>
			<g>
				<path class="st3" d="M109.9,83.3l9.4,9.3l-1.6,1.6l-15.3,1.3l7,7l-2,2L98,95.2l1.6-1.6l15.3-1.3l-7-7L109.9,83.3z"/>
				<path class="st3" d="M124.5,74.4c1.2-0.3,2.4,0.1,3.3,1l4.3,4.3l-1.8,1.8l-1-1c0,0.7-0.2,1.3-0.6,2.1c-0.4,0.8-1,1.6-1.8,2.3
					c-1.2,1.2-2.3,2-3.4,2.3s-1.9,0.2-2.6-0.5c-0.6-0.6-0.8-1.5-0.5-2.6c0.2-1,1.2-2.3,2.6-3.8l3-3l-0.2-0.2c-0.6-0.6-1.2-0.7-2-0.5
					c-0.8,0.1-1.6,0.7-2.6,1.7c-0.6,0.6-1.1,1.3-1.6,2c-0.4,0.7-0.8,1.4-0.9,2l-1.7-0.2c0.2-0.8,0.6-1.7,1.2-2.6
					c0.6-0.9,1.3-1.8,2.2-2.6C121.9,75.5,123.3,74.7,124.5,74.4z M127.9,81.4c0.3-0.7,0.4-1.4,0.2-2.1l-1-1l-3,3
					c-1.6,1.6-2.1,2.8-1.3,3.5c0.3,0.3,0.8,0.5,1.5,0.2c0.6-0.2,1.3-0.7,2-1.4C127,82.9,127.6,82.1,127.9,81.4z"/>
				<path class="st3" d="M139.1,58.4l7.1,7.1l-1.8,1.8l-1.1-1.1c0,0.7-0.2,1.6-0.7,2.4c-0.4,0.9-1,1.6-1.7,2.4
					c-1.4,1.4-2.8,2.3-4.1,2.5c-1.4,0.3-2.5-0.1-3.5-1.1l-4.1-4.1l1.9-1.9l3.9,3.9c0.7,0.7,1.5,1,2.3,0.9c0.9-0.2,1.7-0.6,2.6-1.6
					c1-1,1.6-2,1.8-3c0.2-1-0.1-1.9-0.8-2.6l-3.7-3.6L139.1,58.4L139.1,58.4z"/>
				<path class="st3" d="M145.7,57.5L156,47.2l1.1,1.1l-10.3,10.4L145.7,57.5z"/>
			</g>
			<g>
				<path class="st3" d="M147,88.9c-0.1,0.4-0.3,0.9-0.7,1.4c-0.3,0.5-0.7,1-1.2,1.4c-1,1-2,1.7-3,1.9c-1,0.2-1.8,0-2.6-0.7
					l-3.9-3.9l-1.8,1.8l-1-1l1.8-1.8l-1.6-1.6l1.9-1.9l1.6,1.6l3-3l1,1l-3,3l3.8,3.8c0.4,0.4,0.8,0.6,1.3,0.4c0.5,0,1-0.4,1.5-0.9
					c0.6-0.6,1-1.2,1.1-1.8L147,88.9z"/>
				<path class="st3" d="M143.4,79.1l1.9-1.9l7.1,7.1l-1.9,1.9L143.4,79.1z M143.4,74.7L143,77l-2.3,0.4l0.4-2.3L143.4,74.7z"/>
				<path class="st3" d="M146.8,70l1.9-1.9l9.9,9.9l-1.9,1.9L146.8,70z"/>
				<path class="st3" d="M165.6,56.7l7.1,7.1l-1.8,1.8l-1.1-1.1c0,0.7-0.2,1.6-0.7,2.4c-0.4,0.9-1,1.6-1.7,2.4
					c-1.4,1.4-2.8,2.3-4.1,2.5c-1.4,0.3-2.5-0.1-3.5-1.1l-4.1-4.1l1.9-1.9l3.9,3.9c0.7,0.7,1.5,1,2.3,0.9c0.9-0.2,1.7-0.6,2.6-1.6
					c1-1,1.6-2,1.8-3c0.2-1-0.1-1.9-0.8-2.6l-3.7-3.6L165.6,56.7L165.6,56.7z"/>
				<path class="st3" d="M177.6,58.7c-0.9,0.6-1.8,1.1-2.5,1.3l-0.2-1.8c0.7-0.2,1.4-0.6,2.2-1.2c0.8-0.5,1.6-1.1,2.2-1.8
					c1.7-1.7,2.2-2.8,1.5-3.5c-0.2-0.2-0.5-0.3-0.8-0.2c-0.3,0.1-0.7,0.3-1.1,0.6c-0.4,0.3-1,0.7-1.6,1.2c-0.9,0.8-1.7,1.4-2.4,1.8
					c-0.6,0.4-1.3,0.7-2,0.7c-0.6,0.1-1.2-0.1-1.8-0.6c-0.7-0.7-0.8-1.6-0.4-2.7c0.4-1.2,1.3-2.4,2.6-3.8c0.7-0.7,1.5-1.4,2.3-2
					c0.8-0.6,1.5-1,2.2-1.3l0.2,1.8c-1.2,0.4-2.4,1.3-3.6,2.5c-0.8,0.8-1.3,1.5-1.6,2.1s-0.2,1.1,0.1,1.3c0.2,0.2,0.6,0.3,1,0.2
					c0.4-0.1,0.7-0.3,1.2-0.6c0.4-0.3,1-0.7,1.7-1.3c0.9-0.8,1.8-1.3,2.4-1.8c0.6-0.4,1.3-0.7,1.9-0.8c0.6-0.1,1.2,0.1,1.7,0.5
					c0.7,0.7,0.8,1.6,0.3,2.7c-0.4,1.2-1.4,2.5-2.8,3.9C179.4,57.3,178.5,58.1,177.6,58.7z"/>
			</g>
			<g>
				<path class="st3" d="M145.2,107.1l1.9-1.9l3.7,3.6c-0.3,1.1-0.8,2.2-1.5,3.3c-0.7,1.1-1.6,2.2-2.5,3.1c-1.4,1.4-2.8,2.4-4.4,3.2
					c-1.5,0.7-3,1-4.3,1c-1.4-0.1-2.5-0.6-3.4-1.5c-0.9-0.9-1.4-2.1-1.5-3.4s0.2-2.9,0.9-4.3c0.8-1.6,1.8-3,3.2-4.4
					c1.1-1.1,2.2-2,3.4-2.7c1.2-0.6,2.3-1.1,3.4-1.2l-0.4,2.1c-1.8,0.4-3.5,1.4-5.1,2.9c-1,1-1.8,2.2-2.3,3.3
					c-0.5,1.1-0.7,2.2-0.7,3.3c0.1,1,0.5,1.9,1.2,2.6c0.7,0.7,1.6,1,2.5,1.1c1,0.1,2.2-0.2,3.3-0.7c1.1-0.5,2.3-1.3,3.3-2.4
					c1.2-1.2,2.1-2.5,2.6-3.8L145.2,107.1L145.2,107.1z"/>
				<path class="st3" d="M162.4,93.1l-8.5,8.5c0.7,0.5,1.6,0.6,2.7,0.3c1.1-0.3,2.1-1,3.1-2c1.2-1.2,1.9-2.6,2.1-3.9l1.9-0.2
					c-0.1,0.8-0.4,1.7-0.9,2.7c-0.5,0.9-1.2,1.8-2.1,2.7c-1.1,1.1-2.2,1.9-3.4,2.5c-1.1,0.5-2.3,0.8-3.3,0.7s-1.9-0.5-2.6-1.2
					c-0.7-0.7-1.1-1.6-1.2-2.6c-0.1-1,0.1-2.1,0.6-3.2c0.5-1.1,1.2-2.2,2.2-3.2c1-1,2-1.7,3.2-2.2c1.1-0.5,2.2-0.7,3.2-0.6
					c1,0.1,1.8,0.5,2.6,1.3C162.2,92.7,162.3,92.9,162.4,93.1z M152.6,98.2c-0.2,1-0.1,1.8,0.4,2.6l6.7-6.8
					c-0.7-0.5-1.5-0.6-2.6-0.4c-1,0.3-1.9,0.8-2.9,1.8C153.4,96.2,152.8,97.1,152.6,98.2z"/>
				<path class="st3" d="M171.3,77.5c1.3-0.3,2.5,0.1,3.5,1.1l4.1,4.1l-1.9,1.9l-3.9-3.9c-0.7-0.7-1.5-1-2.3-0.9
					c-0.9,0.2-1.7,0.6-2.6,1.6c-1,1-1.6,2.1-1.8,3.1c-0.2,1,0.1,1.9,0.8,2.6l3.7,3.6l-1.9,1.9l-7.1-7.1l1.8-1.8l1.1,1.1
					c0-0.7,0.2-1.6,0.7-2.4c0.4-0.9,1.1-1.7,1.9-2.6C168.7,78.6,170,77.8,171.3,77.5z"/>
				<path class="st3" d="M188.6,72.1c-0.1,0.4-0.3,0.9-0.7,1.4c-0.3,0.5-0.7,1-1.2,1.4c-1,1-2,1.7-3,1.9c-1,0.2-1.8,0-2.6-0.7
					l-3.9-3.9l-1.8,1.8l-1-1l1.8-1.8l-1.6-1.6l1.9-1.9l1.6,1.6l3-3l1,1l-3,3l3.8,3.8c0.4,0.4,0.8,0.6,1.3,0.4c0.5,0,1-0.4,1.5-0.9
					c0.6-0.6,1-1.2,1.1-1.8L188.6,72.1z"/>
			</g>
		</g>
	</g>
</g>
</svg>
