<?xml version="1.0" encoding="utf-8"?>
<!-- Generator: Adobe Illustrator 22.1.0, SVG Export Plug-In . SVG Version: 6.00 Build 0)  -->
<svg version="1.1" id="Layer_1" xmlns="http://www.w3.org/2000/svg" xmlns:xlink="http://www.w3.org/1999/xlink" x="0px" y="0px"
	 viewBox="0 0 600 450" style="enable-background:new 0 0 600 450;" xml:space="preserve">
<style type="text/css">
	.st0{fill:none;}
	.st1{fill:#EA5B5D;}
	.st2{font-family:'Lora-Regular';}
	.st3{font-size:19px;}
	.st4{fill:#5B5BA5;}
	.st5{fill:#FBDE1D;}
	.st6{fill:#48B276;}
</style>
<g>
	<rect x="20.3" y="17" class="st0" width="264" height="199.5"/>
	<text transform="matrix(1 0 0 1 20.2641 31.3059)"><tspan x="0" y="0" class="st1 st2 st3">Lorem ipsum dolor sit amet, </tspan><tspan x="0" y="22.8" class="st1 st2 st3">consectetuer adipiscing elit, </tspan><tspan x="0" y="45.6" class="st1 st2 st3">sed diam nonummy nibh eu</tspan><tspan x="244.4" y="45.6" class="st1 st2 st3">-</tspan><tspan x="0" y="68.4" class="st1 st2 st3">ismod tincidunt ut laoreet </tspan><tspan x="0" y="91.2" class="st1 st2 st3">dolore magna aliquam erat </tspan><tspan x="0" y="114" class="st1 st2 st3">volutpat. Ut wisi enim ad </tspan><tspan x="0" y="136.8" class="st1 st2 st3">minim veniam, quis nostrud </tspan><tspan x="0" y="159.6" class="st1 st2 st3">exerci tation ullamcorper </tspan><tspan x="0" y="182.4" class="st1 st2 st3">suscipit lobortis nisl ut ali</tspan></text>
	<rect x="315.7" y="17" class="st0" width="264" height="199.5"/>
	<text transform="matrix(1 0 0 1 315.7493 31.3059)"><tspan x="0" y="0" class="st4 st2 st3">Lorem ipsum dolor sit amet, </tspan><tspan x="0" y="22.8" class="st4 st2 st3">consectetuer adipiscing elit, </tspan><tspan x="0" y="45.6" class="st4 st2 st3">sed diam nonummy nibh eu</tspan><tspan x="244.4" y="45.6" class="st4 st2 st3">-</tspan><tspan x="0" y="68.4" class="st4 st2 st3">ismod tincidunt ut laoreet </tspan><tspan x="0" y="91.2" class="st4 st2 st3">dolore magna aliquam erat </tspan><tspan x="0" y="114" class="st4 st2 st3">volutpat. Ut wisi enim ad </tspan><tspan x="0" y="136.8" class="st4 st2 st3">minim veniam, quis nostrud </tspan><tspan x="0" y="159.6" class="st4 st2 st3">exerci tation ullamcorper </tspan><tspan x="0" y="182.4" class="st4 st2 st3">suscipit lobortis nisl ut ali</tspan></text>
	<rect x="20.3" y="233" class="st0" width="264" height="199.5"/>
	<text transform="matrix(1 0 0 1 20.2641 247.2951)"><tspan x="0" y="0" class="st5 st2 st3">Lorem ipsum dolor sit amet, </tspan><tspan x="0" y="22.8" class="st5 st2 st3">consectetuer adipiscing elit, </tspan><tspan x="0" y="45.6" class="st5 st2 st3">sed diam nonummy nibh eu</tspan><tspan x="244.4" y="45.6" class="st5 st2 st3">-</tspan><tspan x="0" y="68.4" class="st5 st2 st3">ismod tincidunt ut laoreet </tspan><tspan x="0" y="91.2" class="st5 st2 st3">dolore magna aliquam erat </tspan><tspan x="0" y="114" class="st5 st2 st3">volutpat. Ut wisi enim ad </tspan><tspan x="0" y="136.8" class="st5 st2 st3">minim veniam, quis nostrud </tspan><tspan x="0" y="159.6" class="st5 st2 st3">exerci tation ullamcorper </tspan><tspan x="0" y="182.4" class="st5 st2 st3">suscipit lobortis nisl ut ali</tspan></text>
	<rect x="315.7" y="233" class="st0" width="264" height="199.5"/>
	<text transform="matrix(1 0 0 1 315.7493 247.2951)"><tspan x="0" y="0" class="st6 st2 st3">Lorem ipsum dolor sit amet, </tspan><tspan x="0" y="22.8" class="st6 st2 st3">consectetuer adipiscing elit, </tspan><tspan x="0" y="45.6" class="st6 st2 st3">sed diam nonummy nibh eu</tspan><tspan x="244.4" y="45.6" class="st6 st2 st3">-</tspan><tspan x="0" y="68.4" class="st6 st2 st3">ismod tincidunt ut laoreet </tspan><tspan x="0" y="91.2" class="st6 st2 st3">dolore magna aliquam erat </tspan><tspan x="0" y="114" class="st6 st2 st3">volutpat. Ut wisi enim ad </tspan><tspan x="0" y="136.8" class="st6 st2 st3">minim veniam, quis nostrud </tspan><tspan x="0" y="159.6" class="st6 st2 st3">exerci tation ullamcorper </tspan><tspan x="0" y="182.4" class="st6 st2 st3">suscipit lobortis nisl ut ali</tspan></text>
</g>
</svg>
