<?xml version="1.0" encoding="utf-8"?>
<!-- Generator: Adobe Illustrator 22.1.0, SVG Export Plug-In . SVG Version: 6.00 Build 0)  -->
<svg version="1.1" id="Layer_1" xmlns="http://www.w3.org/2000/svg" xmlns:xlink="http://www.w3.org/1999/xlink" x="0px" y="0px"
	 viewBox="0 0 240 240" style="enable-background:new 0 0 240 240;" xml:space="preserve">
<style type="text/css">
	.st0{fill:#48B276;}
	.st1{fill:#FBDE1D;}
</style>
<rect x="0.4" class="st0" width="239.6" height="240"/>
<g>
	<polygon class="st1" points="93.4,138.2 93.4,88.6 133.1,128.2 93.4,88.6 	"/>
	<polygon class="st1" points="136.4,128.2 93.5,85.3 93.5,85.3 	"/>
	<polygon class="st1" points="91.1,88.6 91.1,88.6 91.1,137.8 91.1,137.8 	"/>
	<path class="st1" d="M91.1,88.6l-36.8,36.7L91.1,88.6z"/>
	<path class="st1" d="M91.1,85.3l-41.5,41.4L91.1,85.3z"/>
	<polygon class="st1" points="91.1,88.6 91.1,137.8 91.9,137.6 91.9,137.6 92.5,137.4 93.1,137.9 93.4,138.2 93.4,88.6 92.3,87.4 	
		"/>
	<polygon class="st1" points="92.3,84.1 93.5,85.3 93.5,85.3 92.3,84.1 91.1,85.3 91.1,85.3 	"/>
	<polygon class="st1" points="33.5,153.6 33.5,153.6 91.8,140 	"/>
	<polygon class="st1" points="27.1,152.6 27.1,152.6 91.1,137.8 91.1,137.8 	"/>
	<path class="st1" d="M91.1,137.8L91.1,137.8L91.1,137.8z"/>
	<polygon class="st1" points="33.5,153.6 33.5,153.6 23.4,155.9 107.7,155.9 105.4,153.6 	"/>
	<polygon class="st1" points="91.1,137.8 91.1,137.8 91.9,137.6 91.9,137.6 	"/>
	<polygon class="st1" points="93.4,88.6 133.1,128.2 108.2,153 109,153.9 109,153.9 109.9,154.7 136.4,128.2 93.5,85.3 	"/>
	<polygon class="st1" points="91.9,137.6 93.1,137.9 92.5,137.4 	"/>
	<polygon class="st1" points="93.4,88.6 93.5,85.3 92.3,84.1 91.1,85.3 91.1,88.6 92.3,87.4 	"/>
	<polygon class="st1" points="109,153.9 108.2,155.9 108.7,155.9 109.9,154.7 	"/>
	<path class="st1" d="M93.4,138.2l14.8,14.8L93.4,138.2z"/>
	<path class="st1" d="M93.4,138.2L93.4,138.2L93.4,138.2z"/>
	<polygon class="st1" points="91.1,137.8 91.1,138.7 91.1,139.2 	"/>
	<polygon class="st1" points="108.2,153 93.4,138.2 109,153.9 109,153.9 	"/>
	<polygon class="st1" points="91.1,139.2 105.4,153.6 107.7,155.9 107.7,155.9 	"/>
	<polygon class="st1" points="91.1,139.2 91.1,138.7 91.1,137.8 27.1,152.6 27.1,152.6 54.4,125.3 91.1,88.6 91.1,85.3 49.7,126.7 
		20.5,155.9 23.3,155.9 23.4,155.9 33.5,153.6 91.8,140 105.4,153.6 	"/>
	<polygon class="st1" points="93.4,138.2 93.1,137.9 91.9,137.6 91.1,137.8 91.1,139.2 107.7,155.9 108.2,155.9 109,153.9 	"/>
	<g>
		<g>
			<path class="st1" d="M147.5,86v18.7h-2.2l-11.2-14v14h-2.7V86h2.2l11.2,14V86H147.5z"/>
			<path class="st1" d="M163.4,91.8c1,1,1.6,2.4,1.6,4.4v8.5h-2.4v-1.9c-0.4,0.7-1,1.1-1.8,1.5c-0.8,0.3-1.7,0.5-2.8,0.5
				c-1.6,0-2.9-0.3-3.8-1.1c-1-0.8-1.4-1.7-1.4-3.1c0-1.2,0.4-2.3,1.4-3.1c0.9-0.8,2.4-1.1,4.4-1.1h4.1V96c0-1.1-0.3-1.9-1-2.5
				c-0.6-0.6-1.6-0.9-2.9-0.9c-0.9,0-1.7,0.2-2.4,0.4c-0.8,0.3-1.5,0.6-2,1.1l-1-1.9c0.7-0.6,1.6-1,2.6-1.4c1-0.3,2.1-0.4,3.2-0.4
				C160.9,90.4,162.4,90.9,163.4,91.8z M160.9,102.2c0.7-0.4,1.2-1,1.6-1.8v-2h-4c-2.2,0-3.3,0.7-3.3,2.2c0,0.7,0.3,1.3,0.9,1.7
				c0.5,0.4,1.3,0.6,2.3,0.6C159.3,102.9,160.2,102.7,160.9,102.2z"/>
			<path class="st1" d="M184.1,90.5v14.2h-2.4v-2.2c-0.5,0.7-1.2,1.3-2.1,1.7c-0.9,0.4-1.7,0.6-2.8,0.6c-1.9,0-3.4-0.5-4.4-1.6
				c-1.1-1-1.7-2.6-1.7-4.6v-8.2h2.6v7.8c0,1.4,0.3,2.4,1,3.1s1.6,1,2.9,1c1.4,0,2.4-0.4,3.2-1.2c0.8-0.8,1.2-2,1.2-3.5v-7.3
				L184.1,90.5L184.1,90.5z"/>
			<path class="st1" d="M189.1,96.3h14v2.3h-14V96.3z"/>
		</g>
		<g>
			<path class="st1" d="M168.7,129c-0.3,0.3-0.9,0.6-1.4,0.7c-0.5,0.2-1.1,0.3-1.7,0.3c-1.4,0-2.5-0.3-3.3-1.1s-1.2-1.8-1.2-3.3
				v-7.8h-2.4v-2.1h2.4v-3.1h2.6v3.1h4.1v2.1h-4.1v7.7c0,0.8,0.2,1.4,0.6,1.7c0.3,0.4,1,0.6,1.7,0.6c0.8,0,1.5-0.3,2-0.7L168.7,129z
				"/>
			<path class="st1" d="M172.9,115.6h2.6v14.2h-2.6V115.6z M176,111.2l-1.8,1.8l-1.8-1.8l1.8-1.8L176,111.2z"/>
			<path class="st1" d="M181.5,109.9h2.6v19.9h-2.6V109.9z"/>
			<path class="st1" d="M203.2,115.6v14.2h-2.4v-2.2c-0.5,0.7-1.2,1.3-2.1,1.7c-0.9,0.4-1.7,0.6-2.8,0.6c-1.9,0-3.4-0.5-4.4-1.6
				c-1.1-1-1.7-2.6-1.7-4.6v-8.2h2.6v7.8c0,1.4,0.3,2.4,1,3.1s1.6,1,2.9,1c1.4,0,2.4-0.4,3.2-1.2c0.8-0.8,1.2-2,1.2-3.5v-7.3
				L203.2,115.6L203.2,115.6z"/>
			<path class="st1" d="M209.9,129.5c-1-0.3-1.9-0.7-2.5-1.2l1-2c0.6,0.4,1.4,0.8,2.3,1c0.9,0.3,1.8,0.4,2.7,0.4
				c2.3,0,3.4-0.6,3.4-1.9c0-0.4-0.2-0.8-0.4-1c-0.3-0.3-0.7-0.4-1.1-0.5c-0.4-0.1-1.1-0.3-1.9-0.3c-1.1-0.2-2.1-0.3-2.8-0.6
				c-0.7-0.3-1.3-0.6-1.8-1.2c-0.5-0.5-0.8-1.3-0.8-2.4c0-1.3,0.5-2.4,1.6-3.1c1-0.8,2.5-1.1,4.4-1.1c1,0,1.9,0.1,2.9,0.3
				s1.7,0.5,2.4,1l-1.1,2c-1.1-0.8-2.5-1.1-4.1-1.1c-1.1,0-1.9,0.2-2.5,0.5s-0.9,0.9-0.9,1.4c0,0.4,0.2,0.9,0.5,1.1
				c0.3,0.3,0.7,0.4,1.2,0.6c0.4,0.1,1.1,0.3,2,0.4c1.1,0.2,2.1,0.4,2.8,0.6c0.7,0.3,1.3,0.6,1.8,1.1s0.8,1.3,0.8,2.3
				c0,1.3-0.5,2.4-1.7,3.1c-1.1,0.8-2.6,1.1-4.5,1.1C212,129.9,210.9,129.8,209.9,129.5z"/>
		</g>
		<g>
			<path class="st1" d="M155.1,145.4h2.6v7.3c-1,0.8-2,1.4-3.2,1.7c-1.2,0.4-2.5,0.6-3.8,0.6c-1.9,0-3.6-0.4-5.1-1.2
				c-1.5-0.9-2.7-2-3.6-3.4c-0.9-1.5-1.3-3.1-1.3-4.9c0-1.8,0.4-3.5,1.3-5c0.9-1.5,2.1-2.6,3.6-3.4c1.6-0.8,3.2-1.2,5.1-1.2
				c1.5,0,2.9,0.3,4.1,0.7c1.2,0.5,2.3,1.2,3.1,2.2l-1.7,1.7c-1.5-1.5-3.3-2.2-5.4-2.2c-1.4,0-2.7,0.3-3.8,1c-1.1,0.6-2,1.5-2.7,2.6
				c-0.6,1.1-1,2.4-1,3.7c0,1.4,0.3,2.6,1,3.7c0.6,1.1,1.6,2,2.7,2.6c1.1,0.6,2.4,1,3.8,1c1.7,0,3.1-0.4,4.4-1.2L155.1,145.4
				L155.1,145.4z"/>
			<path class="st1" d="M176.3,148.6h-11.5c0.2,1.2,0.7,2.3,1.7,3.1s2.1,1.1,3.5,1.1c1.7,0,3.1-0.6,4.1-1.7l1.4,1.7
				c-0.6,0.8-1.5,1.3-2.4,1.7c-1,0.4-2,0.6-3.2,0.6c-1.5,0-2.8-0.3-4-1c-1.1-0.6-2.1-1.5-2.7-2.6c-0.6-1.1-1-2.4-1-3.7
				c0-1.4,0.3-2.6,1-3.7c0.6-1.1,1.5-2,2.5-2.6s2.3-1,3.7-1s2.5,0.3,3.7,1c1,0.6,1.9,1.5,2.5,2.6s0.9,2.4,0.9,3.8
				C176.4,148,176.3,148.2,176.3,148.6z M166.2,143.8c-0.9,0.8-1.3,1.7-1.5,3h9.2c-0.2-1.2-0.6-2.2-1.5-3s-1.8-1.1-3.1-1.1
				C167.9,142.7,167.1,143,166.2,143.8z"/>
			<path class="st1" d="M192.9,142.1c1,1,1.6,2.6,1.6,4.6v8.2h-2.6V147c0-1.4-0.3-2.4-1-3.1c-0.7-0.7-1.6-1-2.9-1
				c-1.4,0-2.5,0.4-3.3,1.2s-1.2,2-1.2,3.5v7.3h-2.6v-14.2h2.4v2.2c0.5-0.7,1.2-1.3,2.1-1.7c0.9-0.4,1.9-0.6,3.1-0.6
				C190.3,140.5,191.8,141,192.9,142.1z"/>
			<path class="st1" d="M208.2,154c-0.3,0.3-0.9,0.6-1.4,0.7c-0.5,0.2-1.1,0.3-1.7,0.3c-1.4,0-2.5-0.3-3.3-1.1s-1.2-1.8-1.2-3.3
				v-7.8h-2.4v-2.1h2.4v-3.1h2.6v3.1h4.1v2.1h-4.1v7.7c0,0.8,0.2,1.4,0.6,1.7c0.3,0.4,1,0.6,1.7,0.6c0.8,0,1.5-0.3,2-0.7L208.2,154z
				"/>
		</g>
	</g>
</g>
</svg>
