<?xml version="1.0" encoding="utf-8"?>
<!-- Generator: Adobe Illustrator 22.1.0, SVG Export Plug-In . SVG Version: 6.00 Build 0)  -->
<svg version="1.1" id="Layer_1" xmlns="http://www.w3.org/2000/svg" xmlns:xlink="http://www.w3.org/1999/xlink" x="0px" y="0px"
	 viewBox="0 0 600 200" style="enable-background:new 0 0 600 200;" xml:space="preserve">
<g>
	<g>
		<path d="M395.3,49.2H407c3,0,5.7,0.6,8,1.8c2.3,1.2,4.1,2.9,5.4,5.1c1.3,2.2,1.9,4.7,1.9,7.4s-0.6,5.3-1.9,7.4
			c-1.3,2.2-3.1,3.9-5.4,5.1c-2.3,1.2-5,1.8-8,1.8h-11.7V49.2z M406.9,75.3c2.5,0,4.7-0.5,6.6-1.5c1.9-1,3.3-2.4,4.4-4.1
			s1.6-3.8,1.6-6.1s-0.5-4.3-1.6-6.1c-1-1.8-2.5-3.1-4.4-4.1c-1.9-1-4.1-1.5-6.6-1.5h-8.5v23.5H406.9z"/>
		<path d="M424.5,51c-0.4-0.4-0.6-0.9-0.6-1.5c0-0.5,0.2-1,0.6-1.4c0.4-0.4,0.9-0.6,1.5-0.6c0.6,0,1.1,0.2,1.5,0.6
			c0.4,0.4,0.6,0.9,0.6,1.4c0,0.6-0.2,1.1-0.6,1.5s-0.9,0.6-1.5,0.6C425.4,51.6,424.9,51.4,424.5,51z M424.5,56.4h2.9v21.6h-2.9
			V56.4z"/>
		<path d="M442.8,76.6c-0.5,0.5-1.2,0.9-2,1.1c-0.8,0.3-1.6,0.4-2.5,0.4c-2,0-3.6-0.5-4.7-1.6c-1.1-1.1-1.6-2.6-1.6-4.6v-13h-3.9
			v-2.5h3.9v-4.7h2.9v4.7h6.6v2.5h-6.6v12.9c0,1.3,0.3,2.3,1,2.9c0.6,0.7,1.6,1,2.8,1c0.6,0,1.2-0.1,1.7-0.3c0.6-0.2,1-0.5,1.5-0.8
			L442.8,76.6z"/>
		<path d="M450.6,51c-0.4-0.4-0.6-0.9-0.6-1.5c0-0.5,0.2-1,0.6-1.4c0.4-0.4,0.9-0.6,1.5-0.6c0.6,0,1.1,0.2,1.5,0.6
			c0.4,0.4,0.6,0.9,0.6,1.4c0,0.6-0.2,1.1-0.6,1.5s-0.9,0.6-1.5,0.6C451.5,51.6,451,51.4,450.6,51z M450.6,56.4h2.9v21.6h-2.9V56.4z
			"/>
		<path d="M458.3,77.4c-1.6-0.5-2.8-1.1-3.8-1.9l1.3-2.3c0.9,0.7,2,1.3,3.4,1.7c1.4,0.5,2.8,0.7,4.3,0.7c2,0,3.4-0.3,4.4-0.9
			s1.4-1.5,1.4-2.6c0-0.8-0.3-1.4-0.8-1.9c-0.5-0.5-1.2-0.8-2-1c-0.8-0.2-1.8-0.5-3.2-0.7c-1.8-0.3-3.2-0.7-4.2-1
			c-1.1-0.3-2-0.9-2.7-1.7c-0.8-0.8-1.1-2-1.1-3.4c0-1.8,0.8-3.3,2.3-4.4c1.5-1.1,3.6-1.7,6.3-1.7c1.4,0,2.8,0.2,4.2,0.6
			c1.4,0.4,2.5,0.9,3.4,1.5l-1.3,2.3c-1.8-1.2-3.9-1.8-6.4-1.8c-1.9,0-3.3,0.3-4.2,1c-0.9,0.7-1.4,1.5-1.4,2.6c0,0.8,0.3,1.5,0.8,2
			c0.5,0.5,1.2,0.9,2,1.1c0.8,0.2,1.9,0.5,3.3,0.7c1.7,0.3,3.1,0.7,4.1,1c1,0.3,1.9,0.9,2.7,1.7c0.7,0.8,1.1,1.9,1.1,3.3
			c0,1.9-0.8,3.4-2.4,4.5c-1.6,1.1-3.8,1.7-6.5,1.7C461.6,78.1,459.9,77.9,458.3,77.4z"/>
		<path d="M491.5,76.6c-0.5,0.5-1.2,0.9-2,1.1c-0.8,0.3-1.6,0.4-2.5,0.4c-2,0-3.6-0.5-4.7-1.6c-1.1-1.1-1.6-2.6-1.6-4.6v-13h-3.9
			v-2.5h3.9v-4.7h2.9v4.7h6.6v2.5h-6.6v12.9c0,1.3,0.3,2.3,1,2.9c0.6,0.7,1.6,1,2.8,1c0.6,0,1.2-0.1,1.7-0.3s1-0.5,1.5-0.8
			L491.5,76.6z"/>
		<path d="M510.7,68h-18c0.2,2.2,1,4.1,2.6,5.4c1.6,1.4,3.5,2.1,5.9,2.1c1.3,0,2.6-0.2,3.7-0.7c1.1-0.5,2.1-1.2,2.9-2.1l1.6,1.9
			c-1,1.1-2.2,2-3.6,2.6c-1.4,0.6-3,0.9-4.7,0.9c-2.2,0-4.2-0.5-5.9-1.4c-1.7-0.9-3-2.2-4-3.9s-1.4-3.6-1.4-5.7c0-2.1,0.5-4,1.4-5.7
			c0.9-1.7,2.2-3,3.8-3.9s3.4-1.4,5.4-1.4c2,0,3.8,0.5,5.4,1.4c1.6,0.9,2.8,2.2,3.7,3.9c0.9,1.7,1.4,3.5,1.4,5.7L510.7,68z
			 M495,60.7c-1.4,1.3-2.2,3.1-2.4,5.2h15.3c-0.2-2.1-1-3.9-2.4-5.2c-1.4-1.3-3.2-2-5.3-2C498.2,58.7,496.4,59.4,495,60.7z"/>
		<path d="M520.6,67.1l-5.1,4.7v6.2h-2.9V47.5h2.9v20.6l12.9-11.8h3.6l-9.2,8.8l10.1,12.8h-3.6L520.6,67.1z"/>
		<path d="M533.2,77.4c-1.6-0.5-2.8-1.1-3.8-1.9l1.3-2.3c0.9,0.7,2,1.3,3.4,1.7c1.4,0.5,2.8,0.7,4.3,0.7c2,0,3.4-0.3,4.4-0.9
			s1.4-1.5,1.4-2.6c0-0.8-0.3-1.4-0.8-1.9c-0.5-0.5-1.2-0.8-2-1c-0.8-0.2-1.8-0.5-3.2-0.7c-1.8-0.3-3.2-0.7-4.2-1
			c-1.1-0.3-2-0.9-2.7-1.7c-0.8-0.8-1.1-2-1.1-3.4c0-1.8,0.8-3.3,2.3-4.4c1.5-1.1,3.6-1.7,6.3-1.7c1.4,0,2.8,0.2,4.2,0.6
			c1.4,0.4,2.5,0.9,3.4,1.5l-1.3,2.3c-1.8-1.2-3.9-1.8-6.4-1.8c-1.9,0-3.3,0.3-4.2,1c-0.9,0.7-1.4,1.5-1.4,2.6c0,0.8,0.3,1.5,0.8,2
			c0.5,0.5,1.2,0.9,2,1.1c0.8,0.2,1.9,0.5,3.3,0.7c1.7,0.3,3.1,0.7,4.1,1c1,0.3,1.9,0.9,2.7,1.7c0.7,0.8,1.1,1.9,1.1,3.3
			c0,1.9-0.8,3.4-2.4,4.5c-1.6,1.1-3.8,1.7-6.5,1.7C536.5,78.1,534.8,77.9,533.2,77.4z"/>
		<path d="M559.7,76.6c-0.5,0.5-1.2,0.9-2,1.1c-0.8,0.3-1.6,0.4-2.5,0.4c-2,0-3.6-0.5-4.7-1.6c-1.1-1.1-1.6-2.6-1.6-4.6v-13H545
			v-2.5h3.9v-4.7h2.9v4.7h6.6v2.5h-6.6v12.9c0,1.3,0.3,2.3,1,2.9c0.6,0.7,1.6,1,2.8,1c0.6,0,1.2-0.1,1.7-0.3s1-0.5,1.5-0.8
			L559.7,76.6z"/>
	</g>
	<g>
		<path d="M277.7,117.5h11.7c3,0,5.7,0.6,8,1.8c2.3,1.2,4.1,2.9,5.4,5.1s1.9,4.7,1.9,7.4s-0.6,5.3-1.9,7.4c-1.3,2.2-3.1,3.9-5.4,5.1
			c-2.3,1.2-5,1.8-8,1.8h-11.7V117.5z M289.2,143.6c2.5,0,4.7-0.5,6.6-1.5c1.9-1,3.3-2.4,4.4-4.1c1-1.8,1.6-3.8,1.6-6.1
			s-0.5-4.3-1.6-6.1c-1-1.8-2.5-3.1-4.4-4.1c-1.9-1-4.1-1.5-6.6-1.5h-8.5v23.5H289.2z"/>
		<path d="M317.5,119.3c-0.4-0.4-0.6-0.9-0.6-1.5c0-0.5,0.2-1,0.6-1.4c0.4-0.4,0.9-0.6,1.5-0.6c0.6,0,1.1,0.2,1.5,0.6
			c0.4,0.4,0.6,0.9,0.6,1.4c0,0.6-0.2,1.1-0.6,1.5c-0.4,0.4-0.9,0.6-1.5,0.6C318.4,119.9,317.9,119.7,317.5,119.3z M317.6,124.6h2.9
			v21.6h-2.9V124.6z"/>
		<path d="M346.6,144.9c-0.5,0.5-1.2,0.9-2,1.1c-0.8,0.3-1.6,0.4-2.5,0.4c-2,0-3.6-0.5-4.7-1.6c-1.1-1.1-1.6-2.6-1.6-4.6v-13h-3.9
			v-2.5h3.9v-4.7h2.9v4.7h6.6v2.5h-6.6V140c0,1.3,0.3,2.3,1,2.9c0.6,0.7,1.6,1,2.8,1c0.6,0,1.2-0.1,1.7-0.3c0.6-0.2,1-0.5,1.5-0.8
			L346.6,144.9z"/>
		<path d="M375.9,119.3c-0.4-0.4-0.6-0.9-0.6-1.5c0-0.5,0.2-1,0.6-1.4c0.4-0.4,0.9-0.6,1.5-0.6c0.6,0,1.1,0.2,1.5,0.6
			c0.4,0.4,0.6,0.9,0.6,1.4c0,0.6-0.2,1.1-0.6,1.5c-0.4,0.4-0.9,0.6-1.5,0.6C376.8,119.9,376.3,119.7,375.9,119.3z M375.9,124.6h2.9
			v21.6h-2.9V124.6z"/>
		<path d="M394.3,145.6c-1.6-0.5-2.8-1.1-3.8-1.9l1.3-2.3c0.9,0.7,2,1.3,3.4,1.7c1.4,0.5,2.8,0.7,4.3,0.7c2,0,3.4-0.3,4.4-0.9
			s1.4-1.5,1.4-2.6c0-0.8-0.3-1.4-0.8-1.9c-0.5-0.5-1.2-0.8-2-1c-0.8-0.2-1.8-0.5-3.2-0.7c-1.7-0.3-3.2-0.7-4.2-1
			c-1.1-0.3-2-0.9-2.7-1.7c-0.8-0.8-1.1-2-1.1-3.4c0-1.8,0.8-3.3,2.3-4.4c1.5-1.1,3.6-1.7,6.3-1.7c1.4,0,2.8,0.2,4.2,0.6
			c1.4,0.4,2.5,0.9,3.4,1.5l-1.3,2.3c-1.8-1.2-3.9-1.8-6.4-1.8c-1.9,0-3.3,0.3-4.2,1c-0.9,0.7-1.4,1.5-1.4,2.6c0,0.8,0.3,1.5,0.8,2
			s1.2,0.9,2,1.1s1.9,0.5,3.3,0.7c1.7,0.3,3.1,0.7,4.1,1c1,0.3,1.9,0.9,2.7,1.7c0.7,0.8,1.1,1.9,1.1,3.3c0,1.9-0.8,3.4-2.4,4.5
			c-1.6,1.1-3.8,1.7-6.5,1.7C397.6,146.4,395.9,146.1,394.3,145.6z"/>
		<path d="M449,144.9c-0.5,0.5-1.2,0.9-2,1.1c-0.8,0.3-1.6,0.4-2.5,0.4c-2,0-3.6-0.5-4.7-1.6c-1.1-1.1-1.6-2.6-1.6-4.6v-13h-3.9
			v-2.5h3.9v-4.7h2.9v4.7h6.6v2.5h-6.6V140c0,1.3,0.3,2.3,1,2.9c0.6,0.7,1.6,1,2.8,1c0.6,0,1.2-0.1,1.7-0.3c0.6-0.2,1-0.5,1.5-0.8
			L449,144.9z"/>
		<path d="M478.9,136.3h-18c0.2,2.2,1,4.1,2.6,5.4c1.6,1.4,3.5,2.1,5.9,2.1c1.3,0,2.6-0.2,3.7-0.7c1.1-0.5,2.1-1.2,2.9-2.1l1.6,1.9
			c-1,1.1-2.2,2-3.6,2.6c-1.4,0.6-3,0.9-4.7,0.9c-2.2,0-4.2-0.5-5.9-1.4c-1.7-0.9-3-2.2-4-3.9c-1-1.7-1.4-3.6-1.4-5.7
			c0-2.1,0.5-4,1.4-5.7c0.9-1.7,2.2-3,3.8-3.9s3.4-1.4,5.4-1.4c2,0,3.8,0.5,5.4,1.4c1.6,0.9,2.8,2.2,3.7,3.9
			c0.9,1.7,1.4,3.5,1.4,5.7L478.9,136.3z M463.3,129c-1.4,1.3-2.2,3.1-2.4,5.2h15.3c-0.2-2.1-1-3.9-2.4-5.2c-1.4-1.3-3.2-2-5.3-2
			C466.4,127,464.7,127.6,463.3,129z"/>
		<path d="M499.6,135.4l-5.1,4.7v6.2h-2.9v-30.4h2.9v20.6l12.9-11.8h3.6l-9.2,8.8l10.1,12.8h-3.6L499.6,135.4z"/>
		<path d="M523,145.6c-1.6-0.5-2.8-1.1-3.8-1.9l1.3-2.3c0.9,0.7,2,1.3,3.4,1.7c1.4,0.5,2.8,0.7,4.3,0.7c2,0,3.4-0.3,4.4-0.9
			c0.9-0.6,1.4-1.5,1.4-2.6c0-0.8-0.3-1.4-0.8-1.9s-1.2-0.8-2-1c-0.8-0.2-1.8-0.5-3.2-0.7c-1.8-0.3-3.2-0.7-4.2-1s-2-0.9-2.7-1.7
			c-0.8-0.8-1.1-2-1.1-3.4c0-1.8,0.8-3.3,2.3-4.4c1.5-1.1,3.6-1.7,6.3-1.7c1.4,0,2.8,0.2,4.2,0.6c1.4,0.4,2.5,0.9,3.4,1.5l-1.3,2.3
			c-1.8-1.2-3.9-1.8-6.4-1.8c-1.9,0-3.3,0.3-4.2,1c-0.9,0.7-1.4,1.5-1.4,2.6c0,0.8,0.3,1.5,0.8,2c0.5,0.5,1.2,0.9,2,1.1
			c0.8,0.2,1.9,0.5,3.3,0.7c1.7,0.3,3.1,0.7,4.1,1s1.9,0.9,2.7,1.7c0.7,0.8,1.1,1.9,1.1,3.3c0,1.9-0.8,3.4-2.4,4.5
			c-1.6,1.1-3.8,1.7-6.5,1.7C526.2,146.4,524.6,146.1,523,145.6z"/>
		<path d="M560.2,144.9c-0.5,0.5-1.2,0.9-2,1.1c-0.8,0.3-1.6,0.4-2.5,0.4c-2,0-3.6-0.5-4.7-1.6c-1.1-1.1-1.6-2.6-1.6-4.6v-13h-3.9
			v-2.5h3.9v-4.7h2.9v4.7h6.6v2.5h-6.6V140c0,1.3,0.3,2.3,1,2.9c0.6,0.7,1.6,1,2.8,1c0.6,0,1.2-0.1,1.7-0.3c0.6-0.2,1-0.5,1.5-0.8
			L560.2,144.9z"/>
	</g>
	<g>
		<path d="M27.3,144.5c1,0,1.6-0.2,2.1-0.7c0.4-0.4,0.6-0.9,0.7-1.5c0.1-0.6,0.1-1.5,0.1-2.9v-17.7c0-1.1,0-2.1,0.1-3l-3,0.2v-1.8
			l9.7,0c5.1,0,9.2,1.2,12.2,3.6c3,2.4,4.5,6,4.5,10.8c0,2.6-0.6,4.9-1.8,7.1c-1.2,2.2-3,3.9-5.3,5.2c-2.4,1.3-5.2,1.9-8.5,1.9H27.3
			V144.5z M44,142.6c1.8-1.1,3.2-2.7,4.1-4.6s1.5-4.2,1.5-6.6c0-4-1.1-7.1-3.3-9.4c-2.2-2.3-5.5-3.4-9.9-3.4c-1,0-1.6,0.2-2,0.6
			c-0.4,0.4-0.6,0.9-0.7,1.4c-0.1,0.6-0.1,1.5-0.1,2.9V141c0,1.4,0,2.5-0.1,3.2c1,0.1,2.4,0.1,4.4,0.1
			C40.2,144.3,42.2,143.7,44,142.6z"/>
		<path d="M53.2,144.6c0.8,0,1.4-0.2,1.7-0.6c0.3-0.4,0.5-0.9,0.6-1.5c0.1-0.6,0.1-1.6,0.1-2.9v-9.3c0-0.8,0.1-1.7,0.2-2.7l-2.9,0.2
			V126c1.6,0,2.8-0.1,3.5-0.3c0.7-0.2,1.2-0.5,1.6-0.8h1.2v16.6c0,1.2-0.1,2.2-0.2,2.8l2.6-0.1v1.7h-8.4V144.6z M55.8,120.1
			c-0.4-0.5-0.7-1-0.7-1.7c0-0.7,0.2-1.2,0.7-1.7c0.5-0.5,1-0.7,1.5-0.7c0.6,0,1.2,0.2,1.6,0.7c0.4,0.5,0.6,1.1,0.6,1.7
			c0,0.7-0.2,1.2-0.7,1.7c-0.5,0.5-1,0.7-1.6,0.7C56.7,120.9,56.2,120.6,55.8,120.1z"/>
		<path d="M63.5,138.9l0.1-11.9l-3.2,0v-1.8c1.3,0,2.4-0.6,3.3-1.8c0.9-1.2,1.6-2.5,2-4h1.4v5.7H74v1.6l-6.9,0.1
			c0,4.2,0,7.1-0.1,8.7c0,1.6,0,2.5,0,2.7c0,1.9,0.2,3.4,0.7,4.3c0.5,0.9,1.3,1.4,2.4,1.4c0.7,0,1.4-0.2,2.1-0.7s1.3-1,1.8-1.8
			l1.1,0.9c-1.1,1.6-2.1,2.6-3.2,3.1c-1,0.5-2,0.8-3,0.8C65.3,146.5,63.4,144,63.5,138.9z"/>
		<path d="M79.8,144.6c0.8,0,1.4-0.2,1.7-0.6c0.3-0.4,0.5-0.9,0.6-1.5c0.1-0.6,0.1-1.6,0.1-2.9v-9.3c0-0.8,0.1-1.7,0.2-2.7l-2.9,0.2
			V126c1.6,0,2.8-0.1,3.5-0.3c0.7-0.2,1.2-0.5,1.6-0.8h1.2v16.6c0,1.2-0.1,2.2-0.2,2.8l2.6-0.1v1.7h-8.4V144.6z M82.3,120.1
			c-0.4-0.5-0.7-1-0.7-1.7c0-0.7,0.2-1.2,0.7-1.7c0.5-0.5,1-0.7,1.5-0.7c0.6,0,1.2,0.2,1.6,0.7c0.4,0.5,0.6,1.1,0.6,1.7
			c0,0.7-0.2,1.2-0.7,1.7c-0.5,0.5-1,0.7-1.6,0.7C83.3,120.9,82.8,120.6,82.3,120.1z"/>
		<path d="M92.1,146c-1.1-0.3-2-0.8-2.7-1.3l0.2,1.4h-1.7l-0.2-7.1h1.3c0.1,1.1,0.4,2.1,0.9,3c0.6,0.9,1.3,1.6,2.2,2.1
			c0.9,0.5,1.9,0.8,2.9,0.8c1.2,0,2.2-0.3,3.1-0.8c0.9-0.6,1.4-1.4,1.4-2.4c0-0.8-0.2-1.4-0.7-1.9c-0.5-0.5-1-0.9-1.7-1.3
			c-0.7-0.3-1.6-0.7-2.8-1.2c-1.4-0.5-2.6-1.1-3.5-1.5c-0.9-0.5-1.6-1.1-2.3-1.9c-0.6-0.8-0.9-1.9-0.9-3.1c0-0.9,0.2-1.8,0.7-2.7
			c0.4-0.9,1.2-1.7,2.2-2.3c1-0.6,2.4-0.9,4.1-0.9c0.8,0,1.7,0.1,2.6,0.4c0.9,0.3,1.7,0.7,2.5,1.4l-0.1-1.6h1.7v7.2h-1.3
			c-0.1-1.6-0.6-3-1.5-4.1c-0.9-1.2-2.1-1.7-3.8-1.7c-1.2,0-2.2,0.3-2.9,0.9c-0.7,0.6-1.1,1.3-1.1,2.2c0,0.8,0.2,1.5,0.7,2
			c0.5,0.5,1.1,1,1.8,1.4c0.7,0.4,1.7,0.8,2.9,1.3c1.4,0.6,2.6,1.1,3.4,1.6c0.9,0.5,1.6,1.1,2.2,1.9c0.6,0.8,0.9,1.8,0.9,2.9
			c0,1.3-0.3,2.4-1,3.3c-0.7,0.9-1.5,1.6-2.6,2c-1.1,0.5-2.2,0.7-3.5,0.7C94.3,146.5,93.1,146.3,92.1,146z"/>
		<path d="M110.9,138.9L111,127l-3.2,0v-1.8c1.3,0,2.4-0.6,3.3-1.8c0.9-1.2,1.6-2.5,2-4h1.4v5.7h6.9v1.6l-6.9,0.1
			c0,4.2,0,7.1-0.1,8.7c0,1.6,0,2.5,0,2.7c0,1.9,0.2,3.4,0.7,4.3c0.5,0.9,1.3,1.4,2.4,1.4c0.7,0,1.4-0.2,2.1-0.7s1.3-1,1.8-1.8
			l1.1,0.9c-1.1,1.6-2.1,2.6-3.2,3.1c-1,0.5-2,0.8-3,0.8C112.7,146.5,110.9,144,110.9,138.9z"/>
		<path d="M125.3,145.1c-1.5-0.9-2.7-2.2-3.6-3.8c-0.9-1.7-1.3-3.6-1.3-5.7c0-1.9,0.4-3.7,1.3-5.4c0.9-1.7,2.1-3,3.7-4
			c1.6-1,3.4-1.5,5.4-1.5c1.6,0,3,0.3,4.2,1c1.3,0.7,2.3,1.7,3,3.1c0.7,1.4,1.1,3,1.1,5l-14.4,0.2c0,3.3,0.5,5.8,1.6,7.7
			c1.1,1.8,2.8,2.7,5.1,2.7c1.3,0,2.5-0.3,3.9-1c1.3-0.7,2.3-1.5,3.1-2.4l1,0.8c-1,1.6-2.4,2.8-4,3.5c-1.7,0.8-3.3,1.1-4.9,1.1
			C128.6,146.5,126.9,146,125.3,145.1z M135.2,132.3c0-1.6-0.4-3-1.1-4.2s-1.8-1.8-3.3-1.8c-3.4,0-5.4,2-6,6H135.2z"/>
		<path d="M138.3,144.6c0.8,0,1.4-0.2,1.7-0.6c0.3-0.4,0.5-0.9,0.6-1.5c0.1-0.6,0.1-1.6,0.1-2.9c0-0.3,0-1.8,0-4.5
			c0-2.7,0-7.7,0-14.9c0-1,0-1.9,0.1-2.7l-2.9,0.2V116c1.6,0,2.8-0.1,3.5-0.3c0.7-0.2,1.2-0.5,1.6-0.8h1.2v19.4h1.6l5-5.2
			c1-1.1,1.8-1.8,2.4-2.2l-2.8,0.1v-1.6h7.5v1.2c-1.2,0.1-2.3,0.6-3.3,1.3c-1,0.7-2.1,1.7-3.3,3l-3.2,3.4c0.5,0.2,0.9,0.5,1.3,0.8
			s0.8,0.8,1.3,1.4l2.9,3.7c0.1,0.1,0.4,0.5,0.9,1.2c0.6,0.8,1.2,1.5,2,2.2c0.8,0.7,1.5,1,2,1v1.2h-3.7c-0.7,0-1.3-0.3-1.8-0.9
			c-0.6-0.6-1.4-1.6-2.5-3l-1.6-2.3c-0.6-0.8-1.2-1.6-1.7-2.4c-0.5-0.7-1-1.2-1.3-1.6l-1.7,0.1v5.6c0,1.2-0.1,2.2-0.2,2.8l2.6-0.1
			v1.7h-8.4V144.6z"/>
		<path d="M161.4,146c-1.1-0.3-2-0.8-2.7-1.3l0.2,1.4h-1.7l-0.2-7.1h1.3c0.1,1.1,0.4,2.1,0.9,3c0.6,0.9,1.3,1.6,2.2,2.1
			c0.9,0.5,1.9,0.8,2.9,0.8c1.2,0,2.2-0.3,3.1-0.8c0.9-0.6,1.4-1.4,1.4-2.4c0-0.8-0.2-1.4-0.7-1.9c-0.5-0.5-1-0.9-1.7-1.3
			c-0.7-0.3-1.6-0.7-2.8-1.2c-1.4-0.5-2.6-1.1-3.5-1.5c-0.9-0.5-1.6-1.1-2.3-1.9c-0.6-0.8-0.9-1.9-0.9-3.1c0-0.9,0.2-1.8,0.7-2.7
			c0.4-0.9,1.2-1.7,2.2-2.3c1-0.6,2.4-0.9,4.1-0.9c0.8,0,1.7,0.1,2.6,0.4c0.9,0.3,1.7,0.7,2.5,1.4l-0.1-1.6h1.7v7.2h-1.3
			c-0.1-1.6-0.6-3-1.5-4.1c-0.9-1.2-2.1-1.7-3.8-1.7c-1.2,0-2.2,0.3-2.9,0.9c-0.7,0.6-1.1,1.3-1.1,2.2c0,0.8,0.2,1.5,0.7,2
			c0.5,0.5,1.1,1,1.8,1.4c0.7,0.4,1.7,0.8,2.9,1.3c1.4,0.6,2.6,1.1,3.4,1.6c0.9,0.5,1.6,1.1,2.2,1.9c0.6,0.8,0.9,1.8,0.9,2.9
			c0,1.3-0.3,2.4-1,3.3c-0.7,0.9-1.5,1.6-2.6,2c-1.1,0.5-2.2,0.7-3.5,0.7C163.7,146.5,162.5,146.3,161.4,146z"/>
		<path d="M173.6,138.9l0.1-11.9l-3.2,0v-1.8c1.3,0,2.4-0.6,3.3-1.8c0.9-1.2,1.6-2.5,2-4h1.4v5.7h6.9v1.6l-6.9,0.1
			c0,4.2,0,7.1-0.1,8.7c0,1.6,0,2.5,0,2.7c0,1.9,0.2,3.4,0.7,4.3c0.5,0.9,1.3,1.4,2.4,1.4c0.7,0,1.4-0.2,2.1-0.7s1.3-1,1.8-1.8
			l1.1,0.9c-1.1,1.6-2.1,2.6-3.2,3.1c-1,0.5-2,0.8-3,0.8C175.4,146.5,173.6,144,173.6,138.9z"/>
	</g>
	<g>
		<path d="M27.3,77.1c1,0,1.6-0.2,2.1-0.7c0.4-0.4,0.6-0.9,0.7-1.5c0.1-0.6,0.1-1.5,0.1-2.9V54.3c0-1.1,0-2.1,0.1-3l-3,0.2v-1.8
			l9.7,0c5.1,0,9.2,1.2,12.2,3.6c3,2.4,4.5,6,4.5,10.8c0,2.6-0.6,4.9-1.8,7.1c-1.2,2.2-3,3.9-5.3,5.2c-2.4,1.3-5.2,1.9-8.5,1.9H27.3
			V77.1z M44,75.2c1.8-1.1,3.2-2.7,4.1-4.6s1.5-4.2,1.5-6.6c0-4-1.1-7.1-3.3-9.4c-2.2-2.3-5.5-3.4-9.9-3.4c-1,0-1.6,0.2-2,0.6
			c-0.4,0.4-0.6,0.9-0.7,1.4c-0.1,0.6-0.1,1.5-0.1,2.9v17.5c0,1.4,0,2.5-0.1,3.2c1,0.1,2.4,0.1,4.4,0.1C40.2,76.9,42.2,76.3,44,75.2
			z"/>
		<path d="M64,77.2c0.8,0,1.4-0.2,1.7-0.6c0.3-0.4,0.5-0.9,0.6-1.5c0.1-0.6,0.1-1.6,0.1-2.9v-9.3c0-0.8,0.1-1.7,0.2-2.7l-2.9,0.2
			v-1.7c1.6,0,2.8-0.1,3.5-0.3c0.7-0.2,1.2-0.5,1.6-0.8h1.2v16.6c0,1.2-0.1,2.2-0.2,2.8l2.6-0.1v1.7H64V77.2z M66.5,52.8
			c-0.4-0.5-0.7-1-0.7-1.7c0-0.7,0.2-1.2,0.7-1.7c0.5-0.5,1-0.7,1.5-0.7c0.6,0,1.2,0.2,1.6,0.7c0.4,0.5,0.6,1.1,0.6,1.7
			c0,0.7-0.2,1.2-0.7,1.7c-0.5,0.5-1,0.7-1.6,0.7C67.5,53.5,67,53.2,66.5,52.8z"/>
		<path d="M84.9,71.6L85,59.7l-3.2,0V58c1.3,0,2.4-0.6,3.3-1.8c0.9-1.2,1.6-2.5,2-4h1.4V58h6.9v1.6l-6.9,0.1c0,4.2,0,7.1-0.1,8.7
			c0,1.6,0,2.5,0,2.7c0,1.9,0.2,3.4,0.7,4.3c0.5,0.9,1.3,1.4,2.4,1.4c0.7,0,1.4-0.2,2.1-0.7s1.3-1,1.8-1.8l1.1,0.9
			c-1.1,1.6-2.1,2.6-3.2,3.1c-1,0.5-2,0.8-3,0.8C86.8,79.1,84.9,76.6,84.9,71.6z"/>
		<path d="M122.7,77.2c0.8,0,1.4-0.2,1.7-0.6c0.3-0.4,0.5-0.9,0.6-1.5c0.1-0.6,0.1-1.6,0.1-2.9v-9.3c0-0.8,0.1-1.7,0.2-2.7l-2.9,0.2
			v-1.7c1.6,0,2.8-0.1,3.5-0.3c0.7-0.2,1.2-0.5,1.6-0.8h1.2v16.6c0,1.2-0.1,2.2-0.2,2.8l2.6-0.1v1.7h-8.4V77.2z M125.3,52.8
			c-0.4-0.5-0.7-1-0.7-1.7c0-0.7,0.2-1.2,0.7-1.7c0.5-0.5,1-0.7,1.5-0.7c0.6,0,1.2,0.2,1.6,0.7c0.4,0.5,0.6,1.1,0.6,1.7
			c0,0.7-0.2,1.2-0.7,1.7c-0.5,0.5-1,0.7-1.6,0.7C126.2,53.5,125.7,53.2,125.3,52.8z"/>
		<path d="M145.8,78.6c-1.1-0.3-2-0.8-2.7-1.3l0.2,1.4h-1.7l-0.2-7.1h1.3c0.1,1.1,0.4,2.1,0.9,3c0.6,0.9,1.3,1.6,2.2,2.1
			c0.9,0.5,1.9,0.8,2.9,0.8c1.2,0,2.2-0.3,3.1-0.8c0.9-0.6,1.4-1.4,1.4-2.4c0-0.8-0.2-1.4-0.7-1.9c-0.5-0.5-1-0.9-1.7-1.3
			c-0.7-0.3-1.6-0.7-2.8-1.2c-1.4-0.5-2.6-1.1-3.5-1.5c-0.9-0.5-1.6-1.1-2.3-1.9c-0.6-0.8-0.9-1.9-0.9-3.1c0-0.9,0.2-1.8,0.7-2.7
			c0.4-0.9,1.2-1.7,2.2-2.3c1-0.6,2.4-0.9,4.1-0.9c0.8,0,1.7,0.1,2.6,0.4c0.9,0.3,1.7,0.7,2.5,1.4l-0.1-1.6h1.7v7.2h-1.3
			c-0.1-1.6-0.6-3-1.5-4.1c-0.9-1.2-2.1-1.7-3.8-1.7c-1.2,0-2.2,0.3-2.9,0.9c-0.7,0.6-1.1,1.3-1.1,2.2c0,0.8,0.2,1.5,0.7,2
			c0.5,0.5,1.1,1,1.8,1.4c0.7,0.4,1.7,0.8,2.9,1.3c1.4,0.6,2.6,1.1,3.4,1.6c0.9,0.5,1.6,1.1,2.2,1.9c0.6,0.8,0.9,1.8,0.9,2.9
			c0,1.3-0.3,2.4-1,3.3c-0.7,0.9-1.5,1.6-2.6,2c-1.1,0.5-2.2,0.7-3.5,0.7C148,79.1,146.8,78.9,145.8,78.6z"/>
		<path d="M186.1,71.6l0.1-11.9l-3.2,0V58c1.3,0,2.4-0.6,3.3-1.8c0.9-1.2,1.6-2.5,2-4h1.4V58h6.9v1.6l-6.9,0.1c0,4.2,0,7.1-0.1,8.7
			c0,1.6,0,2.5,0,2.7c0,1.9,0.2,3.4,0.7,4.3c0.5,0.9,1.3,1.4,2.4,1.4c0.7,0,1.4-0.2,2.1-0.7s1.3-1,1.8-1.8l1.1,0.9
			c-1.1,1.6-2.1,2.6-3.2,3.1c-1,0.5-2,0.8-3,0.8C187.9,79.1,186.1,76.6,186.1,71.6z"/>
		<path d="M211.3,77.8c-1.5-0.9-2.7-2.2-3.6-3.8c-0.9-1.7-1.3-3.6-1.3-5.7c0-1.9,0.4-3.7,1.3-5.4c0.9-1.7,2.1-3,3.7-4
			c1.6-1,3.4-1.5,5.4-1.5c1.6,0,3,0.3,4.2,1c1.3,0.7,2.3,1.7,3,3.1c0.7,1.4,1.1,3,1.1,5l-14.4,0.2c0,3.3,0.5,5.8,1.6,7.7
			c1.1,1.8,2.8,2.7,5.1,2.7c1.3,0,2.5-0.3,3.9-1c1.3-0.7,2.3-1.5,3.1-2.4l1,0.8c-1,1.6-2.4,2.8-4,3.5c-1.7,0.8-3.3,1.1-4.9,1.1
			C214.5,79.1,212.8,78.7,211.3,77.8z M221.2,64.9c0-1.6-0.4-3-1.1-4.2s-1.8-1.8-3.3-1.8c-3.4,0-5.4,2-6,6H221.2z"/>
		<path d="M235,77.2c0.8,0,1.4-0.2,1.7-0.6c0.3-0.4,0.5-0.9,0.6-1.5c0.1-0.6,0.1-1.6,0.1-2.9c0-0.3,0-1.8,0-4.5c0-2.7,0-7.7,0-14.9
			c0-1,0-1.9,0.1-2.7l-2.9,0.2v-1.7c1.6,0,2.8-0.1,3.5-0.3c0.7-0.2,1.2-0.5,1.6-0.8h1.2v19.4h1.6l5-5.2c1-1.1,1.8-1.8,2.4-2.2
			l-2.8,0.1V58h7.5v1.2c-1.2,0.1-2.3,0.6-3.3,1.3c-1,0.7-2.1,1.7-3.3,3l-3.2,3.4c0.5,0.2,0.9,0.5,1.3,0.8s0.8,0.8,1.3,1.4l2.9,3.7
			c0.1,0.1,0.4,0.5,0.9,1.2c0.6,0.8,1.2,1.5,2,2.2c0.8,0.7,1.5,1,2,1v1.2h-3.7c-0.7,0-1.3-0.3-1.8-0.9c-0.6-0.6-1.4-1.6-2.5-3
			l-1.6-2.3c-0.6-0.8-1.2-1.6-1.7-2.4c-0.5-0.7-1-1.2-1.3-1.6l-1.7,0.1v5.6c0,1.2-0.1,2.2-0.2,2.8l2.6-0.1v1.7H235V77.2z"/>
		<path d="M268.9,78.6c-1.1-0.3-2-0.8-2.7-1.3l0.2,1.4h-1.7l-0.2-7.1h1.3c0.1,1.1,0.4,2.1,0.9,3c0.6,0.9,1.3,1.6,2.2,2.1
			c0.9,0.5,1.9,0.8,2.9,0.8c1.2,0,2.2-0.3,3.1-0.8c0.9-0.6,1.4-1.4,1.4-2.4c0-0.8-0.2-1.4-0.7-1.9c-0.5-0.5-1-0.9-1.7-1.3
			c-0.7-0.3-1.6-0.7-2.8-1.2c-1.4-0.5-2.6-1.1-3.5-1.5c-0.9-0.5-1.6-1.1-2.3-1.9c-0.6-0.8-0.9-1.9-0.9-3.1c0-0.9,0.2-1.8,0.7-2.7
			c0.4-0.9,1.2-1.7,2.2-2.3c1-0.6,2.4-0.9,4.1-0.9c0.8,0,1.7,0.1,2.6,0.4c0.9,0.3,1.7,0.7,2.5,1.4l-0.1-1.6h1.7v7.2h-1.3
			c-0.1-1.6-0.6-3-1.5-4.1c-0.9-1.2-2.1-1.7-3.8-1.7c-1.2,0-2.2,0.3-2.9,0.9c-0.7,0.6-1.1,1.3-1.1,2.2c0,0.8,0.2,1.5,0.7,2
			c0.5,0.5,1.1,1,1.8,1.4c0.7,0.4,1.7,0.8,2.9,1.3c1.4,0.6,2.6,1.1,3.4,1.6c0.9,0.5,1.6,1.1,2.2,1.9c0.6,0.8,0.9,1.8,0.9,2.9
			c0,1.3-0.3,2.4-1,3.3c-0.7,0.9-1.5,1.6-2.6,2c-1.1,0.5-2.2,0.7-3.5,0.7C271.1,79.1,269.9,78.9,268.9,78.6z"/>
		<path d="M291.7,71.6l0.1-11.9l-3.2,0V58c1.3,0,2.4-0.6,3.3-1.8c0.9-1.2,1.6-2.5,2-4h1.4V58h6.9v1.6l-6.9,0.1c0,4.2,0,7.1-0.1,8.7
			c0,1.6,0,2.5,0,2.7c0,1.9,0.2,3.4,0.7,4.3c0.5,0.9,1.3,1.4,2.4,1.4c0.7,0,1.4-0.2,2.1-0.7c0.7-0.4,1.3-1,1.8-1.8l1.1,0.9
			c-1.1,1.6-2.1,2.6-3.2,3.1c-1,0.5-2,0.8-3,0.8C293.6,79.1,291.7,76.6,291.7,71.6z"/>
	</g>
</g>
</svg>
