<?xml version="1.0" encoding="utf-8"?>
<!-- Generator: Adobe Illustrator 22.1.0, SVG Export Plug-In . SVG Version: 6.00 Build 0)  -->
<svg version="1.1" id="Layer_1" xmlns="http://www.w3.org/2000/svg" xmlns:xlink="http://www.w3.org/1999/xlink" x="0px" y="0px"
	 viewBox="0 0 336.4 450" style="enable-background:new 0 0 336.4 450;" xml:space="preserve">
<style type="text/css">
	.st0{clip-path:url(#SVGID_2_);fill:#1B432D;}
	.st1{clip-path:url(#SVGID_2_);fill:#691B33;}
	.st2{clip-path:url(#SVGID_2_);fill:#EA5B5D;}
	.st3{clip-path:url(#SVGID_2_);fill:#5B5BA5;}
	.st4{clip-path:url(#SVGID_2_);fill:#1D1D1B;}
	.st5{opacity:0.45;clip-path:url(#SVGID_2_);fill:#EA5B5D;}
	.st6{clip-path:url(#SVGID_2_);fill:#F4AFAA;}
	.st7{clip-path:url(#SVGID_2_);fill:#FBDE1D;}
	.st8{clip-path:url(#SVGID_2_);fill:none;stroke:#1D1D1B;stroke-width:0.4433;stroke-miterlimit:10;}
	.st9{clip-path:url(#SVGID_2_);fill:#48B276;}
	.st10{clip-path:url(#SVGID_2_);fill:none;stroke:#1D1D1B;stroke-width:0.496;stroke-miterlimit:10;}
	.st11{fill:#FBDE1D;}
	.st12{fill:#F8B133;}
	.st13{opacity:0.45;fill:#F8B133;}
	.st14{fill:#EA5B5D;}
	.st15{opacity:0.45;fill:#EA5B5D;}
	.st16{fill:none;stroke:#EA5B5D;stroke-width:0.3268;stroke-miterlimit:10;}
	.st17{fill:#5B5BA5;}
</style>
<g>
	<g>
		<defs>
			<polygon id="SVGID_1_" points="33.6,171.6 310.8,449 310.8,107.7 204.2,1 			"/>
		</defs>
		<clipPath id="SVGID_2_">
			<use xlink:href="#SVGID_1_"  style="overflow:visible;"/>
		</clipPath>
		<rect x="-19.4" y="53.8" class="st0" width="355.8" height="262.3"/>
		<polygon class="st1" points="-21,113.4 85.3,200 122.1,191.2 174.3,219.2 334.8,307.8 -14.3,307.8 		"/>
		<polygon class="st2" points="232.6,47.3 287.1,131.8 360.6,72.3 323.8,43.1 		"/>
		<polygon class="st2" points="192.7,149.9 215.8,52 122,40.3 126.5,87.1 		"/>
		<polygon class="st2" points="330.3,91.6 255.5,24.4 200.2,101.1 243.4,119.6 		"/>
		<polygon class="st2" points="45.1,76.3 -39.1,131.3 20.8,204.4 49.7,167.4 		"/>
		<path class="st3" d="M70.4,56.4L-17.8-69v243l20.9-20.9L85.3,200l67.5-61.7l33.4-31.2l32,15.3l20.9-16c39.6-4.9,95.7,3.7,95.7,3.7
			V-69L70.4,56.4z"/>
		<path class="st2" d="M222.4,288.1c0,0-26.2-39.2-41.2-44.7c-15-5.5-33.9-14.9-40.7-32.3c-5.5-13.9-40.9-13-55.2-11.1
			c10.3-9.4,57.4-26.5,77.6-8.8c13.6,11.9,66.3-3.6,84.6,14.7s87.3,28.5,87.3,28.5L366.5,467l-66.2,0.2L222.4,288.1z"/>
		<path class="st3" d="M-14.3,246c0,0,29-24.3,55.3-24.3s45.2,14.8,60.4,14.8s45.6-4.5,78.1,28.1s66.1,15.1,75.8,37.5
			c6.6,15.3-8.4,30.5,2.4,48.2c13,21.3,54,77.6,23.6,74.8c-76-7-295.7-117.4-295.7-117.4V246z"/>
		<polyline class="st4" points="186.2,107.1 201.1,114.2 199.9,119.6 182.9,110.2 186.2,107.1 		"/>
		<polygon class="st4" points="240.1,105.6 229.5,113.7 232.6,115 247,105.6 		"/>
		<polygon class="st4" points="273.1,110 280.9,107.5 274.6,112.4 		"/>
		<polygon class="st2" points="172.2,276.3 177.1,283.8 167,286.5 169.8,279.9 		"/>
		<polygon class="st2" points="162.5,272.6 172.2,276.3 169.8,279.9 160,277.1 		"/>
		<polygon class="st2" points="169.8,279.9 167,286.5 156.9,279.6 160,277.1 		"/>
		<polygon class="st2" points="162.5,272.6 157.9,276 156.9,279.6 160,277.1 		"/>
		<polygon class="st5" points="172.2,276.3 177.1,283.8 167,286.5 169.8,279.9 		"/>
		<polygon class="st5" points="169.8,279.9 167,286.5 156.9,279.6 160,277.1 		"/>
		<polygon class="st5" points="162.5,272.6 157.9,276 156.9,279.6 160,277.1 		"/>
		<polygon class="st5" points="169.8,279.9 167,286.5 156.9,279.6 160,277.1 		"/>
		<polygon class="st5" points="162.5,272.6 157.9,276 156.9,279.6 160,277.1 		"/>
		<polygon class="st2" points="138.6,224.2 143.5,241.1 136.8,245.6 131.1,240 		"/>
		<polygon class="st2" points="143.5,256.4 134.5,263 136.8,245.6 143.5,241.1 		"/>
		<polygon class="st2" points="131.1,240 127.4,252.2 134.5,263 136.8,245.6 		"/>
		<polygon class="st5" points="143.5,256.4 134.5,263 136.8,245.6 143.5,241.1 		"/>
		<polygon class="st5" points="131.1,240 127.4,252.2 134.5,263 136.8,245.6 		"/>
		<polygon class="st5" points="131.1,240 127.4,252.2 134.5,263 136.8,245.6 		"/>
		<polygon class="st4" points="186.2,107.1 200.3,93 190,108.9 		"/>
		<polygon class="st4" points="239.1,106.4 263,88.1 247,105.6 		"/>
		<polygon class="st4" points="-0.8,157.1 40.7,179 43.5,176.2 3.1,153.2 		"/>
		<polygon class="st1" points="231.1,156.9 209.9,162.5 200.1,180.5 188.9,169.3 182.7,175.6 200.5,193.4 211.3,180.5 210.4,201 
			233.4,201 233.4,180.9 241.8,180.9 		"/>
		<polygon class="st3" points="210.4,201 203.1,223.4 214.8,252.2 224.5,252.2 215.2,224.8 223.6,212.6 233.4,250.9 241.8,250.9 
			233.4,201 		"/>
		<polygon class="st4" points="222.4,252.2 225.7,260.7 205.4,260.7 216.3,255.3 216.3,252.2 		"/>
		<polygon class="st4" points="235.1,250.9 236.8,256.4 247.7,256.4 246.8,254.3 241.8,252.8 240.5,250.9 		"/>
		<polygon class="st4" points="211.3,180.5 214.3,176.5 211.1,184.8 		"/>
		<polygon class="st4" points="233.4,180.9 233.4,176.5 235.3,180.9 		"/>
		<polygon class="st4" points="223.6,212.6 227.7,205.9 224.2,215.2 		"/>
		<polygon class="st3" points="176.2,161.7 171.7,157.1 169.6,168.3 175.5,165.6 192.2,168.8 192.9,164.9 		"/>
		<path class="st6" d="M184.2,174l-2.6-3.3c0,0-2.6-4.3-2-8.4c0.6-4.1,8.8-4.1,8.2,1.5c-0.4,3.5,0,5.6,0,5.6l0.4,0.6L184.2,174z"/>
		<polygon class="st6" points="216.4,162.5 216.8,157.5 212.4,156 214.6,138.6 229.5,147.2 225.8,159.9 		"/>
		<circle class="st6" cx="213.3" cy="148.5" r="2"/>
		<path class="st4" d="M221.3,148.5c0,0,3.1-1.8,4.2,0.3c1.2,2.2-3.2,3.5-3.2,3.5s1.9,5.7-0.3,11.6c-2.4,6.6,1.2,10.7,1.2,10.7h16.4
			c0,0-4.4-5.5-2.3-9.6c2.3-4.7,0.7-9.5-1.6-11.8c-3.6-3.6-4.1-4.9-4.1-4.9l-13.3-9C218.2,139.2,221.3,146,221.3,148.5z"/>
		<path class="st1" d="M227.6,133.6c-5.1-3-11.7-1.2-14.7,3.9l18.6,10.7C234.5,143.1,232.8,136.5,227.6,133.6z"/>
		<circle class="st7" cx="212.4" cy="134.9" r="2"/>
		<line class="st8" x1="208.5" y1="135" x2="231.6" y2="148.2"/>
		<circle class="st4" cx="216.8" cy="144.5" r="0.7"/>
		<path class="st6" d="M231.9,206.7l-3.9,11c-0.7,2-0.1,4.2,1.6,5.5l1.1,0.8c1.9,1.5,4.6,1.3,6.3-0.4l0,0c0.1-0.1,0.2-0.2,0.3-0.3
			c1.7-1.9,2.1-4.7,1.3-7.1l-1.1-3.1l2.4-6.5H231.9z"/>
		<path class="st4" d="M264.3,273.8l0.7,2.2c0.6,1.8-0.8,3.7-2.7,3.7H256c-1.4,0-2.7-0.8-3.4-2l-5.1-9.9c0,0-2.8-4.8,1-4.8
			c6.2,0,5.8,3.5,5.8,3.5L264.3,273.8z"/>
		<path class="st4" d="M280.4,290.2v3.3c0,2-1.6,3.7-3.7,3.7h-5.3c-1.6,0-3.1-0.9-3.9-2.4l-4.4-8.6c0,0-2.7-4.7,2.1-4.7
			c4,0,6.3,0,6.3,0L280.4,290.2z"/>
		<path class="st1" d="M275.3,123.7c-5.8-3.3-13.1-1.4-16.4,4.4l20.8,12C283,134.4,281.1,127,275.3,123.7z"/>
		<circle class="st7" cx="258.2" cy="125.2" r="2.2"/>
		<polygon class="st9" points="285.7,153.6 247.5,163.3 228.9,208.6 241.9,208.6 253.4,180.6 249.6,212.5 282.7,212.5 		"/>
		<polyline class="st1" points="249.6,212.5 240.6,239.7 255.2,273.8 267.2,273.8 256.5,241.4 266.4,231.6 268.8,290.2 282.7,290.2 
			282.7,212.5 		"/>
		<circle class="st4" cx="234.7" cy="217.8" r="2.6"/>
		<polygon class="st4" points="279.2,150.8 279.7,140.1 271.3,135.2 271.3,148.8 		"/>
		<path class="st6" d="M263.4,160l15.8-3.9v-5.4l-7.9-1.9v-2.6c0,0,4.6-1.6,4.6-3.9c0-3.2-4.6-1.3-4.6-1.3v-5.8l-10-5.7l-1.1,8.4
			c0,0-4.5-1.7-5,1.1c-0.6,3.5,4,2.9,4,2.9l-1,11.1l6-1.4L263.4,160z"/>
		<circle class="st4" cx="265.6" cy="137.4" r="0.7"/>
		<line class="st10" x1="254" y1="125.3" x2="279.7" y2="140.1"/>
		<line class="st10" x1="260.4" y1="146.7" x2="265.6" y2="144.8"/>
		<polygon class="st4" points="266.4,231.6 273,225 266.5,235.2 		"/>
		<polygon class="st4" points="253.4,180.6 258,171.1 252.9,185.2 		"/>
		<path class="st9" d="M285.7,153.6l11.5,33c0.4,1.3-0.5,2.5-1.9,2.5h-15.6L285.7,153.6z"/>
		<polygon class="st4" points="283.8,189.2 284.4,176.2 285.7,189.2 		"/>
	</g>
	<polygon class="st11" points="85.4,71 25.6,130.8 63,168.2 169.6,168.3 171.7,157.1 	"/>
	<polygon class="st11" points="85.4,71 25.6,130.8 63,168.2 169.6,168.3 171.7,157.1 	"/>
	<g>
		<polygon class="st12" points="89.8,140.4 88,150.5 80.4,138.6 83.1,130.2 		"/>
		<polygon class="st12" points="89.8,121.3 83.1,130.2 89.8,140.4 92.6,126.3 		"/>
		<polygon class="st12" points="110.4,118 105.2,104.7 110.4,98.6 111.8,104.7 		"/>
		<polygon class="st12" points="105.2,90.8 105.2,104.7 110.4,98.6 110.5,96 		"/>
		<polygon class="st13" points="105.2,90.8 105.2,104.7 110.4,98.6 110.5,96 		"/>
		<polygon class="st14" points="111.8,44.4 105.2,44.4 105.2,90.8 110.5,96 		"/>
		<polygon class="st11" points="111.8,44.4 110.5,96 112.3,97.8 116.2,44.4 		"/>
		<polygon class="st14" points="111.8,44.4 110.5,96 112.3,97.8 116.2,44.4 		"/>
		<polygon class="st15" points="111.8,44.4 105.2,44.4 105.2,90.8 110.5,96 		"/>
		<polygon class="st15" points="111.8,44.4 105.2,44.4 105.2,90.8 110.5,96 		"/>
		<polygon class="st15" points="111.8,44.4 110.5,96 112.3,97.8 116.2,44.4 		"/>
		<polygon class="st12" points="110.4,98.6 111.8,104.7 112.3,97.8 110.5,96 		"/>
		<path class="st16" d="M94.8,80.4"/>
		<polygon class="st14" points="85.1,49.8 80.4,49.8 80.4,76.1 84.5,71.9 		"/>
		<polygon class="st15" points="85.1,49.8 80.4,49.8 80.4,76.1 84.5,71.9 		"/>
		<polygon class="st15" points="85.1,49.8 80.4,49.8 80.4,76.1 84.5,71.9 		"/>
		<polygon class="st12" points="80.4,76.1 80.4,138.6 83.1,130.2 84.5,71.9 		"/>
		<polygon class="st13" points="89.8,140.4 88,150.5 80.4,138.6 83.1,130.2 		"/>
		<polygon class="st13" points="80.4,76.1 80.4,138.6 83.1,130.2 84.5,71.9 		"/>
		<polygon class="st13" points="89.8,140.4 88,150.5 80.4,138.6 83.1,130.2 		"/>
		<polygon class="st13" points="80.4,76.1 80.4,138.6 83.1,130.2 84.5,71.9 		"/>
		<polygon class="st14" points="85.4,71 89.8,75.4 89.8,49.8 85.1,49.8 84.5,71.9 		"/>
		<polygon class="st15" points="85.4,71 89.8,75.4 89.8,49.8 85.1,49.8 84.5,71.9 		"/>
		<polygon class="st12" points="85.4,71 84.5,71.9 83.1,130.2 89.8,121.3 89.8,75.4 		"/>
		<polygon class="st13" points="85.4,71 84.5,71.9 83.1,130.2 89.8,121.3 89.8,75.4 		"/>
		<polygon class="st14" points="92.6,78.2 92.6,49.8 89.8,49.8 89.8,75.4 		"/>
		<polygon class="st12" points="89.8,75.4 89.8,121.3 92.6,126.3 92.6,78.2 		"/>
		<polygon class="st12" points="61.3,110.2 65.9,116 68.3,111.9 64.5,104.7 		"/>
		<polygon class="st12" points="64.4,92.1 61.3,95.1 61.3,110.2 64.5,104.7 		"/>
		<polygon class="st13" points="64.4,92.1 61.3,95.1 61.3,110.2 64.5,104.7 		"/>
		<polygon class="st14" points="63.8,26 61.3,26 61.3,95.1 64.4,92.1 		"/>
		<polygon class="st12" points="64.4,92.1 64.5,104.7 68.3,111.9 68.3,88.1 		"/>
		<polygon class="st14" points="68.3,88.1 68.3,26 63.8,26 64.4,92.1 		"/>
		<polygon class="st15" points="63.8,26 61.3,26 61.3,95.1 64.4,92.1 		"/>
		<polygon class="st15" points="63.8,26 61.3,26 61.3,95.1 64.4,92.1 		"/>
		<polygon class="st15" points="68.3,88.1 68.3,26 63.8,26 64.4,92.1 		"/>
		<polygon class="st14" points="127.7,82 126.6,74.9 127.7,67.7 130.4,74.8 		"/>
		<polygon class="st14" points="130.4,74.8 130.4,17.6 127.7,17.6 127.7,67.7 		"/>
		<polygon class="st14" points="126.6,74.9 125.6,17.6 127.7,17.6 127.7,67.7 		"/>
		<polygon class="st15" points="130.4,74.8 130.4,17.6 127.7,17.6 127.7,67.7 		"/>
		<polygon class="st15" points="126.6,74.9 125.6,17.6 127.7,17.6 127.7,67.7 		"/>
		<polygon class="st15" points="126.6,74.9 125.6,17.6 127.7,17.6 127.7,67.7 		"/>
		<polygon class="st14" points="53.9,85 51.2,71.1 53.9,61.9 55.4,73.5 		"/>
		<polygon class="st14" points="53.9,61.9 53.9,15.4 55.9,15.4 55.4,73.5 		"/>
		<polygon class="st14" points="51.2,71.1 51.2,15.4 53.9,15.4 53.9,61.9 		"/>
		<polygon class="st15" points="53.9,61.9 53.9,15.4 55.9,15.4 55.4,73.5 		"/>
		<polygon class="st15" points="51.2,71.1 51.2,15.4 53.9,15.4 53.9,61.9 		"/>
		<polygon class="st15" points="51.2,71.1 51.2,15.4 53.9,15.4 53.9,61.9 		"/>
	</g>
	<g>
		<polygon class="st14" points="227.3,296.7 221.6,312.5 230.3,321.1 237.4,310.9 		"/>
		<polygon class="st14" points="237.4,310.9 230.3,321.1 236.1,354.7 243.1,347.7 		"/>
		<polygon class="st15" points="237.4,310.9 230.3,321.1 236.1,354.7 243.1,347.7 		"/>
		<polygon class="st14" points="221.6,312.5 230.3,321.1 236.1,354.7 223.2,346.7 		"/>
		<polygon class="st15" points="221.6,312.5 230.3,321.1 236.1,354.7 223.2,346.7 		"/>
		<polygon class="st15" points="221.6,312.5 230.3,321.1 236.1,354.7 223.2,346.7 		"/>
	</g>
	<g>
		<polygon class="st14" points="190.5,272.4 198.6,275.8 202.9,274 199.1,267.2 193.3,268.4 		"/>
		<polygon class="st14" points="187.1,280.4 190.5,272.4 198.6,275.8 202.2,284.8 		"/>
		<polygon class="st14" points="208.9,283 202.9,274 198.6,275.8 202.2,284.8 		"/>
		<polygon class="st15" points="187.1,280.4 190.5,272.4 198.6,275.8 202.2,284.8 		"/>
		<polygon class="st15" points="187.1,280.4 190.5,272.4 198.6,275.8 202.2,284.8 		"/>
		<polygon class="st15" points="208.9,283 202.9,274 198.6,275.8 202.2,284.8 		"/>
	</g>
	<polygon class="st17" points="176.2,161.7 171.7,157.1 169.6,168.3 175.5,165.6 192.2,168.8 192.9,164.9 	"/>
</g>
</svg>
