<?xml version="1.0" encoding="utf-8"?>
<!-- Generator: Adobe Illustrator 22.1.0, SVG Export Plug-In . SVG Version: 6.00 Build 0)  -->
<svg version="1.1" id="Layer_1" xmlns="http://www.w3.org/2000/svg" xmlns:xlink="http://www.w3.org/1999/xlink" x="0px" y="0px"
	 viewBox="0 0 540 450" style="enable-background:new 0 0 540 450;" xml:space="preserve">
<style type="text/css">
	.st0{fill:#EB5C5E;}
	.st1{fill:#5B5BA5;}
	.st2{fill:#691B33;}
	.st3{fill:#4F1526;}
	.st4{fill:#9C9CC9;}
	.st5{fill:#EA5B5D;}
	.st6{opacity:0.45;fill:#EA5B5D;enable-background:new    ;}
	.st7{fill:#FBDE1D;}
	.st8{fill:#F8B133;}
	.st9{opacity:0.45;fill:#F8B133;enable-background:new    ;}
	.st10{fill:#48B276;}
	.st11{opacity:0.45;fill:#48B276;enable-background:new    ;}
	.st12{fill:#1D1D1B;}
	.st13{fill:#F4AFAA;}
	.st14{fill:#FFFFFF;}
	.st15{fill:#F6BFBB;}
	.st16{fill:none;stroke:#1D1D1B;stroke-width:0.8075;stroke-linecap:round;stroke-miterlimit:10;}
</style>
<g>
	<polygon class="st0" points="220.8,63.9 19.5,418.7 520.5,418.7 512.8,255.1 	"/>
	<g>
		<rect x="214.1" y="214.1" class="st1" width="28.5" height="28.5"/>
		<rect x="220.7" y="242.6" class="st2" width="28.5" height="6.8"/>
		<rect x="214.1" y="242.6" class="st3" width="6.6" height="6.8"/>
		<rect x="220.7" y="214.1" class="st4" width="28.5" height="28.5"/>
		<g>
			<polygon class="st5" points="238.1,228.7 235,234.8 226.2,231.1 229.8,221.8 			"/>
			<polygon class="st5" points="242.5,224.4 242.5,231.1 238.1,228.7 229.8,221.8 			"/>
			<polygon class="st5" points="242.5,238.3 242.5,231.1 238.1,228.7 235,234.8 238.8,242.5 			"/>
			<polygon class="st5" points="226.2,231.1 235,234.8 238.8,242.5 232.8,242.5 			"/>
			<polygon class="st6" points="238.1,228.7 235,234.8 226.2,231.1 229.8,221.8 			"/>
			<polygon class="st6" points="242.5,238.3 242.5,231.1 238.1,228.7 235,234.8 238.8,242.5 			"/>
			<polygon class="st6" points="226.2,231.1 235,234.8 238.8,242.5 232.8,242.5 			"/>
			<polygon class="st6" points="238.1,228.7 235,234.8 226.2,231.1 229.8,221.8 			"/>
			<polygon class="st6" points="226.2,231.1 235,234.8 238.8,242.5 232.8,242.5 			"/>
		</g>
	</g>
	<g>
		<rect x="179.7" y="214.1" class="st1" width="28.5" height="28.5"/>
		<rect x="186.3" y="242.6" class="st2" width="28.5" height="6.8"/>
		<rect x="179.7" y="242.6" class="st3" width="6.6" height="6.8"/>
		<rect x="186.3" y="214.1" class="st4" width="28.5" height="28.5"/>
		<g>
			<polygon class="st7" points="196,237.5 194.6,227.8 204.2,222.9 209.7,225.1 			"/>
			<polygon class="st8" points="199,243 196,237.5 191.5,238.7 			"/>
			<polygon class="st7" points="209.7,225.1 209.7,233.4 199,243 196,237.5 			"/>
			<polygon class="st9" points="209.7,225.1 209.7,233.4 199,243 196,237.5 			"/>
			<polygon class="st8" points="194.6,227.8 191.5,238.7 196,237.5 			"/>
		</g>
	</g>
	<g>
		<rect x="196.3" y="178.7" class="st1" width="28.5" height="28.5"/>
		<rect x="202.9" y="207.3" class="st2" width="28.5" height="6.8"/>
		<rect x="196.3" y="207.3" class="st3" width="6.6" height="6.8"/>
		<rect x="202.9" y="178.7" class="st4" width="28.5" height="28.5"/>
		<g>
			<polygon class="st10" points="218,206.4 214.6,198 210.1,196.1 207.9,203.9 213,207.3 			"/>
			<polygon class="st11" points="218,206.4 214.6,198 210.1,196.1 207.9,203.9 213,207.3 			"/>
			<polygon class="st11" points="218,206.4 214.6,198 210.1,196.1 207.9,203.9 213,207.3 			"/>
			<polygon class="st10" points="226.4,203 218,206.4 214.6,198 218.6,188.7 			"/>
			<polygon class="st11" points="226.4,203 218,206.4 214.6,198 218.6,188.7 			"/>
			<polygon class="st10" points="212.3,185.1 210.1,196.1 214.6,198 218.6,188.7 			"/>
		</g>
	</g>
	<path class="st2" d="M225.7,404.8c-7.6,0-13.8,6.2-13.8,13.8h27.6C239.5,410.9,233.3,404.8,225.7,404.8z"/>
	<rect x="215.6" y="396.8" class="st2" width="20.3" height="16.6"/>
	<rect x="215.6" y="396.8" class="st12" width="20.3" height="8"/>
	<path class="st2" d="M262.6,404.8c-7.6,0-13.8,6.2-13.8,13.8h27.6C276.4,410.9,270.3,404.8,262.6,404.8z"/>
	<rect x="252.5" y="396.8" class="st2" width="20.3" height="16.6"/>
	<rect x="252.5" y="396.8" class="st12" width="20.3" height="8"/>
	<rect x="184.4" y="286.5" class="st2" width="125.9" height="11.5"/>
	<polygon class="st1" points="199.7,260.8 199.9,274.8 293.6,274.8 293.6,260.8 	"/>
	<polygon class="st12" points="199.7,260.8 199.9,262.8 293.6,262.8 293.6,260.8 	"/>
	<polygon class="st10" points="199.7,272.5 199.9,286.5 293.6,286.5 293.6,272.5 	"/>
	<rect x="116.5" y="249.4" class="st7" width="267.9" height="11.4"/>
	<path class="st1" d="M206.2,155.8l-46.3,81.8c-3,5.2,0.8,11.7,6.9,11.7h44.9h107.8c7.9,0,13-8.5,9.2-15.4l-42.1-78.1L206.2,155.8
		L206.2,155.8z"/>
	<path class="st13" d="M285.7,246.1l8.3-13.2h-15.2c-3.6,0-7.1,1.4-9.6,4l-9.2,9.2H285.7z"/>
	<path class="st10" d="M199.9,286.5c2.3,19.7,13.6,115.7,13.6,115.7l25.5-1.5l2.9-116.7C242.5,256.5,196.9,260.7,199.9,286.5z"/>
	<path class="st10" d="M293.4,287.1c-3.1,19.6-17.8,115.1-17.8,115.1l-25.4-2.5l1.3-116.7C252,255.5,297.4,261.4,293.4,287.1z"/>
	<polygon class="st12" points="226.2,223.2 230.8,221.5 234.5,246.1 	"/>
	<rect x="233.3" y="246.1" class="st14" width="47.9" height="3.2"/>
	<path class="st13" d="M211.6,246.1l4.9-13.2h9.5c3.6,0,7.1,1.4,9.6,4l9.2,9.2H211.6z"/>
	<polygon class="st13" points="242.6,148.1 242.6,157.5 260.8,159.9 257.2,148.1 	"/>
	<path class="st12" d="M242.6,148.9c3.2,1.6,6.9,2.4,10.7,2.4c1.6,0,3.2-0.2,4.8-0.5l-0.8-2.8h-14.6v0.9H242.6z"/>
	
		<ellipse transform="matrix(0.1602 -0.9871 0.9871 0.1602 86.9781 351.2305)" class="st13" cx="249.9" cy="124.5" rx="24.7" ry="24.7"/>
	<path class="st13" d="M272.6,114.9c0,0,4-4,8,0s-6.3,13.5-6.3,13.5L272.6,114.9z"/>
	<path class="st13" d="M227.7,114.9c0,0-4-4-8,0s6.3,13.5,6.3,13.5L227.7,114.9z"/>
	<circle class="st12" cx="240.6" cy="131.8" r="2"/>
	<circle class="st12" cx="259.3" cy="131.8" r="2"/>
	<circle class="st15" cx="249.9" cy="137.3" r="4"/>
	<line class="st16" x1="240.6" y1="141.7" x2="249.9" y2="146"/>
	<path class="st2" d="M240.6,113.1c0,0,0.3,23.7,33.9,11.4c3.7-22.2-9-39.7-31.9-24.7c-14.9-5.9-20.8,10.7-13.4,20.9L240.6,113.1z"
		/>
</g>
</svg>
